<svg preserveAspectRatio="none" width="100%" height="100%" overflow="visible" style="display: block;" viewBox="0 0 100 100" fill="none" xmlns="http://www.w3.org/2000/svg">
<g id="apartment_icon">
<g id="apartment_icon_2">
<path id="Vector" d="M87.7143 6H50C48.3329 6 46.7341 6.66224 45.5553 7.84104C44.3765 9.01984 43.7143 10.6186 43.7143 12.2857V43.7143H12.2857C10.6186 43.7143 9.01984 44.3765 7.84104 45.5553C6.66224 46.7341 6 48.3329 6 50V94H94V12.2857C94 10.6186 93.3378 9.01984 92.159 7.84104C90.9802 6.66224 89.3814 6 87.7143 6ZM28 87.7143V65.7143H40.5714V87.7143H28ZM87.7143 87.7143H46.8571V62.5714C46.8571 61.7379 46.526 60.9385 45.9366 60.3491C45.3472 59.7597 44.5478 59.4286 43.7143 59.4286H24.8571C24.0236 59.4286 23.2242 59.7597 22.6348 60.3491C22.0454 60.9385 21.7143 61.7379 21.7143 62.5714V87.7143H12.2857V50H50V12.2857H87.7143V87.7143Z" fill="var(--fill-0, #D2245F)"/>
</g>
<path id="Vector_2" d="M56.25 20H62.5V26.25H56.25V20ZM75 20H81.25V26.25H75V20ZM56.25 38.75H62.5V45H56.25V38.75ZM75 38.75H81.25V45H75V38.75ZM56.25 57.5H62.5V63.75H56.25V57.5ZM75 57.5H81.25V63.75H75V57.5Z" fill="var(--fill-0, #D2245F)"/>
</g>
</svg>
