<svg preserveAspectRatio="none" width="100%" height="100%" overflow="visible" style="display: block;" viewBox="0 0 36 24" fill="none" xmlns="http://www.w3.org/2000/svg">
<g id="czyste_powietrze_logo 1" clip-path="url(#clip0_0_121)">
<path id="Vector" d="M0.0704229 14.4424C0.0231429 14.2954 0 14.1177 0 13.9103C0 13.7028 0.0231429 13.5251 0.0704229 13.3781C0.117291 13.2306 0.190423 13.1096 0.290126 13.0149C0.390274 12.9201 0.518709 12.8504 0.675566 12.8052C0.833006 12.7598 1.02185 12.7376 1.24272 12.7376C1.38816 12.7376 1.52016 12.7442 1.63971 12.7581C1.75927 12.7716 1.87485 12.7947 1.98658 12.8277V13.4409C1.77843 13.381 1.57371 13.3507 1.37431 13.3507C1.17446 13.3507 1.0319 13.3946 0.946011 13.4817C0.859577 13.5689 0.816583 13.7119 0.816583 13.9104C0.816583 14.1085 0.859577 14.2506 0.946011 14.3364C1.03186 14.4223 1.17446 14.4649 1.37431 14.4649C1.57375 14.4649 1.77847 14.4348 1.98658 14.3749V14.9881C1.87488 15.0212 1.7593 15.0447 1.63971 15.0579C1.52013 15.0716 1.38813 15.0781 1.24272 15.0781C1.02185 15.0781 0.833006 15.0565 0.675566 15.0129C0.518709 14.9695 0.390274 14.9004 0.290126 14.8058C0.190423 14.7111 0.117257 14.5898 0.0704229 14.4425M4.34544 14.4289H3.28389L4.30862 13.324V12.7918H2.32248V13.3914H3.31149L2.28562 14.4921V15.0245H4.34547V14.4289L4.34544 14.4289ZM5.90143 15.6105C5.96757 15.5145 6.02643 15.3953 6.07814 15.2544L6.98942 12.7918H6.1597L5.75599 14.0952L5.27928 12.7918H4.4137L5.3927 15.056L5.36126 15.155C5.33098 15.2423 5.27925 15.3054 5.20711 15.3445C5.13439 15.3834 5.02711 15.4033 4.88496 15.4033C4.83381 15.4033 4.7771 15.3995 4.7148 15.3922C4.65322 15.3844 4.59209 15.3733 4.53137 15.3581V15.9713C4.60022 15.9864 4.67081 15.9976 4.74237 16.0053C4.81337 16.0127 4.88379 16.0165 4.95322 16.0165C5.10737 16.0165 5.24235 16.0031 5.3591 15.976C5.47581 15.9486 5.57825 15.9054 5.66739 15.8452C5.75654 15.7849 5.83481 15.707 5.90139 15.6105M8.84225 14.9004C9.00411 14.7817 9.0851 14.5884 9.0851 14.3206C9.0851 14.1614 9.05695 14.0357 8.99911 13.9441C8.94141 13.8523 8.87081 13.7826 8.78613 13.7343C8.70127 13.6864 8.60942 13.653 8.50913 13.6349C8.40957 13.6169 8.31758 13.603 8.23214 13.5922C8.148 13.5818 8.07686 13.5689 8.0197 13.554C7.96183 13.5389 7.93327 13.5088 7.93327 13.4636C7.93327 13.4155 7.95357 13.381 7.99485 13.3598C8.03513 13.3391 8.10113 13.3284 8.19141 13.3284C8.31854 13.3284 8.44413 13.3367 8.56855 13.3533C8.69198 13.3699 8.8164 13.3946 8.94027 13.4277V12.8277C8.68042 12.7674 8.40957 12.7376 8.1287 12.7376C7.77127 12.7376 7.51413 12.7956 7.35514 12.9112C7.19544 13.0272 7.11672 13.2156 7.11672 13.4772C7.11672 13.6338 7.14586 13.7562 7.20257 13.8446C7.26041 13.9332 7.33142 14.0017 7.41614 14.0501C7.50099 14.0978 7.59285 14.1312 7.69255 14.1492C7.79225 14.1676 7.88527 14.1822 7.96954 14.1944C8.05382 14.2068 8.12541 14.2213 8.18253 14.2396C8.23982 14.2573 8.2691 14.2904 8.2691 14.3387C8.2691 14.3896 8.24654 14.4274 8.20296 14.4512C8.15952 14.4755 8.08738 14.4876 7.98768 14.4876C7.71569 14.4876 7.44154 14.4468 7.16667 14.3656V14.9703C7.43866 15.0422 7.73554 15.0781 8.05539 15.0781C8.41882 15.0781 8.68097 15.0193 8.84225 14.9004ZM9.60655 12.2098V12.7917H9.2304V13.3913H9.60655V14.1897C9.60655 14.5054 9.68256 14.7326 9.83342 14.8708C9.98486 15.0093 10.2343 15.0781 10.5823 15.0781C10.748 15.0781 10.9016 15.063 11.0403 15.0335V14.4288C10.9253 14.4531 10.8161 14.4649 10.7138 14.4649C10.6047 14.4649 10.526 14.4409 10.4781 14.3928C10.4297 14.345 10.4049 14.265 10.4049 14.1539V13.3913H11.0403V12.7917H10.4049V12.0786L9.60658 12.2097L9.60655 12.2098ZM13.4894 14.1403H12.0061C12.0248 14.2638 12.0798 14.3513 12.1724 14.4042C12.2642 14.4569 12.4097 14.4829 12.6095 14.4829C12.8694 14.4829 13.1315 14.4469 13.3947 14.3748V14.9703C13.2675 15.0094 13.1342 15.037 12.9955 15.0535C12.8563 15.0701 12.7064 15.0781 12.5462 15.0781C12.3132 15.0781 12.114 15.0565 11.9471 15.0129C11.7814 14.9695 11.6443 14.9004 11.537 14.8058C11.4301 14.7111 11.3514 14.5898 11.3013 14.4425C11.2511 14.2955 11.2258 14.1178 11.2258 13.9104C11.2258 13.7029 11.2496 13.5252 11.2941 13.3781C11.3393 13.2307 11.4103 13.1097 11.505 13.0149C11.6003 12.9202 11.7226 12.8504 11.8707 12.8053C12.0183 12.7598 12.1956 12.7377 12.4014 12.7377C12.5947 12.7377 12.7621 12.7593 12.9024 12.8027C13.043 12.8466 13.1569 12.9145 13.245 13.0058C13.3326 13.0979 13.3976 13.2151 13.4395 13.358C13.4817 13.5009 13.5037 13.6727 13.5037 13.874C13.5037 13.9706 13.4988 14.0589 13.4894 14.1403ZM12.7373 13.6396C12.7301 13.5164 12.701 13.4268 12.6481 13.371C12.5953 13.3154 12.5133 13.2876 12.4014 13.2876C12.277 13.2876 12.184 13.3154 12.1223 13.371C12.0596 13.4268 12.022 13.5164 12.0061 13.6396H12.7372H12.7373ZM15.6396 15.9623H14.8417V12.7917H15.4453L15.508 12.9676C15.6924 12.8139 15.937 12.7376 16.2425 12.7376C16.4214 12.7376 16.574 12.7597 16.7011 12.8052C16.8284 12.8503 16.9324 12.9201 17.014 13.0148C17.0954 13.1096 17.1548 13.2306 17.1928 13.378C17.2308 13.5251 17.2501 13.7028 17.2501 13.9103C17.2501 14.1177 17.2308 14.2954 17.1928 14.4424C17.1549 14.5897 17.0954 14.711 17.014 14.8057C16.9324 14.9003 16.8284 14.9694 16.7011 15.0128C16.574 15.0564 16.4214 15.078 16.2425 15.078C16.0074 15.078 15.8054 15.0258 15.6396 14.9206V15.9622V15.9623ZM15.6396 14.0049C15.6396 14.1676 15.6698 14.2844 15.7304 14.3564C15.791 14.4288 15.8907 14.4648 16.03 14.4648C16.1749 14.4648 16.2794 14.4222 16.3427 14.3363C16.4066 14.2505 16.438 14.1084 16.438 13.9103C16.438 13.7118 16.4066 13.5688 16.3427 13.4816C16.2794 13.3945 16.1749 13.3506 16.03 13.3506C15.8907 13.3506 15.791 13.3868 15.7304 13.4591C15.6698 13.5311 15.6396 13.6502 15.6396 13.8155V14.0048V14.0049ZM18.7379 15.0781C18.5166 15.0781 18.3283 15.0565 18.1708 15.0129C18.0133 14.9694 17.8856 14.9004 17.7859 14.8058C17.6857 14.711 17.6119 14.5897 17.5651 14.4424C17.5177 14.2954 17.4947 14.1177 17.4947 13.9103C17.4947 13.7028 17.5177 13.5251 17.5651 13.3781C17.6118 13.2306 17.6857 13.1096 17.7859 13.0149C17.8856 12.9201 18.0133 12.8504 18.1708 12.8052C18.3283 12.7598 18.5165 12.7376 18.7379 12.7376C18.9587 12.7376 19.1482 12.7598 19.3044 12.8052C19.462 12.8504 19.5909 12.9201 19.6904 13.0149C19.7901 13.1096 19.8634 13.2306 19.9107 13.3781C19.957 13.5251 19.9805 13.7028 19.9805 13.9103C19.9805 14.1177 19.957 14.2954 19.9107 14.4424C19.8634 14.5897 19.7901 14.711 19.6904 14.8058C19.5909 14.9004 19.462 14.9694 19.3044 15.0129C19.1482 15.0565 18.9587 15.0781 18.7379 15.0781ZM18.4114 14.3363C18.4774 14.4222 18.5871 14.4649 18.7379 14.4649C18.8921 14.4649 19.0023 14.4222 19.0694 14.3363C19.1354 14.2505 19.169 14.1085 19.169 13.9103C19.169 13.7119 19.1354 13.5688 19.0694 13.4816C19.0023 13.3945 18.8921 13.3506 18.7379 13.3506C18.5871 13.3506 18.4774 13.3945 18.4114 13.4816C18.3443 13.5688 18.3111 13.7119 18.3111 13.9103C18.3111 14.1084 18.3443 14.2505 18.4114 14.3363ZM21.5956 15.0244L21.9171 13.5897L22.2443 15.0244H23.1103L23.7683 12.7917H22.9694L22.6429 14.2303L22.3207 12.7917H21.518L21.1914 14.2303L20.865 12.7917H20.0665L20.729 15.0244H21.5956ZM24.7886 12.7917H23.9907V15.0244H24.7886V12.7917ZM24.3894 12.6381C24.5536 12.6381 24.6691 12.6042 24.739 12.5368C24.8084 12.4689 24.8437 12.3587 24.8437 12.2052C24.8437 12.0519 24.8084 11.9407 24.739 11.8714C24.6691 11.8025 24.5536 11.7677 24.3894 11.7677C24.2291 11.7677 24.113 11.8025 24.0424 11.8714C23.9715 11.9407 23.9363 12.0519 23.9363 12.2052C23.9363 12.3587 23.9715 12.469 24.0424 12.5368C24.113 12.6042 24.2291 12.6381 24.3894 12.6381ZM27.3793 14.1402H25.8958C25.9136 14.2637 25.9691 14.3512 26.061 14.4042C26.153 14.4569 26.2995 14.4829 26.4988 14.4829C26.7593 14.4829 27.0203 14.4468 27.2834 14.3748V14.9702C27.1568 15.0093 27.0236 15.037 26.8843 15.0535C26.745 15.0701 26.5951 15.0781 26.4356 15.0781C26.202 15.0781 26.0027 15.0565 25.837 15.0129C25.6701 14.9694 25.533 14.9004 25.4257 14.8058C25.3188 14.711 25.2401 14.5897 25.19 14.4424C25.1404 14.2954 25.1157 14.1177 25.1157 13.9103C25.1157 13.7028 25.1383 13.5251 25.1828 13.3781C25.2285 13.2306 25.2989 13.1096 25.3937 13.0149C25.4895 12.9201 25.6113 12.8504 25.7594 12.8052C25.9068 12.7598 26.0847 12.7376 26.2901 12.7376C26.4834 12.7376 26.6507 12.7592 26.7911 12.8027C26.9321 12.8465 27.0455 12.9144 27.1337 13.0058C27.2217 13.0978 27.2863 13.215 27.3291 13.3579C27.371 13.5008 27.3924 13.6727 27.3924 13.8739C27.3924 13.9705 27.388 14.0589 27.3793 14.1402ZM26.626 13.6395C26.62 13.5164 26.5903 13.4267 26.5368 13.3709C26.484 13.3154 26.4018 13.2875 26.2901 13.2875C26.1657 13.2875 26.0731 13.3154 26.011 13.3709C25.9492 13.4267 25.9107 13.5164 25.8958 13.6395H26.626ZM27.9144 12.2097V12.7916H27.5373V13.3912H27.9144V14.1896C27.9144 14.5053 27.9898 14.7325 28.1407 14.8707C28.2921 15.0092 28.5416 15.078 28.889 15.078C29.0553 15.078 29.2084 15.0629 29.3471 15.0334V14.4287C29.2325 14.453 29.1236 14.4648 29.0211 14.4648C28.9121 14.4648 28.8334 14.4408 28.785 14.3927C28.7364 14.3449 28.7123 14.2649 28.7123 14.1538V13.3912H29.3472V12.7916H28.7123V12.0785L27.9144 12.2096L27.9144 12.2097ZM30.4633 13.8878C30.4633 13.7044 30.5061 13.5719 30.5926 13.4906C30.679 13.4095 30.8184 13.369 31.0121 13.369C31.048 13.369 31.086 13.3703 31.1256 13.3734C31.1647 13.3761 31.2044 13.3808 31.2434 13.3868V12.7509C31.1823 12.7419 31.1118 12.7375 31.0298 12.7375C30.7275 12.7375 30.4951 12.8214 30.3315 12.9902L30.2501 12.7916H29.6648V15.0243H30.4633V13.8878ZM31.4433 15.0243H33.5021V14.4287H32.4405L33.4663 13.3239V12.7917H31.4791V13.3912H32.468L31.4433 14.492V15.0244V15.0243ZM35.9698 13.8739C35.9698 13.9705 35.9655 14.0588 35.9555 14.1402H34.4728C34.4909 14.2637 34.5459 14.3512 34.6385 14.4041C34.7305 14.4568 34.8769 14.4828 35.0762 14.4828C35.3367 14.4828 35.5982 14.4468 35.8608 14.3747V14.9702C35.7342 15.0093 35.6009 15.0369 35.4616 15.0534C35.3224 15.07 35.1726 15.078 35.0124 15.078C34.7799 15.078 34.5801 15.0564 34.4144 15.0128C34.2475 14.9694 34.1105 14.9003 34.0031 14.8057C33.8962 14.711 33.8175 14.5897 33.7673 14.4424C33.7178 14.2954 33.6925 14.1177 33.6925 13.9103C33.6925 13.7028 33.7156 13.5251 33.7608 13.378C33.8065 13.2306 33.8764 13.1096 33.9717 13.0148C34.0669 12.9201 34.1886 12.8503 34.3368 12.8052C34.4848 12.7597 34.6617 12.7376 34.8675 12.7376C35.0608 12.7376 35.2282 12.7592 35.3685 12.8026C35.5095 12.8465 35.6235 12.9144 35.7111 13.0057C35.7993 13.0978 35.8637 13.2149 35.9065 13.3579C35.9489 13.5008 35.9698 13.6726 35.9698 13.8739ZM35.203 13.6395C35.1974 13.5164 35.1677 13.4267 35.1142 13.3709C35.0619 13.3154 34.9794 13.2875 34.8675 13.2875C34.7431 13.2875 34.6506 13.3154 34.5889 13.3709C34.5266 13.4267 34.4882 13.5164 34.4728 13.6395H35.203ZM0.07152 20.4546H2.51568V19.7474H1.25595L2.47269 18.4359V17.8041H0.114549V18.5165H1.28839L0.07152 19.8228V20.4546ZM2.80968 19.7636C2.76453 19.5891 2.74197 19.3781 2.74197 19.1321C2.74197 18.8858 2.76453 18.6756 2.80968 18.5003C2.85425 18.3251 2.92481 18.182 3.02167 18.0695C3.11866 17.957 3.24254 17.8737 3.39339 17.8203C3.54425 17.7666 3.72538 17.7398 3.93741 17.7398C4.21382 17.7398 4.45227 17.8026 4.6537 17.9277V16.6857H5.60143V20.4546H4.88499L4.80898 20.2455C4.58712 20.4275 4.29641 20.5189 3.93741 20.5189C3.72542 20.5189 3.54425 20.4926 3.39339 20.4409C3.24254 20.3891 3.1187 20.3071 3.02167 20.1948C2.92481 20.0823 2.85425 19.9382 2.80968 19.7636ZM3.71112 19.1321C3.71112 19.3676 3.74798 19.5362 3.82183 19.6376C3.89496 19.7395 4.01784 19.7905 4.19013 19.7905C4.35528 19.7905 4.4737 19.7474 4.54584 19.6624C4.61743 19.5764 4.6537 19.4374 4.6537 19.2443V19.0196C4.6537 18.8233 4.61743 18.6824 4.54584 18.5964C4.4737 18.5112 4.35528 18.4683 4.19013 18.4683C4.01784 18.4683 3.89499 18.5197 3.82183 18.6232C3.74798 18.7273 3.71112 18.8962 3.71112 19.1321ZM7.0224 19.1053C7.0224 18.8879 7.07311 18.7305 7.1761 18.6342C7.27851 18.5378 7.44425 18.4894 7.67383 18.4894C7.71727 18.4894 7.76198 18.4913 7.80867 18.4949C7.85496 18.4987 7.90183 18.5039 7.94853 18.5112V17.756C7.87653 17.7456 7.79225 17.7398 7.69539 17.7398C7.33639 17.7398 7.05998 17.8404 6.86667 18.0397L6.76982 17.8042H6.07539V20.4546H7.0224V19.1053ZM8.20413 19.7636C8.14855 19.5891 8.1204 19.3781 8.1204 19.1321C8.1204 18.8858 8.14855 18.6756 8.20413 18.5003C8.2597 18.3251 8.34669 18.182 8.46514 18.0695C8.58401 17.957 8.73658 17.8737 8.9233 17.8203C9.10989 17.7666 9.33401 17.7398 9.59616 17.7398C9.85817 17.7398 10.0823 17.7666 10.2689 17.8203C10.4556 17.8737 10.6082 17.957 10.727 18.0695C10.8455 18.182 10.9325 18.3251 10.988 18.5003C11.0437 18.6756 11.0717 18.8858 11.0717 19.1321C11.0717 19.3781 11.0437 19.5891 10.988 19.7636C10.9324 19.9382 10.8455 20.0823 10.727 20.1948C10.6082 20.3071 10.4556 20.3891 10.2689 20.4409C10.0823 20.4926 9.85817 20.5189 9.59616 20.5189C9.33401 20.5189 9.10989 20.4926 8.9233 20.4409C8.73658 20.3891 8.58401 20.3071 8.46514 20.1948C8.34672 20.0823 8.2597 19.9382 8.20413 19.7636ZM9.08997 19.1321C9.08997 19.3676 9.12912 19.5362 9.20897 19.6376C9.28769 19.7395 9.41654 19.7905 9.59613 19.7905C9.77883 19.7905 9.91042 19.7395 9.98914 19.6376C10.068 19.5362 10.1076 19.3676 10.1076 19.1321C10.1076 18.8962 10.068 18.7273 9.98914 18.6232C9.91042 18.5198 9.77887 18.4683 9.59613 18.4683C9.41657 18.4683 9.28769 18.5197 9.20897 18.6232C9.12912 18.7273 9.08997 18.8962 9.08997 19.1321ZM11.9598 20.4546H12.9878L13.3705 18.7519L13.7581 20.4546H14.7861L15.5674 17.8041H14.6198L14.2317 19.5124L13.8495 17.8041H12.8964L12.5088 19.5124L12.1216 17.8041H11.1735L11.9598 20.4546H11.9598ZM16.6015 20.8342C16.5145 20.8808 16.3868 20.9038 16.2182 20.9038C16.1577 20.9038 16.0899 20.8997 16.0162 20.8907C15.9435 20.8819 15.8702 20.8682 15.7987 20.8505V21.5786C15.8812 21.5961 15.9644 21.6098 16.0487 21.6188C16.1329 21.6276 16.2167 21.6323 16.2992 21.6323C16.4825 21.6323 16.6428 21.6161 16.7809 21.5841C16.9197 21.5517 17.0414 21.5 17.1471 21.4289C17.2528 21.3574 17.3453 21.2647 17.4241 21.1502C17.5028 21.036 17.5733 20.8951 17.6343 20.7276L18.7169 17.8042H17.7313L17.2528 19.3516L16.6868 17.8042H15.6588L16.8211 20.4918L16.7836 20.6095C16.7479 20.7129 16.6868 20.7881 16.6015 20.8343M21.5702 20.4546L21.9524 18.7519L22.3405 20.4546H23.3691L24.1498 17.8042H23.2017L22.8141 19.5124L22.4319 17.8042H21.4788L21.0912 19.5124L20.7035 17.8042H19.7559L20.5422 20.4546H21.5702ZM25.1828 20.8343C25.0973 20.8809 24.9692 20.9039 24.8006 20.9039C24.7395 20.9039 24.6729 20.8998 24.5991 20.8907C24.5254 20.8819 24.4526 20.8683 24.3811 20.8505V21.5786C24.4631 21.5961 24.5468 21.6099 24.6311 21.6188C24.7154 21.6276 24.799 21.6323 24.8817 21.6323C25.0644 21.6323 25.2252 21.6161 25.364 21.5842C25.5015 21.5518 25.6238 21.5001 25.7301 21.4289C25.8352 21.3575 25.9284 21.2647 26.0071 21.1502C26.0858 21.036 26.1558 20.8951 26.2168 20.7276L27.2988 17.8042H26.3138L25.8348 19.3517L25.2692 17.8042H24.2412L25.4035 20.4918L25.3655 20.6096C25.3298 20.713 25.2693 20.7881 25.1828 20.8343M27.5195 16.6857H28.4678V17.9277C28.5718 17.867 28.682 17.8204 28.7987 17.7887C28.9154 17.756 29.0432 17.7398 29.1829 17.7398C29.3955 17.7398 29.5761 17.7667 29.7275 17.8204C29.8784 17.8738 30.0024 17.957 30.0992 18.0695C30.1955 18.182 30.2666 18.3252 30.3112 18.5004C30.3564 18.6757 30.3789 18.8859 30.3789 19.1322C30.3789 19.3782 30.3564 19.5891 30.3112 19.7637C30.2666 19.9383 30.1955 20.0823 30.0992 20.1948C30.0024 20.3072 29.8784 20.3891 29.7275 20.441C29.5761 20.4927 29.3955 20.519 29.1829 20.519C28.8212 20.519 28.5305 20.4275 28.3108 20.2456L28.2359 20.4546H27.5195V16.6857L27.5195 16.6857ZM28.4678 19.2444C28.4678 19.4374 28.5035 19.5765 28.5751 19.6624C28.6468 19.7475 28.7651 19.7905 28.9308 19.7905C29.1027 19.7905 29.2271 19.7395 29.3019 19.6377C29.3774 19.5363 29.4154 19.3676 29.4154 19.1321C29.4154 18.8962 29.3774 18.7273 29.3019 18.6232C29.2271 18.5198 29.1027 18.4684 28.9308 18.4684C28.7651 18.4684 28.6468 18.5112 28.5751 18.5965C28.5035 18.6824 28.4678 18.8233 28.4678 19.0196V19.2444ZM32.4355 17.5261L33.2592 16.6857H32.2901L31.6222 17.5261H32.4355ZM30.7528 19.7637C30.6972 19.5891 30.6691 19.3782 30.6691 19.1322C30.6691 18.8859 30.6972 18.6756 30.7528 18.5004C30.8089 18.3252 30.8954 18.1821 31.0144 18.0695C31.1323 17.957 31.2852 17.8738 31.472 17.8204C31.6581 17.7667 31.8827 17.7398 32.1448 17.7398C32.4068 17.7398 32.6309 17.7667 32.8181 17.8204C33.0042 17.8738 33.1568 17.957 33.2757 18.0695C33.3935 18.182 33.4811 18.3252 33.5361 18.5004C33.5928 18.6757 33.62 18.8859 33.62 19.1322C33.62 19.3782 33.5928 19.5891 33.5361 19.7637C33.4811 19.9383 33.3935 20.0823 33.2757 20.1948C33.1568 20.3072 33.0042 20.3891 32.8181 20.441C32.6309 20.4927 32.4068 20.519 32.1448 20.519C31.8827 20.519 31.6581 20.4927 31.472 20.441C31.2852 20.3891 31.1323 20.3072 31.0144 20.1948C30.8954 20.0823 30.8089 19.9383 30.7528 19.7637ZM31.6388 19.1322C31.6388 19.3677 31.6778 19.5363 31.7571 19.6377C31.8358 19.7396 31.9653 19.7905 32.1448 19.7905C32.3281 19.7905 32.4587 19.7395 32.5374 19.6377C32.6171 19.5363 32.6563 19.3677 32.6563 19.1322C32.6563 18.8962 32.6171 18.7273 32.5374 18.6232C32.4587 18.5198 32.3281 18.4684 32.1448 18.4684C31.9652 18.4684 31.8358 18.5198 31.7571 18.6232C31.6778 18.7273 31.6388 18.8962 31.6388 19.1322ZM35.1033 18.6343C35.2057 18.5379 35.372 18.4894 35.6015 18.4894C35.6445 18.4894 35.6897 18.4914 35.7358 18.495C35.7827 18.4988 35.8295 18.5039 35.8763 18.5113V17.7561C35.8041 17.7457 35.72 17.7399 35.6224 17.7399C35.264 17.7399 34.9871 17.8404 34.7938 18.0397L34.6968 17.8042H34.0025V20.4547H34.9501V19.1054C34.9501 18.8881 35.0014 18.7307 35.1033 18.6343M0.0422743 23.9876H35.9016V22.3555H0.0422743V23.9876ZM35.9016 6.47524L28.8736 5.3136V1.52255C27.681 2.37864 26.7213 4.1754 26.7103 4.19487C26.6409 4.32626 26.511 4.41278 26.3617 4.42543C26.3491 4.42686 26.3364 4.42713 26.3248 4.42713C26.1904 4.42713 26.061 4.36393 25.979 4.25794L24.9759 2.95863C24.8293 2.76929 24.8663 2.49683 25.0557 2.35123C25.1333 2.29283 25.2247 2.26174 25.321 2.26174C25.4581 2.26174 25.5843 2.32352 25.6668 2.4309L26.2741 3.21741C26.7576 2.44212 27.6804 1.15249 28.7823 0.556039C28.791 0.551062 28.8245 0.535448 28.8736 0.513562V-0.000222156H23.9799V4.50445L17.972 3.51128V1.06723L0.0423086 6.47518V10.7638H35.9016V6.47518L35.9016 6.47524Z" fill="var(--fill-0, white)"/>
</g>
<defs>
<clipPath id="clip0_0_121">
<rect width="36" height="24" fill="white"/>
</clipPath>
</defs>
</svg>
