<svg preserveAspectRatio="none" width="100%" height="100%" overflow="visible" style="display: block;" viewBox="0 0 100 100" fill="none" xmlns="http://www.w3.org/2000/svg">
<g id="floor_plan_icon">
<path id="Vector" d="M89.5714 6H12.4286C8.89286 6 6 8.89286 6 12.4286V89.5714C6 93.1071 8.89286 96 12.4286 96H60.6429V89.5714C60.6429 80.5714 67.7143 73.5 76.7143 73.5V67.0714C64.1786 67.0714 54.2143 77.0357 54.2143 89.5714H44.5714V76.7143H38.1429V89.5714H12.4286V12.4286H38.1429V57.4286H44.5714V41.3571H57.4286V34.9286H44.5714V12.4286H89.5714V34.9286H76.7143V41.3571H89.5714V89.5714H76.7143V96H89.5714C93.1071 96 96 93.1071 96 89.5714V12.4286C96 8.89286 93.1071 6 89.5714 6Z" fill="var(--fill-0, #D2245F)"/>
</g>
</svg>
