<svg preserveAspectRatio="none" width="100%" height="100%" overflow="visible" style="display: block;" viewBox="0 0 100 100" fill="none" xmlns="http://www.w3.org/2000/svg">
<g id="lineicons:helmet-safety-1">
<path id="Vector" d="M52.15 16C57.31 16 61.524 20.2261 61.8078 25.5503C69.6188 28.1696 76.4327 33.3187 81.2662 40.2545C86.0997 47.1902 88.7029 55.5539 88.7 64.1387V70.4981H89.775C90.6303 70.4981 91.4506 70.8537 92.0554 71.4868C92.6602 72.1198 93 72.9784 93 73.8736V80.6245C93 81.5198 92.6602 82.3783 92.0554 83.0113C91.4506 83.6444 90.6303 84 89.775 84H10.225C9.36968 84 8.54939 83.6444 7.94458 83.0113C7.33978 82.3783 7 81.5198 7 80.6245V73.8736C7 72.9784 7.33978 72.1198 7.94458 71.4868C8.54939 70.8537 9.36968 70.4981 10.225 70.4981H11.3V64.1342C11.298 55.5502 13.9016 47.1875 18.7351 40.2526C23.5685 33.3178 30.3819 28.1694 38.1922 25.5503C38.3327 22.9688 39.4114 20.5414 41.2072 18.7657C43.0029 16.9899 45.3796 16.0004 47.85 16H52.15ZM52.15 22.7509H47.85C46.9947 22.7509 46.1744 23.1066 45.5696 23.7396C44.9648 24.3726 44.625 25.2312 44.625 26.1264V37.378C44.625 38.2732 44.2852 39.1318 43.6804 39.7648C43.0756 40.3978 42.2553 40.7535 41.4 40.7535C40.5447 40.7535 39.7244 40.3978 39.1196 39.7648C38.5148 39.1318 38.175 38.2732 38.175 37.378V32.7243C32.1509 35.2093 26.9809 39.5347 23.338 45.1377C19.6951 50.7406 17.748 57.3615 17.75 64.1387V70.4981H33.875V62.622C33.875 61.7268 34.2148 60.8682 34.8196 60.2352C35.4244 59.6022 36.2447 59.2465 37.1 59.2465C37.9553 59.2465 38.7756 59.6022 39.3804 60.2352C39.9852 60.8682 40.325 61.7268 40.325 62.622V70.4981H46.775V62.622C46.775 61.7268 47.1148 60.8682 47.7196 60.2352C48.3244 59.6022 49.1447 59.2465 50 59.2465C50.8553 59.2465 51.6756 59.6022 52.2804 60.2352C52.8852 60.8682 53.225 61.7268 53.225 62.622V70.4981H59.675V62.622C59.675 61.7268 60.0148 60.8682 60.6196 60.2352C61.2244 59.6022 62.0447 59.2465 62.9 59.2465C63.7553 59.2465 64.5756 59.6022 65.1804 60.2352C65.7852 60.8682 66.125 61.7268 66.125 62.622V70.4981H82.25V64.1342C82.252 57.357 80.3049 50.7361 76.662 45.1332C73.0191 39.5302 67.8491 35.2048 61.825 32.7198V37.378C61.825 38.2732 61.4852 39.1318 60.8804 39.7648C60.2756 40.3978 59.4553 40.7535 58.6 40.7535C57.7447 40.7535 56.9244 40.3978 56.3196 39.7648C55.7148 39.1318 55.375 38.2732 55.375 37.378V26.1264C55.375 25.2312 55.0352 24.3726 54.4304 23.7396C53.8256 23.1066 53.0053 22.7509 52.15 22.7509Z" fill="var(--fill-0, #D2245F)"/>
</g>
</svg>
