<svg preserveAspectRatio="none" width="100%" height="100%" overflow="visible" style="display: block;" viewBox="0 0 94 66" fill="none" xmlns="http://www.w3.org/2000/svg">
<g id="Group">
<path id="Vector" d="M16.2 24.3387C16.2 29.1215 24.076 33.0001 33.8 33.0001V24.3387C33.8 20.0787 33.8 17.9444 32.0532 16.6458C30.302 15.3472 28.5684 15.8315 25.1012 16.8044C19.786 18.3001 16.2 21.1072 16.2 24.3387Z" stroke="var(--stroke-0, #D2245F)" stroke-width="6" stroke-linejoin="round"/>
<path id="Vector_2" d="M64.6 18C64.6 26.2843 50.8104 33 33.8 33C16.7896 33 3 26.2843 3 18C3 9.7157 16.7896 3 33.8 3C50.8104 3 64.6 9.7157 64.6 18Z" stroke="var(--stroke-0, #D2245F)" stroke-width="6"/>
<path id="Vector_3" d="M3 20.1429V48.7157C3 56.6014 16.7896 63 33.8 63H82.2C86.3492 63 88.4216 63 89.7108 61.7443C91 60.4886 91 58.47 91 54.4286V41.5715C91 37.53 91 35.5115 89.7108 34.2558C88.4216 33 86.3492 33 82.2 33H33.8" stroke="var(--stroke-0, #D2245F)" stroke-width="6"/>
<path id="Vector_4" d="M73.4001 62.9999V54.4285M55.8001 62.9999V54.4285M38.2001 62.9999V54.4285M20.6001 60.8571V52.2856" stroke="var(--stroke-0, #D2245F)" stroke-width="6" stroke-linecap="round" stroke-linejoin="round"/>
</g>
</svg>
