<svg preserveAspectRatio="none" width="100%" height="100%" overflow="visible" style="display: block;" viewBox="0 0 124.78 81.948" fill="none" xmlns="http://www.w3.org/2000/svg">
<g id="Group">
<path id="Vector" d="M51.0816 50.2686C51.0816 37.574 51.0469 24.8293 51.0469 12.1943C50.9974 12.1614 50.9838 12.1492 50.9675 12.143C50.9526 12.1373 50.9351 12.1364 50.9193 12.1369C50.9018 12.1378 50.8829 12.1399 50.868 12.1474C50.8215 12.172 50.7754 12.1974 50.7311 12.2259C47.4724 14.3206 44.2136 16.4158 40.9544 18.5096C40.9412 18.5184 40.9202 18.5136 40.8847 18.5167C40.8618 18.486 40.8096 18.4482 40.8092 18.4097C40.8 17.726 40.7895 17.0424 40.8013 16.3588C40.8031 16.2391 40.8715 16.0702 40.9649 16.0102C42.9368 14.7372 44.9189 13.4804 46.8943 12.2127C52.9592 8.32015 59.0224 4.42405 65.0855 0.528396C65.3329 0.369658 65.5732 0.200396 65.8697 0C65.9013 0.166631 65.9382 0.27538 65.9395 0.385005C65.9461 0.91077 65.9202 1.43829 65.9509 1.96274C65.9711 2.30915 65.8377 2.49771 65.5526 2.67881C63.6583 3.88206 61.7759 5.10373 59.8895 6.3197C57.9298 7.58347 55.9763 8.85688 54.0053 10.1027C53.6342 10.3373 53.5105 10.5916 53.511 11.0305C53.525 23.0617 53.5123 35.0929 53.5395 47.1241C53.5421 48.2923 53.0281 49.3916 52.4496 50.1077C52.2329 50.3234 52.0798 50.2792 51.886 50.2853C51.6294 50.2932 51.4053 50.3125 51.0816 50.2686Z" fill="var(--fill-0, #F78F2A)"/>
<path id="Vector_2" d="M79.6846 36.0182H63.3925C63.3623 36.173 63.3202 36.2879 63.3197 36.4023C63.3197 40.3997 63.3175 44.3971 63.3346 48.3945C63.3364 48.8321 63.2232 49.1811 62.9136 49.4776C62.4399 49.9305 61.893 50.2471 61.2171 50.4629V34.1528C61.8048 34.0826 62.3965 34.13 62.9846 34.1216C63.5807 34.1133 73.1732 34.1195 73.7697 34.1199C74.3658 34.1203 76.7417 34.1216 77.3982 34.1216V33.445C77.3982 28.2729 77.4061 23.1003 77.3851 17.9282C77.3833 17.4432 77.5417 17.1358 77.9184 16.8806C78.4439 16.5245 78.9886 16.2228 79.6259 16.1255C79.7496 16.5513 79.8066 34.8474 79.6846 36.0182Z" fill="var(--fill-0, #D32360)"/>
<path id="Vector_3" d="M3.43246 58.8734C2.26228 58.844 1.19693 58.8177 0.131579 58.7879C0.105702 58.787 0.0807018 58.744 0 58.669C0.101316 58.5287 0.183772 58.3608 0.313158 58.245C0.685526 57.9131 1.14079 57.8183 1.63158 57.8192C3.94649 57.8249 6.26184 57.821 8.57719 57.8218C15.5228 57.824 22.4684 57.8284 29.414 57.8293C39.0434 57.8306 48.6728 57.8289 58.3022 57.8332C58.5623 57.8332 58.8715 57.7284 59.0829 58.1082C58.4408 58.4607 57.7899 58.7383 57.0618 58.7493C54.4838 58.7879 51.9057 58.8317 49.3276 58.8335C36.1728 58.8427 23.018 58.8392 9.86316 58.8405C8.63553 58.8405 7.40746 58.8422 6.17982 58.8436H5.61535C5.60395 59.0501 5.5864 59.218 5.5864 59.386C5.5864 64.98 5.5886 70.5739 5.5864 76.1679C5.5864 76.4911 5.66404 76.8287 5.36447 77.0997C5.00044 77.4295 4.59167 77.636 4.10307 77.6746C3.92982 77.6882 3.75482 77.6768 3.50351 77.6768V77.0348C3.50351 71.511 3.50526 65.9872 3.50044 60.4634C3.5 59.9411 3.45702 59.4189 3.43246 58.8734Z" fill="var(--fill-0, #F78F2A)"/>
<path id="Vector_4" d="M1.02719 81.7531C0.872368 81.3449 1.11447 81.1778 1.38377 81.0774C1.84211 80.9068 2.30877 80.7507 2.78333 80.6354C3.63772 80.4275 4.50877 80.3569 5.39035 80.3574C23.1754 80.3622 40.961 80.3609 58.7465 80.3631C58.982 80.3631 59.2171 80.3929 59.5338 80.4144C59.4276 80.5929 59.3833 80.7007 59.3105 80.7836C59.0447 81.0862 58.7566 81.3699 58.5018 81.6812C58.3522 81.865 58.1811 81.9386 57.9566 81.932C57.8167 81.9281 57.6759 81.932 57.536 81.932C39.2943 81.932 21.0526 81.9325 2.8114 81.9307C2.21798 81.9307 1.61886 81.9697 1.02719 81.7531Z" fill="var(--fill-0, #D32360)"/>
<path id="Vector_5" d="M42.9377 72.6217C42.9377 71.7421 42.9399 70.9892 42.9373 70.2367C42.932 68.5529 42.9281 66.869 42.9162 65.1856C42.9105 64.4323 42.914 63.6767 42.8614 62.926C42.8219 62.3647 43.0851 62.0359 43.5351 61.7925C43.5969 61.7592 43.6579 61.7236 43.7224 61.696C44.432 61.3917 44.6912 61.5566 44.6965 62.3174C44.7162 64.9471 44.7342 67.5772 44.7553 70.2074C44.7702 72.1008 44.7908 73.9947 44.8048 75.8881C44.8105 76.6494 44.4145 77.1182 43.6539 77.2664C43.2583 77.3431 43.1355 77.2931 42.9364 76.923C42.132 75.4268 41.3316 73.928 40.532 72.4288C39.4026 70.3113 38.2754 68.1929 37.1461 66.0753C37.0991 65.9876 37.0425 65.9052 36.8925 65.832V66.3248C36.8921 69.5343 36.8925 72.7437 36.8917 75.9531C36.8912 76.7204 36.3917 77.2712 35.6307 77.3501C35.2298 77.3913 35.0811 77.2716 35.0785 76.8686C35.0719 75.8864 35.0759 74.9046 35.0759 73.9223C35.0759 70.292 35.0754 66.6616 35.0763 63.0308C35.0763 62.0455 36.1202 61.372 37.0307 61.7798C37.1417 61.8293 37.2346 61.9596 37.2956 62.0744C39.1154 65.4908 40.9294 68.9107 42.7456 72.3288C42.7833 72.3999 42.8338 72.4639 42.9377 72.6217Z" fill="var(--fill-0, #231F20)"/>
<path id="Vector_6" d="M75.2452 81.8093C75.3009 81.7062 75.3329 81.6097 75.3947 81.5378C75.6566 81.2326 75.9382 80.9432 76.1912 80.6306C76.3377 80.449 76.5053 80.3631 76.732 80.3692C76.8719 80.3732 77.0127 80.3688 77.1526 80.3688C92.657 80.3688 108.161 80.3688 123.665 80.3692C124.498 80.3692 124.472 80.2938 124.469 81.1633C124.468 81.3879 124.469 81.6124 124.469 81.8882C124.193 81.9092 123.972 81.9399 123.753 81.9399C118.123 81.9426 112.493 81.9421 106.863 81.9421C96.5851 81.9421 86.3075 81.9426 76.0298 81.9399C75.7772 81.9395 75.5083 81.9974 75.2452 81.8093Z" fill="var(--fill-0, #F78F2A)"/>
<path id="Vector_7" d="M77.461 69.5171H77.4978C77.4978 70.2534 77.5 70.9896 77.4974 71.7263C77.4934 72.6555 77.4732 73.5847 77.4842 74.5139C77.4921 75.1567 78.1048 75.7522 78.7333 75.754C80.1715 75.7575 81.6092 75.7448 83.0474 75.7588C83.3925 75.7623 83.6531 75.6421 83.893 75.4159C84.232 75.0967 84.3904 74.7182 84.3825 74.246C84.3632 73.0716 84.3649 71.8969 84.3623 70.7222C84.3575 68.741 84.361 66.7598 84.3504 64.7787C84.3461 63.9223 83.7465 63.325 82.9088 63.322C81.5408 63.3167 80.1728 63.3145 78.8053 63.3172C78.0399 63.3185 77.4592 63.9162 77.4605 64.6787C77.4627 66.2915 77.461 67.9043 77.461 69.5171ZM84.7899 61.9986C84.7899 61.9986 85.6123 62.9672 85.95 63.4785C86.0956 63.6987 86.075 64.0907 86.0772 64.3595C86.0873 67.3702 86.1075 70.1078 86.1175 72.9818C86.1197 73.6303 86.1092 74.7174 86.1162 75.3655C86.1211 75.804 84.5259 77.3523 84.4149 77.3738C84.2798 77.3997 78.7224 77.3646 77.4768 77.3611C77.0597 77.1638 75.7825 75.7307 75.7816 75.287C75.7732 71.9048 75.7425 68.5231 75.7263 65.1409C75.7241 64.6515 75.7588 64.1617 75.786 63.6728C75.7917 63.5732 75.8149 63.454 75.8754 63.3825C76.2943 62.8892 76.7158 62.3976 77.1583 61.9258C77.2667 61.81 77.4531 61.7118 77.6079 61.7043C78.6228 61.6561 82.5675 61.6504 84.0588 61.6925C84.5522 61.7065 84.7899 61.9986 84.7899 61.9986Z" fill="var(--fill-0, #231F20)"/>
<path id="Vector_8" d="M98.6732 64.2341C98.4693 64.4108 98.3368 64.5147 98.2167 64.6314C97.5754 65.2549 96.9526 65.8986 96.2899 66.4985C96.0259 66.7375 95.686 66.9045 95.3588 67.0571C95.2211 67.1212 95.0263 67.0672 94.8579 67.0558C94.8101 67.0523 94.7601 66.983 94.7189 66.9901C94.1404 67.0839 93.8325 66.6616 93.4697 66.345C92.8882 65.8381 92.3096 65.3273 91.7268 64.8217C91.6272 64.7353 91.5127 64.666 91.357 64.5537C91.3412 64.6971 91.3237 64.7783 91.3246 64.8594C91.3491 68.4893 91.3746 72.1197 91.4039 75.75C91.4057 75.9588 91.4206 76.1705 91.4601 76.3749C91.5298 76.7384 91.4395 77.0515 91.1504 77.2664C90.9013 77.4519 90.6268 77.6259 90.336 77.7255C89.8842 77.8798 89.6342 77.6755 89.6092 77.2002C89.6057 77.13 89.6083 77.0598 89.6079 76.9897C89.5939 73.675 89.5833 70.36 89.564 67.0453C89.5566 65.7478 89.5259 64.4503 89.5136 63.1523C89.507 62.4252 90.1597 61.7697 90.8873 61.8052C91.0732 61.8144 91.2785 61.9482 91.4294 62.0775C92.6522 63.1299 93.864 64.195 95.0794 65.2558C95.2241 65.3821 95.3711 65.5057 95.5421 65.6522C95.9329 65.2773 96.3114 64.9173 96.6864 64.5542C97.3917 63.871 98.0833 63.172 98.807 62.5086C99.0583 62.2775 99.3693 62.0828 99.6868 61.9582C100.238 61.7416 100.465 61.9218 100.472 62.5165C100.495 64.4454 100.522 66.3744 100.535 68.3034C100.552 70.8287 100.558 73.3545 100.567 75.8798C100.569 76.6419 100.138 77.1703 99.3965 77.3247C99.032 77.4005 98.8171 77.2506 98.7772 76.884C98.764 76.7625 98.7719 76.6389 98.7715 76.5161C98.754 72.8151 98.7377 69.1146 98.718 65.4141C98.7162 65.0532 98.6912 64.6919 98.6732 64.2341Z" fill="var(--fill-0, #231F20)"/>
<path id="Vector_9" d="M57.1614 64.1464C56.6605 63.8328 56.1781 63.5136 55.6772 63.2268C55.5053 63.1286 55.2877 63.0668 55.0895 63.0637C54.0728 63.0479 53.0557 63.0549 52.0386 63.058C51.9237 63.0584 51.8083 63.083 51.7048 63.0953C51.5991 63.8026 51.6294 75.6707 51.7404 76.0776C53.1325 76.0776 54.5342 76.0802 55.9355 76.0723C56.0491 76.0715 56.1763 76.0188 56.2728 75.9539C56.5772 75.7491 56.8693 75.5273 57.1614 75.3163V64.1464ZM49.8189 69.875C49.8189 67.6303 49.8189 65.3856 49.8193 63.1409C49.8193 62.3371 50.4719 61.7092 51.293 61.7144C52.9412 61.725 54.589 61.7368 56.2368 61.7377C56.6158 61.7377 56.9373 61.8127 57.2588 62.049C57.7075 62.3796 58.2044 62.6493 58.6974 62.9133C58.8969 63.0199 58.989 63.1479 58.9934 63.3584C58.9961 63.4812 58.9961 63.6039 58.9961 63.7267C58.9961 67.3391 58.9855 70.9515 59.0079 74.5639C59.0114 75.0857 58.8259 75.4268 58.4237 75.7071C57.8772 76.0881 57.3342 76.474 56.7987 76.87C56.282 77.2519 55.6947 77.3966 55.0697 77.4023C53.5092 77.4172 51.9482 77.4203 50.3877 77.4269C49.9434 77.429 49.8206 77.3028 49.8202 76.8195C49.8175 74.5047 49.8189 72.1898 49.8189 69.875Z" fill="var(--fill-0, #231F20)"/>
<path id="Vector_10" d="M116.588 69.4531C116.804 69.4531 117.057 69.4632 117.248 69.4632C119.493 69.4632 121.738 69.4628 123.983 69.4632C124.141 69.4632 124.3 69.4562 124.456 69.4759C124.685 69.5049 124.846 69.6737 124.754 69.8741C124.709 70.6441 124.724 76.0337 124.718 76.6297C124.712 77.1817 124.627 77.2734 124.071 77.2756C122.23 77.2813 120.388 77.2773 118.546 77.2782C117.511 77.2786 116.477 77.2782 115.442 77.283C115.169 77.2839 114.873 77.2879 114.798 76.9664C114.719 76.6292 114.499 76.242 114.904 75.9561C115.157 75.7763 115.418 75.5851 115.706 75.4781C116.214 75.2887 116.41 75.4137 116.6 75.9605H122.923V70.8006H122.337C120.127 70.8006 117.918 70.8028 115.707 70.7998C114.705 70.7985 114.795 70.6945 114.781 69.9267C114.732 67.4207 114.773 64.9129 114.797 62.406C114.803 61.8127 114.871 61.7692 115.438 61.7675C116.701 61.7635 117.964 61.771 119.227 61.7627C119.549 61.7793 119.75 61.9074 119.95 62.0718C120.407 62.4919 122.284 63.7798 123.291 64.4502C123.574 64.6388 123.861 64.8488 123.285 65.4031C123.279 65.4513 122.381 65.7991 121.827 65.4334C120.782 64.6664 119.684 63.9718 118.617 63.2343C118.418 63.0966 118.224 63.0326 117.986 63.0387C117.548 63.051 117.111 63.0422 116.684 63.0422C116.643 65.6531 116.588 68.2108 116.588 69.4531Z" fill="var(--fill-0, #231F20)"/>
<path id="Vector_11" d="M124.476 58.4173H123.86C107.985 58.4173 92.1097 58.4173 76.2347 58.4169C76.0592 58.4169 75.882 58.4248 75.7092 58.4033C75.3439 58.3577 75.2347 58.0955 75.4728 57.8135C75.7706 57.4609 76.1807 57.3083 76.6254 57.25C76.7982 57.2277 76.9759 57.2395 77.1513 57.2395H123.829C124.556 57.2395 124.559 57.2413 124.535 57.9705C124.53 58.0893 124.504 58.2073 124.476 58.4173Z" fill="var(--fill-0, #D32360)"/>
<path id="Vector_12" d="M25.9825 63.0036V69.5917H29.3197C29.4075 69.5917 29.4952 69.5913 29.5829 69.5917C29.8105 69.5943 30.0855 69.5693 30.1846 69.8092C30.3053 70.1017 30.0671 70.3012 29.8667 70.4683C29.5057 70.7686 29.0877 70.9287 28.6092 70.9256C27.7513 70.9204 26.893 70.9243 25.961 70.9243C25.939 72.5924 25.9531 74.2275 25.9496 75.9272H26.5789C28.1048 75.9267 29.6311 75.9267 31.157 75.9267C31.2798 75.9267 31.4105 75.9004 31.5232 75.9342C31.6825 75.9816 31.9311 76.05 31.9553 76.1526C31.9904 76.3039 31.9066 76.5354 31.793 76.6582C31.4636 77.0142 31.0509 77.2436 30.5478 77.2554C30.2325 77.2624 29.9167 77.2554 29.6009 77.2563C27.9522 77.2624 26.3035 77.269 24.6548 77.2747C24.193 77.2765 24.0895 77.1699 24.1105 76.7283C24.1211 76.5007 24.1294 76.2732 24.1294 76.0451C24.1307 71.7136 24.1303 67.3821 24.1303 63.0506C24.1307 62.1038 24.8263 61.5044 25.7601 61.6377C25.9496 61.6644 26.1439 61.6684 26.336 61.6684C27.8447 61.671 29.3531 61.6675 30.8618 61.6732C31.0947 61.6741 31.389 61.5912 31.4952 61.9034C31.5978 62.206 31.3803 62.3967 31.1763 62.5664C30.8127 62.869 30.3917 63.0089 29.914 63.0058C28.8092 62.9988 27.7039 63.0036 26.5991 63.0036H25.9825Z" fill="var(--fill-0, #231F20)"/>
<path id="Vector_13" d="M106.041 63.0036V69.5671C106.237 69.5759 106.408 69.5899 106.579 69.5904C107.508 69.593 108.438 69.5917 109.368 69.5917C109.455 69.5917 109.543 69.5904 109.631 69.5921C109.857 69.597 110.124 69.5632 110.227 69.8131C110.338 70.0828 110.139 70.2771 109.95 70.4402C109.579 70.7612 109.149 70.9296 108.652 70.9256C107.968 70.9204 107.284 70.9243 106.6 70.9243H106.048V75.9267H106.639C108.165 75.9267 109.691 75.9263 111.217 75.9267C111.357 75.9272 111.499 75.918 111.636 75.9381C112.061 75.9991 112.179 76.2679 111.9 76.5977C111.533 77.0318 111.057 77.262 110.472 77.2594C108.999 77.2528 107.525 77.2554 106.052 77.2572C105.614 77.2576 105.176 77.2681 104.737 77.2743C104.221 77.2813 104.115 77.1655 104.163 76.6656C104.183 76.4569 104.188 76.246 104.188 76.0364C104.189 71.7053 104.189 67.3742 104.189 63.0427C104.189 62.092 104.876 61.5079 105.825 61.6408C106.014 61.6675 106.209 61.6684 106.401 61.6688C107.91 61.671 109.418 61.6684 110.926 61.6719C111.164 61.6723 111.457 61.6066 111.56 61.9096C111.663 62.2117 111.429 62.3985 111.229 62.5664C110.866 62.8703 110.443 63.0089 109.966 63.0058C108.861 62.9984 107.757 63.0036 106.652 63.0036H106.041Z" fill="var(--fill-0, #231F20)"/>
<path id="Vector_14" d="M63.2943 31.859H61.2329C61.2197 31.6906 61.1974 31.5393 61.1974 31.388C61.196 26.5654 61.2013 21.7423 61.1882 16.9196C61.1868 16.5399 61.3017 16.3101 61.6566 16.2211C62.0439 16.1242 62.4368 15.9896 62.8289 15.9843C63.4202 15.9768 63.3075 16.4767 63.2978 17.5055C63.2934 22.0655 63.2943 26.625 63.2943 31.185V31.859Z" fill="var(--fill-0, #231F20)"/>
<path id="Vector_15" d="M89.211 15.3287C82.8807 11.4642 76.6522 7.6624 70.4 3.84567V2.26136C70.6491 2.40168 70.8132 2.48719 70.9702 2.5841C74.6114 4.82221 78.2539 7.0577 81.8917 9.30196C84.2026 10.7275 86.5026 12.1702 88.8158 13.5918C89.1022 13.7681 89.1939 13.8913 89.2175 14.3018C89.2123 14.6407 89.211 14.9144 89.211 15.3287Z" fill="var(--fill-0, #D32360)"/>
<path id="Vector_16" d="M77.3035 38.2458H79.6671C79.6833 38.3707 79.7149 38.5023 79.7149 38.6343C79.7175 42.1945 79.7136 45.7547 79.7228 49.3149C79.7233 49.6166 79.6417 49.8266 79.3592 49.9349C78.936 50.0967 78.5211 50.3081 78.0825 50.3949C77.4482 50.5199 77.2658 50.3261 77.2654 49.6775C77.2649 46.7834 77.2658 43.8897 77.2658 40.9961C77.2658 40.2243 77.2645 39.4525 77.2675 38.6812C77.2684 38.5453 77.2895 38.4098 77.3035 38.2458Z" fill="var(--fill-0, #231F20)"/>
<path id="Vector_17" d="M12.7781 69.9311C12.9803 69.9403 13.1355 69.9535 13.2904 69.9535C14.3592 69.9552 15.4289 69.9267 16.4961 69.9644C17.1846 69.9885 17.5518 69.49 18.0237 69.1563C18.0847 69.1128 18.0895 68.9637 18.0895 68.8638C18.0934 67.3746 18.0899 65.8859 18.0956 64.3972C18.0961 64.2007 18.0307 64.0705 17.8658 63.9639C17.4987 63.7258 17.1333 63.4838 16.7811 63.2242C16.557 63.0589 16.3215 62.9984 16.0478 63.0006C15.1018 63.0093 14.1557 63.0027 13.2096 63.0049C13.0741 63.0054 12.939 63.0242 12.7781 63.0365V69.9311ZM17.8561 70.6112C18.2175 71.4251 18.5539 72.1916 18.8978 72.9546C19.3289 73.9118 19.7684 74.8656 20.2 75.8228C20.4013 76.2692 20.3557 76.4793 19.9816 76.7866C19.8478 76.8967 19.6961 76.9923 19.539 77.0642C18.9864 77.3177 18.6469 77.3251 18.3487 76.6253C17.6346 74.9519 16.8583 73.3054 16.1259 71.6395C16.0018 71.3575 15.8592 71.24 15.5434 71.2475C14.636 71.2681 13.7276 71.2545 12.75 71.2545V71.8587C12.75 73.2957 12.7504 74.7331 12.7496 76.1705C12.7491 76.9024 12.0294 77.558 11.3083 77.4896C11.0873 77.4685 10.9443 77.3707 10.9329 77.1348C10.9263 76.9949 10.9272 76.8542 10.9272 76.7143C10.9272 72.2095 10.9268 67.7048 10.9272 63.2001C10.9272 62.2266 11.4434 61.6903 12.4421 61.6776C13.8268 61.66 15.2145 61.721 16.5961 61.6513C17.4193 61.6096 18.1004 61.7977 18.7215 62.3178C18.989 62.5419 19.2895 62.7291 19.5886 62.9111C19.8219 63.0532 19.9184 63.2264 19.9162 63.5088C19.9035 65.1567 19.9061 66.8041 19.9123 68.452C19.9145 68.9607 19.6487 69.3075 19.2697 69.5895C18.8215 69.9236 18.3636 70.2451 17.8561 70.6112Z" fill="var(--fill-0, #231F20)"/>
<path id="Vector_18" d="M72.4487 70.5055C72.457 70.4284 72.4667 70.3788 72.4667 70.3293C72.4675 69.1663 72.4671 68.0034 72.4671 66.841C72.4671 66.3542 72.4776 65.867 72.4653 65.3807C72.4382 64.2753 72.4031 63.1703 72.364 62.0652C72.3526 61.7342 72.2408 61.6408 71.907 61.6583C71.5452 61.6772 71.2539 61.8596 70.9763 62.0722C70.8031 62.2051 70.7403 62.3827 70.7355 62.5914C70.7311 62.7905 70.7184 62.9896 70.7184 63.1882C70.7162 65.047 70.7167 66.9054 70.7154 68.7638C70.7149 68.8559 70.7066 68.948 70.7009 69.062H62.3004C62.3004 69.1571 62.3 69.229 62.3004 69.301C62.3083 71.4619 62.3154 73.6224 62.3246 75.7833C62.3263 76.2846 62.3377 76.7862 62.3373 77.2874C62.3368 77.4383 62.3961 77.5106 62.5417 77.5496C62.9351 77.6557 63.2544 77.4795 63.5838 77.3106C63.911 77.1427 64.0215 76.8949 64.0184 76.5253C64.0022 74.6226 64.011 72.72 64.011 70.8169C64.011 70.506 64.011 70.506 64.325 70.506C66.936 70.5055 69.5474 70.5055 72.1588 70.5055H72.4487Z" fill="var(--fill-0, white)"/>
<path id="Vector_19" d="M63.9982 64.7103C63.9982 63.8258 63.9996 62.9409 63.9974 62.0565C63.9969 61.7692 63.8925 61.6622 63.6123 61.6723C63.2421 61.6855 62.943 61.8688 62.6592 62.0876C62.5 62.2108 62.443 62.3766 62.432 62.5677C62.4057 63.0238 62.3623 63.479 62.3535 63.935C62.3303 65.0918 62.3241 66.2485 62.3061 67.4053C62.3039 67.5588 62.3592 67.6145 62.5118 67.6123C62.925 67.6061 63.3382 67.6013 63.7504 67.614C63.9439 67.6202 64.0048 67.5605 64.0026 67.3641C63.993 66.4796 63.9987 65.5952 63.9982 64.7103Z" fill="var(--fill-0, white)"/>
<path id="Vector_20" d="M70.7417 74.7121C70.7417 75.5448 70.7399 76.3775 70.743 77.2098C70.7439 77.4939 70.8395 77.6106 71.1162 77.5628C71.3847 77.5167 71.6496 77.4098 71.8965 77.2896C72.1978 77.1431 72.4215 76.9265 72.4219 76.5428C72.4246 75.0914 72.4368 73.6404 72.4513 72.1894C72.4526 72.0284 72.4044 71.9649 72.2382 71.9679C71.8254 71.9758 71.4127 71.9798 71.0004 71.9666C70.7917 71.9596 70.7364 72.0403 70.7382 72.2367C70.7461 73.062 70.7417 73.8873 70.7417 74.7121Z" fill="var(--fill-0, white)"/>
<path id="Vector_21" d="M72.4487 70.5055H72.1588C69.5474 70.5055 66.936 70.5055 64.325 70.506C64.011 70.506 64.011 70.506 64.011 70.8169C64.011 72.72 64.0022 74.6226 64.0184 76.5253C64.0215 76.8949 63.911 77.1427 63.5838 77.3106C63.2544 77.4795 62.9351 77.6557 62.5417 77.5496C62.3961 77.5106 62.3368 77.4383 62.3373 77.2874C62.3377 76.7862 62.3263 76.2846 62.3246 75.7833C62.3154 73.6224 62.3083 71.4619 62.3004 69.301C62.3 69.229 62.3004 69.1571 62.3004 69.062H70.7009C70.7066 68.948 70.7149 68.8559 70.7154 68.7638C70.7167 66.9054 70.7162 65.047 70.7184 63.1882C70.7184 62.9896 70.7311 62.7905 70.7355 62.5914C70.7403 62.3827 70.8031 62.2051 70.9763 62.0722C71.2539 61.8596 71.5452 61.6772 71.907 61.6583C72.2408 61.6408 72.3526 61.7342 72.364 62.0652C72.4031 63.1703 72.4382 64.2753 72.4653 65.3807C72.4776 65.867 72.4671 66.3542 72.4671 66.841C72.4671 68.0034 72.4675 69.1663 72.4667 70.3293C72.4667 70.3788 72.457 70.4284 72.4487 70.5055Z" fill="var(--fill-0, #D32360)"/>
<path id="Vector_22" d="M63.9982 64.7103C63.9987 65.5952 63.993 66.4796 64.0026 67.3641C64.0048 67.5605 63.9439 67.6202 63.7504 67.614C63.3382 67.6013 62.925 67.6061 62.5118 67.6123C62.3592 67.6145 62.3039 67.5588 62.3061 67.4053C62.3241 66.2485 62.3303 65.0918 62.3535 63.935C62.3623 63.479 62.4057 63.0238 62.432 62.5677C62.443 62.3766 62.5 62.2108 62.6592 62.0876C62.943 61.8688 63.2421 61.6855 63.6123 61.6723C63.8925 61.6622 63.9969 61.7692 63.9974 62.0565C63.9996 62.9409 63.9982 63.8258 63.9982 64.7103Z" fill="var(--fill-0, #F78F2A)"/>
<path id="Vector_23" d="M70.7417 74.7121C70.7417 73.8873 70.7461 73.062 70.7382 72.2367C70.7364 72.0403 70.7917 71.9596 71.0004 71.9666C71.4127 71.9798 71.8254 71.9758 72.2382 71.9679C72.4044 71.9649 72.4526 72.0284 72.4513 72.1894C72.4368 73.6404 72.4246 75.0914 72.4219 76.5428C72.4215 76.9265 72.1978 77.1431 71.8965 77.2896C71.6496 77.4098 71.3847 77.5167 71.1162 77.5628C70.8395 77.6106 70.7439 77.4939 70.743 77.2098C70.7399 76.3775 70.7417 75.5448 70.7417 74.7121Z" fill="var(--fill-0, #F78F2A)"/>
</g>
</svg>
