<svg preserveAspectRatio="none" width="100%" height="100%" overflow="visible" style="display: block;" viewBox="0 0 119.219 19" fill="none" xmlns="http://www.w3.org/2000/svg">
<g id="stars">
<path id="Vector" d="M3.67753 19L5.23988 11.975L0 7.25L6.92241 6.625L9.61446 0L12.3065 6.625L19.2289 7.25L13.989 11.975L15.5514 19L9.61446 15.275L3.67753 19Z" fill="var(--fill-0, #FFB700)"/>
<path id="Vector_2" d="M28.6751 19L30.2375 11.975L24.9976 7.25L31.92 6.625L34.612 0L37.3041 6.625L44.2265 7.25L38.9866 11.975L40.549 19L34.612 15.275L28.6751 19Z" fill="var(--fill-0, #FFB700)"/>
<path id="Vector_3" d="M53.6727 19L55.2351 11.975L49.9952 7.25L56.9176 6.625L59.6096 0L62.3017 6.625L69.2241 7.25L63.9842 11.975L65.5466 19L59.6096 15.275L53.6727 19Z" fill="var(--fill-0, #FFB700)"/>
<path id="Vector_4" d="M78.6703 19L80.2326 11.975L74.9928 7.25L81.9152 6.625L84.6072 0L87.2993 6.625L94.2217 7.25L88.9818 11.975L90.5442 19L84.6072 15.275L78.6703 19Z" fill="var(--fill-0, #FFB700)"/>
<path id="Vector_5" d="M103.668 19L105.23 11.975L99.9904 7.25L106.913 6.625L109.605 0L112.297 6.625L119.219 7.25L113.979 11.975L115.542 19L109.605 15.275L103.668 19Z" fill="var(--fill-0, #FFB700)"/>
</g>
</svg>
