<svg width="64" height="64" viewBox="38 -1 54 54" fill="none" xmlns="http://www.w3.org/2000/svg">
<path d="M51.0816 50.2686C51.0816 37.574 51.0469 24.8293 51.0469 12.1943C50.9974 12.1614 50.9838 12.1492 50.9675 12.143C50.9526 12.1373 50.9351 12.1364 50.9193 12.1369C50.9018 12.1378 50.8829 12.1399 50.868 12.1474C50.8215 12.172 50.7754 12.1974 50.7311 12.2259C47.4724 14.3206 44.2136 16.4158 40.9544 18.5096C40.9412 18.5184 40.9202 18.5136 40.8847 18.5167C40.8618 18.486 40.8096 18.4482 40.8092 18.4097C40.8 17.726 40.7895 17.0424 40.8013 16.3588C40.8031 16.2391 40.8715 16.0702 40.9649 16.0102C42.9368 14.7372 44.9189 13.4804 46.8943 12.2127C52.9592 8.32015 59.0224 4.42405 65.0855 0.528396C65.3329 0.369658 65.5732 0.200396 65.8697 0C65.9013 0.166631 65.9382 0.27538 65.9395 0.385005C65.9461 0.91077 65.9202 1.43829 65.9509 1.96274C65.9711 2.30915 65.8377 2.49771 65.5526 2.67881C63.6583 3.88206 61.7759 5.10373 59.8895 6.3197C57.9298 7.58347 55.9763 8.85688 54.0053 10.1027C53.6342 10.3373 53.5105 10.5916 53.511 11.0305C53.525 23.0617 53.5123 35.0929 53.5395 47.1241C53.5421 48.2923 53.0281 49.3916 52.4496 50.1077C52.2329 50.3234 52.0798 50.2792 51.886 50.2853C51.6294 50.2932 51.4053 50.3125 51.0816 50.2686Z" fill="#F78F2A"/>
<path d="M79.6846 36.0182H63.3925C63.3623 36.173 63.3202 36.2879 63.3197 36.4023C63.3197 40.3997 63.3175 44.3971 63.3346 48.3945C63.3364 48.8321 63.2232 49.1811 62.9136 49.4776C62.4399 49.9305 61.893 50.2471 61.2171 50.4629V34.1528C61.8048 34.0826 62.3965 34.13 62.9846 34.1216C63.5807 34.1133 73.1732 34.1195 73.7697 34.1199C74.3658 34.1203 76.7417 34.1216 77.3982 34.1216V33.445C77.3982 28.2729 77.4061 23.1003 77.3851 17.9282C77.3833 17.4432 77.5417 17.1358 77.9184 16.8806C78.4439 16.5245 78.9886 16.2228 79.6259 16.1255C79.7496 16.5513 79.8066 34.8474 79.6846 36.0182Z" fill="#D32360"/>
<path d="M63.2943 31.859H61.2329C61.2197 31.6906 61.1974 31.5393 61.1974 31.388C61.196 26.5654 61.2013 21.7423 61.1882 16.9196C61.1868 16.5399 61.3017 16.3101 61.6566 16.2211C62.0439 16.1242 62.4368 15.9896 62.8289 15.9843C63.4202 15.9768 63.3075 16.4767 63.2978 17.5055C63.2934 22.0655 63.2943 26.625 63.2943 31.185V31.859Z" fill="#231F20"/>
<path d="M89.211 15.3287C82.8807 11.4642 76.6522 7.6624 70.4 3.84567V2.26136C70.6491 2.40168 70.8132 2.48719 70.9702 2.5841C74.6114 4.82221 78.2539 7.0577 81.8917 9.30196C84.2026 10.7275 86.5026 12.1702 88.8158 13.5918C89.1022 13.7681 89.1939 13.8913 89.2175 14.3018C89.2123 14.6407 89.211 14.9144 89.211 15.3287Z" fill="#D32360"/>
<path d="M77.3035 38.2458H79.6671C79.6833 38.3707 79.7149 38.5023 79.7149 38.6343C79.7175 42.1945 79.7136 45.7547 79.7228 49.3149C79.7233 49.6166 79.6417 49.8266 79.3592 49.9349C78.936 50.0967 78.5211 50.3081 78.0825 50.3949C77.4482 50.5199 77.2658 50.3261 77.2654 49.6775C77.2649 46.7834 77.2658 43.8897 77.2658 40.9961C77.2658 40.2243 77.2645 39.4525 77.2675 38.6812C77.2684 38.5453 77.2895 38.4098 77.3035 38.2458Z" fill="#231F20"/>
</svg>
