<svg xmlns="http://www.w3.org/2000/svg" viewBox="0 0 378.83 475.13"><defs><style>.cls-1,.cls-11,.cls-14,.cls-2{fill:none;}.cls-1,.cls-10,.cls-11,.cls-12,.cls-14,.cls-2,.cls-7,.cls-8{stroke:#1d1d1b;}.cls-1,.cls-10,.cls-11,.cls-12,.cls-14,.cls-2,.cls-7{stroke-linecap:round;stroke-linejoin:round;}.cls-1,.cls-10,.cls-11,.cls-12{stroke-width:0.71px;}.cls-2{stroke-width:0.64px;}.cls-3{fill:#d20a11;}.cls-4{fill:#d11317;}.cls-15,.cls-16,.cls-5,.cls-8{fill:#1d1d1b;}.cls-6,.cls-7{fill:#d9d9d9;}.cls-7{stroke-width:0.69px;}.cls-8{stroke-miterlimit:10;stroke-width:0.25px;}.cls-10,.cls-13,.cls-9{fill:#ededed;}.cls-11,.cls-15,.cls-9{fill-rule:evenodd;}.cls-12{fill:#eaf6fe;}.cls-14{stroke-width:0.28px;}.cls-16{font-size:12px;font-family:MyriadPro-Cond, Myriad Pro;}</style></defs><g id="profile"><g id="LWPOLYLINE"><rect class="cls-1" x="241.97" y="402.62" width="16.16" height="18.43" rx="0.57"/></g><g id="LWPOLYLINE-2" data-name="LWPOLYLINE"><rect class="cls-1" x="228.36" y="402.62" width="11.34" height="18.43" rx="0.57"/></g><g id="LWPOLYLINE-3" data-name="LWPOLYLINE"><path class="cls-1" d="M241,360.93h11.69a.6.6,0,0,1,.34.11.57.57,0,0,1,.12.79,4.25,4.25,0,0,0,.94,5.94,4.3,4.3,0,0,0,2,.79.56.56,0,0,1,.5.56v4.6a.56.56,0,0,1-.5.56,4.26,4.26,0,0,0,0,8.45.56.56,0,0,1,.5.56v15.06a.57.57,0,0,1-.57.57H241a.58.58,0,0,1-.57-.57V361.5A.58.58,0,0,1,241,360.93Z" transform="translate(1.51 1.44)"/></g><g id="LWPOLYLINE-4" data-name="LWPOLYLINE"><rect class="cls-1" x="241.97" y="344.51" width="16.16" height="15.59" rx="0.57"/></g><g id="LWPOLYLINE-5" data-name="LWPOLYLINE"><rect class="cls-1" x="228.36" y="362.37" width="11.34" height="37.98" rx="0.57"/></g><g id="LWPOLYLINE-6" data-name="LWPOLYLINE"><path class="cls-1" d="M227.71,337.4h1a.86.86,0,0,1,.78.52,8.49,8.49,0,0,0,7.81,5.15.85.85,0,0,1,.85.85V358.1a.56.56,0,0,1-.56.56H227.42a.56.56,0,0,1-.56-.56V338.25A.85.85,0,0,1,227.71,337.4Z" transform="translate(1.51 1.44)"/></g><g id="LWPOLYLINE-7" data-name="LWPOLYLINE"><path class="cls-1" d="M92.15,380.06h.06a.57.57,0,0,1,.57.57V419a.58.58,0,0,1-.57.57h-19a.85.85,0,0,1-.85-.85V382.65a.56.56,0,0,1,.5-.56Z" transform="translate(1.51 1.44)"/></g><g id="LWPOLYLINE-8" data-name="LWPOLYLINE"><path class="cls-1" d="M111.4,342.15l.57-.06,6.52-.92h.08a.58.58,0,0,1,.57.57v2.76a1.42,1.42,0,1,0,2.83,0v-3.32a.57.57,0,0,1,.49-.56l22.82-3.21h10.14a.57.57,0,0,1,.57.57v.85a1.42,1.42,0,1,0,2.83,0V338a.58.58,0,0,1,.57-.57H169.6a.57.57,0,0,1,.56.57v.85a1.42,1.42,0,0,0,2.84,0V338a.57.57,0,0,1,.56-.57h44.22a.57.57,0,0,1,.57.57v.85a1.42,1.42,0,1,0,2.84,0V338a.57.57,0,0,1,.56-.57h1.7a.57.57,0,0,1,.57.57V419a.57.57,0,0,1-.57.57H111.2a.58.58,0,0,1-.57-.57V393.25a.57.57,0,0,1,.57-.57h9.36a1.42,1.42,0,0,0,0-2.84H111.2a.57.57,0,0,1-.57-.56v-25.8a.57.57,0,0,1,.57-.56h9.36a1.42,1.42,0,0,0,0-2.84H111.2a.57.57,0,0,1-.57-.57V343A.86.86,0,0,1,111.4,342.15Z" transform="translate(1.51 1.44)"/></g><g id="LWPOLYLINE-9" data-name="LWPOLYLINE"><path class="cls-1" d="M107.53,342h0a.29.29,0,0,1,.23.28V419a.57.57,0,0,1-.57.57H95.61A.58.58,0,0,1,95,419V377.93l11.86-35.54A.56.56,0,0,1,107.53,342Z" transform="translate(1.51 1.44)"/></g><g id="LWPOLYLINE-10" data-name="LWPOLYLINE"><path class="cls-1" d="M101.22,339.37a.64.64,0,0,1,.4.11,13.9,13.9,0,0,0,2.78,1.59.56.56,0,0,1,.31.7l-11.87,35.6a.56.56,0,0,1-.48.39l-19,2h-.09a.85.85,0,0,1-.85-.85v-36a.57.57,0,0,1,.5-.57Z" transform="translate(1.51 1.44)"/></g><g id="LWPOLYLINE-11" data-name="LWPOLYLINE"><path class="cls-1" d="M72.37,278.12a.86.86,0,0,1,.63-.82l12.56-3.36a.89.89,0,0,1,.32,0,.86.86,0,0,1,.75.95,12.29,12.29,0,0,0-.09,1.49v1.24A12.76,12.76,0,0,0,99.3,290.35h2a.85.85,0,0,1,.85.85v11.44l-5.82,21.74a14.17,14.17,0,0,0,2.31,12.13.54.54,0,0,1,.11.28.56.56,0,0,1-.5.62L73.31,340h-.09a.85.85,0,0,1-.85-.85Z" transform="translate(1.51 1.44)"/></g><g id="LWPOLYLINE-12" data-name="LWPOLYLINE"><path class="cls-1" d="M92.21,277.59v-1.24a7.09,7.09,0,0,1,5.19-7.05l5.08-1.36a.78.78,0,0,1,.22,0,.85.85,0,0,1,.85.85v3.16H105a2.83,2.83,0,0,0,2.83-2.83v-3a1.4,1.4,0,0,0-.89-1.31.9.9,0,0,1-.47-.47.86.86,0,0,1,.47-1.11,1.42,1.42,0,0,0,.89-1.36v-1H107l-35.37,9.47a8.52,8.52,0,0,0-6.3,8.22V445.12H79.45V443.7l-1.14-4.25H75.2a2.83,2.83,0,0,1-2.83-2.83v-8.51a2.83,2.83,0,0,1,2.83-2.83H91.64a2.84,2.84,0,0,1,2.84,2.83V430L90.79,443.7v1.14h5.67v-.29a.85.85,0,0,1,.85-.85h6.52l1.14-4.25H99.65a1.14,1.14,0,0,1-.37-.05,1.41,1.41,0,0,1-1-1.73L101,427.38a2.82,2.82,0,0,1,2.73-2.1h57.9a2.27,2.27,0,0,0,1.26-.38,2.83,2.83,0,0,1,3.13,0,2.24,2.24,0,0,0,1.25.38h29.56a2.82,2.82,0,0,1,2.73,2.1l2.76,10.29a1.49,1.49,0,0,1,0,.36,1.42,1.42,0,0,1-1.42,1.42h-5.32l1.14,4.25h5.67a.85.85,0,0,1,.85.85v.29h6.52V443.7L206.16,430v-1.84a2.84,2.84,0,0,1,2.84-2.83h16.21a2.83,2.83,0,0,1,2.74,2.1l4.68,17.46h5.56V443.7L234.51,430v-1.84a2.83,2.83,0,0,1,2.83-2.83h16.44a2.84,2.84,0,0,1,2.84,2.83v8.51a2.84,2.84,0,0,1-2.84,2.83h-3.11l-1.14,4.25v1.42h14.18V320.4a2.84,2.84,0,0,0-2.84-2.84H249.53V319l1.14,4.25h3.11a2.84,2.84,0,0,1,2.84,2.84v8.5a2.84,2.84,0,0,1-2.84,2.83H237.34a2.83,2.83,0,0,1-2.83-2.83v-1.84L238.19,319v-1.42H227.61a1.4,1.4,0,0,0-1.36,1.05l-.76,2.84a1.4,1.4,0,0,0,1,1.73,1.5,1.5,0,0,0,.37.05h2.86l-1.72,6.4a2.83,2.83,0,0,1-2.74,2.1H167.31a2.32,2.32,0,0,0-1.25.38,2.83,2.83,0,0,1-3.13,0,2.36,2.36,0,0,0-1.26-.38H144.88l-33.7,4.74a8.38,8.38,0,0,1-3.38-.21,8.5,8.5,0,0,1-6-10.41l6-22.46V283.83A2.84,2.84,0,0,0,105,281h-1.42v2.27a1.42,1.42,0,0,1-1.42,1.42H99.3A7.08,7.08,0,0,1,92.21,277.59Z" transform="translate(1.51 1.44)"/></g><line class="cls-1" x1="253.08" y1="147.18" x2="253.08" y2="124.5"/><line class="cls-1" x1="310.32" y1="144.72" x2="310.32" y2="173.28"/><polyline class="cls-1" points="309.72 173.82 309.96 173.76 310.2 173.52 310.26 173.28"/><line class="cls-1" x1="309.72" y1="173.82" x2="291.3" y2="173.82"/><polyline class="cls-1" points="290.76 173.28 290.94 173.64 291.3 173.82"/><line class="cls-1" x1="290.76" y1="173.28" x2="290.76" y2="164.76"/><path class="cls-1" d="M289.19,163.32l-.06-1a6.76,6.76,0,0,0-5.4-5.4l-1-.06H270" transform="translate(1.51 1.44)"/><polyline class="cls-1" points="270.96 157.68 271.14 158.04 271.5 158.22"/><line class="cls-1" x1="270.9" y1="157.68" x2="270.9" y2="154.32"/><path class="cls-1" d="M269.33,152.88l-.06-1a6.76,6.76,0,0,0-5.4-5.4l-1-.06" transform="translate(1.51 1.44)"/><line class="cls-1" x1="264.36" y1="147.78" x2="258.72" y2="147.78"/><polyline class="cls-1" points="258.18 147.18 258.36 147.54 258.72 147.72"/><line class="cls-1" x1="258.18" y1="147.18" x2="258.18" y2="129.9"/><polyline class="cls-1" points="258.84 129.36 258.54 129.42 258.3 129.6 258.18 129.9"/><line class="cls-1" x1="258.84" y1="129.36" x2="308.82" y2="142.8"/><polyline class="cls-1" points="310.32 144.72 310.2 144.06 309.9 143.52 309.42 143.1 308.88 142.8"/><polyline class="cls-1" points="255.78 123.66 253.08 123.66 253.08 151.44 253.2 151.98 253.5 152.4 253.92 152.7 254.46 152.82"/><line class="cls-1" x1="254.46" y1="152.88" x2="264.36" y2="152.88"/><polyline class="cls-1" points="265.74 154.32 265.62 153.78 265.32 153.36 264.9 153.06 264.36 152.94"/><line class="cls-1" x1="265.8" y1="154.32" x2="265.8" y2="161.94"/><polyline class="cls-1" points="265.86 161.94 265.98 162.48 266.28 162.9 266.7 163.2 267.24 163.32"/><line class="cls-1" x1="267.24" y1="163.38" x2="284.22" y2="163.38"/><polyline class="cls-1" points="285.6 164.76 285.48 164.22 285.18 163.8 284.76 163.5 284.22 163.38"/><polyline class="cls-1" points="285.66 164.76 285.66 179.22 285.78 179.64 286.08 179.94 286.5 180.06 288.18 180.06 288.6 179.94 288.9 179.64 289.02 179.22 289.02 178.98 296.16 178.98"/><polyline class="cls-1" points="298.86 181.08 298.62 180.36 298.14 179.82 297.54 179.34 296.88 179.1 296.16 178.98"/><line class="cls-1" x1="298.86" y1="181.08" x2="299.7" y2="184.02"/><polyline class="cls-1" points="299.34 186.24 299.64 185.52 299.76 184.8 299.64 184.02"/><polyline class="cls-1" points="299.34 186.24 294.72 193.68 292.44 193.68"/><path class="cls-1" d="M290.93,192.3l-.66.06a2.55,2.55,0,0,0,0,4.92l.66.06H296l8-12.72-1.44-5.34" transform="translate(1.51 1.44)"/><polyline class="cls-1" points="305.46 178.98 304.98 179.1 304.56 179.34 304.26 179.76 304.08 180.24 304.14 180.72"/><path class="cls-1" d="M304,177.54h2.7l5.28,1.38h2V143.28l-.06-1a7.07,7.07,0,0,0-4.2-5.46l-1-.36" transform="translate(1.51 1.44)"/><polyline class="cls-1" points="310.14 137.88 258.72 124.08 257.28 123.84 255.78 123.72"/><g id="LWPOLYLINE-13" data-name="LWPOLYLINE"><path class="cls-2" d="M158.75,270.55l.06-.44,4.05-37.66a.56.56,0,0,1,.56-.51H173a1.42,1.42,0,0,0,0-2.84h-9.24a.56.56,0,0,1-.5-.62l1.43-13.34a.57.57,0,0,1,.51-.5,1.42,1.42,0,0,0,.3-2.76.56.56,0,0,1-.39-.6L166.45,199a.57.57,0,0,1,.52-.5l.74-.08,39.84-5.6a7.12,7.12,0,0,0,5.87-5.2.56.56,0,0,1,.54-.42h8.1a.57.57,0,0,1,.57.57v3.68a1.42,1.42,0,1,0,2.83,0v-3.68a.58.58,0,0,1,.57-.57H241.9a.57.57,0,0,1,.57.57v3.68a1.42,1.42,0,1,0,2.84,0v-3.68a.57.57,0,0,1,.56-.57H274.5a6.25,6.25,0,0,0,5.07-2.6.56.56,0,0,1,.46-.23h4.3a.39.39,0,0,1,.15,0,.57.57,0,0,1,.4.69l-2.16,8v85.64a.57.57,0,0,1-.56.57h-3.4a.57.57,0,0,1-.57-.57v-1.42a.57.57,0,0,1,.06-.25l1.3-2.61a.57.57,0,0,0-.26-.76.54.54,0,0,0-.25-.06H274.5a.56.56,0,0,0-.56.56.58.58,0,0,0,.06.26l1.29,2.61a.57.57,0,0,1,.06.25.56.56,0,0,1-.56.57H256.22a.57.57,0,0,1-.57-.57v-7.65a6.18,6.18,0,0,0-.16-1.42l-4.21-18a5.69,5.69,0,0,1,.05-2.75l5.86-21.89a.57.57,0,0,0-.4-.7l-.14,0h-1.81a.57.57,0,0,0-.53.36l-7.24,18.65a.56.56,0,0,1-.7.33,7.13,7.13,0,0,0-2.2-.35h-8.4a.58.58,0,0,1-.53-.35l-2.55-6.38a.56.56,0,0,0-.52-.35h-1.89a.56.56,0,0,0-.56.56v6a.57.57,0,0,1-.57.56h-4.54a.56.56,0,0,1-.56-.56v-6a.57.57,0,0,0-.57-.56H221.6a.57.57,0,0,0-.53.35l-2.55,6.38a.57.57,0,0,1-.53.35h-8.4a7.09,7.09,0,0,0-6.9,5.48l-4.42,18.9a6.18,6.18,0,0,0-.16,1.42v7.65a.56.56,0,0,1-.57.57H181a.59.59,0,0,1-.46-.23l-.06-.09a.54.54,0,0,1-.12-.34v-7.84a1.42,1.42,0,1,0-2.83,0V274a.59.59,0,0,1-.05.23.57.57,0,0,1-.76.28,9.92,9.92,0,0,0-4.15-.91H158.8a.56.56,0,0,1-.46-.65Z" transform="translate(1.51 1.44)"/></g><g id="LWPOLYLINE-14" data-name="LWPOLYLINE"><path class="cls-2" d="M141.84,261.7a.57.57,0,0,0,.57.57h13.88a.56.56,0,0,0,.56-.51l6.77-63a.57.57,0,0,0-.44-.61,12.76,12.76,0,0,1-6.61-3.8.53.53,0,0,0-.36-.17l-13.74-1.45a.56.56,0,0,0-.62.51.07.07,0,0,0,0,.05Z" transform="translate(1.51 1.44)"/></g><g id="LWPOLYLINE-15" data-name="LWPOLYLINE"><path class="cls-2" d="M126.25,261.7a.57.57,0,0,0,.57.57H139a.56.56,0,0,0,.56-.57V193a.57.57,0,0,0-.5-.57l-12.19-1.28a.59.59,0,0,0-.63.51V261.7Z" transform="translate(1.51 1.44)"/></g><g id="LWPOLYLINE-16" data-name="LWPOLYLINE"><path class="cls-2" d="M126.76,188.84l26.93,2.83a.56.56,0,0,0,.62-.51.56.56,0,0,0-.05-.28,12.81,12.81,0,0,1-.34-9.43l2.1-6.52V152a.58.58,0,0,0-.57-.57h-2.27a12.76,12.76,0,0,1-12.76-12.75v-1.24a12.07,12.07,0,0,1,.15-1.9.57.57,0,0,0-.48-.64.59.59,0,0,0-.23,0l-12.56,3.37a1.4,1.4,0,0,0-1,1.36v48.64A.56.56,0,0,0,126.76,188.84Z" transform="translate(1.51 1.44)"/></g><g id="LWPOLYLINE-17" data-name="LWPOLYLINE"><rect class="cls-2" x="287.07" y="235.36" width="9.92" height="45.35" rx="0.57"/></g><g id="LWPOLYLINE-18" data-name="LWPOLYLINE"><rect class="cls-2" x="282.25" y="284.97" width="29.76" height="26.93" rx="0.57"/></g><g id="LWPOLYLINE-19" data-name="LWPOLYLINE"><path class="cls-2" d="M286.13,231.66h8.78a.57.57,0,0,0,.57-.57V204.73a.56.56,0,0,0-.57-.57h-3.68a8.53,8.53,0,0,1-4.79-1.47.55.55,0,0,0-.78.15.5.5,0,0,0-.1.31v27.94A.57.57,0,0,0,286.13,231.66Z" transform="translate(1.51 1.44)"/></g><g id="LWPOLYLINE-20" data-name="LWPOLYLINE"><rect class="cls-2" x="299.26" y="205.6" width="12.76" height="75.12" rx="0.57"/></g><g id="LWPOLYLINE-21" data-name="LWPOLYLINE"><path class="cls-2" d="M296.33,323.21v2.84a12.74,12.74,0,0,1-1.63,6.24.56.56,0,0,0,.22.77.53.53,0,0,0,.27.08h14.75a.57.57,0,0,0,.56-.57V313.29a.56.56,0,0,0-.56-.56H292.47a.56.56,0,0,0-.57.56.59.59,0,0,0,.19.43A12.73,12.73,0,0,1,296.33,323.21Z" transform="translate(1.51 1.44)"/></g><g id="LWPOLYLINE-22" data-name="LWPOLYLINE"><path class="cls-2" d="M204.35,277.29H209a.56.56,0,0,0,.57-.56v-6a.56.56,0,0,0-.57-.56h-4.67l-.13,0a.56.56,0,0,1-.43-.68l4.42-18.9a1.42,1.42,0,0,1,1.38-1.1h10a.55.55,0,0,1,.43.21,3.42,3.42,0,0,0,4.8.41,2.65,2.65,0,0,0,.41-.41.58.58,0,0,1,.44-.21h2.42a.58.58,0,0,1,.44.21,3.4,3.4,0,0,0,4.79.41,3.25,3.25,0,0,0,.42-.41.58.58,0,0,1,.43-.21h10a1.42,1.42,0,0,1,1.38,1.1l4.42,18.9a.59.59,0,0,1-.55.7h-4.68a.57.57,0,0,0-.57.56v6a.57.57,0,0,0,.57.56h4.68a.57.57,0,0,1,.56.57V283a.57.57,0,0,0,.57.57H274.5a.56.56,0,0,1,.57.57v33.16a2.84,2.84,0,0,0,2.83,2.84h1.42v-2.56a1.42,1.42,0,0,1,1.42-1.41h2.83a7.08,7.08,0,0,1,7.09,7.08v2.84a7.09,7.09,0,0,1-7.09,7.09h-2.83a1.43,1.43,0,0,1-1.42-1.42v-2.55H277.9a2.83,2.83,0,0,0-2.83,2.83v6.8a1.41,1.41,0,0,0,1.42,1.42h32.6a8.51,8.51,0,0,0,8.5-8.5V181.48a2.83,2.83,0,0,0-2.83-2.83H303.42v1.41l1.14,4.26h3.11a2.83,2.83,0,0,1,2.83,2.83v8.51a2.83,2.83,0,0,1-2.83,2.83H291.23a2.84,2.84,0,0,1-2.84-2.83v-1.85l3.69-13.75v-1.41h-17v2.26a.56.56,0,0,1-.57.57H236.79a2.27,2.27,0,0,0-1.26.38,2.83,2.83,0,0,1-3.13,0,2.24,2.24,0,0,0-1.25-.38H207v1.42l.86,2.36a1.53,1.53,0,0,1,.07.29,1.41,1.41,0,0,1-1.21,1.6l-39.84,5.6a7.08,7.08,0,0,1-7.63-9.47l2.39-7.47v-30.9a2.83,2.83,0,0,0-2.83-2.83h-1.42v2.27a1.42,1.42,0,0,1-1.41,1.42h-2.84a7.1,7.1,0,0,1-7.09-7.09v-1.47a7.08,7.08,0,0,1,5.26-6.84l5-1.35a.83.83,0,0,1,.22,0,.85.85,0,0,1,.85.85V133h1.42a2.83,2.83,0,0,0,2.83-2.84v-3a1.43,1.43,0,0,0-.88-1.31.9.9,0,0,1-.47-.47.85.85,0,0,1,.47-1.11,1.41,1.41,0,0,0,.88-1.31v-1h-.85l-35.36,9.48a8.51,8.51,0,0,0-6.31,8.21V279.28h14.18v-1.42l-1.14-4.25h-4.53a1.43,1.43,0,0,1-1.42-1.42v-2.83a1.42,1.42,0,0,1,1.42-1.42h24.09l.24,0a1.42,1.42,0,0,1,1.16,1.64l-1.38,8a1.43,1.43,0,0,0,1.16,1.64l.24,0H172.6a4.25,4.25,0,0,1,4.25,4.25h26.36a.56.56,0,0,0,.57-.57v-5.1A.57.57,0,0,1,204.35,277.29Z" transform="translate(1.51 1.44)"/></g></g><g id="stal"><polygon class="cls-3" points="206.37 414.31 218.47 402.47 219.14 401.56 219.6 400.55 219.71 399.53 219.62 343.22 223.87 343.28 223.87 398.78 223.76 400.7 223.19 402.51 222.18 404.2 221.05 405.78 209.74 416.97 208.27 418.22 206.58 419.12 204.77 419.69 202.73 419.8 145.77 419.8 143.84 419.69 142.03 419.12 140.34 418.22 138.76 416.97 127.57 405.78 126.32 404.2 125.42 402.51 124.85 400.7 124.74 398.78 124.74 343.28 128.99 343.28 128.94 399.61 129.05 400.63 129.5 401.64 130.18 402.55 142.32 414.31 143.23 414.98 144.25 415.44 145.26 415.55 203.31 415.55 204.44 415.44 205.46 414.98 206.37 414.31"/><g id="LWPOLYLINE-23" data-name="LWPOLYLINE"><path class="cls-4" d="M171.46,205.58v20.69h-3.54V205.58a7.09,7.09,0,0,1,11.64-5.43l7.63,6.4a3.55,3.55,0,0,0,5-.44,2.15,2.15,0,0,0,.18-.24l6-8.61a7.11,7.11,0,0,1,5.81-3H254.6L276,199.93a7.09,7.09,0,0,1,5.27,6.85v65.41h-3.55V206.78a3.54,3.54,0,0,0-2.63-3.43l-21-5.57H204.21a3.55,3.55,0,0,0-2.9,1.51l-6,8.61c-.12.17-.25.33-.38.49a7.09,7.09,0,0,1-10,.88l-7.64-6.41a3.55,3.55,0,0,0-5.82,2.72Z" transform="translate(1.51 1.44)"/></g></g><g id="uszczelki"><polygon class="cls-5" points="247.1 127.69 245.3 125.54 243.83 123.17 242.81 120.68 242.81 117.63 242.92 117.06 243.38 116.61 243.94 116.39 244.51 116.61 244.84 117.06 245.07 117.63 245.52 119.1 246.43 120.46 247.56 121.59 248.91 122.49 250.38 123.17 251.97 123.39 252.31 123.51 252.64 123.85 252.64 124.3 252.64 151.31 252.31 151.99 251.74 152.44 250.16 152.78 248.57 152.78 246.99 152.33 245.64 151.65 244.39 150.52 243.38 149.28 242.81 147.81 242.81 145.55 242.92 144.76 243.49 143.97 244.17 143.51 245.07 143.29 245.86 143.51 246.65 143.97 247.1 144.76 247.44 145.55 248.01 146.12 248.69 146.45 249.59 146.57 250.04 146.34 250.27 146 250.38 145.55 250.38 135.6 250.27 133.79 249.82 132.1 249.14 130.52 248.24 128.93 247.1 127.69"/><path class="cls-5" d="M118.88,259.06l-.67-.45h-2.49l-2.6.34-2.37.79L108.37,261l-.22.22-.23.34-.11.34v7.35l-.23,1-.56.91-.91.56L105,272h-1.36v-1.47l-.22-.68-.57-.56-.67-.23-.68.23-.57.56-.11.68v3.84l.79.12.79.56.45.68.23.9-.23.91-.45.68-.79.45-.79.22v3.85l.11.68.57.56.68.11.67-.11.57-.56.22-.68V281H105l.91.23.79.34.56.68.45.79.12.79v2.82l.11.12h.79l.68-.23.68-.45.45-.57.11-.79v-4l.12-.91.45-.79.79-.56,1.47-.23,1.47-.57,1.24-.9,1.13-1.24.91-1.36.67-1.58.34-1.7V259.74Zm-2.71,7.46-.56,4.53-.46,1.13-.56,1-.91.79-.67.23-.79-.11-.46-.57-.22-.68v-7.12l.11-.68.45-.45.57-.34,1-.34,1-.56.23-.57.11-.67.11-.46.34-.34H116l.33.23.12.45Z" transform="translate(1.51 1.44)"/><g id="LINE"><polyline class="cls-6" points="173 189.73 163.56 189.73 161.67 188.54 160.62 185.26 161.47 182.92 169.15 182.92 172.84 179.67 178.78 176.89 184.64 175.86 193.85 175.91 200.44 177.44 204.84 179.7 205.39 180.09 245.68 180.09 245.68 182.92 244.15 182.92 208.55 182.92 208.46 188.56 202.88 189.34 200.91 188.17 183.18 188.03 178.53 192.59 173.12 193.53"/></g><g id="LINE-2" data-name="LINE"><line class="cls-1" x1="205.3" y1="180.09" x2="205.3" y2="182.92"/></g><g id="LINE-3" data-name="LINE"><line class="cls-1" x1="245.68" y1="182.92" x2="205.3" y2="182.92"/></g><g id="LINE-4" data-name="LINE"><line class="cls-1" x1="205.3" y1="180.09" x2="245.68" y2="180.09"/></g><g id="LINE-5" data-name="LINE"><line class="cls-1" x1="245.68" y1="180.09" x2="245.68" y2="182.92"/></g><g id="LINE-6" data-name="LINE"><line class="cls-1" x1="199.8" y1="188.03" x2="183.04" y2="188.03"/></g><g id="LINE-7" data-name="LINE"><line class="cls-1" x1="169.15" y1="189.73" x2="169.15" y2="185.76"/></g><g id="LINE-8" data-name="LINE"><line class="cls-1" x1="208.55" y1="185.76" x2="208.55" y2="188.54"/></g><g id="LINE-9" data-name="LINE"><line class="cls-1" x1="169.15" y1="185.26" x2="160.62" y2="185.26"/></g><g id="LINE-10" data-name="LINE"><line class="cls-1" x1="161.47" y1="182.92" x2="169.15" y2="182.92"/></g><g id="LINE-11" data-name="LINE"><line class="cls-1" x1="160.62" y1="185.26" x2="161.47" y2="182.92"/></g><g id="LINE-12" data-name="LINE"><line class="cls-1" x1="173.11" y1="189.73" x2="173.11" y2="193.52"/></g><g id="LINE-13" data-name="LINE"><line class="cls-1" x1="173.11" y1="193.52" x2="178.78" y2="192.73"/></g><g id="LINE-14" data-name="LINE"><line class="cls-1" x1="202.88" y1="189.34" x2="208.46" y2="188.56"/></g><g id="ARC"><path class="cls-1" d="M207,187.12l.09,0" transform="translate(1.51 1.44)"/></g><g id="LINE-15" data-name="LINE"><line class="cls-1" x1="169.15" y1="182.92" x2="169.15" y2="185.76"/></g><g id="LINE-16" data-name="LINE"><line class="cls-1" x1="169.15" y1="185.76" x2="208.55" y2="185.76"/></g><g id="LINE-17" data-name="LINE"><line class="cls-1" x1="208.55" y1="185.76" x2="208.55" y2="182.92"/></g><g id="LINE-18" data-name="LINE"><line class="cls-1" x1="169.15" y1="189.73" x2="164.87" y2="189.73"/></g><g id="ARC-2" data-name="ARC"><path class="cls-1" d="M159.11,184a4.26,4.26,0,0,0,4.26,4.26" transform="translate(1.51 1.44)"/></g><g id="LINE-19" data-name="LINE"><line class="cls-1" x1="169.15" y1="189.73" x2="173.11" y2="189.73"/></g><g id="LINE-20" data-name="LINE"><line class="cls-1" x1="160.62" y1="185.26" x2="160.62" y2="185.47"/></g><g id="ARC-3" data-name="ARC"><path class="cls-1" d="M201.37,187.9a4.25,4.25,0,0,0-3.08-1.32" transform="translate(1.51 1.44)"/></g><g id="ARC-4" data-name="ARC"><path class="cls-1" d="M203.79,178.65a22.64,22.64,0,0,0-13.22-4.25" transform="translate(1.51 1.44)"/></g><g id="LINE-21" data-name="LINE"><line class="cls-1" x1="192.08" y1="175.84" x2="185.61" y2="175.84"/></g><g id="ARC-5" data-name="ARC"><path class="cls-1" d="M184.11,174.4a22.69,22.69,0,0,0-16.47,7.08" transform="translate(1.51 1.44)"/></g><g id="ARC-6" data-name="ARC"><path class="cls-1" d="M207,187.1a1.41,1.41,0,0,0,1.13-1.39" transform="translate(1.51 1.44)"/></g><g id="LINE-22" data-name="LINE"><line class="cls-1" x1="209.68" y1="186.89" x2="209.68" y2="187.15"/></g><g id="LINE-23" data-name="LINE"><line class="cls-1" x1="208.55" y1="186.89" x2="209.68" y2="186.89"/></g><g id="LINE-24" data-name="LINE"><line class="cls-1" x1="178.78" y1="192.28" x2="183.04" y2="188.03"/></g><rect class="cls-7" x="245.68" y="179.87" width="28.29" height="3.05"/><g id="LWPOLYLINE-24" data-name="LWPOLYLINE"><path class="cls-5" d="M161.88,144.91h-.2v2.84h.56a.86.86,0,0,0,.53-.19,26,26,0,0,0,7.72-17.29.56.56,0,0,1,.22-.41.55.55,0,1,1,.68.87,1.44,1.44,0,0,0-.55,1.09l-.09,4.36a1.93,1.93,0,0,1-.5,1.28,1.13,1.13,0,0,0,1.69,1.51,4.24,4.24,0,0,0,1.08-2.83V121.69a2.27,2.27,0,0,0-2.26-2.27,2.18,2.18,0,0,0-.63.09L161.68,122v8.22a2.79,2.79,0,0,1-.58,1.72.58.58,0,0,0,.11.8h0l.2.14a.58.58,0,0,1,.24.47v1.12a1.42,1.42,0,0,0,2.84,0v-1a.58.58,0,0,1,.47-.56l1.71-.3a1.13,1.13,0,0,0-.39-2.23l-.56.1h-.1a.56.56,0,0,1-.56-.56v-4.6a1.71,1.71,0,0,1,1.11-1.6l3.68-1.34a.61.61,0,0,1,.3,0,.84.84,0,0,1,.84.86l-.07,3.63a1.42,1.42,0,0,1-1,1.34,1.4,1.4,0,0,0-1,1.58A22,22,0,0,1,161.88,144.91Z" transform="translate(1.51 1.44)"/></g><g id="LWPOLYLINE-25" data-name="LWPOLYLINE"><path class="cls-8" d="M267.18,322.92l1-.83a1.13,1.13,0,1,0-1.48-1.72l-1,.83a5.69,5.69,0,0,0-2,4.3v8.66A7.18,7.18,0,0,0,266.4,338a3.62,3.62,0,0,0,1.63.74,17.6,17.6,0,0,0,6.42-.59.83.83,0,0,0,.62-.81V332h-1.42a.85.85,0,0,0-.85.85v2.57a.85.85,0,0,1-.53.79,12.33,12.33,0,0,1-3.5.67,1.35,1.35,0,0,1-1.27-.43,8.11,8.11,0,0,1-1.54-3.16,1.39,1.39,0,0,1-.06-.4,1.36,1.36,0,0,1,1.37-1.32,1.76,1.76,0,0,0,1.17-.37,5.15,5.15,0,0,0,1.95-3.43,14.71,14.71,0,0,1,2.28-7.64l2.2-2.61a.87.87,0,0,0,.2-.55v-2.54h-.17a.85.85,0,0,0-.65.3l-3,3.55a11.51,11.51,0,0,0-2.5,8.14,2.79,2.79,0,0,1-1.25,2.85.87.87,0,0,1-.81.12.88.88,0,0,1-.56-1.12,4.11,4.11,0,0,0,0-1.16c0-.37-.08-.73-.14-1.09A3.41,3.41,0,0,1,267.18,322.92Z" transform="translate(1.51 1.44)"/></g></g><g id="szklenie"><polygon class="cls-9" points="231.46 166.01 231.46 147.58 224.38 154.67 193.2 154.67 186.11 147.58 186.11 166.01 231.46 166.01"/><line class="cls-1" x1="186.11" y1="151.17" x2="187.9" y2="149.38"/><line class="cls-1" x1="186.11" y1="157.53" x2="191.08" y2="152.56"/><line class="cls-1" x1="186.11" y1="163.9" x2="195.34" y2="154.67"/><line class="cls-1" x1="190.36" y1="166.01" x2="201.7" y2="154.67"/><line class="cls-1" x1="196.73" y1="166.01" x2="208.06" y2="154.67"/><line class="cls-1" x1="203.09" y1="166.01" x2="214.43" y2="154.67"/><line class="cls-1" x1="209.45" y1="166.01" x2="220.79" y2="154.67"/><line class="cls-1" x1="215.82" y1="166.01" x2="231.46" y2="150.36"/><line class="cls-1" x1="222.18" y1="166.01" x2="231.46" y2="156.73"/><line class="cls-1" x1="228.55" y1="166.01" x2="231.46" y2="163.09"/><line class="cls-1" x1="190.46" y1="166.01" x2="186.11" y2="161.66"/><line class="cls-1" x1="196.82" y1="166.01" x2="186.11" y2="155.3"/><line class="cls-1" x1="203.18" y1="166.01" x2="186.11" y2="148.93"/><line class="cls-1" x1="209.55" y1="166.01" x2="198.21" y2="154.67"/><line class="cls-1" x1="215.91" y1="166.01" x2="204.57" y2="154.67"/><line class="cls-1" x1="222.28" y1="166.01" x2="210.94" y2="154.67"/><line class="cls-1" x1="228.64" y1="166.01" x2="217.3" y2="154.67"/><line class="cls-1" x1="231.46" y1="162.47" x2="223.67" y2="154.67"/><line class="cls-1" x1="231.46" y1="156.11" x2="227.2" y2="151.84"/><line class="cls-1" x1="231.46" y1="149.74" x2="230.39" y2="148.66"/><g id="LWPOLYLINE-26" data-name="LWPOLYLINE"><polygon class="cls-10" points="231.46 136.25 231.46 147.58 224.38 154.67 193.2 154.67 186.11 147.58 186.11 136.25 208.41 136.25 208.79 136.48 209.16 136.25 231.46 136.25"/></g><g id="LWPOLYLINE-27" data-name="LWPOLYLINE"><polygon class="cls-1" points="228.63 139.08 228.63 146.41 223.2 151.84 194.37 151.84 188.94 146.41 188.94 139.08 228.63 139.08"/></g><g id="HATCH"><polygon class="cls-11" points="188.94 139.08 188.94 146.41 194.37 151.84 223.2 151.84 228.63 146.41 228.63 139.08 188.94 139.08"/><path class="cls-1" d="M187.44,137.76h0m1,0h0m2.25,0h0m2.25,0h0m2.25,0h0m2.25,0h0m2.25,0h0m2.25,0h0m2.25,0h0m2.25,0h0m2.25,0h0m2.25,0h0m2.25,0h0m2.25,0h0m2.25,0h0m2.25,0h0m2.25,0h0m2.25,0h0m2.25,0h0M187.44,140h0m2.1,0h0m2.25,0h0m2.25,0h0m2.25,0h0m2.25,0h0m2.25,0h0m2.25,0h0m2.25,0h0m2.25,0h0m2.25,0h0m2.25,0h0m2.25,0h0m2.25,0h0m2.25,0h0m2.25,0h0m2.25,0h0m2.25,0h0m-38.1,2.25h0m1,0h0m2.25,0h0m2.25,0h0m2.25,0h0m2.25,0h0m2.25,0h0m2.25,0h0m2.25,0h0m2.25,0h0m2.25,0h0m2.25,0h0m2.25,0h0m2.25,0h0m2.25,0h0m2.25,0h0m2.25,0h0m2.25,0h0m2.25,0h0m-39.23,2.25h0m2.1,0h0m2.25,0h0m2.25,0h0m2.25,0h0m2.25,0h0m2.25,0h0m2.25,0h0m2.25,0h0m2.25,0h0m2.25,0h0m2.25,0h0m2.25,0h0m2.25,0h0m2.25,0h0m2.25,0h0m2.25,0h0m2.25,0h0m-36.31,2.25h0m1.44,0h0m2.25,0h0m2.25,0h0m2.25,0h0m2.25,0h0m2.25,0h0m2.25,0h0m2.25,0h0m2.25,0h0m2.25,0h0m2.25,0h0m2.25,0h0m2.25,0h0m2.25,0h0m2.25,0h0m2.25,0h0M191.48,149h0m.31,0h0m2.25,0h0m2.25,0h0m2.25,0h0m2.25,0h0m2.25,0h0m2.25,0h0m2.25,0h0m2.25,0h0m2.25,0h0m2.25,0h0m2.25,0h0m2.25,0h0m2.25,0h0" transform="translate(1.51 1.44)"/></g><g id="LWPOLYLINE-28" data-name="LWPOLYLINE"><rect class="cls-12" x="174.77" y="69.42" width="11.34" height="96.59"/></g><g id="LWPOLYLINE-29" data-name="LWPOLYLINE"><rect class="cls-12" x="231.46" y="69.42" width="11.34" height="96.59"/></g><line class="cls-1" x1="257.05" y1="69.3" x2="222.35" y2="69.3"/><line class="cls-1" x1="208.79" y1="69.3" x2="208.9" y2="69.42"/><line class="cls-1" x1="195.22" y1="69.3" x2="160.63" y2="69.3"/><rect class="cls-13" x="168.66" y="166.01" width="79.35" height="14.13"/><polyline class="cls-1" points="168.66 180.14 168.66 166.01 248.01 166.01 168.66 180.14 248.01 180.14 168.66 166.01 248.01 166.01 248.01 180.14"/></g><g id="wymiary"><line class="cls-14" x1="265.65" y1="446.56" x2="378.63" y2="446.56"/><line class="cls-14" x1="247.44" y1="166.01" x2="378.69" y2="166.01"/><line class="cls-14" x1="160.4" y1="123.51" x2="10.21" y2="123.51"/><line class="cls-14" x1="66.82" y1="446.56" x2="10.15" y2="446.56"/><line class="cls-14" x1="163.23" y1="123.51" x2="34.26" y2="123.51"/><line class="cls-14" x1="106.48" y1="262.31" x2="38.61" y2="262.31"/><line class="cls-14" x1="313.45" y1="341.66" x2="350.34" y2="341.66"/><line class="cls-14" x1="108.86" y1="262.31" x2="38.61" y2="262.31"/><line class="cls-14" x1="66.82" y1="446.56" x2="66.82" y2="474.99"/><line class="cls-14" x1="265.19" y1="446.56" x2="265.19" y2="474.99"/><line class="cls-14" x1="66.82" y1="277.45" x2="66.82" y2="10.15"/><line class="cls-14" x1="319.11" y1="181.61" x2="319.11" y2="10.15"/><line class="cls-14" x1="120.73" y1="145.2" x2="120.73" y2="38.5"/><line class="cls-14" x1="276.49" y1="341.66" x2="276.49" y2="372.93"/><line class="cls-14" x1="315.94" y1="180.14" x2="350.28" y2="180.14"/><line class="cls-14" x1="184.26" y1="285.03" x2="179.96" y2="285.03"/><line class="cls-14" x1="227.38" y1="319.06" x2="181.42" y2="319.06"/><line class="cls-14" x1="184.26" y1="293.51" x2="184.26" y2="310.58"/><polygon class="cls-15" points="182.79 293.51 185.62 293.51 184.26 285.03 182.79 293.51"/><polygon class="cls-15" points="185.62 310.58 182.79 310.58 184.26 319.06 185.62 310.58"/><line class="cls-14" x1="75.29" y1="472.21" x2="256.71" y2="472.21"/><polygon class="cls-15" points="75.29 473.57 75.29 470.74 66.82 472.21 75.29 473.57"/><polygon class="cls-15" points="256.71 470.74 256.71 473.57 265.19 472.21 256.71 470.74"/><text class="cls-16" transform="translate(161.38 469.21)">70</text><line class="cls-14" x1="41.39" y1="270.9" x2="41.39" y2="438.08"/><polygon class="cls-15" points="40.03 270.9 42.86 270.9 41.39 262.31 40.03 270.9"/><polygon class="cls-15" points="42.86 438.08 40.03 438.08 41.39 446.56 42.86 438.08"/><text class="cls-16" transform="translate(38.39 359.11) rotate(-90)">65</text><line class="cls-14" x1="13.04" y1="131.99" x2="13.04" y2="438.08"/><polygon class="cls-15" points="11.57 131.98 14.4 131.98 13.04 123.51 11.57 131.98"/><polygon class="cls-15" points="14.4 438.08 11.57 438.08 13.04 446.56 14.4 438.08"/><text class="cls-16" transform="translate(10.04 291.96) rotate(-90)">114</text><line class="cls-14" x1="41.39" y1="131.99" x2="41.39" y2="253.84"/><polygon class="cls-15" points="40.03 131.98 42.86 131.98 41.39 123.51 40.03 131.98"/><polygon class="cls-15" points="42.86 253.83 40.03 253.83 41.39 262.31 42.86 253.83"/><text class="cls-16" transform="translate(38.39 197.53) rotate(-90)">49</text><text class="cls-16" transform="translate(181.26 306.67) rotate(-90)">12</text><line class="cls-14" x1="347.45" y1="350.25" x2="347.45" y2="438.08"/><polygon class="cls-15" points="346.1 350.25 348.92 350.25 347.45 341.66 346.1 350.25"/><polygon class="cls-15" points="348.92 438.08 346.1 438.08 347.45 446.56 348.92 438.08"/><text class="cls-16" transform="translate(344.45 398.79) rotate(-90)">37</text><line class="cls-14" x1="375.79" y1="438.08" x2="375.79" y2="174.49"/><polygon class="cls-15" points="377.27 438.08 374.44 438.08 375.8 446.56 377.27 438.08"/><polygon class="cls-15" points="374.44 174.48 377.27 174.48 375.8 166.01 374.44 174.48"/><text class="cls-16" transform="translate(372.79 310.9) rotate(-90)">99</text><line class="cls-14" x1="347.45" y1="333.19" x2="347.45" y2="188.73"/><polygon class="cls-15" points="348.92 333.18 346.1 333.18 347.45 341.66 348.92 333.18"/><polygon class="cls-15" points="346.1 188.73 348.92 188.73 347.45 180.14 346.1 188.73"/><polygon class="cls-14" points="346.09 188.73 348.92 188.73 347.45 180.14 346.09 188.73"/><polygon class="cls-15" points="346.1 188.73 348.92 188.73 347.45 180.14 346.1 188.73"/><text class="cls-16" transform="translate(344.45 265.58) rotate(-90)">57</text><line class="cls-14" x1="347.45" y1="180.14" x2="347.45" y2="166.01"/><line class="cls-14" x1="347.45" y1="157.53" x2="347.45" y2="149.05"/><polygon class="cls-15" points="348.92 157.53 346.1 157.53 347.45 166.01 348.92 157.53"/><text class="cls-16" transform="translate(344.45 175.38) rotate(-90)">5</text><line class="cls-14" x1="265.19" y1="370.1" x2="276.49" y2="370.1"/><line class="cls-14" x1="256.71" y1="370.1" x2="248.23" y2="370.1"/><line class="cls-14" x1="285.08" y1="370.1" x2="295.37" y2="370.1"/><polygon class="cls-15" points="256.71 368.74 256.71 371.56 265.19 370.1 256.71 368.74"/><polygon class="cls-15" points="285.08 371.56 285.08 368.74 276.49 370.1 285.08 371.56"/><text class="cls-16" transform="translate(290.67 367.1)">4</text><line class="cls-14" x1="129.21" y1="41.39" x2="310.52" y2="41.39"/><polygon class="cls-15" points="129.21 42.74 129.21 39.92 120.73 41.39 129.21 42.74"/><polygon class="cls-15" points="310.52 39.92 310.52 42.74 319.11 41.39 310.52 39.92"/><text class="cls-16" transform="translate(215.24 38.39)">70</text><line class="cls-14" x1="75.29" y1="13.04" x2="310.52" y2="13.04"/><polygon class="cls-15" points="75.29 14.4 75.29 11.57 66.82 13.04 75.29 14.4"/><polygon class="cls-15" points="310.52 11.57 310.52 14.4 319.11 13.04 310.52 11.57"/><text class="cls-16" transform="translate(188.28 10.04)">89</text></g></svg>