<?xml version="1.0" encoding="UTF-8"?>
<svg xmlns="http://www.w3.org/2000/svg" viewBox="0 0 367.73 486.76">
  <defs>
    <style>
      .cls-1, .cls-2, .cls-3, .cls-4, .cls-5, .cls-6, .cls-7 {
        fill: none;
      }

      .cls-2 {
        stroke-width: .14px;
      }

      .cls-2, .cls-3, .cls-4, .cls-5, .cls-6, .cls-7, .cls-8, .cls-9, .cls-10 {
        stroke-linecap: round;
      }

      .cls-2, .cls-3, .cls-4, .cls-5, .cls-6, .cls-8, .cls-9, .cls-10 {
        stroke-linejoin: round;
      }

      .cls-2, .cls-6, .cls-7 {
        stroke: #1d1e1c;
      }

      .cls-3, .cls-5, .cls-10 {
        stroke-width: .71px;
      }

      .cls-3, .cls-9 {
        stroke: #f0f;
      }

      .cls-4, .cls-5, .cls-8, .cls-11, .cls-12, .cls-10 {
        stroke: #000;
      }

      .cls-4, .cls-12 {
        stroke-width: .71px;
      }

      .cls-6 {
        stroke-width: .71px;
      }

      .cls-13, .cls-9 {
        fill: #d20a11;
      }

      .cls-14 {
        fill: #dadada;
      }

      .cls-15 {
        fill: #1e1e1c;
        font-family: MyriadPro-Cond, 'Myriad Pro';
        font-size: 11.12px;
      }

      .cls-7, .cls-8, .cls-11 {
        stroke-width: .5px;
      }

      .cls-7, .cls-11, .cls-12 {
        stroke-miterlimit: 10;
      }

      .cls-8 {
        fill: #e9f6fd;
      }

      .cls-16 {
        fill: #1d1e1c;
      }

      .cls-16, .cls-17 {
        fill-rule: evenodd;
      }

      .cls-9 {
        stroke-width: 0px;
      }

      .cls-12, .cls-10 {
        fill: #ededed;
      }
    </style>
  </defs>
  <g id="Uszczelka">
    <g id="HATCH">
      <path class="cls-11" d="M156.66,99.59v14.53c0,.09,0,.19-.01,.28,0,.06-.01,.12-.02,.18-.09,.87-.45,1.71-1.05,2.37-.06,.06-.12,.12-.18,.16-.41,.3-.99,.29-1.4-.06t-.02-.01c-.43-.39-.5-1.04-.16-1.51,.02-.03,.04-.06,.07-.09,.32-.35,.49-.81,.5-1.28l.03-1.28v-.49s.06-2.59,.06-2.59c0-.3,.11-.58,.3-.82,.06-.1,.15-.19,.25-.27,.14-.11,.22-.26,.22-.43,0-.12-.04-.24-.12-.35-.19-.24-.54-.28-.78-.09-.13,.1-.21,.25-.22,.41,0,.02,0,.05-.01,.07,0,.39-.04,.78-.08,1.17-.07,.74-.17,1.47-.31,2.2-.14,.82-.33,1.64-.56,2.44-.05,.19-.11,.38-.18,.57-.28,.93-.62,1.85-1.02,2.74-.37,.86-.79,1.7-1.25,2.51-.19,.33-.39,.65-.59,.97h-.01c-.28,.46-.57,.89-.88,1.32-.52,.72-1.08,1.42-1.67,2.08-.37,.42-.76,.83-1.16,1.22-.15,.12-.34,.19-.53,.19h-.56v-2.83h.2c.11-.1,.21-.2,.32-.31,1.3-1.25,2.44-2.64,3.38-4.14,.2-.31,.38-.62,.56-.93,.28-.49,.53-.99,.77-1.5,.41-.87,.76-1.78,1.05-2.7,.19-.62,.36-1.24,.5-1.88,.09-.38,.16-.77,.22-1.16,.14-.86,.23-1.74,.27-2.62-.03-.16-.03-.32,0-.47,.02-.11,.05-.21,.09-.31,.15-.38,.47-.69,.89-.81,.07-.02,.15-.05,.22-.08h.01c.28-.15,.5-.38,.64-.65,.05-.11,.1-.22,.12-.34,.02-.09,.03-.18,.03-.27l.06-3.36v-.02s.01-.25,.01-.25c.01-.47-.37-.85-.84-.86-.08,0-.16,0-.24,.03-.02,.01-.04,.01-.06,.02l-2.44,.89-.25,.09-.99,.37c-.58,.21-.99,.71-1.09,1.31-.01,.09-.02,.18-.02,.28v4.6c0,.31,.25,.57,.56,.57,.04,0,.07-.01,.1-.01l.56-.1c.13-.02,.25-.02,.38,0,.28,.04,.54,.2,.72,.44,.1,.14,.18,.3,.21,.48h0c.11,.63-.3,1.2-.92,1.31l-1.31,.23-.4,.07c-.27,.05-.47,.29-.47,.56v1.03c0,.34-.12,.65-.33,.9-.26,.32-.65,.52-1.09,.52-.23,0-.44-.05-.63-.16-.47-.23-.79-.71-.79-1.26v-1.12c0-.16-.07-.31-.18-.41-.02-.03-.04-.04-.06-.06l-.2-.13s-.02-.02-.03-.02c-.18-.13-.25-.35-.21-.56,.01-.09,.04-.17,.1-.24,.38-.49,.58-1.09,.58-1.71v-8.22l.33-.09,2.91-.85,1.33-.39,1.58-.45,2.29-.67c.21-.05,.42-.09,.63-.09,.15,0,.29,.01,.43,.04,.96,.18,1.7,.97,1.82,1.94,.01,.07,.02,.14,.02,.21Z"/>
    </g>
    <g id="HATCH-2" data-name="HATCH">
      <path class="cls-11" d="M235.74,100.67v22.79s0,.11-.01,.16c-.03,.28-.11,.55-.21,.8v.02c-.21,.47-.51,.87-.9,1.18-.22,.18-.47,.33-.74,.44h-.01c-.47,.2-1,.28-1.54,.22-1.37-.44-2.62-1.12-3.7-1.99-1.31-1.05-2.39-2.37-3.14-3.87-.46-.91-.8-1.88-1.01-2.9-.16-.62-.07-1.26,.24-1.8,.14-.27,.35-.52,.6-.72,1.05-.83,2.58-.66,3.42,.39,.22,.38,.42,.78,.59,1.18,.45,1.06,.71,2.19,.77,3.35-.02,.31,.23,.58,.54,.6,.17,.01,.33-.06,.45-.18,.39-.46,.63-1.03,.69-1.63v-13.76c-.32-1-.9-1.89-1.69-2.58-.1-.09-.2-.18-.3-.28-1.24-1.15-2.28-2.47-3.11-3.91-.53-.91-.97-1.87-1.31-2.86h0c-.25-.73-.46-1.46-.61-2.22-.28-1.37-.4-2.78-.33-4.2t-.01-.02c-.04-.43,.12-.84,.4-1.13,.23-.23,.53-.39,.88-.42,.78-.08,1.47,.49,1.54,1.27,.05,.59,.14,1.17,.27,1.74,.01,.04,.02,.09,.03,.13,.4,1.72,1.13,3.32,2.13,4.72,.96,1.36,2.17,2.53,3.58,3.45,.56,.37,1.16,.7,1.78,.99,.37,.24,.63,.61,.72,1.04Z"/>
    </g>
    <g id="LWPOLYLINE">
      <path class="cls-3" d="M103,241.95h-.19v2.83h.55c.2,0,.38-.07,.54-.19,4.65-4.59,7.41-10.76,7.72-17.29,0-.16,.09-.31,.21-.41,.24-.19,.59-.15,.78,.1s.15,.59-.1,.78c-.34,.26-.54,.66-.55,1.09l-.09,4.35c0,.47-.19,.93-.5,1.28-.42,.47-.38,1.18,.09,1.6s1.18,.38,1.6-.09c.69-.78,1.08-1.79,1.08-2.83v-14.44c0-1.25-1.02-2.27-2.27-2.27-.21,0-.43,.03-.63,.09l-8.44,2.44v8.22c0,.62-.2,1.22-.58,1.72-.19,.25-.14,.6,.11,.79,0,0,.02,.01,.02,.02l.2,.14c.15,.11,.25,.28,.25,.47v1.12c0,.78,.63,1.42,1.42,1.42s1.42-.63,1.42-1.42v-1.03c0-.28,.2-.51,.47-.56l1.71-.3c.62-.11,1.03-.7,.92-1.31s-.7-1.03-1.31-.92l-.56,.1s-.07,0-.1,0c-.31,0-.57-.25-.57-.57v-4.6c0-.71,.45-1.35,1.12-1.6l3.67-1.35c.1-.04,.2-.05,.31-.05,.47,0,.84,.4,.83,.87l-.07,3.63c-.01,.62-.42,1.16-1.02,1.33-.68,.2-1.11,.89-.98,1.59-.25,5.82-2.79,11.3-7.07,15.24Z"/>
    </g>
    <g id="HATCH-3" data-name="HATCH">
      <path class="cls-11" d="M114.14,218.64v14.53c0,.1,0,.19-.01,.29h-.01c.01,.07,0,.12,0,.18-.09,.88-.46,1.7-1.05,2.36-.06,.07-.12,.12-.19,.16-.41,.31-.99,.29-1.39-.05l-.02-.02c-.43-.38-.5-1.03-.16-1.5,.02-.03,.04-.07,.07-.1,.32-.35,.49-.8,.5-1.28l.03-1.28v-.48s.06-2.59,.06-2.59c.01-.31,.11-.6,.29-.83,.08-.1,.16-.19,.26-.26,.13-.11,.21-.27,.22-.42,0-.13-.04-.25-.12-.36-.19-.24-.54-.29-.78-.1-.13,.1-.21,.25-.22,.41,0,.03,0,.05-.01,.08-.01,.39-.04,.78-.08,1.17-.07,.73-.17,1.46-.31,2.19-.14,.82-.33,1.64-.56,2.44-.06,.2-.11,.39-.18,.58-.28,.93-.62,1.85-1.02,2.74-.37,.86-.79,1.7-1.25,2.51-.19,.33-.39,.65-.59,.97h-.01c-.27,.45-.57,.88-.88,1.31-.51,.72-1.07,1.41-1.68,2.08-.36,.42-.75,.83-1.15,1.23-.15,.12-.34,.19-.53,.19h-.56v-2.84h.2c.11-.1,.21-.2,.32-.3,.65-.62,1.25-1.27,1.81-1.96,.57-.69,1.09-1.42,1.57-2.18,.2-.31,.38-.62,.56-.94,.28-.49,.53-.98,.77-1.49,.41-.88,.76-1.78,1.05-2.71,.2-.62,.37-1.25,.5-1.88,.09-.38,.16-.77,.22-1.15,.14-.87,.23-1.74,.27-2.63-.03-.15-.03-.31,0-.46h0c.02-.12,.05-.22,.09-.32,.16-.38,.48-.69,.89-.81,.07-.02,.15-.05,.22-.08h.01c.28-.14,.51-.37,.64-.65,.06-.1,.1-.22,.12-.33,.02-.09,.03-.18,.03-.27l.06-3.37h.01v-.26c.01-.47-.37-.86-.84-.87-.08,0-.17,.01-.24,.03-.02,.01-.04,.01-.06,.02l-2.43,.89h-.01s-.25,.1-.25,.1l-.99,.36c-.58,.22-.99,.72-1.09,1.32-.01,.09-.02,.19-.02,.28v4.59c0,.32,.25,.57,.56,.57,.04,0,.07,0,.1-.01l.56-.1c.13-.02,.26-.02,.38,0,.29,.05,.54,.21,.72,.44,.1,.14,.18,.3,.21,.48v.02c.1,.61-.31,1.19-.92,1.3l-1.31,.23-.4,.07c-.27,.05-.47,.28-.47,.56v1.02c0,.35-.12,.66-.33,.91-.26,.31-.65,.51-1.09,.51-.23,0-.44-.05-.63-.15-.47-.23-.79-.71-.79-1.27v-1.11c0-.19-.09-.37-.24-.47l-.2-.14s-.02,0-.03-.02c-.18-.13-.25-.35-.21-.55,.01-.09,.04-.17,.1-.24,.38-.49,.58-1.1,.58-1.72v-8.22l.32-.09,2.92-.84,1.33-.39,1.58-.46,2.29-.66c.21-.06,.42-.09,.64-.09h.08c.12,.01,.23,.02,.34,.04,.96,.18,1.69,.96,1.82,1.93,.01,.07,.02,.14,.02,.21Z"/>
    </g>
    <g id="HATCH-4" data-name="HATCH">
      <path class="cls-11" d="M182.17,248.75v3.69c0,.31-.25,.57-.56,.57h-7.08l-.37-.09c-.57-.26-1.01-.7-1.29-1.24-.21-.4-.33-.85-.33-1.32v-.8l-.03-.19,.11-.43c.06-.21-.02-.44-.19-.58l-2.06-1.69-1.95-1.59-.06-.05-.09,.06-.3,.23-.06,.06-2.1,1.6-1.14,.87c-.33,.25-.71,.43-1.11,.52l-.09,.02-.69,.15c-.26,.06-.44,.29-.44,.56,0,.57-.08,1.14-.24,1.68-.06,.21-.14,.42-.22,.62h-.01c-.22,.52-.51,.99-.87,1.42-.1,.11-.22,.2-.36,.25h-.01c-.1,.04-.21,.05-.32,.05-.04,0-.09,0-.13-.02-.4-.07-.7-.43-.68-.86,0-.1,.01-.19,.01-.29,.04-1.27,.02-2.54-.05-3.81-.03-.57-.08-1.13-.13-1.7-.08-.84-.19-1.68-.32-2.51-.14-.85-.29-1.69-.48-2.52l-.3-1.39-.15-.66v-2.79c0-.07,.01-.13,.03-.19,.06-.17,.18-.29,.35-.35,.04-.01,.08-.02,.13-.03h4.59c.32,0,.57,.25,.57,.57v.28c0,.17-.03,.33-.08,.47-.2,.55-.73,.95-1.34,.95h-.85c-.17,0-.32,.07-.43,.19-.09,.1-.14,.23-.14,.37v.22l.37,1.67,.02,.08c.15,.68,.29,1.37,.4,2.06,.06,.34,.12,.68,.17,1.03,.09,.6,.16,1.2,.23,1.8,.05,.47,.47,.81,.94,.76,.01,0,.03,0,.04-.01,.14-.02,.27-.08,.38-.16l.94-.72,2.13-1.63,.54-.41c.4-.31,.87-.5,1.37-.56,.46,.09,.88,.29,1.24,.58l.03,.03,1.15,.94,.92,.75,1.91,1.57s.11,.09,.15,.13c.36,.35,.6,.77,.71,1.24,.1,.4,.1,.82,0,1.23l-.02,.05v.12c0,.12,.04,.24,.1,.33,.11,.15,.27,.24,.47,.24h4.24c.25,0,.47-.17,.54-.4,.02-.05,.03-.11,.03-.17,0-.78,.63-1.41,1.41-1.41h.29c.31,0,.56,.25,.56,.56Z"/>
    </g>
    <g id="HATCH-5" data-name="HATCH">
      <path class="cls-11" d="M289.29,304.83c-.04,.12-.06,.24-.06,.37,0,.14,.01,.27,.05,.4,.22,.93,.61,1.8,1.12,2.59,.13,.2,.27,.39,.42,.58,.27,.3,.66,.46,1.06,.45,.07,0,.14-.01,.21-.02,.48-.03,.96-.07,1.42-.15,.45-.07,.89-.17,1.33-.29h.01c.22-.07,.44-.14,.66-.21,.03-.01,.05-.02,.08-.03,.33-.13,.54-.44,.54-.79v-2.57c0-.08,.01-.15,.03-.22h.01c.04-.19,.15-.34,.29-.45,.08-.07,.18-.12,.29-.14h.01c.07-.03,.14-.04,.22-.04h1.41v5.33c0,.38-.25,.71-.61,.82-.09,.03-.19,.05-.28,.07-.69,.18-1.38,.32-2.09,.42h-.01c-.09,.01-.18,.03-.27,.03-.68,.09-1.37,.14-2.06,.14-.19,0-.38,0-.57,0-.38-.01-.77-.03-1.15-.07-.34-.06-.66-.17-.97-.32-.2-.1-.4-.23-.58-.37-.03-.01-.05-.03-.07-.05-.28-.2-.54-.42-.78-.66-.3-.29-.57-.61-.81-.95l-.03-.03c-.09-.13-.19-.27-.26-.42-.34-.53-.6-1.12-.78-1.73,0-.01-.01-.03-.01-.04v-8.66c0-.07,0-.14,.01-.21,.01-.45,.08-.89,.2-1.31,.07-.25,.15-.49,.27-.73,.23-.56,.55-1.07,.98-1.53,.15-.18,.32-.36,.51-.52l.79-.68,.18-.15c.31-.27,.73-.34,1.09-.21,.19,.06,.36,.17,.5,.33,.41,.48,.36,1.19-.12,1.6l-.04,.04-.92,.79c-.4,.34-.7,.76-.91,1.23-.12,.29-.21,.6-.25,.92-.04,.31-.04,.63,.01,.95,.04,.25,.08,.51,.11,.77,.02,.1,.03,.21,.04,.32,.02,.21,.03,.42,.01,.63,0,.18-.02,.36-.05,.53-.1,.31-.02,.63,.17,.86,.1,.12,.24,.21,.4,.27,.27,.09,.57,.04,.8-.13,.89-.56,1.38-1.58,1.28-2.62,0-.08-.02-.15-.03-.23-.03-.39-.04-.78-.03-1.16s.03-.76,.08-1.14c.04-.37,.11-.73,.19-1.09,.14-.65,.34-1.28,.6-1.9,.06-.17,.14-.35,.22-.52h.01c.18-.4,.38-.78,.61-1.15,.25-.41,.53-.8,.83-1.18l.22-.27,1.15-1.36,1.14-1.37,.46-.55c.16-.19,.4-.3,.65-.3h.17v2.54c0,.2-.07,.4-.19,.55l-.62,.74-1.15,1.36-.43,.52c-.2,.32-.39,.65-.57,.98-.3,.56-.56,1.13-.78,1.72-.22,.6-.41,1.21-.55,1.83-.18,.76-.29,1.52-.35,2.29-.01,.28-.02,.55-.03,.82-.06,.45-.17,.89-.35,1.31-.23,.56-.56,1.08-.97,1.53-.2,.21-.41,.41-.64,.59-.26,.2-.58,.33-.91,.36-.08,.01-.16,.01-.25,.01-.61-.02-1.14,.38-1.31,.94Z"/>
    </g>
  </g>
  <g id="dystans">
    <g>
      <g id="LINE">
        <path class="cls-14" d="M192.66,163.43h1.14v.26c0,.68-.48,1.26-1.14,1.39l-.08,.02-5.59,.78c-.8-.84-1.91-1.31-3.07-1.31h-.28v.56h-15.4v-.56h-1.09l-4.25,4.25v.45l-5.67,.79v-3.79h-8.24c-2.35,0-4.25-1.91-4.25-4.26v-.21l.85-2.34h7.67c4.28-4.52,10.24-7.08,16.47-7.08h6.46c4.75,0,9.37,1.48,13.22,4.25h40.39v2.83h-37.14v3.97Z"/>
      </g>
      <g id="kontur">
        <g id="LINE-2" data-name="LINE">
          <line class="cls-4" x1="189.42" y1="156.63" x2="189.42" y2="159.46"/>
        </g>
        <g id="LINE-3" data-name="LINE">
          <line class="cls-4" x1="189.42" y1="156.63" x2="229.8" y2="156.63"/>
        </g>
        <g id="LINE-4" data-name="LINE">
          <line class="cls-4" x1="229.8" y1="159.46" x2="189.42" y2="159.46"/>
        </g>
        <g id="LINE-5" data-name="LINE">
          <line class="cls-4" x1="229.8" y1="156.63" x2="229.8" y2="159.46"/>
        </g>
        <g id="LINE-6" data-name="LINE">
          <line class="cls-4" x1="183.92" y1="164.56" x2="167.15" y2="164.56"/>
        </g>
        <g id="LINE-7" data-name="LINE">
          <line class="cls-4" x1="153.26" y1="166.26" x2="153.26" y2="162.3"/>
        </g>
        <g id="LINE-8" data-name="LINE">
          <line class="cls-4" x1="192.66" y1="162.3" x2="192.66" y2="165.08"/>
        </g>
        <g id="LINE-9" data-name="LINE">
          <line class="cls-4" x1="153.26" y1="161.8" x2="144.74" y2="161.8"/>
        </g>
        <g id="LINE-10" data-name="LINE">
          <line class="cls-4" x1="145.59" y1="159.46" x2="153.26" y2="159.46"/>
        </g>
        <g id="LINE-11" data-name="LINE">
          <line class="cls-4" x1="145.59" y1="159.46" x2="144.74" y2="161.8"/>
        </g>
        <g id="LINE-12" data-name="LINE">
          <line class="cls-4" x1="157.23" y1="166.26" x2="157.23" y2="170.06"/>
        </g>
        <g id="LINE-13" data-name="LINE">
          <line class="cls-4" x1="157.23" y1="170.06" x2="162.9" y2="169.27"/>
        </g>
        <g id="LINE-14" data-name="LINE">
          <line class="cls-4" x1="162.9" y1="169.27" x2="162.9" y2="168.82"/>
        </g>
        <g id="LINE-15" data-name="LINE">
          <line class="cls-4" x1="187" y1="165.88" x2="192.58" y2="165.1"/>
        </g>
        <g id="LINE-16" data-name="LINE">
          <line class="cls-4" x1="153.26" y1="159.46" x2="153.26" y2="162.3"/>
        </g>
        <g id="LINE-17" data-name="LINE">
          <line class="cls-4" x1="153.26" y1="162.3" x2="192.66" y2="162.3"/>
        </g>
        <g id="LINE-18" data-name="LINE">
          <line class="cls-4" x1="192.66" y1="162.3" x2="192.66" y2="159.46"/>
        </g>
        <g id="LINE-19" data-name="LINE">
          <line class="cls-4" x1="153.26" y1="166.26" x2="148.99" y2="166.26"/>
        </g>
        <g id="ARC">
          <path class="cls-4" d="M144.74,162.01c0,2.35,1.9,4.25,4.25,4.25"/>
        </g>
        <g id="LINE-20" data-name="LINE">
          <line class="cls-4" x1="153.26" y1="166.26" x2="157.23" y2="166.26"/>
        </g>
        <g id="LINE-21" data-name="LINE">
          <line class="cls-4" x1="144.74" y1="161.8" x2="144.74" y2="162.01"/>
        </g>
        <g id="ARC-2" data-name="ARC">
          <path class="cls-4" d="M187,165.88c-.8-.84-1.91-1.32-3.08-1.32"/>
        </g>
        <g id="LINE-22" data-name="LINE">
          <line class="cls-4" x1="168.24" y1="165.13" x2="183.64" y2="165.13"/>
        </g>
        <g id="LINE-23" data-name="LINE">
          <line class="cls-4" x1="183.64" y1="164.56" x2="183.64" y2="165.13"/>
        </g>
        <g id="LINE-24" data-name="LINE">
          <line class="cls-4" x1="168.24" y1="164.56" x2="168.24" y2="165.13"/>
        </g>
        <g id="ARC-3" data-name="ARC">
          <path class="cls-4" d="M189.42,156.63c-3.85-2.76-8.48-4.25-13.22-4.25"/>
        </g>
        <g id="LINE-25" data-name="LINE">
          <line class="cls-4" x1="176.2" y1="152.37" x2="169.73" y2="152.37"/>
        </g>
        <g id="ARC-4" data-name="ARC">
          <path class="cls-4" d="M169.73,152.37c-6.23,0-12.18,2.56-16.47,7.09"/>
        </g>
        <g id="ARC-5" data-name="ARC">
          <path class="cls-4" d="M192.66,165.08c.66-.13,1.13-.72,1.13-1.39"/>
        </g>
        <g id="LINE-26" data-name="LINE">
          <line class="cls-4" x1="193.8" y1="163.43" x2="193.8" y2="163.69"/>
        </g>
        <g id="LINE-27" data-name="LINE">
          <line class="cls-4" x1="192.66" y1="163.43" x2="193.8" y2="163.43"/>
        </g>
        <g id="LINE-28" data-name="LINE">
          <line class="cls-4" x1="162.9" y1="168.82" x2="167.15" y2="164.56"/>
        </g>
      </g>
    </g>
    <g id="LWPOLYLINE-2" data-name="LWPOLYLINE">
      <polygon class="cls-10" points="213.36 115.52 213.36 125.28 204.68 133.95 176.68 133.95 168 125.28 168 115.52 190.23 115.52 190.68 115.81 191.13 115.52 213.36 115.52"/>
    </g>
    <g id="LWPOLYLINE-3" data-name="LWPOLYLINE">
      <polygon class="cls-5" points="213.36 125.28 204.68 133.95 176.68 133.95 168 125.28 168 142.45 213.36 142.45 213.36 125.28"/>
    </g>
    <g id="LWPOLYLINE-4" data-name="LWPOLYLINE">
      <polygon class="cls-5" points="210.52 118.36 210.52 124.1 203.51 131.11 177.85 131.11 170.84 124.1 170.84 118.36 210.52 118.36"/>
    </g>
    <g id="HATCH-6" data-name="HATCH">
      <polygon class="cls-1" points="210.52 118.36 210.52 124.1 203.51 131.11 177.85 131.11 170.84 124.1 170.84 118.36 210.52 118.36"/>
    </g>
    <g id="HATCH-7" data-name="HATCH">
      <polygon class="cls-12" points="213.36 125.28 204.68 133.95 176.68 133.95 168 125.28 168 142.45 213.36 142.45 213.36 125.28"/>
      <path class="cls-4" d="M168,131.11l2.92-2.92m-2.92,9.28l6.1-6.1m-4.71,11.08l8.5-8.5m-2.14,8.5l8.5-8.5m-2.14,8.5l8.5-8.5m-2.14,8.5l8.5-8.5m-2.14,8.5l8.5-8.5m-2.14,8.5l12.15-12.15m-5.78,12.15l5.78-5.78m-43.96,5.78l-1.39-1.39m7.75,1.39l-7.75-7.75m14.12,7.75l-14.12-14.12m20.48,14.12l-8.5-8.5m14.87,8.5l-8.5-8.5m14.87,8.5l-8.5-8.5m14.87,8.5l-8.5-8.5m14.29,7.92l-8.3-8.3m8.3,1.93l-5.12-5.12m5.12-1.25l-1.93-1.93"/>
    </g>
    <g id="LWPOLYLINE-5" data-name="LWPOLYLINE">
      <rect class="cls-10" x="153.83" y="142.45" width="73.7" height="17.01"/>
    </g>
    <g id="LINE-29" data-name="LINE">
      <line class="cls-5" x1="153.83" y1="159.46" x2="227.53" y2="142.45"/>
    </g>
    <g id="LINE-30" data-name="LINE">
      <line class="cls-5" x1="153.83" y1="142.45" x2="227.53" y2="159.46"/>
    </g>
    <g id="HATCH-8" data-name="HATCH">
      <path class="cls-6" d="M172.05,120.13h0m2.25,0h0m2.25,0h0m2.25,0h0m2.25,0h0m2.25,0h0m2.25,0h0m2.25,0h0m2.25,0h0m2.25,0h0m2.25,0h0m2.25,0h0m2.25,0h0m2.25,0h0m2.25,0h0m2.25,0h0m2.25,0h0m-34.88,2.25h0m2.25,0h0m2.25,0h0m2.25,0h0m2.25,0h0m2.25,0h0m2.25,0h0m2.25,0h0m2.25,0h0m2.25,0h0m2.25,0h0m2.25,0h0m2.25,0h0m2.25,0h0m2.25,0h0m2.25,0h0m2.25,0h0m-34.88,2.25h0m2.25,0h0m2.25,0h0m2.25,0h0m2.25,0h0m2.25,0h0m2.25,0h0m2.25,0h0m2.25,0h0m2.25,0h0m2.25,0h0m2.25,0h0m2.25,0h0m2.25,0h0m2.25,0h0m2.25,0h0m-32.63,2.25h0m2.25,0h0m2.25,0h0m2.25,0h0m2.25,0h0m2.25,0h0m2.25,0h0m2.25,0h0m2.25,0h0m2.25,0h0m2.25,0h0m2.25,0h0m2.25,0h0m2.25,0h0m-25.88,2.25h0m2.25,0h0m2.25,0h0m2.25,0h0m2.25,0h0m2.25,0h0m2.25,0h0m2.25,0h0m2.25,0h0m2.25,0h0m2.25,0h0m2.25,0h0"/>
    </g>
  </g>
  <g id="Szyby">
    <g>
      <g id="LWPOLYLINE-6" data-name="LWPOLYLINE">
        <rect class="cls-8" x="156.66" y="43.24" width="11.34" height="99.21"/>
      </g>
      <g id="LWPOLYLINE-7" data-name="LWPOLYLINE">
        <rect class="cls-8" x="213.36" y="43.24" width="11.34" height="99.21"/>
      </g>
    </g>
    <g>
      <g>
        <line class="cls-7" x1="235.27" y1="43.24" x2="203.17" y2="43.24"/>
        <line class="cls-7" x1="190.63" y1="43.24" x2="190.73" y2="43.31"/>
        <line class="cls-7" x1="178.08" y1="43.24" x2="146.09" y2="43.24"/>
      </g>
      <line class="cls-7" x1="235.06" y1="43.24" x2="203.07" y2="43.24"/>
    </g>
  </g>
  <g id="Profil">
    <g id="LWPOLYLINE-8" data-name="LWPOLYLINE">
      <path class="cls-4" d="M237.16,129.13h9.92c.78,0,1.42,.63,1.42,1.42v7.65c0,.78,.63,1.42,1.42,1.42h51.02c.78,0,1.42,.63,1.42,1.42v14.46c0,.47,.38,.85,.85,.85h0s1.7,0,1.7,0c.47,0,.85-.38,.85-.85v-.28h7.09c1.28,0,2.41,.86,2.74,2.1l.8,2.97c.2,.76,.08,1.57-.33,2.24l-4.64,7.43h-2.81c-1.41,0-2.55,1.14-2.55,2.55s1.14,2.55,2.55,2.55h5.64s7.97-12.76,7.97-12.76l-1.42-5.3c-.03-.12-.05-.24-.05-.37,0-.78,.63-1.42,1.42-1.42h2.69l5.29,1.42h1.98s0-46.22,0-46.22c0-2.2-1.69-4.04-3.88-4.24l-87.75-6.19c-.33-.03-.66-.04-.99-.04h-3.76v27.78c0,.78,.63,1.42,1.42,1.42Z"/>
    </g>
    <g id="LWPOLYLINE-9" data-name="LWPOLYLINE">
      <path class="cls-4" d="M304.86,135.82c-.14-.11-.23-.28-.23-.45v-25.7l21.88,1.47c.29,.03,.52,.27,.52,.56v37.84c0,.31-.25,.57-.57,.57h-18.43c-.31,0-.57-.25-.57-.57v-8.5c0-2.05-.97-3.98-2.61-5.22Z"/>
    </g>
    <g id="LWPOLYLINE-10" data-name="LWPOLYLINE">
      <path class="cls-4" d="M247.09,124.03c3.6,0,6.52,2.92,6.52,6.52v3.4c0,.31,.25,.57,.57,.57h46.77c.26,0,.52,.02,.78,.05,.31,.04,.59-.18,.63-.49,0-.02,0-.05,0-.07v-23.96c0-.3-.23-.55-.53-.57l-61.23-4.11c-.31-.02-.58,.22-.6,.53,0,.01,0,.03,0,.04v17.53c0,.31,.25,.57,.57,.57h6.52Z"/>
    </g>
    <g id="LWPOLYLINE-11" data-name="LWPOLYLINE">
      <path class="cls-4" d="M145.97,228.25l.9-5.25c.12-.68,.71-1.18,1.4-1.18h9.25c.31,0,.57,.25,.57,.57v13.04c0,.31,.25,.57,.57,.57h4.82c1.57,0,2.83-1.27,2.83-2.83v-1.42h-2.55c-.78,0-1.42-.63-1.42-1.42v-7.09c0-.78,.63-1.42,1.42-1.42h17.01c.78,0,1.42,.63,1.42,1.42v7.09c0,.78-.63,1.42-1.42,1.42h-5.39v1.42c0,1.57,1.27,2.83,2.83,2.83h3.4c.31,0,.57,.25,.57,.57v16.98c0,.29,.22,.53,.51,.56l16.5,1.73h27.35c.31,0,.57-.25,.57-.57v-5.1c0-.31,.25-.57,.57-.57h4.68c.31,0,.57-.25,.57-.57v-5.95c0-.31-.25-.57-.57-.57h-4.68s-.09,0-.13-.01c-.3-.07-.49-.38-.42-.68l4.42-18.9c.15-.64,.72-1.09,1.38-1.09h10c.17,0,.33,.07,.43,.2,1.21,1.44,3.35,1.63,4.79,.42,.15-.13,.29-.27,.42-.42,.11-.13,.27-.2,.43-.2h2.42c.17,0,.33,.07,.43,.2,1.21,1.44,3.35,1.63,4.79,.42,.15-.13,.29-.27,.42-.42,.11-.13,.27-.2,.43-.2h10c.66,0,1.23,.45,1.38,1.09l4.42,18.9s.01,.09,.01,.13c0,.31-.25,.57-.57,.57h-4.68c-.31,0-.57,.25-.57,.57v5.95c0,.31,.25,.57,.57,.57h4.68c.31,0,.57,.25,.57,.57v5.1c0,.31,.25,.57,.57,.57h23.95c.31,0,.57,.25,.57,.57v33.17c0,1.57,1.27,2.83,2.83,2.83h1.42v-2.55c0-.78,.63-1.42,1.42-1.42h1.13c3.91,0,7.09,3.17,7.09,7.09v2.83c0,3.91-3.17,7.09-7.09,7.09h-1.13c-.78,0-1.42-.63-1.42-1.42v-2.55h-1.42c-1.57,0-2.83,1.27-2.83,2.83v6.8c0,.78,.63,1.42,1.42,1.42h32.6c1.57,0,2.83-1.27,2.83-2.83V159.46c0-1.57-1.27-2.83-2.83-2.83h-11.34s0,1.42,0,1.42l1.14,4.25h3.11c1.57,0,2.83,1.27,2.83,2.83v8.5c0,1.57-1.27,2.83-2.83,2.83h-16.44c-1.57,0-2.83-1.27-2.83-2.83v-1.84l3.69-13.75v-1.42h-5.67v2.27c0,.31-.25,.57-.57,.57h-50.47c-.45,0-.88,.13-1.25,.38-.95,.63-2.18,.63-3.13,0-.37-.25-.81-.38-1.25-.38h-54.72v1.42l.9,2.48c.03,.09,.06,.19,.07,.29,.11,.78-.43,1.49-1.21,1.6l-39.03,5.49c-.33,.05-.66,.07-.99,.07-3.91,0-7.09-3.17-7.09-7.09v-9.07c0-.31,.25-.57,.57-.57h1.71c.31,0,.57-.25,.57-.57v-1.21c0-.13-.05-.26-.13-.36l-2.57-3.07c-.09-.1-.13-.23-.13-.36v-25.61c0-1.57-1.27-2.83-2.83-2.83h-1.42s0,2.27,0,2.27c0,.78-.63,1.42-1.42,1.42h-6.8c-.78,0-1.42-.63-1.42-1.42v-13.69c0-.73,.56-1.35,1.29-1.41l6.8-.6s.08,0,.12,0c.78,0,1.42,.63,1.42,1.42v2.95h1.42c1.57,0,2.83-1.27,2.83-2.83v-3c0-.58-.35-1.1-.89-1.31-.21-.09-.38-.26-.47-.47-.18-.44,.03-.93,.47-1.11,.54-.22,.89-.74,.89-1.31v-1.02h-.85l-27.74,2.43c-1.46,.13-2.59,1.35-2.59,2.82v127.98s7.09,0,7.09,0c.78,0,1.42-.63,1.42-1.42,0-.08,0-.16-.02-.24l-1.38-8.02c-.01-.08-.02-.16-.02-.24,0-.78,.63-1.42,1.42-1.42h18.43c.08,0,.16,0,.24,.02,.77,.13,1.29,.87,1.16,1.64l-1.38,8.02c-.13,.77,.39,1.5,1.16,1.64,.08,.01,.16,.02,.24,.02h5.03c.64,0,1.2-.43,1.37-1.05l.67-2.49c.08-.3-.1-.61-.4-.69-.05-.01-.1-.02-.15-.02h-2.48s-.06,0-.1,0c-.31-.05-.52-.35-.46-.65Z"/>
    </g>
    <g id="LWPOLYLINE-12" data-name="LWPOLYLINE">
      <path class="cls-4" d="M326.53,249.28l-10.38-14.82c-.18-.26-.53-.32-.79-.14-.05,.04-.1,.09-.14,.14l-10.38,14.82c-.18,.26-.12,.61,.14,.79,.1,.07,.21,.1,.33,.1h20.75c.31,0,.57-.25,.57-.57,0-.12-.04-.23-.1-.33Z"/>
    </g>
    <g id="LWPOLYLINE-13" data-name="LWPOLYLINE">
      <path class="cls-4" d="M327.13,246.18l-10.2-14.57c-.07-.1-.1-.21-.1-.33v-48.58c0-.31,.25-.57,.57-.57h10.2c.31,0,.57,.25,.57,.57v63.15c0,.18-.09,.36-.24,.46-.26,.18-.61,.12-.79-.14Z"/>
    </g>
    <g id="LWPOLYLINE-14" data-name="LWPOLYLINE">
      <rect class="cls-4" x="304.07" y="254.42" width="24.09" height="28.35" rx=".57" ry=".57"/>
    </g>
    <g id="LWPOLYLINE-15" data-name="LWPOLYLINE">
      <path class="cls-4" d="M314.28,286.57c2.35,2.39,3.67,5.6,3.67,8.96v2.83c0,2.19-.56,4.34-1.63,6.24-.15,.27-.06,.62,.22,.77,.08,.05,.18,.07,.28,.07h10.78c.31,0,.57-.25,.57-.57v-18.71c0-.31-.25-.57-.57-.57h-12.91c-.31,0-.57,.25-.57,.57,0,.15,.06,.29,.16,.4Z"/>
    </g>
    <g id="LWPOLYLINE-16" data-name="LWPOLYLINE">
      <path class="cls-4" d="M129.74,109.03c0-.78-.63-1.42-1.42-1.42-.04,0-.08,0-.12,0l-6.45,.56c-.29,.03-.52,.27-.52,.56v14.43c0,.31,.25,.57,.57,.57h6.52c.78,0,1.42-.63,1.42-1.42v-13.3Z"/>
    </g>
    <g id="LWPOLYLINE-17" data-name="LWPOLYLINE">
      <path class="cls-4" d="M163.14,175.7s0-.03,0-.04c-.04-.31,.17-.6,.48-.64l20.75-2.92s.05,0,.08,0c.31,0,.57,.25,.57,.57v43.87c0,.1-.02,.19-.07,.27-.15,.27-.5,.37-.77,.22-1.05-.57-2.22-.88-3.41-.88h-8.56c-.27,0-.5-.19-.55-.45l-8.5-40.01Z"/>
    </g>
    <g id="LWPOLYLINE-18" data-name="LWPOLYLINE">
      <path class="cls-4" d="M160.24,175.49l-5.07,.71c-.24,.03-.43,.21-.48,.44l-8.25,38.82c-.07,.31,.13,.61,.44,.67,.04,0,.08,.01,.12,.01h21.72c.31,0,.57-.25,.57-.57,0-.04,0-.08-.01-.12l-8.4-39.53c-.06-.29-.34-.48-.63-.44Z"/>
    </g>
    <g id="LWPOLYLINE-19" data-name="LWPOLYLINE">
      <path class="cls-4" d="M300.38,199.15c0-.31-.25-.57-.57-.57h-5.39c-.63,0-1.13-.51-1.13-1.13s.51-1.13,1.13-1.13h5.39c.31,0,.57-.25,.57-.57v-20.72c0-.15-.06-.29-.16-.4-.54-.55-.54-1.43,0-1.98,.1-.11,.16-.25,.16-.4v-.45c0-.5,.06-.99,.19-1.47l1.2-4.49c.08-.3-.1-.61-.4-.69-.05-.01-.1-.02-.15-.02h-27.86c-.25,0-.47,.16-.54,.4-.14,.46-.5,.82-.95,.95-.75,.22-1.54-.2-1.76-.95-.07-.24-.29-.4-.54-.4h-38.72c-.25,0-.47,.16-.54,.4-.14,.46-.5,.82-.95,.95-.75,.22-1.54-.2-1.76-.95-.07-.24-.29-.4-.54-.4h-25.79c-1.11,0-2.12,.65-2.58,1.66-1.01,2.2-3.06,3.74-5.46,4.07l-4.89,.69c-.28,.04-.49,.28-.49,.56v16.63c0,.25,.16,.47,.4,.54,.46,.14,.82,.5,.95,.95,.22,.75-.2,1.54-.95,1.76-.24,.07-.4,.29-.4,.54v41.55c0,.25,.16,.47,.4,.54,.46,.14,.82,.5,.95,.95,.22,.75-.2,1.54-.95,1.76-.24,.07-.4,.29-.4,.54v10.54c0,.29,.22,.53,.51,.56l11.13,1.17h21.39c.31,0,.57-.25,.57-.57v-8.31s0-.09,.01-.13l4.56-19.54c.75-3.21,3.61-5.47,6.9-5.47h8.4c.23,0,.44-.14,.53-.36l2.55-6.37c.09-.22,.29-.36,.53-.36h1.88c.31,0,.57,.25,.57,.57v5.95c0,.31,.25,.57,.57,.57h4.54c.31,0,.57-.25,.57-.57v-5.95c0-.31,.25-.57,.57-.57h1.88c.23,0,.44,.14,.53,.36l2.55,6.37c.09,.22,.29,.36,.53,.36h8.4c3.29,0,6.15,2.27,6.9,5.47l4.56,19.54s.01,.09,.01,.13v8.31c0,.31,.25,.57,.57,.57h20.27c.31,0,.57-.25,.57-.57v-50.46Z"/>
    </g>
    <g id="LWPOLYLINE-20" data-name="LWPOLYLINE">
      <path class="cls-4" d="M303.22,181.13v64.72c0,.31,.25,.57,.57,.57,.18,0,.36-.09,.46-.24l10.2-14.57c.07-.1,.1-.21,.1-.33v-48.58c0-.31-.25-.57-.57-.57h-5.1c-1.71,0-3.37-.51-4.78-1.47-.26-.18-.61-.11-.79,.15-.06,.09-.1,.21-.1,.32Z"/>
    </g>
    <g id="LWPOLYLINE-21" data-name="LWPOLYLINE">
      <path class="cls-4" d="M146.69,175.11c-.08-.04-.17-.06-.25-.06h-24.63c-.31,0-.57,.25-.57,.57v39.97c0,.31,.25,.57,.57,.57h21.72c.27,0,.5-.19,.55-.45l8.2-38.57c.07-.31-.13-.61-.44-.67-.03,0-.06-.01-.09-.01-1.76-.09-3.48-.55-5.06-1.34Z"/>
    </g>
    <g id="LWPOLYLINE-22" data-name="LWPOLYLINE">
      <path class="cls-4" d="M121.23,129.98c0-.31,.25-.57,.57-.57h17.29c.31,0,.57,.25,.57,.57v33.73c0,2.97,1.04,5.85,2.94,8.14,.08,.1,.13,.23,.13,.36,0,.31-.25,.57-.57,.57h-20.36c-.31,0-.57-.25-.57-.57v-42.24Z"/>
    </g>
    <g id="LWPOLYLINE-23" data-name="LWPOLYLINE">
      <path class="cls-4" d="M188,405.7c-.95-.63-2.18-.63-3.13,0-.37,.25-.81,.38-1.25,.38H110.12c-1.28,0-2.41,.86-2.74,2.1l-2.76,10.29c-.2,.76,.25,1.53,1,1.74,.12,.03,.24,.05,.37,.05h5.32s-1.14,4.25-1.14,4.25h-6.8c-.31,0-.57,.25-.57,.57v.57h-5.67v-1.13l3.69-13.75v-1.84c0-1.57-1.27-2.83-2.83-2.83h-17.01c-1.57,0-2.83,1.27-2.83,2.83v11.34c0,.78,.63,1.42,1.42,1.42h1.98c.31,0,.57-.25,.57-.57v-.28c0-.31,.25-.57,.57-.57h1.98l1.14,4.25v1.42h-14.17V224.24c0-1.47,1.12-2.7,2.59-2.82l27.74-2.43h.85v1.02c0,.58-.35,1.1-.89,1.31-.44,.18-.65,.67-.47,1.11,.09,.21,.26,.38,.47,.47,.54,.22,.89,.74,.89,1.31v3c0,1.57-1.27,2.83-2.83,2.83h-1.42v-2.95c0-.78-.63-1.42-1.42-1.42-.04,0-.08,0-.12,0l-6.8,.6c-.73,.06-1.29,.68-1.29,1.41v13.69c0,.78,.63,1.42,1.42,1.42h6.8c.78,0,1.42-.63,1.42-1.42v-2.27h1.42c1.57,0,2.83,1.27,2.83,2.83v42.34c0,.13,.05,.26,.13,.36l2.57,3.06c.09,.1,.13,.23,.13,.36v1.21c0,.31-.25,.57-.57,.57h-1.7c-.31,0-.57,.25-.57,.57v3.69c0,.51,.07,1.02,.2,1.51,1.12,4.06,3.34,7.72,6.43,10.58,1.25,1.16,2.96,1.7,4.65,1.46l25.79-3.62s.05,0,.08,0h77.67c.45,0,.88,.13,1.25,.38,.95,.63,2.18,.63,3.13,0,.37-.25,.81-.38,1.25-.38h26.82c1.28,0,2.41-.86,2.74-2.1l1.53-5.7c.08-.3-.1-.61-.4-.69-.05-.01-.1-.02-.15-.02h-3.6c-.11,0-.21,0-.32-.03-.76-.18-1.24-.94-1.06-1.7l.77-2.88c.17-.62,.73-1.05,1.37-1.05h10.58v1.42l-3.69,13.75v1.84c0,1.57,1.27,2.83,2.83,2.83h16.44c1.57,0,2.83-1.27,2.83-2.83v-8.5c0-1.57-1.27-2.83-2.83-2.83h-3.11s-1.14-4.25-1.14-4.25v-1.42h11.34c1.57,0,2.83,1.27,2.83,2.83v133.23h-14.17v-1.42l1.14-4.25h1.98c.31,0,.57,.25,.57,.57v.28c0,.31,.25,.57,.57,.57h1.98c.78,0,1.42-.63,1.42-1.42v-11.34c0-1.57-1.27-2.83-2.83-2.83h-17.01c-1.57,0-2.83,1.27-2.83,2.83v1.84s3.69,13.75,3.69,13.75v1.13h-4.69s-3.8-14.18-3.8-14.18c-.01-.05-.02-.1-.02-.15v-4.67c0-.31-.25-.57-.57-.57h-16.44c-1.57,0-2.83,1.27-2.83,2.83v10.77c0,.31,.25,.57,.57,.57h1.98l1.14,4.25v1.13h-33.42l-1.44-5.39h4.25c.78,0,1.42-.63,1.42-1.42v-9.92c0-1.57-1.27-2.83-2.83-2.83h-15.6c-.45,0-.88-.13-1.25-.38Z"/>
    </g>
    <g id="LWPOLYLINE-24" data-name="LWPOLYLINE">
      <path class="cls-4" d="M87.22,228.09c0-.78-.63-1.42-1.42-1.42-.04,0-.08,0-.12,0l-6.45,.56c-.29,.03-.52,.27-.52,.56v14.43c0,.31,.25,.57,.57,.57h6.52c.78,0,1.42-.63,1.42-1.42v-13.3Z"/>
    </g>
    <g id="LWPOLYLINE-25" data-name="LWPOLYLINE">
      <path class="cls-4" d="M78.71,399.84c0,.31,.25,.57,.57,.57h20.69c.31,0,.57-.25,.57-.57v-59.54c0-.31-.25-.57-.57-.57-.04,0-.09,0-.13,.01l-20.69,4.78c-.26,.06-.44,.29-.44,.55v54.76Z"/>
    </g>
    <g id="LWPOLYLINE-26" data-name="LWPOLYLINE">
      <path class="cls-4" d="M100.22,337.33l-20.82,4.81s-.08,.01-.13,.01c-.31,0-.57-.25-.57-.57v-40.74c0-.07,.01-.13,.03-.19,.11-.29,.43-.45,.73-.34l25.1,9.13c.08,.03,.15,.07,.21,.13,.26,.26,.53,.52,.8,.77,.74,.69,1.57,1.28,2.47,1.75,.24,.13,.36,.41,.28,.67l-7.69,24.18c-.06,.19-.22,.34-.41,.38Z"/>
    </g>
    <g id="LWPOLYLINE-27" data-name="LWPOLYLINE">
      <path class="cls-4" d="M254.32,312.49c1.61,1.83,3.94,2.88,6.38,2.88h2.83c.31,0,.57,.25,.57,.57v26.08c0,.31-.25,.57-.57,.57h-9.64c-.31,0-.57-.25-.57-.57v-29.15c0-.16,.07-.32,.19-.43,.23-.21,.59-.18,.8,.05Z"/>
    </g>
    <g id="LWPOLYLINE-28" data-name="LWPOLYLINE">
      <path class="cls-4" d="M131.44,328.97c0,.31,.25,.57,.57,.57h.85c.78,0,1.42,.63,1.42,1.42s-.63,1.42-1.42,1.42h-.85c-.31,0-.57,.25-.57,.57v45.64c0,.31,.25,.57,.57,.57h.85c.78,0,1.42,.63,1.42,1.42s-.63,1.42-1.42,1.42h-.85c-.31,0-.57,.25-.57,.57v17.29c0,.31,.25,.57,.57,.57h43.23c.31,0,.57-.25,.57-.57v-.85c0-.78,.63-1.42,1.42-1.42s1.42,.63,1.42,1.42v.85c0,.31,.25,.57,.57,.57h14.46c.31,0,.57-.25,.57-.57v-.85c0-.78,.63-1.42,1.42-1.42s1.42,.63,1.42,1.42v.85c0,.31,.25,.57,.57,.57h32.17c.31,0,.57-.25,.57-.57v-.85c0-.78,.63-1.42,1.42-1.42s1.42,.63,1.42,1.42v.85c0,.31,.25,.57,.57,.57h16.16c.31,0,.57-.25,.57-.57v-89.57c0-.31-.25-.57-.57-.57h-94.11c-.31,0-.57,.25-.57,.57v7.37c0,.31-.25,.57-.57,.57h-1.7c-.31,0-.57-.25-.57-.57v-7.37c0-.31-.25-.57-.57-.57h-11.5s-.05,0-.08,0l-8.34,1.17c-.28,.04-.49,.28-.49,.56v17.54Z"/>
    </g>
    <g id="LWPOLYLINE-29" data-name="LWPOLYLINE">
      <path class="cls-4" d="M279.97,340.03c0-.31-.25-.57-.57-.57h-7.37c-.31,0-.57-.25-.57-.57v-2.07c0-.44,.33-.8,.77-.85l6.97-.7c.43-.04,.77-.41,.77-.85v-18.51c0-.31-.25-.57-.57-.57h-12.47c-.31,0-.57,.25-.57,.57v26.08c0,.31,.25,.57,.57,.57h7.51c.15,0,.3-.06,.4-.17,.35-.35,.82-.54,1.31-.54h3.26c.31,0,.57-.25,.57-.57v-1.28Z"/>
    </g>
    <g id="LWPOLYLINE-30" data-name="LWPOLYLINE">
      <path class="cls-4" d="M266.93,344.85h7.51c.15,0,.3,.06,.4,.17,.35,.35,.82,.54,1.31,.54h3.26c.31,0,.57,.25,.57,.57v1.28c0,.31-.25,.57-.57,.57h-7.37c-.31,0-.57,.25-.57,.57v2.07c0,.44,.33,.8,.77,.85l6.97,.7c.43,.04,.77,.41,.77,.85v46.85c0,.31-.25,.57-.57,.57h-12.47c-.31,0-.57-.25-.57-.57v-54.43c0-.31,.25-.57,.57-.57Z"/>
    </g>
    <g id="LWPOLYLINE-31" data-name="LWPOLYLINE">
      <rect class="cls-4" x="253.33" y="344.85" width="10.77" height="55.56" rx=".57" ry=".57"/>
    </g>
    <g id="LWPOLYLINE-32" data-name="LWPOLYLINE">
      <rect class="cls-4" x="210.52" y="406.08" width="19.84" height="16.72" rx=".57" ry=".57"/>
    </g>
    <g id="LWPOLYLINE-33" data-name="LWPOLYLINE">
      <path class="cls-4" d="M102.81,399.84c0,.31,.25,.57,.57,.57h24.66c.31,0,.57-.25,.57-.57v-87.84c0-.31-.25-.57-.57-.57-.03,0-.05,0-.08,0l-13.08,1.84c-1.25,.18-2.52,.14-3.76-.1-.28-.06-.56,.11-.65,.38l-7.63,23.97c-.02,.06-.03,.11-.03,.17v62.14Z"/>
    </g>
    <g id="LWPOLYLINE-34" data-name="LWPOLYLINE">
      <path class="cls-4" d="M97.14,249.04c0-.31-.25-.57-.57-.57h-17.29c-.31,0-.57,.25-.57,.57v48.19c0,.24,.15,.45,.37,.53l21.06,7.67c.29,.11,.62-.04,.73-.34,.06-.16,.04-.35-.05-.49-1.45-2.32-2.55-4.83-3.28-7.47-.27-.98-.41-2-.41-3.02v-45.07Z"/>
    </g>
  </g>
  <g id="Stal">
    <g id="HATCH-9" data-name="HATCH">
      <path class="cls-13" d="M247.37,319.62v68.03c0,1.67-.48,3.23-1.31,4.54-.68,1.07-1.58,1.98-2.65,2.65-1.31,.84-2.87,1.32-4.54,1.32h-70.87v-3.55h70.87c2.74,0,4.96-2.22,4.96-4.96v-68.03c0-2.13-1.34-3.95-3.23-4.65-.54-.2-1.12-.31-1.73-.31h-73.7c-2.74,0-4.96,2.22-4.96,4.96v76.54h-3.55v-76.54c0-1.9,.62-3.67,1.69-5.08,.48-.66,1.07-1.24,1.73-1.73h.01c1.41-1.07,3.18-1.69,5.08-1.69h73.7c1.6,0,3.09,.44,4.37,1.21,1.55,.93,2.78,2.34,3.48,4.03,.42,1,.65,2.1,.65,3.26Z"/>
    </g>
    <g id="HATCH-10" data-name="HATCH">
      <path class="cls-13" d="M298.39,175.05v12.76c0,1.59-.53,3.07-1.42,4.25-.4,.54-.87,1.02-1.41,1.41-1.18,.9-2.66,1.43-4.25,1.43h-19.56v-3.55h19.56c.7,0,1.36-.2,1.91-.56h.01c.42-.28,.78-.64,1.05-1.06h.01c.35-.55,.56-1.21,.56-1.92v-12.76c0-.28-.03-.56-.1-.82-.29-1.23-1.23-2.21-2.43-2.57-.32-.1-.66-.15-1.01-.15h-86.01c-.83,0-1.63,.29-2.27,.83l-7.54,6.33c-.81,.67-1.27,1.66-1.27,2.71v65.96h-3.54v-65.96c0-2.09,.92-4.08,2.53-5.43l7.54-6.32c1.28-1.08,2.89-1.66,4.55-1.66h86.01c1.34,0,2.59,.37,3.66,1.03,1.03,.61,1.89,1.49,2.49,2.53,.59,1.04,.93,2.24,.93,3.52Z"/>
      <path class="cls-9" d="M295.56,193.47l-.04,.04m1.49-1.49l-.04,.04m-1.99-23.07h-.01"/>
    </g>
  </g>
  <g id="Wymiary">
    <polygon class="cls-17" points="367.73 304.7 365.12 304.7 366.48 312.53 367.73 304.7"/>
    <polygon class="cls-16" points="121.85 10.82 121.85 13.44 114.14 12.18 121.85 10.82"/>
    <text class="cls-15" transform="translate(175.08 454.26) scale(.98 1)"><tspan x="0" y="0">76</tspan></text>
    <text class="cls-15" transform="translate(199.38 482.6) scale(.98 1)"><tspan x="0" y="0">93</tspan></text>
    <text class="cls-15" transform="translate(220.45 9.31) scale(.98 1)"><tspan x="0" y="0">78</tspan></text>
    <line class="cls-2" x1="332.93" y1="156.63" x2="366.43" y2="156.63"/>
    <line class="cls-2" x1="40.44" y1="425.92" x2="71.63" y2="425.92"/>
    <line class="cls-2" x1="12.1" y1="425.92" x2="40.44" y2="425.92"/>
    <line class="cls-2" x1="12.1" y1="99.89" x2="143.57" y2="99.89"/>
    <line class="cls-2" x1="40.44" y1="218.9" x2="100.95" y2="218.9"/>
    <line class="cls-2" x1="332.93" y1="312.53" x2="366.43" y2="312.53"/>
    <line class="cls-2" x1="287.06" y1="425.92" x2="366.43" y2="425.92"/>
    <line class="cls-2" x1="71.63" y1="425.92" x2="71.63" y2="457.1"/>
    <line class="cls-2" x1="287.06" y1="425.92" x2="287.06" y2="457.1"/>
    <line class="cls-2" x1="335.25" y1="309.7" x2="335.25" y2="485.45"/>
    <line class="cls-2" x1="71.63" y1="457.1" x2="71.63" y2="485.45"/>
    <line class="cls-2" x1="114.14" y1="12.13" x2="114.14" y2="104.23"/>
    <line class="cls-2" x1="335.25" y1="12.13" x2="335.25" y2="158.04"/>
    <line class="cls-2" x1="74.46" y1="457.1" x2="284.22" y2="457.1"/>
    <line class="cls-2" x1="74.46" y1="485.45" x2="332.41" y2="485.45"/>
    <line class="cls-2" x1="366.43" y1="315.37" x2="366.43" y2="423.08"/>
    <line class="cls-2" x1="366.43" y1="159.46" x2="366.43" y2="309.7"/>
    <line class="cls-2" x1="40.44" y1="221.73" x2="40.44" y2="422.99"/>
    <line class="cls-2" x1="12.1" y1="102.73" x2="12.1" y2="423.04"/>
    <line class="cls-2" x1="116.98" y1="12.13" x2="332.41" y2="12.13"/>
    <polygon class="cls-17" points="367.73 418.08 365.12 418.08 366.48 425.92 367.73 418.08"/>
    <polygon class="cls-17" points="367.73 320.37 365.12 320.37 366.48 312.53 367.73 320.37"/>
    <polygon class="cls-17" points="367.73 164.46 365.12 164.46 366.48 156.63 367.73 164.46"/>
    <polygon class="cls-17" points="41.75 418.08 39.14 418.08 40.5 425.92 41.75 418.08"/>
    <polygon class="cls-17" points="13.4 418.08 10.79 418.08 12.15 425.92 13.4 418.08"/>
    <polygon class="cls-17" points="41.75 226.73 39.14 226.73 40.5 218.9 41.75 226.73"/>
    <polygon class="cls-17" points="13.4 107.73 10.79 107.73 12.15 99.89 13.4 107.73"/>
    <polygon class="cls-16" points="327.54 10.82 327.54 13.44 335.25 12.18 327.54 10.82"/>
    <polygon class="cls-16" points="279.35 455.79 279.35 458.41 287.06 457.15 279.35 455.79"/>
    <polygon class="cls-16" points="79.33 455.79 79.33 458.41 71.63 457.15 79.33 455.79"/>
    <polygon class="cls-16" points="79.33 484.14 79.33 486.76 71.63 485.5 79.33 484.14"/>
    <polygon class="cls-16" points="327.54 484.14 327.54 486.76 335.25 485.5 327.54 484.14"/>
    <text class="cls-15" transform="translate(37.62 326.45) rotate(-90) scale(.98 1)"><tspan x="0" y="0">73</tspan></text>
    <text class="cls-15" transform="translate(9.31 269.07) rotate(-90) scale(.98 1)"><tspan x="0" y="0">115</tspan></text>
    <text class="cls-15" transform="translate(363.63 238.64) rotate(-90) scale(.98 1)"><tspan x="0" y="0">55</tspan></text>
    <text class="cls-15" transform="translate(363.63 373.38) rotate(-90) scale(.98 1)"><tspan x="0" y="0">40</tspan></text>
  </g>
</svg>