<svg xmlns="http://www.w3.org/2000/svg" viewBox="0 0 438.46 492.94"><defs><style>.cls-1,.cls-12,.cls-5,.cls-9{fill:none;}.cls-1,.cls-12{stroke:#1d1d1b;}.cls-1,.cls-12,.cls-5,.cls-6,.cls-7,.cls-8,.cls-9{stroke-linecap:round;stroke-linejoin:round;}.cls-1,.cls-5,.cls-6,.cls-7,.cls-8,.cls-9{stroke-width:0.71px;}.cls-2{fill:#d20a11;}.cls-13,.cls-14,.cls-3{fill:#1d1d1b;}.cls-4,.cls-6,.cls-7{fill:#ebebeb;}.cls-5,.cls-6,.cls-7,.cls-8{stroke:#1e1f1d;}.cls-13,.cls-7{fill-rule:evenodd;}.cls-8{fill:#e7f5fc;}.cls-9{stroke:#1e1e1c;}.cls-10{fill:#ededed;}.cls-11{fill:#dadada;}.cls-12{stroke-width:0.28px;}.cls-14{font-size:12px;font-family:MyriadPro-Cond, Myriad Pro;}</style></defs><g id="profile"><polyline class="cls-1" points="194.47 259.65 194.72 260.75 195.32 261.71 196.17 262.32 197.26 262.56"/><polyline class="cls-1" points="197.26 262.56 198.72 262.56 198.72 260.99"/><polyline class="cls-1" points="198.72 273.23 198.72 271.65 197.26 271.65"/><polyline class="cls-1" points="197.26 271.65 196.17 271.77 195.32 272.5 194.72 273.35 194.47 274.44"/><line class="cls-1" x1="194.47" y1="274.44" x2="194.47" y2="279.77"/><polyline class="cls-1" points="322.19 319.27 322.31 320.36 322.91 321.33 323.88 321.94 324.97 322.06"/><polyline class="cls-1" points="324.97 322.06 326.43 322.06 326.43 320.48"/><polyline class="cls-1" points="326.43 332.72 326.43 331.14 324.97 331.14"/><polyline class="cls-1" points="324.97 331.14 323.88 331.39 322.91 331.99 322.31 332.96 322.19 334.05"/><line class="cls-1" x1="322.19" y1="334.05" x2="322.19" y2="339.38"/><line class="cls-1" x1="346.54" y1="180.53" x2="344.84" y2="180.53"/><polyline class="cls-1" points="190.23 145.63 190.23 143.94 191.69 143.94"/><polyline class="cls-1" points="191.69 143.94 192.78 144.18 193.63 144.79 194.23 145.76 194.47 146.85"/><line class="cls-1" x1="194.59" y1="124.43" x2="194.47" y2="124.79"/><polyline class="cls-1" points="194.47 132.19 194.23 133.16 193.63 134.12 192.66 134.73 191.69 134.85"/><polyline class="cls-1" points="191.69 134.85 190.23 134.85 190.23 133.4"/><polyline class="cls-1" points="291.17 278.68 291.41 279.04 291.77 279.29"/><line class="cls-1" x1="291.77" y1="279.28" x2="296.5" y2="279.28"/><polyline class="cls-1" points="296.5 279.29 296.86 279.41 296.98 279.89"/><line class="cls-1" x1="296.98" y1="279.89" x2="296.98" y2="284.98"/><polyline class="cls-1" points="296.98 284.98 297.1 285.22 297.35 285.46 297.59 285.46"/><line class="cls-1" x1="297.59" y1="285.46" x2="316.49" y2="285.46"/><polyline class="cls-1" points="316.49 285.46 317.94 285.71 319.28 286.31 320.49 287.16 321.34 288.37 321.94 289.7 322.19 291.16"/><line class="cls-1" x1="322.19" y1="291.16" x2="322.19" y2="319.27"/><polyline class="cls-1" points="322.19 319.27 322.31 320.36 322.91 321.33 323.88 321.94 324.97 322.06"/><polyline class="cls-1" points="324.97 322.06 326.43 322.06 326.43 319.51"/><polyline class="cls-1" points="326.43 319.51 326.55 318.79 327.15 318.3 327.76 318.18"/><line class="cls-1" x1="327.76" y1="318.18" x2="330.67" y2="318.18"/><polyline class="cls-1" points="330.67 318.18 332.24 318.3 333.7 318.79 335.03 319.63 336.24 320.85 337.09 322.18 337.57 323.63 337.7 325.21"/><line class="cls-1" x1="337.7" y1="325.21" x2="337.7" y2="328.12"/><polyline class="cls-1" points="337.7 328.12 337.57 329.69 337.09 331.14 336.24 332.48 335.03 333.57 333.7 334.42 332.24 335.02 330.67 335.14"/><line class="cls-1" x1="330.67" y1="335.14" x2="327.76" y2="335.14"/><polyline class="cls-1" points="327.76 335.14 327.15 334.9 326.55 334.42 326.43 333.69"/><polyline class="cls-1" points="326.43 333.69 326.43 331.14 324.97 331.14"/><polyline class="cls-1" points="324.97 331.14 323.88 331.39 322.91 331.99 322.31 332.96 322.19 334.05"/><line class="cls-1" x1="322.19" y1="334.05" x2="322.19" y2="340.84"/><polyline class="cls-1" points="322.19 340.84 322.31 341.57 322.79 342.05 323.52 342.29"/><line class="cls-1" x1="323.52" y1="342.29" x2="370.41" y2="342.29"/><polyline class="cls-1" points="370.41 342.29 372.23 342.05 374.05 341.44 375.62 340.35 376.95 339.02 378.05 337.45 378.65 335.63 378.89 333.69"/><line class="cls-1" x1="378.89" y1="333.69" x2="378.89" y2="183.44"/><polyline class="cls-1" points="378.89 183.44 378.65 182.35 378.05 181.38 377.08 180.77 375.99 180.53"/><polyline class="cls-1" points="375.99 180.53 364.72 180.53 364.72 181.99 365.81 186.23 368.96 186.23"/><polyline class="cls-1" points="368.96 186.23 370.05 186.47 370.9 187.07 371.5 187.92 371.74 189.01"/><line class="cls-1" x1="371.74" y1="189.01" x2="371.74" y2="197.62"/><polyline class="cls-1" points="371.74 197.62 371.5 198.71 370.9 199.56 370.05 200.16 368.96 200.4"/><line class="cls-1" x1="368.96" y1="200.4" x2="352.48" y2="200.4"/><polyline class="cls-1" points="352.48 200.4 351.39 200.16 350.54 199.56 349.81 198.71 349.69 197.62"/><polyline class="cls-1" points="349.69 197.62 349.69 195.68 353.33 181.99 353.33 180.53 290.92 180.53 290.92 181.99 292.86 187.2"/><polyline class="cls-1" points="292.86 187.2 292.86 187.8 292.62 188.41 292.14 188.89 291.53 189.01"/><line class="cls-1" x1="291.53" y1="189.01" x2="272.51" y2="189.01"/><polyline class="cls-1" points="272.51 189.01 271.78 189.13 271.17 189.38"/><polyline class="cls-1" points="271.17 189.38 270.2 189.86 269.11 189.86 268.14 189.38"/><polyline class="cls-1" points="268.14 189.38 267.54 189.13 266.81 189.01"/><polyline class="cls-1" points="266.81 189.01 215.8 189.01 201.14 194.34"/><polyline class="cls-1" points="201.14 194.34 199.44 194.71 197.62 194.59 195.93 194.1 194.35 193.25 193.14 191.92 192.17 190.47 191.69 188.65 191.69 186.95 192.05 185.14"/><polyline class="cls-1" points="192.05 185.14 194.47 177.75 194.47 146.85"/><polyline class="cls-1" points="194.47 146.85 194.23 145.76 193.63 144.79 192.78 144.18 191.69 143.94"/><polyline class="cls-1" points="191.69 143.94 190.23 143.94 190.23 146.24"/><polyline class="cls-1" points="190.23 146.24 189.99 146.97 189.51 147.45 188.78 147.69"/><line class="cls-1" x1="188.78" y1="147.7" x2="185.99" y2="147.7"/><polyline class="cls-1" points="185.99 147.69 184.42 147.45 182.84 146.97 181.51 146.12 180.42 145.03 179.57 143.58 179.09 142.12 178.84 140.55"/><line class="cls-1" x1="178.84" y1="140.55" x2="178.84" y2="139.09"/><polyline class="cls-1" points="178.84 139.09 179.09 137.52 179.57 136.06 180.3 134.73 181.39 133.64 182.72 132.79 184.17 132.19"/><line class="cls-1" x1="184.17" y1="132.19" x2="189.14" y2="130.85"/><polyline class="cls-1" points="189.14 130.85 189.63 130.85 190.11 131.22 190.23 131.7"/><polyline class="cls-1" points="190.23 131.7 190.23 134.85 191.69 134.85"/><polyline class="cls-1" points="191.69 134.85 192.78 134.61 193.63 134 194.23 133.16 194.47 132.06"/><line class="cls-1" x1="194.47" y1="132.06" x2="194.47" y2="129.04"/><polyline class="cls-1" points="194.47 129.03 194.35 128.43 194.11 128.07 193.63 127.7"/><polyline class="cls-1" points="193.63 127.7 193.26 127.46 193.02 126.97 193.26 126.49 193.63 126.13"/><polyline class="cls-1" points="193.63 126.13 194.11 125.89 194.35 125.4 194.47 124.79"/><polyline class="cls-1" points="194.47 124.79 194.47 123.83 193.63 123.83 148.31 135.94"/><polyline class="cls-1" points="148.31 135.94 146.13 136.79 144.07 137.88 142.25 139.33 140.67 141.03 139.46 142.97 138.49 145.15 137.89 147.33 137.77 149.63"/><polyline class="cls-1" points="137.77 149.63 137.77 251.42 144.79 251.42"/><polyline class="cls-1" points="144.79 251.42 145.4 251.29 145.88 250.93 146.25 250.45 146.25 249.84"/><line class="cls-1" x1="146.25" y1="249.84" x2="144.79" y2="241.72"/><polyline class="cls-1" points="144.79 241.72 144.91 241.12 145.16 240.63 145.64 240.27 146.25 240.15"/><line class="cls-1" x1="146.25" y1="240.15" x2="164.67" y2="240.15"/><polyline class="cls-1" points="164.67 240.15 165.27 240.27 165.76 240.63 166.12 241.12 166.12 241.72"/><line class="cls-1" x1="166.12" y1="241.72" x2="164.67" y2="249.84"/><polyline class="cls-1" points="164.67 249.84 164.79 250.45 165.03 250.93 165.51 251.29 166.12 251.42"/><line class="cls-1" x1="166.12" y1="251.42" x2="171.33" y2="251.42"/><polyline class="cls-1" points="171.33 251.42 172.06 251.29 172.54 250.93 172.78 250.32"/><line class="cls-1" x1="172.78" y1="250.33" x2="173.15" y2="247.9"/><polyline class="cls-1" points="173.15 247.9 173.15 247.54 172.91 247.3 172.66 247.18"/><line class="cls-1" x1="172.66" y1="247.17" x2="170.12" y2="247.17"/><polyline class="cls-1" points="170.12 247.18 169.88 247.18 169.63 246.81 169.63 246.57"/><line class="cls-1" x1="169.63" y1="246.57" x2="170.48" y2="241.24"/><polyline class="cls-1" points="170.48 241.24 170.72 240.75 171.21 240.27 171.94 240.15"/><line class="cls-1" x1="171.94" y1="240.15" x2="207.2" y2="240.15"/><polyline class="cls-1" points="207.2 240.15 208.29 240.39 209.26 241 209.86 241.84 210.1 242.93"/><line class="cls-1" x1="210.1" y1="242.93" x2="210.1" y2="250.93"/><polyline class="cls-1" points="210.1 250.93 209.86 252.02 209.26 252.87 208.29 253.48 207.2 253.72"/><line class="cls-1" x1="207.2" y1="253.72" x2="195.93" y2="253.72"/><polyline class="cls-1" points="195.93 253.72 195.2 253.96 194.72 254.44 194.47 255.17"/><line class="cls-1" x1="194.47" y1="255.17" x2="194.47" y2="259.66"/><polyline class="cls-1" points="194.47 259.65 194.72 260.75 195.32 261.71 196.17 262.32 197.26 262.56"/><polyline class="cls-1" points="197.26 262.56 198.72 262.56 198.72 259.41"/><polyline class="cls-1" points="198.72 259.41 198.96 258.69 199.44 258.2 200.17 257.96"/><line class="cls-1" x1="200.17" y1="257.96" x2="207.2" y2="257.96"/><polyline class="cls-1" points="207.2 257.96 208.29 258.2 209.26 258.81 209.86 259.78 210.1 260.87"/><line class="cls-1" x1="210.1" y1="260.87" x2="210.1" y2="275.41"/><polyline class="cls-1" points="210.1 275.41 209.98 276.38 209.5 277.1 208.77 277.83 207.92 278.19 206.95 278.19"/><line class="cls-1" x1="206.95" y1="278.19" x2="200.05" y2="277.47"/><polyline class="cls-1" points="200.05 277.47 199.32 277.35 198.96 276.74 198.72 276.13"/><polyline class="cls-1" points="198.72 276.13 198.72 271.65 197.26 271.65"/><polyline class="cls-1" points="197.26 271.65 196.17 271.77 195.32 272.38 194.72 273.35 194.47 274.44"/><line class="cls-1" x1="194.47" y1="274.44" x2="194.47" y2="281.34"/><polyline class="cls-1" points="194.47 281.35 194.59 282.07 195.08 282.56 195.81 282.8"/><polyline class="cls-1" points="195.81 282.8 222.83 285.46 250.21 285.46"/><polyline class="cls-1" points="250.21 285.46 250.45 285.46 250.7 285.22 250.82 284.98"/><line class="cls-1" x1="250.82" y1="284.98" x2="250.82" y2="279.89"/><polyline class="cls-1" points="250.82 279.89 250.82 279.53 251.06 279.29 251.3 279.29"/><line class="cls-1" x1="251.3" y1="279.28" x2="256.03" y2="279.28"/><polyline class="cls-1" points="256.03 279.29 256.39 279.04 256.63 278.68"/><line class="cls-1" x1="256.63" y1="278.68" x2="256.63" y2="272.74"/><polyline class="cls-1" points="256.63 272.74 256.51 272.5 256.27 272.26 256.03 272.14"/><line class="cls-1" x1="256.03" y1="272.14" x2="251.3" y2="272.14"/><polyline class="cls-1" points="251.3 272.14 251.06 272.14 250.82 271.89 250.82 271.65"/><line class="cls-1" x1="250.82" y1="271.65" x2="250.82" y2="252.87"/><polyline class="cls-1" points="250.82 252.87 250.94 252.14 251.54 251.66 252.15 251.42"/><line class="cls-1" x1="252.15" y1="251.42" x2="266.57" y2="251.42"/><polyline class="cls-1" points="266.57 251.42 266.81 251.54 267.05 251.66"/><polyline class="cls-1" points="267.05 251.66 267.9 252.38 269.11 252.87 270.2 252.87 271.42 252.38 272.26 251.66"/><polyline class="cls-1" points="272.26 251.66 272.39 251.54 272.63 251.42"/><polyline class="cls-1" points="272.63 251.42 272.99 251.42 273.11 251.17"/><polyline class="cls-1" points="273.11 251.17 273.48 250.81 273.96 250.57 274.32 250.81 274.69 251.17"/><polyline class="cls-1" points="274.69 251.17 274.93 251.42 275.17 251.42"/><polyline class="cls-1" points="275.17 251.42 275.42 251.54 275.54 251.66"/><polyline class="cls-1" points="275.54 251.66 276.5 252.38 277.6 252.87 278.81 252.87 279.9 252.38 280.75 251.66"/><polyline class="cls-1" points="280.75 251.66 280.99 251.54 281.23 251.42"/><line class="cls-1" x1="281.23" y1="251.42" x2="291.17" y2="251.42"/><polyline class="cls-1" points="291.17 251.42 291.77 251.66 292.26 252.02 292.62 252.51"/><line class="cls-1" x1="292.62" y1="252.51" x2="296.98" y2="271.53"/><polyline class="cls-1" points="296.98 271.53 296.98 271.77 296.74 272.14 296.5 272.14"/><line class="cls-1" x1="296.5" y1="272.14" x2="291.77" y2="272.14"/><polyline class="cls-1" points="291.77 272.14 291.53 272.26 291.29 272.5 291.17 272.74"/><line class="cls-1" x1="291.17" y1="272.74" x2="291.17" y2="278.68"/><polyline class="cls-1" points="245.85 248.63 245.12 249.96 244.64 251.42 244.52 252.87"/><line class="cls-1" x1="244.52" y1="252.87" x2="244.52" y2="279.28"/><polyline class="cls-1" points="244.52 279.29 244.4 279.65 244.03 279.89"/><polyline class="cls-1" points="244.03 279.89 223.07 279.89 216.28 279.16"/><polyline class="cls-1" points="216.28 279.16 215.92 278.92 215.8 278.56"/><line class="cls-1" x1="215.8" y1="278.56" x2="215.8" y2="242.93"/><polyline class="cls-1" points="215.8 242.93 215.68 241.84 215.44 240.63"/><polyline class="cls-1" points="215.44 240.63 215.44 240.27 215.8 240.03 216.16 239.91"/><line class="cls-1" x1="216.16" y1="239.9" x2="245.49" y2="247.78"/><polyline class="cls-1" points="245.49 247.78 245.73 248.02 245.85 248.39 245.85 248.63"/><polyline class="cls-1" points="194.35 199.68 194.72 199.92 194.72 200.16 194.59 200.53"/><line class="cls-1" x1="194.59" y1="200.52" x2="166.36" y2="234.21"/><polyline class="cls-1" points="166.36 234.21 166.12 234.45 165.88 234.45"/><line class="cls-1" x1="165.88" y1="234.45" x2="145.4" y2="234.45"/><polyline class="cls-1" points="145.4 234.45 145.04 234.33 144.79 233.85"/><line class="cls-1" x1="144.79" y1="233.85" x2="144.79" y2="193.13"/><polyline class="cls-1" points="144.79 193.13 144.91 192.77 145.16 192.65 145.52 192.53"/><line class="cls-1" x1="145.52" y1="192.53" x2="190.23" y2="197.25"/><line class="cls-1" x1="190.23" y1="197.25" x2="190.47" y2="197.37"/><polyline class="cls-1" points="190.47 197.37 192.29 198.71 194.35 199.68"/><polyline class="cls-1" points="191.56 234.45 191.2 234.33 190.96 233.97 191.08 233.6"/><line class="cls-1" x1="191.08" y1="233.6" x2="205.5" y2="198.95"/><polyline class="cls-1" points="205.5 198.95 205.62 198.71 205.86 198.59"/><line class="cls-1" x1="205.86" y1="198.59" x2="209.38" y2="197.37"/><polyline class="cls-1" points="209.38 197.37 209.62 197.37 209.98 197.62 210.1 197.98"/><line class="cls-1" x1="210.1" y1="197.98" x2="210.1" y2="234.21"/><polyline class="cls-1" points="210.1 234.21 209.98 234.45 209.74 234.69 209.38 234.69"/><polyline class="cls-1" points="209.38 234.69 208.29 234.57 207.2 234.45"/><line class="cls-1" x1="207.2" y1="234.45" x2="191.57" y2="234.45"/><polyline class="cls-1" points="371.74 311.88 371.62 312.24 371.26 312.49"/><line class="cls-1" x1="371.26" y1="312.49" x2="328.37" y2="312.49"/><polyline class="cls-1" points="328.37 312.49 328.12 312.36 327.88 312.12 327.76 311.88"/><line class="cls-1" x1="327.76" y1="311.88" x2="327.76" y2="291.16"/><polyline class="cls-1" points="327.76 291.16 327.64 289.1 327.03 287.16"/><polyline class="cls-1" points="327.03 287.16 327.03 286.8 327.27 286.43 327.64 286.31"/><line class="cls-1" x1="327.64" y1="286.31" x2="371.26" y2="286.31"/><polyline class="cls-1" points="371.26 286.31 371.62 286.56 371.74 286.92"/><line class="cls-1" x1="371.74" y1="286.92" x2="371.74" y2="311.88"/><line class="cls-1" x1="370.41" y1="335.14" x2="342.3" y2="335.14"/><polyline class="cls-1" points="342.3 335.14 341.94 335.02 341.69 334.66 341.82 334.3"/><polyline class="cls-1" points="341.82 334.3 342.66 332.36 343.27 330.18 343.39 328.12"/><line class="cls-1" x1="343.39" y1="328.12" x2="343.39" y2="325.21"/><polyline class="cls-1" points="343.39 325.21 343.27 323.27 342.79 321.33 342.06 319.51 340.97 317.82 339.76 316.24"/><polyline class="cls-1" points="339.76 316.24 339.51 315.88 339.76 315.51 340.12 315.27"/><line class="cls-1" x1="340.12" y1="315.27" x2="371.26" y2="315.27"/><polyline class="cls-1" points="371.26 315.27 371.5 315.39 371.74 315.64 371.74 315.88"/><line class="cls-1" x1="371.74" y1="315.88" x2="371.74" y2="333.69"/><polyline class="cls-1" points="371.74 333.69 371.62 334.42 371.02 334.9 370.41 335.14"/><line class="cls-1" x1="371.26" y1="241.48" x2="355.02" y2="241.48"/><polyline class="cls-1" points="355.02 241.48 354.78 241.48 354.54 241.24 354.42 241"/><line class="cls-1" x1="354.42" y1="241" x2="354.42" y2="206.7"/><polyline class="cls-1" points="354.42 206.71 354.54 206.34 354.78 206.1 355.02 206.1"/><line class="cls-1" x1="355.02" y1="206.1" x2="371.26" y2="206.1"/><polyline class="cls-1" points="371.26 206.1 371.62 206.22 371.74 206.71"/><line class="cls-1" x1="371.74" y1="206.7" x2="371.74" y2="241"/><polyline class="cls-1" points="371.74 241 371.74 241.24 371.5 241.48 371.26 241.48"/><polyline class="cls-1" points="351.63 206.1 352.12 206.22 352.24 206.58"/><line class="cls-1" x1="352.24" y1="206.58" x2="352.24" y2="241"/><polyline class="cls-1" points="352.24 241 352.12 241.24 351.87 241.48 351.63 241.48"/><line class="cls-1" x1="351.63" y1="241.48" x2="335.51" y2="241.48"/><polyline class="cls-1" points="335.51 241.48 335.15 241.48 335.03 241.24 334.91 241"/><line class="cls-1" x1="334.91" y1="241" x2="334.91" y2="186.83"/><polyline class="cls-1" points="334.91 186.83 335.03 186.47 335.15 186.35 335.51 186.23"/><line class="cls-1" x1="335.51" y1="186.23" x2="345.57" y2="186.23"/><polyline class="cls-1" points="345.57 186.23 345.94 186.35 346.06 186.59 346.18 186.95"/><line class="cls-1" x1="346.18" y1="186.95" x2="344.12" y2="194.22"/><line class="cls-1" x1="344.12" y1="194.22" x2="344" y2="195.68"/><line class="cls-1" x1="344" y1="195.68" x2="344" y2="197.62"/><polyline class="cls-1" points="344 197.62 344.12 199.31 344.72 201.01 345.57 202.59 346.78 203.92 348.24 205.01 349.93 205.74 351.63 206.1"/><line class="cls-1" x1="354.42" y1="280.74" x2="354.42" y2="244.39"/><polyline class="cls-1" points="354.42 244.39 354.66 244.02 355.02 243.78"/><line class="cls-1" x1="355.02" y1="243.78" x2="371.26" y2="243.78"/><polyline class="cls-1" points="371.26 243.78 371.62 244.02 371.74 244.39"/><line class="cls-1" x1="371.74" y1="244.39" x2="371.74" y2="280.74"/><polyline class="cls-1" points="371.74 280.74 371.74 280.98 371.5 281.22 371.26 281.22"/><line class="cls-1" x1="371.26" y1="281.22" x2="355.02" y2="281.22"/><polyline class="cls-1" points="355.02 281.22 354.78 281.22 354.54 280.98 354.42 280.74"/><line class="cls-1" x1="334.91" y1="280.74" x2="334.91" y2="244.39"/><polyline class="cls-1" points="334.91 244.39 335.03 244.02 335.51 243.78"/><line class="cls-1" x1="335.51" y1="243.78" x2="351.63" y2="243.78"/><polyline class="cls-1" points="351.63 243.78 351.99 244.02 352.24 244.39"/><line class="cls-1" x1="352.24" y1="244.39" x2="352.24" y2="280.74"/><polyline class="cls-1" points="352.24 280.74 352.12 280.98 351.87 281.22 351.63 281.22"/><line class="cls-1" x1="351.63" y1="281.22" x2="335.51" y2="281.22"/><polyline class="cls-1" points="335.51 281.22 335.15 281.22 335.03 280.98 334.91 280.74"/><line class="cls-1" x1="303.04" y1="270.08" x2="298.68" y2="251.17"/><polyline class="cls-1" points="298.68 251.17 298.07 249.48 297.23 248.14 296.01 246.93 294.56 245.96 292.86 245.36 291.17 245.24"/><line class="cls-1" x1="291.17" y1="245.24" x2="282.81" y2="245.24"/><polyline class="cls-1" points="282.81 245.24 282.44 245.12 282.32 244.87"/><line class="cls-1" x1="282.32" y1="244.87" x2="279.78" y2="238.45"/><polyline class="cls-1" points="279.78 238.45 279.53 238.21 279.17 238.09"/><line class="cls-1" x1="279.17" y1="238.09" x2="277.35" y2="238.09"/><polyline class="cls-1" points="277.35 238.09 276.99 238.21 276.87 238.45 276.75 238.69"/><line class="cls-1" x1="276.75" y1="238.69" x2="276.75" y2="243.78"/><polyline class="cls-1" points="276.75 243.78 276.63 244.15 276.5 244.27 276.14 244.39"/><line class="cls-1" x1="276.14" y1="244.39" x2="271.66" y2="244.39"/><polyline class="cls-1" points="271.66 244.39 271.3 244.27 271.05 243.78"/><line class="cls-1" x1="271.05" y1="243.78" x2="271.05" y2="238.69"/><polyline class="cls-1" points="271.05 238.69 270.93 238.33 270.45 238.09"/><line class="cls-1" x1="270.45" y1="238.09" x2="268.63" y2="238.09"/><polyline class="cls-1" points="268.63 238.09 268.27 238.21 268.14 238.45"/><line class="cls-1" x1="268.14" y1="238.45" x2="265.6" y2="244.87"/><polyline class="cls-1" points="265.6 244.87 265.36 245.12 264.99 245.24"/><line class="cls-1" x1="264.99" y1="245.24" x2="252.15" y2="245.24"/><polyline class="cls-1" points="252.15 245.24 250.94 245.36 249.73 245.6 248.51 246.08"/><line class="cls-1" x1="248.52" y1="246.08" x2="248.15" y2="246.21"/><line class="cls-1" x1="248.15" y1="246.21" x2="244.88" y2="245.36"/><polyline class="cls-1" points="244.88 245.36 244.64 245.12 244.4 244.99"/><polyline class="cls-1" points="244.4 244.99 241.73 237.84 238.7 237.84 240.52 242.81"/><polyline class="cls-1" points="240.52 242.81 240.52 243.42 240.15 243.78 239.55 243.9"/><line class="cls-1" x1="239.55" y1="243.9" x2="222.83" y2="239.42"/><polyline class="cls-1" points="222.83 239.42 222.71 238.69 222.1 238.09 221.37 237.84 220.65 238.09 220.16 238.69"/><line class="cls-1" x1="220.16" y1="238.69" x2="213.38" y2="236.88"/><polyline class="cls-1" points="213.38 236.88 213.01 236.63 212.89 236.27"/><line class="cls-1" x1="212.89" y1="236.27" x2="212.89" y2="226.46"/><polyline class="cls-1" points="212.89 226.46 213.01 226.09 213.38 225.85"/><polyline class="cls-1" points="213.38 225.85 213.98 225.49 214.34 224.88 214.34 224.15 213.98 223.55 213.38 223.18"/><polyline class="cls-1" points="213.38 223.18 213.01 222.94 212.89 222.58"/><line class="cls-1" x1="212.89" y1="222.58" x2="212.89" y2="196.53"/><polyline class="cls-1" points="212.89 196.53 213.01 196.16 213.25 195.92"/><line class="cls-1" x1="213.25" y1="195.92" x2="216.65" y2="194.71"/><line class="cls-1" x1="216.65" y1="194.71" x2="216.89" y2="194.71"/><line class="cls-1" x1="216.89" y1="194.71" x2="291.53" y2="194.71"/><polyline class="cls-1" points="291.53 194.71 293.11 194.59 294.56 193.98 295.89 193.13 296.98 192.04 297.83 190.71 298.44 189.26 298.56 187.68"/><line class="cls-1" x1="298.56" y1="187.68" x2="298.56" y2="186.83"/><polyline class="cls-1" points="298.56 186.83 298.8 186.35 299.16 186.23"/><line class="cls-1" x1="299.16" y1="186.23" x2="314.43" y2="186.23"/><polyline class="cls-1" points="314.43 186.23 314.8 186.35 314.92 186.47 315.04 186.83"/><line class="cls-1" x1="315.04" y1="186.83" x2="315.04" y2="192.77"/><polyline class="cls-1" points="315.04 192.77 315.28 193.5 315.76 193.98 316.49 194.22 317.22 193.98 317.7 193.5 317.82 192.77"/><line class="cls-1" x1="317.82" y1="192.77" x2="317.82" y2="186.83"/><polyline class="cls-1" points="317.82 186.83 318.07 186.35 318.43 186.23"/><line class="cls-1" x1="318.43" y1="186.23" x2="331.52" y2="186.23"/><polyline class="cls-1" points="331.52 186.23 331.88 186.35 332 186.83"/><line class="cls-1" x1="332" y1="186.83" x2="332" y2="214.1"/><polyline class="cls-1" points="332 214.1 332 214.46 331.64 214.7"/><polyline class="cls-1" points="331.64 214.7 331.03 215.06 330.67 215.67 330.67 216.4 331.03 217 331.64 217.37"/><polyline class="cls-1" points="331.64 217.37 332 217.61 332 217.85"/><line class="cls-1" x1="332" y1="217.85" x2="332" y2="260.87"/><polyline class="cls-1" points="332 260.87 332 261.23 331.64 261.47"/><polyline class="cls-1" points="331.64 261.47 331.03 261.84 330.67 262.44 330.67 263.17 331.03 263.77 331.64 264.14"/><polyline class="cls-1" points="331.64 264.14 332 264.38 332 264.74"/><line class="cls-1" x1="332" y1="264.74" x2="332" y2="280.74"/><polyline class="cls-1" points="332 280.74 331.88 281.1 331.52 281.22"/><line class="cls-1" x1="331.52" y1="281.22" x2="322.06" y2="281.22"/><line class="cls-1" x1="322.06" y1="281.22" x2="321.82" y2="281.22"/><line class="cls-1" x1="321.82" y1="281.22" x2="321.1" y2="280.86"/><polyline class="cls-1" points="321.1 280.86 320.85 280.62 320.73 280.25"/><line class="cls-1" x1="320.73" y1="280.25" x2="320.73" y2="278.44"/><polyline class="cls-1" points="320.73 278.44 320.49 277.71 320 277.23 319.28 276.98 318.55 277.23 318.07 277.71 317.82 278.44"/><line class="cls-1" x1="317.82" y1="278.44" x2="317.82" y2="279.28"/><polyline class="cls-1" points="317.82 279.29 317.82 279.65 317.58 279.77 317.22 279.89"/><line class="cls-1" x1="317.22" y1="279.89" x2="316.49" y2="279.89"/><line class="cls-1" x1="316.49" y1="279.89" x2="303.89" y2="279.89"/><polyline class="cls-1" points="303.89 279.89 303.53 279.77 303.28 279.53 303.28 279.29"/><line class="cls-1" x1="303.28" y1="279.28" x2="303.28" y2="271.65"/><line class="cls-1" x1="303.28" y1="271.65" x2="303.04" y2="270.08"/><line class="cls-1" x1="202.35" y1="200.89" x2="188.42" y2="234.09"/><polyline class="cls-1" points="188.41 234.09 188.17 234.33 187.81 234.45"/><line class="cls-1" x1="187.81" y1="234.45" x2="170.36" y2="234.45"/><polyline class="cls-1" points="170.36 234.45 170 234.33 169.75 233.97 169.88 233.48"/><line class="cls-1" x1="169.88" y1="233.48" x2="197.5" y2="200.65"/><polyline class="cls-1" points="197.5 200.65 197.75 200.4 197.99 200.4"/><polyline class="cls-1" points="197.99 200.4 199.81 200.4 201.62 200.04"/><polyline class="cls-1" points="201.62 200.04 201.99 200.16 202.35 200.4 202.35 200.89"/><polyline class="cls-1" points="188.78 153.87 188.78 176.78 186.72 183.32"/><polyline class="cls-1" points="186.72 183.32 186.11 185.38 185.99 187.56 186.11 189.74 186.72 191.8 187.57 193.86"/><polyline class="cls-1" points="187.57 193.86 187.57 194.22 187.45 194.59 186.96 194.71"/><line class="cls-1" x1="186.96" y1="194.71" x2="145.4" y2="190.23"/><polyline class="cls-1" points="145.4 190.22 145.04 190.1 144.79 189.74"/><line class="cls-1" x1="144.79" y1="189.74" x2="144.79" y2="149.63"/><polyline class="cls-1" points="144.79 149.63 145.04 148.18 145.52 146.73 146.25 145.39 147.34 144.18 148.67 143.33 150.13 142.85"/><line class="cls-1" x1="150.13" y1="142.85" x2="172.66" y2="136.79"/><polyline class="cls-1" points="172.66 136.79 173.03 136.79 173.27 137.03 173.39 137.4"/><line class="cls-1" x1="173.39" y1="137.4" x2="173.15" y2="139.33"/><line class="cls-1" x1="173.15" y1="139.33" x2="173.15" y2="140.55"/><polyline class="cls-1" points="173.15 140.55 173.39 142.73 174 144.91 174.97 146.97 176.18 148.79 177.75 150.36 179.57 151.57 181.63 152.54 183.81 153.15 185.99 153.27"/><line class="cls-1" x1="185.99" y1="153.27" x2="188.29" y2="153.27"/><polyline class="cls-1" points="188.29 153.27 188.66 153.51 188.78 153.87"/><g id="LINE"><line class="cls-1" x1="376.35" y1="180.48" x2="376.35" y2="171.96"/></g><g id="LWPOLYLINE"><path class="cls-1" d="M368.45,140.18a1.4,1.4,0,0,1,.65,1.19v30.24H352.05V150.29h5.68a5.68,5.68,0,0,0,5.69-5.68v-7.69Z" transform="translate(1.57 1.77)"/></g><g id="LWPOLYLINE-2" data-name="LWPOLYLINE"><path class="cls-1" d="M374.78,178.71V141.37a7.09,7.09,0,0,0-3.24-6L353.45,123.7a11.39,11.39,0,0,0-6.18-1.82h-.9v8.52a2.84,2.84,0,0,0,2.84,2.84h1.42v-4.59l7.23,4.67a2.85,2.85,0,0,1,1.3,2.39v7.48a2.85,2.85,0,0,1-2.85,2.84h-5.68v-4.26h-1.42a2.84,2.84,0,0,0-2.84,2.84v24.15L343,174.67v3.19a.85.85,0,0,0,.85.85h1.71a.85.85,0,0,0,.85-.85v-.57h9.1a2.84,2.84,0,0,1,2.74,2.1l.8,3a2.86,2.86,0,0,1-.33,2.25L354,192.07H351.2a2.56,2.56,0,1,0,0,5.11h5.66l8-12.79-1.43-5.31a1.55,1.55,0,0,1,0-.37,1.41,1.41,0,0,1,1.42-1.42h2.69l5.31,1.42Z" transform="translate(1.57 1.77)"/></g><polyline class="cls-1" points="126.28 257.49 126.04 256.41 125.44 255.45 124.6 254.85 123.52 254.61"/><polyline class="cls-1" points="123.52 245.6 124.48 245.36 125.44 244.76 126.04 243.92 126.28 242.84"/><polyline class="cls-1" points="100.23 355.47 99.99 354.99 99.5 354.99"/><line class="cls-1" x1="100.23" y1="355.47" x2="100.23" y2="368.55"/><polyline class="cls-1" points="99.75 369.04 100.11 368.92 100.23 368.56"/><line class="cls-1" x1="99.75" y1="369.04" x2="77.29" y2="371.44"/><polyline class="cls-1" points="76.69 370.84 76.81 371.32 77.29 371.44"/><line class="cls-1" x1="76.69" y1="370.84" x2="76.69" y2="360.63"/><polyline class="cls-1" points="77.17 360.15 76.81 360.27 76.69 360.63"/><line class="cls-1" x1="77.17" y1="360.15" x2="86.42" y2="357.99"/><polyline class="cls-1" points="87.02 358.23 86.78 357.99 86.42 357.99"/><polyline class="cls-1" points="87.02 358.23 87.38 358.71 87.98 358.95 88.58 358.71 88.94 358.35 89.18 357.75"/><polyline class="cls-1" points="89.66 357.27 89.3 357.39 89.18 357.75"/><path class="cls-1" d="M98.54,350.7,75.84,356m12.25-.48,9.85-2.28" transform="translate(1.57 1.77)"/><polyline class="cls-1" points="76.69 357.15 76.93 357.63 77.41 357.75"/><line class="cls-1" x1="76.69" y1="357.15" x2="76.69" y2="315.84"/><polyline class="cls-1" points="77.17 315.36 76.81 315.48 76.69 315.85"/><polyline class="cls-1" points="77.17 315.36 119.8 313.08 120.16 313.2 121.84 314.28 123.64 315"/><polyline class="cls-1" points="123.88 315.85 124 315.36 123.64 315"/><polyline class="cls-1" points="123.88 315.85 100.47 352.23 100.11 352.47"/><polyline class="cls-1" points="284.29 391.01 284.65 390.89 284.77 390.53"/><line class="cls-1" x1="284.29" y1="391.01" x2="268.68" y2="391.01"/><polyline class="cls-1" points="268.08 390.53 268.2 390.89 268.68 391.01"/><line class="cls-1" x1="268.08" y1="390.53" x2="268.08" y2="339.98"/><polyline class="cls-1" points="268.68 339.5 268.2 339.62 268.08 339.98"/><line class="cls-1" x1="268.68" y1="339.5" x2="275.89" y2="339.5"/><polyline class="cls-1" points="276.37 339.86 276.13 339.5 275.89 339.5"/><polyline class="cls-1" points="276.37 339.86 277.33 341.54 278.65 343.1 280.33 344.18 282.25 344.9 284.29 345.14"/><polyline class="cls-1" points="284.77 345.74 284.65 345.26 284.29 345.14"/><line class="cls-1" x1="284.77" y1="345.74" x2="284.77" y2="390.53"/><polyline class="cls-1" points="303.5 393.89 303.38 393.53 303.02 393.29"/><line class="cls-1" x1="303.5" y1="393.89" x2="303.5" y2="435.31"/><polyline class="cls-1" points="303.02 435.91 303.38 435.67 303.5 435.31"/><line class="cls-1" x1="303.02" y1="435.91" x2="287.65" y2="435.91"/><polyline class="cls-1" points="287.05 435.31 287.29 435.67 287.65 435.91"/><line class="cls-1" x1="287.05" y1="435.31" x2="287.05" y2="393.89"/><polyline class="cls-1" points="287.65 393.29 287.29 393.53 287.05 393.89"/><line class="cls-1" x1="287.65" y1="393.29" x2="303.02" y2="393.29"/><polyline class="cls-1" points="297.98 365.67 297.86 365.19 297.38 364.95"/><polyline class="cls-1" points="297.98 365.67 297.86 366.87 298.22 368.07 298.82 369.15 299.78 370 300.86 370.48 302.18 370.6 303.02 370.6"/><polyline class="cls-1" points="303.5 371.2 303.38 370.84 303.02 370.6"/><line class="cls-1" x1="303.5" y1="371.2" x2="303.5" y2="375.76"/><polyline class="cls-1" points="303.02 376.36 303.38 376.12 303.5 375.76"/><polyline class="cls-1" points="303.02 376.36 302.18 376.36 300.86 376.48 299.66 377.08 298.7 378.04 298.1 379.24 297.86 380.56 298.1 381.88 298.7 383.08 299.66 384.04 300.86 384.64 302.18 384.88 303.02 384.88"/><polyline class="cls-1" points="303.5 385.36 303.38 385 303.02 384.88"/><line class="cls-1" x1="303.5" y1="385.36" x2="303.5" y2="390.53"/><polyline class="cls-1" points="303.02 391.01 303.38 390.89 303.5 390.53"/><line class="cls-1" x1="303.02" y1="391.01" x2="287.65" y2="391.01"/><polyline class="cls-1" points="287.05 390.53 287.29 390.89 287.65 391.01"/><line class="cls-1" x1="287.05" y1="390.53" x2="287.05" y2="365.55"/><polyline class="cls-1" points="287.65 364.95 287.29 365.19 287.05 365.55"/><line class="cls-1" x1="287.65" y1="364.95" x2="297.38" y2="364.95"/><polyline class="cls-1" points="284.77 393.89 284.65 393.53 284.29 393.29"/><line class="cls-1" x1="284.77" y1="393.89" x2="284.77" y2="435.31"/><polyline class="cls-1" points="284.29 435.91 284.65 435.67 284.77 435.31"/><line class="cls-1" x1="284.29" y1="435.91" x2="268.68" y2="435.91"/><polyline class="cls-1" points="268.08 435.31 268.2 435.67 268.68 435.91"/><line class="cls-1" x1="268.08" y1="435.31" x2="268.08" y2="393.89"/><polyline class="cls-1" points="268.68 393.29 268.2 393.53 268.08 393.89"/><path class="cls-1" d="M286.08,343.37h4m-22.94,48.15h15.61" transform="translate(1.57 1.77)"/><polyline class="cls-1" points="292.22 345.74 291.98 345.26 291.62 345.14"/><polyline class="cls-1" points="292.22 345.74 292.22 347.66 292.46 348.5 293.06 349.1 293.9 349.34 294.74 349.1 295.34 348.5 295.58 347.66 295.58 345.74"/><polyline class="cls-1" points="296.18 345.14 295.82 345.26 295.58 345.74"/><line class="cls-1" x1="296.18" y1="345.14" x2="303.02" y2="345.14"/><polyline class="cls-1" points="303.5 345.74 303.38 345.26 303.02 345.14"/><line class="cls-1" x1="303.5" y1="345.74" x2="303.5" y2="362.19"/><polyline class="cls-1" points="303.02 362.67 303.38 362.55 303.5 362.19"/><line class="cls-1" x1="303.02" y1="362.67" x2="287.65" y2="362.67"/><polyline class="cls-1" points="287.05 362.19 287.29 362.55 287.65 362.67"/><line class="cls-1" x1="287.05" y1="362.19" x2="287.05" y2="345.74"/><polyline class="cls-1" points="287.65 345.14 287.29 345.26 287.05 345.74"/><polyline class="cls-1" points="178.63 336.38 178.15 336.14 177.67 336.26"/><polyline class="cls-1" points="178.63 336.38 179.71 337.7 181.15 338.66 182.71 339.26 184.39 339.5 190.28 339.5"/><polyline class="cls-1" points="190.88 339.98 190.64 339.62 190.28 339.5"/><polyline class="cls-1" points="190.88 339.98 190.88 342.26 191 342.98 191.48 343.46 192.2 343.7 192.92 343.46 193.52 342.98 193.64 342.26 193.64 339.98"/><polyline class="cls-1" points="194.24 339.5 193.88 339.62 193.64 339.98"/><line class="cls-1" x1="194.24" y1="339.5" x2="208.65" y2="339.5"/><polyline class="cls-1" points="209.25 339.98 209.13 339.62 208.65 339.5"/><polyline class="cls-1" points="209.25 339.98 209.25 342.26 209.49 342.98 209.97 343.46 210.69 343.7 211.41 343.46 211.89 342.98 212.13 342.26 212.13 339.98"/><polyline class="cls-1" points="212.61 339.5 212.25 339.62 212.13 339.98"/><line class="cls-1" x1="212.61" y1="339.5" x2="236.98" y2="339.5"/><polyline class="cls-1" points="237.58 339.98 237.46 339.62 236.98 339.5"/><polyline class="cls-1" points="237.58 339.98 237.58 342.26 237.82 342.98 238.31 343.46 239.03 343.7 239.75 343.46 240.23 342.98 240.47 342.26 240.47 339.98"/><polyline class="cls-1" points="241.07 339.5 240.59 339.62 240.47 339.98"/><line class="cls-1" x1="241.07" y1="339.5" x2="254.75" y2="339.5"/><polyline class="cls-1" points="255.35 339.98 255.12 339.62 254.75 339.5"/><polyline class="cls-1" points="255.35 339.98 255.35 343.1 255.47 343.58 255.96 343.7 257.64 343.7 258 343.58 258.12 343.1 258.12 339.98"/><polyline class="cls-1" points="258.72 339.5 258.36 339.62 258.12 339.98"/><line class="cls-1" x1="258.72" y1="339.5" x2="264.72" y2="339.5"/><polyline class="cls-1" points="265.2 339.98 265.08 339.62 264.72 339.5"/><line class="cls-1" x1="265.2" y1="339.98" x2="265.2" y2="361.59"/><polyline class="cls-1" points="264.72 362.19 265.08 361.95 265.2 361.59"/><polyline class="cls-1" points="264.72 362.19 262.44 362.19 261.72 362.31 261.24 362.79 261 363.51 261.24 364.23 261.72 364.83 262.44 364.95 264.72 364.95"/><polyline class="cls-1" points="265.2 365.55 265.08 365.19 264.72 364.95"/><line class="cls-1" x1="265.2" y1="365.55" x2="265.2" y2="404.1"/><polyline class="cls-1" points="264.72 404.7 265.08 404.45 265.2 404.1"/><polyline class="cls-1" points="264.72 404.7 262.44 404.7 261.72 404.82 261.24 405.42 261 406.14 261.24 406.86 261.72 407.34 262.44 407.46 264.72 407.46"/><polyline class="cls-1" points="265.2 408.06 265.08 407.7 264.72 407.46"/><line class="cls-1" x1="265.2" y1="408.06" x2="265.2" y2="435.31"/><polyline class="cls-1" points="264.72 435.91 265.08 435.67 265.2 435.31"/><line class="cls-1" x1="264.72" y1="435.91" x2="236.74" y2="435.91"/><polyline class="cls-1" points="236.14 435.31 236.38 435.67 236.74 435.91"/><polyline class="cls-1" points="236.14 435.31 236.14 433.03 236.02 432.31 235.54 431.83 234.82 431.59 234.1 431.83 233.5 432.31 233.38 433.03 233.38 435.31"/><polyline class="cls-1" points="232.78 435.91 233.14 435.67 233.38 435.31"/><line class="cls-1" x1="232.78" y1="435.91" x2="218.37" y2="435.91"/><polyline class="cls-1" points="217.77 435.31 217.89 435.67 218.37 435.91"/><polyline class="cls-1" points="217.77 435.31 217.77 433.03 217.53 432.31 217.05 431.83 216.33 431.59 215.61 431.83 215.13 432.31 214.89 433.03 214.89 435.31"/><polyline class="cls-1" points="214.41 435.91 214.77 435.67 214.89 435.31"/><line class="cls-1" x1="214.41" y1="435.91" x2="184.27" y2="435.91"/><polyline class="cls-1" points="183.67 435.31 183.91 435.67 184.27 435.91"/><polyline class="cls-1" points="183.67 435.31 183.67 433.03 183.55 432.31 183.07 431.83 182.35 431.59 181.63 431.83 181.03 432.31 180.91 433.03 180.91 435.31"/><polyline class="cls-1" points="180.31 435.91 180.67 435.67 180.91 435.31"/><line class="cls-1" x1="180.31" y1="435.91" x2="166.62" y2="435.91"/><polyline class="cls-1" points="166.02 435.31 166.14 435.67 166.62 435.91"/><line class="cls-1" x1="166.02" y1="435.31" x2="166.02" y2="389.69"/><polyline class="cls-1" points="166.62 389.09 166.14 389.21 166.02 389.69"/><polyline class="cls-1" points="166.62 389.09 171.67 389.09 172.39 388.85 172.87 388.37 173.11 387.65 172.87 386.93 172.39 386.44 171.67 386.2 166.62 386.2"/><polyline class="cls-1" points="166.02 385.73 166.14 386.08 166.62 386.2"/><polyline class="cls-1" points="166.02 385.73 166.02 348.14 166.14 347.78 177.67 336.26"/><line class="cls-1" x1="100.23" y1="371.92" x2="100.23" y2="435.31"/><polyline class="cls-1" points="99.63 435.91 100.11 435.67 100.23 435.31"/><line class="cls-1" x1="99.63" y1="435.91" x2="77.29" y2="435.91"/><polyline class="cls-1" points="76.69 435.31 76.81 435.67 77.29 435.91"/><line class="cls-1" x1="76.69" y1="435.31" x2="76.69" y2="374.32"/><polyline class="cls-1" points="77.17 373.72 76.81 373.96 76.69 374.32"/><line class="cls-1" x1="77.17" y1="373.72" x2="99.63" y2="371.32"/><polyline class="cls-1" points="100.23 371.92 99.99 371.56 99.63 371.32"/><polyline class="cls-1" points="177.31 309.84 177.19 309.36 176.71 309.24"/><polyline class="cls-1" points="177.31 309.84 177.31 332.41 177.19 332.77 164.94 345.02"/><polyline class="cls-1" points="164.22 345.02 164.58 345.14 164.94 345.02"/><line class="cls-1" x1="164.22" y1="345.02" x2="135.29" y2="315.96"/><polyline class="cls-1" points="135.53 315 135.17 315.24 135.05 315.6 135.29 315.96"/><line class="cls-1" x1="135.53" y1="315" x2="176.71" y2="309.24"/><polyline class="cls-1" points="130.6 315.73 131.08 315.96 163.02 347.78 163.14 348.14 163.14 435.31"/><polyline class="cls-1" points="162.66 435.91 163.02 435.67 163.14 435.31"/><line class="cls-1" x1="162.66" y1="435.91" x2="130.6" y2="435.91"/><polyline class="cls-1" points="130 435.31 130.12 435.67 130.6 435.91"/><line class="cls-1" x1="130" y1="435.31" x2="130" y2="316.32"/><polyline class="cls-1" points="130.48 315.73 130.12 315.96 130 316.32"/><line class="cls-1" x1="130.48" y1="315.72" x2="130.6" y2="315.72"/><polygon class="cls-1" points="102.63 353.19 102.51 353.43 102.51 435.31 102.63 435.67 103.11 435.91 127.12 435.91 127.6 435.67 127.72 435.31 127.72 316.44 127.6 315.96 127.12 315.85 126.76 315.85 126.52 316.08 102.63 353.19"/><polyline class="cls-1" points="105.03 249.09 104.91 248.73 104.67 248.49 104.31 248.61 99.86 251.01 95.78 253.89 92.06 257.13 88.58 260.73 85.46 264.81 82.82 269.02 80.65 273.46 78.97 278.26 77.65 283.07 76.93 287.99 76.69 293.03 76.69 312.48 76.81 312.84 77.29 313.08 116.67 310.92 117.03 310.8 117.16 310.44 117.03 310.08"/><polyline class="cls-1" points="114.75 298.07 114.39 300.6 114.39 303.12 114.87 305.52 115.72 307.92 117.03 310.08"/><polyline class="cls-1" points="114.75 298.07 120.64 276.34 120.64 264.57 120.52 264.21 120.04 263.98 117.76 263.98"/><polyline class="cls-1" points="105.03 251.25 105.27 253.77 105.99 256.17 107.19 258.33 108.75 260.25 110.67 261.81 112.95 263.01 115.35 263.74 117.76 263.98"/><line class="cls-1" x1="105.03" y1="251.25" x2="105.03" y2="249.09"/><line class="cls-1" x1="79.57" y1="441.56" x2="96.02" y2="441.56"/><polyline class="cls-1" points="98.78 444.44 98.55 443.24 97.94 442.4 97.1 441.8 96.02 441.56"/><polyline class="cls-1" points="98.78 444.44 98.78 446.24 95.06 459.93 95.06 461.37 107.79 461.37 109.35 455.73 103.95 455.73"/><polyline class="cls-1" points="102.63 453.92 102.63 454.52 102.87 455.12 103.35 455.61 103.95 455.73"/><line class="cls-1" x1="102.63" y1="453.92" x2="105.39" y2="443.6"/><polyline class="cls-1" points="108.15 441.56 106.95 441.8 105.99 442.52 105.39 443.6"/><line class="cls-1" x1="108.15" y1="441.56" x2="200.36" y2="441.56"/><polyline class="cls-1" points="203.13 443.6 202.52 442.52 201.56 441.8 200.36 441.56"/><line class="cls-1" x1="203.12" y1="443.6" x2="205.89" y2="453.92"/><polyline class="cls-1" points="204.56 455.73 205.29 455.49 205.89 454.76 205.89 453.92"/><polyline class="cls-1" points="204.56 455.73 200 455.73 201.56 461.37 213.33 461.37 213.33 459.93 209.37 445.16"/><polyline class="cls-1" points="212.13 441.56 211.05 441.68 210.21 442.28 209.61 443.12 209.25 444.08 209.37 445.16"/><polyline class="cls-1" points="212.13 441.56 222.7 441.56 224.02 441.2"/><polyline class="cls-1" points="227.14 441.2 226.06 440.72 224.98 440.72 224.02 441.2"/><polyline class="cls-1" points="227.14 441.2 228.34 441.56 272.16 441.56"/><polyline class="cls-1" points="274.81 443.6 274.33 442.52 273.37 441.8 272.16 441.56"/><line class="cls-1" x1="274.81" y1="443.6" x2="277.57" y2="453.92"/><polyline class="cls-1" points="276.25 455.73 276.85 455.61 277.33 455.12 277.69 454.52 277.57 453.92"/><polyline class="cls-1" points="276.25 455.73 270.96 455.73 272.4 461.37 285.13 461.37 285.13 459.93 281.41 446.24 281.41 444.44"/><polyline class="cls-1" points="284.29 441.56 283.21 441.8 282.25 442.4 281.65 443.24 281.41 444.44"/><line class="cls-1" x1="284.29" y1="441.56" x2="300.74" y2="441.56"/><polyline class="cls-1" points="303.5 444.44 303.38 443.24 302.66 442.4 301.82 441.8 300.74 441.56"/><line class="cls-1" x1="303.5" y1="444.44" x2="303.5" y2="452.84"/><polyline class="cls-1" points="300.74 455.73 301.82 455.49 302.66 454.88 303.38 453.92 303.5 452.84"/><polyline class="cls-1" points="300.74 455.73 297.62 455.73 296.42 459.93 296.42 461.37 310.59 461.37 310.59 322.45 310.47 321.37 309.75 320.41 308.9 319.81 307.82 319.57 296.42 319.57 296.42 321.01 297.62 325.21 300.74 325.21"/><polyline class="cls-1" points="303.5 328.09 303.38 327.01 302.66 326.05 301.82 325.45 300.74 325.21"/><line class="cls-1" x1="303.5" y1="328.09" x2="303.5" y2="336.62"/><polyline class="cls-1" points="300.74 339.5 301.82 339.26 302.66 338.66 303.38 337.7 303.5 336.62"/><line class="cls-1" x1="300.74" y1="339.5" x2="284.29" y2="339.5"/><polyline class="cls-1" points="281.41 336.62 281.65 337.7 282.25 338.66 283.21 339.26 284.29 339.5"/><polyline class="cls-1" points="281.41 336.62 281.41 334.81 285.13 321.01 285.13 319.57 274.57 319.57 273.61 319.93 273.13 320.65 272.4 323.53 272.4 324.37 273 324.97 273.73 325.21 276.61 325.21 274.93 331.69"/><polyline class="cls-1" points="272.16 333.74 273.37 333.5 274.32 332.77 274.93 331.69"/><polyline class="cls-1" points="272.16 333.74 204.32 333.74 203 334.21"/><polyline class="cls-1" points="199.88 334.21 200.96 334.57 202.04 334.57 203 334.21"/><polyline class="cls-1" points="199.88 334.21 198.68 333.74 184.39 333.74"/><polyline class="cls-1" points="183.07 332.41 183.19 333.01 183.67 333.62 184.39 333.74"/><polyline class="cls-1" points="183.07 332.41 183.07 292.67 182.83 292.31 182.47 291.83"/><polyline class="cls-1" points="182.47 290.63 182.11 291.23 182.47 291.83"/><polyline class="cls-1" points="182.47 290.63 182.83 290.15 183.07 289.79 183.07 267.1 182.83 266.38 182.35 265.9 181.63 265.66 180.43 265.9 179.23 266.38 178.39 267.22 177.67 268.3 177.43 269.5 174.07 300.72"/><polyline class="cls-1" points="170.35 304.44 171.67 303.96 172.87 303.24 173.59 302.04 174.07 300.72"/><line class="cls-1" x1="170.35" y1="304.44" x2="129.64" y2="310.2"/><polyline class="cls-1" points="120.28 299.51 120.04 301.32 120.16 303.24 120.64 305.04 121.6 306.6 122.8 308.04 124.24 309.12 126.04 309.84 127.84 310.2 129.64 310.2"/><polyline class="cls-1" points="120.28 299.51 126.28 277.06 126.28 257.49 126.04 256.41 125.44 255.45 124.6 254.85 123.52 254.61 122.08 254.61 122.08 256.89"/><polyline class="cls-1" points="120.64 258.33 121.36 258.09 121.84 257.61 122.08 256.89"/><line class="cls-1" x1="120.64" y1="258.33" x2="117.76" y2="258.33"/><polyline class="cls-1" points="110.67 251.25 110.91 253.05 111.63 254.85 112.83 256.29 114.27 257.37 115.95 258.09 117.76 258.33"/><line class="cls-1" x1="110.67" y1="251.25" x2="110.67" y2="249.81"/><polyline class="cls-1" points="115.95 242.96 114.27 243.68 112.83 244.76 111.63 246.21 110.91 248.01 110.67 249.81"/><line class="cls-1" x1="115.95" y1="242.96" x2="121" y2="241.64"/><polyline class="cls-1" points="122.08 242.36 121.72 241.76 121 241.64"/><polyline class="cls-1" points="122.08 242.36 122.08 245.6 123.52 245.6 124.6 245.36 125.44 244.76 126.04 243.8 126.28 242.72 126.28 239.72 126.04 239 125.44 238.4"/><polyline class="cls-1" points="125.44 236.84 124.96 237.32 124.96 237.92 125.44 238.4"/><polyline class="cls-1" points="125.44 236.84 126.04 236.36 126.28 235.52 126.28 234.56 125.44 234.56 111.63 238.28 106.59 239.84 101.67 241.88 96.98 244.4 92.66 247.41 88.46 250.77 84.74 254.49 81.38 258.45 78.25 262.77 75.73 267.46 73.57 272.26 71.77 277.3 70.57 282.46 69.85 287.75 69.61 293.03 69.61 461.37 83.78 461.37 83.78 459.93 82.58 455.73 79.57 455.73"/><polyline class="cls-1" points="76.69 452.84 76.93 453.92 77.53 454.88 78.49 455.49 79.57 455.73"/><line class="cls-1" x1="76.69" y1="452.84" x2="76.69" y2="444.44"/><polyline class="cls-1" points="79.57 441.56 78.49 441.8 77.53 442.4 76.93 443.24 76.69 444.44"/></g><g id="stal_kopia" data-name="stal kopia"><path class="cls-2" d="M258.44,351.81v68.1l-.24,1.93-.61,1.82-1.09,1.58-1.33,1.33-1.58,1-1.82.73-1.93.12h-74.1l-1.82-.12-1.82-.73-1.57-1-1.46-1.33-1-1.58-.6-1.82-.24-1.93V388.76h3.56V419a5.83,5.83,0,0,0,5.82,5.82h72.41a5.82,5.82,0,0,0,5.82-5.82V352.68a5.81,5.81,0,0,0-5.82-5.82H176.64a5.82,5.82,0,0,0-5.82,5.82v30.39h-3.56V351.81l.24-1.82.6-1.82,1-1.69,1.46-1.34,1.57-1,1.82-.6,1.82-.24h74.1l1.93.24,1.82.6,1.58,1,1.33,1.34,1.09,1.69.61,1.82Z" transform="translate(1.57 1.77)"/><g id="LWPOLYLINE-3" data-name="LWPOLYLINE"><path class="cls-2" d="M217.73,206.86v20.7h-3.55v-20.7a7.1,7.1,0,0,1,11.65-5.43l7.63,6.41a3.54,3.54,0,0,0,5-.44l.19-.24,6-8.61a7.06,7.06,0,0,1,5.8-3h50.39l21.44,5.69a7.09,7.09,0,0,1,5.27,6.85v65.42H324V208.06a3.54,3.54,0,0,0-2.64-3.42l-21-5.57H250.47a3.53,3.53,0,0,0-2.9,1.51l-6,8.61a5.85,5.85,0,0,1-.38.49,7.08,7.08,0,0,1-10,.87l-7.63-6.4a3.54,3.54,0,0,0-5,.44A3.49,3.49,0,0,0,217.73,206.86Z" transform="translate(1.57 1.77)"/></g></g><g id="uszczelki"><path class="cls-3" d="M203.86,120.12l-.56-.45-2.6-.12-2.49.46-2.49.79-2.26,1.13-.34.22-.11.34-.11.46v7.23l-.23.79-.34.79-.68.68-.79.34-.79.23H188.6v-1.59l-.22-.68-.46-.45-.79-.22-.68.22-.45.45-.22.68v3.85l.9.22.68.45.45.8.23.79-.23.9-.45.68-.68.56-.9.12v3.84l.22.68.45.56.68.23.79-.23.46-.56.22-.68v-1.58h1.47l.79.11.79.45.68.57.34.79.23.9v2.72l.11.11h.68l.79-.11.68-.45.34-.68.22-.79v-4l.12-.9.45-.8.68-.56,1.58-.23,1.35-.56,1.25-.91,1.13-1.24,1-1.36.56-1.58.34-1.58V120.8Zm-2.6,7.46-.68,4.41-.34,1.13-.67,1-.91.9-.68.23-.68-.23-.56-.56-.23-.68v-7.12l.23-.57.34-.56.56-.34,1.13-.23.91-.56.34-.68v-.68l.11-.45.34-.34h.45l.45.34.12.45Z" transform="translate(1.57 1.77)"/><path class="cls-3" d="M326.1,323.25l.68-.56.9-.11v-3.85l-.22-.79-.46-.45-.79-.23-.68.23-.45.45-.22.79v1.59h-1.47l-.79-.23-.8-.34-.67-.68-.46-.79-.11-.79v-3.73h-.79l-.79.11-.68.45L318,315l-.22.79v1.7l-.12.9-.45.8-.57.67-.67.68-.34.91-.57,2.93-.79,2.83-1.13,2.71-1.36,2.72-.22.11h-.23l-.22-.11v-.23l.22-1.24V330l-.11-1.13v-1.36l.23-1.24.56-1.25.23-.56-.12-.68-.45-.45-.68-.23-.68.23-.67,1-.34,1.13v13l.11.68.34.57.68.34,1.92.45h2l2-.45,1.92-.68,1.7-1.13.45-.23.11-.56v-5.32l.11-.9.46-.79.67-.57.8-.45.79-.11h1.47v1.58l.22.68.45.56.68.12.79-.12.46-.56.22-.68V327.1l-.9-.23-.68-.45-.57-.79-.11-.79.11-.91Zm-6.9-.56-.45.9-.34,1-.11,1v10.28l-.11.46-.34.34-2,.79-2,.56-2.15.34-.22-.11-.23-.12v-1.8l-.11-1.59.11-.22.11-.23h.34l.57-.22.34-.34,1.8-2.72,1.47-2.82,1-2.94.68-3.05.23-.57.56-.22.57.11.33.45Z" transform="translate(1.57 1.77)"/><path class="cls-3" d="M135.73,230.69l-.68-.45h-2.48l-2.6.34-2.38.79-2.37,1.25-.22.22-.23.34-.11.34v7.35l-.23,1-.57.9-.9.56-1.13.23h-1.36v-1.47l-.22-.68-.57-.56-.68-.23-.67.23-.57.56-.11.68V246l.79.12.79.56.45.68.23.91-.23.9-.45.68-.79.45-.79.23v3.84l.11.68.57.56.67.12.68-.12.57-.56.22-.68v-1.7h1.36l.9.23.8.34.56.68.45.79.12.79v2.83l.11.11h.79l.68-.23.68-.45.45-.57.11-.79v-4l.11-.91.46-.79.79-.56,1.47-.23,1.47-.56,1.24-.91,1.13-1.24.9-1.36.68-1.58.34-1.7V231.37ZM133,238.15l-.56,4.53-.46,1.13-.56,1-.91.8-.67.22-.8-.11-.45-.57-.22-.68v-7.12l.11-.67.45-.46.57-.34,1-.33,1-.57.23-.57.11-.67.11-.46.34-.33h.45l.34.22.12.45Z" transform="translate(1.57 1.77)"/><path class="cls-3" d="M198.24,263.72l.68-.56.91-.12V259.2l-.23-.79-.45-.45-.79-.23-.68.23-.45.45-.23.79v1.58h-1.47l-.79-.22-.79-.34-.68-.68-.45-.79-.11-.79v-3.73h-.8l-.79.11-.67.45-.34.68-.23.79V258l-.11.9-.46.79-.56.68-.68.68-.34.9-.56,2.94-.79,2.83-1.13,2.71-1.36,2.71-.23.12h-.22l-.23-.12v-.22l.23-1.25V270.5l-.12-1.13V268l.23-1.25.57-1.24.22-.57-.11-.67-.45-.46-.68-.22-.68.22-.68,1L181.4,266v13l.12.68.33.56.68.34,1.92.46h2l2-.46,1.93-.68,1.69-1.13.45-.22.12-.57v-5.31l.11-.9.45-.79.68-.57.79-.45.79-.12H197v1.59l.23.68.45.56.68.11.79-.11.45-.56.23-.68v-3.85l-.91-.22-.68-.45-.56-.79-.11-.8.11-.9Zm-6.89-.56-.45.9-.34,1-.11,1v10.28l-.12.45-.34.34-2,.79-2,.57-2.14.34-.23-.12-.23-.11v-1.81l-.11-1.58.11-.23.12-.22h.34l.56-.23.34-.34,1.81-2.71,1.47-2.83,1-2.93.67-3.06.23-.56.57-.23.56.12.34.45Z" transform="translate(1.57 1.77)"/><path class="cls-3" d="M356.79,135.15l-3.86-4.06a.86.86,0,0,0-1.21,0,.9.9,0,0,0-.23.4l-.18.65a10,10,0,0,0-.68,1.13h-1.42a2.84,2.84,0,0,1-2.84-2.84v-7.83a1.54,1.54,0,0,0-.18-1.13L342.94,111a1.13,1.13,0,0,0-2.21.48l1.46,11.73a43.33,43.33,0,0,1,.77,4.39v10.51l.58,6.61a.83.83,0,0,1,0,.15.32.32,0,0,1-.32.32.31.31,0,0,1-.32-.31l.16-1.14a1.21,1.21,0,0,0-2.41-.2,1,1,0,0,0,0,.3,5.51,5.51,0,0,0,2.83,4.71h1.06a.84.84,0,0,0,.71-.42l.95-1.65a.79.79,0,0,0,.12-.42v-1.48a2.84,2.84,0,0,1,2.84-2.84h1.42a10,10,0,0,0,.68,1.13l.18.65a.84.84,0,0,0,1,.6.9.9,0,0,0,.4-.23l3.86-4.06A3.41,3.41,0,0,0,356.79,135.15Zm-3.6,4.91h-4.26a2.56,2.56,0,1,1,0-5.11h4.26a2.56,2.56,0,1,1,0,5.11Z" transform="translate(1.57 1.77)"/></g><g id="szklenie"><g id="LWPOLYLINE-4" data-name="LWPOLYLINE"><polyline class="cls-4" points="268.47 166.44 268.47 148.02 261.38 155.11 224.53 155.11 217.45 148.02 217.45 166.44 268.47 166.44"/></g><g id="HATCH"><line class="cls-5" x1="217.45" y1="152.11" x2="219.49" y2="150.07"/><line class="cls-5" x1="217.45" y1="158.48" x2="222.68" y2="153.25"/><line class="cls-5" x1="217.45" y1="164.84" x2="227.18" y2="155.11"/><line class="cls-5" x1="222.21" y1="166.44" x2="233.55" y2="155.11"/><line class="cls-5" x1="228.57" y1="166.44" x2="239.91" y2="155.11"/><line class="cls-5" x1="234.93" y1="166.44" x2="246.27" y2="155.11"/><line class="cls-5" x1="241.3" y1="166.44" x2="252.64" y2="155.11"/><line class="cls-5" x1="247.66" y1="166.44" x2="259" y2="155.11"/><line class="cls-5" x1="254.03" y1="166.44" x2="268.47" y2="152"/><line class="cls-5" x1="260.39" y1="166.44" x2="268.47" y2="158.36"/><line class="cls-5" x1="266.75" y1="166.44" x2="268.47" y2="164.73"/><line class="cls-5" x1="222.01" y1="166.44" x2="217.45" y2="161.89"/><line class="cls-5" x1="228.37" y1="166.44" x2="217.45" y2="155.52"/><line class="cls-5" x1="234.73" y1="166.44" x2="217.45" y2="149.16"/><line class="cls-5" x1="241.1" y1="166.44" x2="229.76" y2="155.11"/><line class="cls-5" x1="247.46" y1="166.44" x2="236.12" y2="155.11"/><line class="cls-5" x1="253.83" y1="166.44" x2="242.49" y2="155.11"/><line class="cls-5" x1="260.19" y1="166.44" x2="248.85" y2="155.11"/><line class="cls-5" x1="266.55" y1="166.44" x2="255.21" y2="155.11"/><line class="cls-5" x1="268.47" y1="162" x2="261.48" y2="155.01"/><line class="cls-5" x1="268.47" y1="155.64" x2="264.66" y2="151.83"/><line class="cls-5" x1="268.47" y1="149.27" x2="267.85" y2="148.65"/></g><g id="LWPOLYLINE-5" data-name="LWPOLYLINE"><polygon class="cls-6" points="268.47 136.68 268.47 148.02 261.38 155.11 224.53 155.11 217.45 148.02 217.45 136.68 242.58 136.68 242.96 136.92 243.34 136.68 268.47 136.68"/></g><g id="LWPOLYLINE-6" data-name="LWPOLYLINE"><polygon class="cls-6" points="265.64 139.52 265.64 146.84 260.21 152.27 225.71 152.27 220.28 146.84 220.28 139.52 265.64 139.52"/></g><g id="HATCH-2" data-name="HATCH"><polygon class="cls-7" points="220.28 139.52 220.28 146.84 225.71 152.27 260.21 152.27 265.64 146.84 265.64 139.52 220.28 139.52"/><path class="cls-6" d="M218.71,137.79h0m.18,0h0m2.25,0h0m2.25,0h0m2.25,0h0m2.25,0h0m2.25,0h0m2.25,0h0m2.25,0h0m2.25,0h0m2.25,0h0m2.25,0h0m2.25,0h0m2.25,0h0m2.25,0h0m2.25,0h0m2.25,0h0m2.25,0h0m2.25,0h0m2.25,0h0m2.25,0h0m2.25,0h0M218.71,140h0m1.31,0h0m2.25,0h0m2.25,0h0m2.25,0h0m2.25,0h0m2.25,0h0m2.25,0h0m2.25,0h0m2.25,0h0m2.25,0h0m2.25,0h0m2.25,0h0m2.25,0h0m2.25,0h0m2.25,0h0m2.25,0h0m2.25,0h0m2.25,0h0m2.25,0h0m2.25,0h0m-44.06,2.25h0m.18,0h0m2.25,0h0m2.25,0h0m2.25,0h0m2.25,0h0m2.25,0h0m2.25,0h0m2.25,0h0m2.25,0h0m2.25,0h0m2.25,0h0m2.25,0h0m2.25,0h0m2.25,0h0m2.25,0h0m2.25,0h0m2.25,0h0m2.25,0h0m2.25,0h0m2.25,0h0m2.25,0h0m-45.18,2.25h0m1.31,0h0m2.25,0h0m2.25,0h0m2.25,0h0m2.25,0h0m2.25,0h0m2.25,0h0m2.25,0h0m2.25,0h0m2.25,0h0m2.25,0h0m2.25,0h0m2.25,0h0m2.25,0h0m2.25,0h0m2.25,0h0m2.25,0h0m2.25,0h0m2.25,0h0m2.25,0h0m-42.34,2.25h0m.71,0h0m2.25,0h0m2.25,0h0m2.25,0h0m2.25,0h0m2.25,0h0m2.25,0h0m2.25,0h0m2.25,0h0m2.25,0h0m2.25,0h0m2.25,0h0m2.25,0h0m2.25,0h0m2.25,0h0m2.25,0h0m2.25,0h0m2.25,0h0m2.25,0h0m-39,2.25h0m1.84,0h0m2.25,0h0m2.25,0h0m2.25,0h0m2.25,0h0m2.25,0h0m2.25,0h0m2.25,0h0m2.25,0h0m2.25,0h0m2.25,0h0m2.25,0h0m2.25,0h0m2.25,0h0m2.25,0h0m2.25,0h0" transform="translate(1.57 1.77)"/></g><g id="LWPOLYLINE-7" data-name="LWPOLYLINE"><polyline class="cls-4" points="330.83 166.44 330.83 148.02 323.75 155.11 286.9 155.11 279.81 148.02 279.81 166.44 330.83 166.44"/></g><g id="HATCH-3" data-name="HATCH"><line class="cls-5" x1="279.81" y1="152.11" x2="281.86" y2="150.07"/><line class="cls-5" x1="279.81" y1="158.48" x2="285.04" y2="153.25"/><line class="cls-5" x1="279.81" y1="164.84" x2="289.54" y2="155.11"/><line class="cls-5" x1="284.57" y1="166.44" x2="295.91" y2="155.11"/><line class="cls-5" x1="290.93" y1="166.44" x2="302.27" y2="155.11"/><line class="cls-5" x1="297.3" y1="166.44" x2="308.64" y2="155.11"/><line class="cls-5" x1="303.66" y1="166.44" x2="315" y2="155.11"/><line class="cls-5" x1="310.03" y1="166.44" x2="321.36" y2="155.11"/><line class="cls-5" x1="316.39" y1="166.44" x2="330.83" y2="152"/><line class="cls-5" x1="322.75" y1="166.44" x2="330.83" y2="158.36"/><line class="cls-5" x1="329.12" y1="166.44" x2="330.83" y2="164.73"/><line class="cls-5" x1="284.37" y1="166.44" x2="279.81" y2="161.89"/><line class="cls-5" x1="290.73" y1="166.44" x2="279.81" y2="155.52"/><line class="cls-5" x1="297.1" y1="166.44" x2="279.81" y2="149.16"/><line class="cls-5" x1="303.46" y1="166.44" x2="292.12" y2="155.11"/><line class="cls-5" x1="309.82" y1="166.44" x2="298.49" y2="155.11"/><line class="cls-5" x1="316.19" y1="166.44" x2="304.85" y2="155.11"/><line class="cls-5" x1="322.55" y1="166.44" x2="311.21" y2="155.11"/><line class="cls-5" x1="328.92" y1="166.44" x2="317.58" y2="155.11"/><line class="cls-5" x1="330.83" y1="162" x2="323.84" y2="155.01"/><line class="cls-5" x1="330.83" y1="155.64" x2="327.03" y2="151.83"/><line class="cls-5" x1="330.83" y1="149.27" x2="330.21" y2="148.65"/></g><g id="LWPOLYLINE-8" data-name="LWPOLYLINE"><polygon class="cls-6" points="330.83 136.68 330.83 148.02 323.75 155.11 286.9 155.11 279.81 148.02 279.81 136.68 304.94 136.68 305.32 136.92 305.7 136.68 330.83 136.68"/></g><g id="LWPOLYLINE-9" data-name="LWPOLYLINE"><polygon class="cls-6" points="328 139.52 328 146.84 322.57 152.27 288.07 152.27 282.65 146.84 282.65 139.52 328 139.52"/></g><g id="HATCH-4" data-name="HATCH"><polygon class="cls-7" points="282.65 139.52 282.65 146.84 288.07 152.27 322.57 152.27 328 146.84 328 139.52 282.65 139.52"/><path class="cls-6" d="M281.08,137.79h0m.17,0h0m2.25,0h0m2.25,0h0m2.25,0h0m2.25,0h0m2.25,0h0m2.25,0h0m2.25,0h0m2.25,0h0m2.25,0h0m2.25,0h0m2.25,0h0m2.25,0h0m2.25,0h0m2.25,0h0m2.25,0h0m2.25,0h0m2.25,0h0m2.25,0h0m2.25,0h0m2.25,0h0M281.08,140h0m1.3,0h0m2.25,0h0m2.25,0h0m2.25,0h0m2.25,0h0m2.25,0h0m2.25,0h0m2.25,0h0m2.25,0h0m2.25,0h0m2.25,0h0m2.25,0h0m2.25,0h0m2.25,0h0m2.25,0h0m2.25,0h0m2.25,0h0m2.25,0h0m2.25,0h0m2.25,0h0m-44.05,2.25h0m.17,0h0m2.25,0h0m2.25,0h0m2.25,0h0m2.25,0h0m2.25,0h0m2.25,0h0m2.25,0h0m2.25,0h0m2.25,0h0m2.25,0h0m2.25,0h0m2.25,0h0m2.25,0h0m2.25,0h0m2.25,0h0m2.25,0h0m2.25,0h0m2.25,0h0m2.25,0h0m2.25,0h0m-45.17,2.25h0m1.3,0h0m2.25,0h0m2.25,0h0m2.25,0h0m2.25,0h0m2.25,0h0m2.25,0h0m2.25,0h0m2.25,0h0m2.25,0h0m2.25,0h0m2.25,0h0m2.25,0h0m2.25,0h0m2.25,0h0m2.25,0h0m2.25,0h0m2.25,0h0m2.25,0h0m2.25,0h0m-42.34,2.25h0m.71,0h0m2.25,0h0m2.25,0h0m2.25,0h0m2.25,0h0m2.25,0h0m2.25,0h0m2.25,0h0m2.25,0h0m2.25,0h0m2.25,0h0m2.25,0h0m2.25,0h0m2.25,0h0m2.25,0h0m2.25,0h0m2.25,0h0m2.25,0h0m2.25,0h0M285,149h0m1.84,0h0m2.25,0h0m2.25,0h0m2.25,0h0m2.25,0h0m2.25,0h0m2.25,0h0m2.25,0h0m2.25,0h0m2.25,0h0m2.25,0h0m2.25,0h0m2.25,0h0m2.25,0h0m2.25,0h0m2.25,0h0" transform="translate(1.57 1.77)"/></g><g id="LWPOLYLINE-10" data-name="LWPOLYLINE"><rect class="cls-8" x="206.11" y="69.85" width="11.34" height="96.59"/></g><g id="LWPOLYLINE-11" data-name="LWPOLYLINE"><rect class="cls-8" x="268.47" y="69.85" width="11.34" height="96.59"/></g><g id="LWPOLYLINE-12" data-name="LWPOLYLINE"><rect class="cls-8" x="330.83" y="69.85" width="11.34" height="96.59"/></g><line class="cls-9" x1="291.75" y1="69.74" x2="257.04" y2="69.74"/><line class="cls-9" x1="243.48" y1="69.74" x2="243.59" y2="69.85"/><line class="cls-9" x1="229.92" y1="69.74" x2="195.33" y2="69.74"/><line class="cls-9" x1="353.35" y1="69.74" x2="318.65" y2="69.74"/><line class="cls-9" x1="305.08" y1="69.74" x2="305.2" y2="69.85"/><line class="cls-9" x1="291.52" y1="69.74" x2="256.93" y2="69.74"/><rect class="cls-10" x="202.97" y="166.44" width="142.41" height="13.98"/><polyline class="cls-1" points="202.97 180.42 202.97 166.44 345.38 166.44 202.97 180.42 345.38 180.42 202.97 166.44 345.38 166.44 345.38 180.42"/></g><g id="podkładka"><polygon class="cls-11" points="194.47 169.99 196.77 169.99 196.77 180.53 213.49 180.53 213.71 180.29 257.96 180.41 258.83 180.53 279.53 180.53 281 181.52 282.04 182.65 282.19 183.16 290.31 183.16 290.31 184.77 290.19 186.11 289.52 187.38 288.52 188.33 287.4 188.89 271.17 188.89 270.68 189.62 269.8 189.86 269.11 189.86 267.47 189.01 246.81 189.01 246.24 188.71 246.08 187.68 217.49 187.68 217.49 188.28 217.12 188.92 212.7 188.94 212.4 188.53 212.31 187.68 206.7 187.68 206.7 191.2 206.58 191.92 206.46 192.16 201.62 193.6 201.62 188.53 194.86 188.53 193.48 188.31 192.51 187.68 191.86 186.81 191.68 185.5 191.68 184.77 192.28 184.65 192.69 184.25 193.01 183.5 194.47 169.99"/><line class="cls-1" x1="193.38" y1="180.53" x2="213.49" y2="180.53"/><line class="cls-1" x1="194.47" y1="188.53" x2="201.61" y2="188.53"/><line class="cls-1" x1="193.01" y1="183.56" x2="194.47" y2="169.99"/><line class="cls-1" x1="196.77" y1="180.53" x2="196.77" y2="169.99"/><line class="cls-1" x1="191.68" y1="185.62" x2="191.68" y2="184.77"/><polyline class="cls-1" points="191.68 184.77 192.28 184.65 192.77 184.17 193.01 183.56"/><polyline class="cls-1" points="191.68 185.62 191.8 186.71 192.41 187.68 193.38 188.29 194.47 188.53"/><line class="cls-1" x1="194.47" y1="169.99" x2="196.77" y2="169.99"/><line class="cls-1" x1="206.7" y1="187.68" x2="277.35" y2="187.68"/><line class="cls-1" x1="206.7" y1="186.23" x2="277.35" y2="186.23"/><line class="cls-1" x1="217.49" y1="184.77" x2="276.74" y2="184.77"/><line class="cls-1" x1="286.07" y1="189.01" x2="246.81" y2="189.01"/><line class="cls-1" x1="212.88" y1="182.23" x2="212.88" y2="184.77"/><polyline class="cls-1" points="207.43 184.77 206.82 185.01 206.7 185.5"/><line class="cls-1" x1="201.61" y1="184.77" x2="208.64" y2="184.77"/><polyline class="cls-1" points="202.22 180.53 201.74 180.77 201.62 181.26"/><line class="cls-1" x1="208.64" y1="180.53" x2="208.64" y2="184.77"/><line class="cls-1" x1="212.88" y1="184.77" x2="217.49" y2="184.77"/><polyline class="cls-1" points="246.08 188.41 246.33 188.89 246.81 189.01"/><polyline class="cls-1" points="216.76 189.01 217.25 188.89 217.49 188.41"/><polyline class="cls-1" points="212.4 188.41 212.52 188.89 213 189.01"/><line class="cls-1" x1="201.61" y1="193.73" x2="206.22" y2="192.16"/><polyline class="cls-1" points="206.22 192.16 206.58 191.92 206.7 191.44"/><line class="cls-1" x1="216.76" y1="189.01" x2="213" y2="189.01"/><line class="cls-1" x1="246.08" y1="187.68" x2="246.08" y2="188.41"/><line class="cls-1" x1="217.49" y1="188.41" x2="217.49" y2="187.68"/><line class="cls-1" x1="212.4" y1="188.41" x2="212.4" y2="187.68"/><line class="cls-1" x1="201.61" y1="193.73" x2="201.61" y2="181.26"/><line class="cls-1" x1="206.7" y1="185.5" x2="206.7" y2="191.44"/><line class="cls-1" x1="290.31" y1="184.77" x2="290.31" y2="183.08"/><line class="cls-1" x1="288.25" y1="184.77" x2="288.25" y2="183.08"/><polyline class="cls-1" points="277.35 185.5 277.1 185.01 276.62 184.77"/><polyline class="cls-1" points="282.44 184.77 282.19 183.44 281.71 182.23 280.74 181.26 279.53 180.53"/><polyline class="cls-1" points="258.69 180.53 257.96 180.41 213.61 180.29 213.13 181.14 212.88 182.23"/><line class="cls-1" x1="258.69" y1="180.53" x2="279.53" y2="180.53"/><line class="cls-1" x1="290.31" y1="183.08" x2="282.19" y2="183.08"/><polyline class="cls-1" points="277.35 188.41 277.47 188.89 278.07 189.01"/><polyline class="cls-1" points="281.71 189.01 282.19 188.89 282.44 188.41"/><line class="cls-1" x1="281.71" y1="189.01" x2="278.07" y2="189.01"/><polyline class="cls-1" points="265.23 189.01 265.71 188.89 265.96 188.41"/><line class="cls-1" x1="265.23" y1="189.01" x2="261.47" y2="189.01"/><polyline class="cls-1" points="260.87 188.41 261.11 188.89 261.59 189.01"/><polyline class="cls-1" points="286.07 189.01 287.4 188.89 288.61 188.29 289.58 187.32 290.19 186.11 290.31 184.77"/><line class="cls-1" x1="282.43" y1="188.41" x2="282.43" y2="184.77"/><line class="cls-1" x1="277.35" y1="185.5" x2="277.35" y2="188.41"/><polyline class="cls-1" points="284.01 189.01 285.34 188.89 286.55 188.29 287.52 187.32 288.13 186.11 288.25 184.77"/><line class="cls-1" x1="260.87" y1="187.68" x2="260.87" y2="188.41"/><line class="cls-1" x1="265.96" y1="187.68" x2="265.96" y2="188.41"/><polyline class="cls-1" points="272.5 189.01 271.77 189.13 271.17 189.38"/><polyline class="cls-1" points="271.17 189.38 270.2 189.86 269.11 189.86 268.14 189.38"/><polyline class="cls-1" points="268.14 189.38 267.53 189.13 266.8 189.01"/></g><g id="wymiary"><line class="cls-12" x1="310.72" y1="461.32" x2="438.26" y2="461.32"/><line class="cls-12" x1="276.92" y1="166.44" x2="438.32" y2="166.44"/><line class="cls-12" x1="160.4" y1="123.8" x2="10.21" y2="123.8"/><line class="cls-12" x1="69.26" y1="461.21" x2="10.15" y2="461.21"/><line class="cls-12" x1="193.37" y1="123.8" x2="34.26" y2="123.8"/><line class="cls-12" x1="373.08" y1="342.3" x2="409.98" y2="342.3"/><line class="cls-12" x1="125.84" y1="234.27" x2="38.61" y2="234.27"/><line class="cls-12" x1="69.75" y1="461.47" x2="69.75" y2="492.8"/><line class="cls-12" x1="310.72" y1="461.47" x2="310.72" y2="492.8"/><line class="cls-12" x1="69.68" y1="284.27" x2="69.68" y2="10.15"/><line class="cls-12" x1="378.76" y1="181.21" x2="378.76" y2="10.15"/><line class="cls-12" x1="137.81" y1="145.2" x2="137.81" y2="38.5"/><line class="cls-12" x1="378.02" y1="180.66" x2="408.12" y2="180.66"/><line class="cls-12" x1="230.9" y1="285.6" x2="226.61" y2="285.6"/><line class="cls-12" x1="274.03" y1="319.62" x2="228.07" y2="319.62"/><line class="cls-12" x1="230.9" y1="294.08" x2="230.9" y2="311.14"/><polygon class="cls-13" points="229.44 294.07 232.26 294.07 230.91 285.6 229.44 294.07"/><polygon class="cls-13" points="232.26 311.14 229.44 311.14 230.91 319.62 232.26 311.14"/><line class="cls-12" x1="78.23" y1="490.02" x2="302.2" y2="490.02"/><polygon class="cls-13" points="78.23 491.37 78.23 488.55 69.75 490.02 78.23 491.37"/><polygon class="cls-13" points="302.25 488.55 302.25 491.37 310.72 490.02 302.25 488.55"/><text class="cls-14" transform="translate(185.6 487.02)">85</text><line class="cls-12" x1="41.39" y1="242.86" x2="41.39" y2="452.73"/><polygon class="cls-13" points="40.03 242.87 42.86 242.87 41.39 234.27 40.03 242.87"/><polygon class="cls-13" points="42.86 452.73 40.03 452.73 41.39 461.21 42.86 452.73"/><text class="cls-14" transform="translate(38.39 352.42) rotate(-90)">80</text><line class="cls-12" x1="13.04" y1="132.27" x2="13.04" y2="452.73"/><polygon class="cls-13" points="11.57 132.27 14.4 132.27 13.04 123.8 11.57 132.27"/><polygon class="cls-13" points="14.4 452.73 11.57 452.73 13.04 461.21 14.4 452.73"/><text class="cls-14" transform="translate(10.04 299.43) rotate(-90)">119</text><line class="cls-12" x1="41.39" y1="132.27" x2="41.39" y2="225.8"/><polygon class="cls-13" points="40.03 132.27 42.86 132.27 41.39 123.8 40.03 132.27"/><polygon class="cls-13" points="42.86 225.8 40.03 225.8 41.39 234.27 42.86 225.8"/><text class="cls-14" transform="translate(38.39 183.66) rotate(-90)">39</text><text class="cls-14" transform="translate(227.9 307.23) rotate(-90)">12</text><line class="cls-12" x1="407.08" y1="350.89" x2="407.08" y2="452.84"/><polygon class="cls-13" points="405.73 350.89 408.55 350.89 407.08 342.3 405.73 350.89"/><polygon class="cls-13" points="408.55 452.84 405.73 452.84 407.08 461.32 408.55 452.84"/><text class="cls-14" transform="translate(404.08 406.49) rotate(-90)">42</text><line class="cls-12" x1="435.43" y1="452.84" x2="435.43" y2="174.92"/><polygon class="cls-13" points="436.9 452.84 434.07 452.84 435.43 461.32 436.9 452.84"/><polygon class="cls-13" points="434.07 174.92 436.9 174.92 435.43 166.44 434.07 174.92"/><text class="cls-14" transform="translate(432.43 320.81) rotate(-90)">104</text><line class="cls-12" x1="407.08" y1="333.82" x2="407.08" y2="189.25"/><polygon class="cls-13" points="408.55 333.82 405.73 333.82 407.08 342.3 408.55 333.82"/><polygon class="cls-13" points="405.73 189.25 408.55 189.25 407.08 180.66 405.73 189.25"/><text class="cls-14" transform="translate(404.08 266.16) rotate(-90)">57</text><line class="cls-12" x1="407.08" y1="180.66" x2="407.08" y2="166.44"/><line class="cls-12" x1="407.08" y1="157.97" x2="407.08" y2="149.49"/><polygon class="cls-13" points="408.55 157.97 405.73 157.97 407.08 166.44 408.55 157.97"/><text class="cls-14" transform="translate(404.08 175.86) rotate(-90)">5</text><line class="cls-12" x1="321.93" y1="341.47" x2="321.93" y2="372.74"/><line class="cls-12" x1="310.63" y1="369.9" x2="321.93" y2="369.9"/><line class="cls-12" x1="302.15" y1="369.9" x2="293.68" y2="369.9"/><line class="cls-12" x1="330.52" y1="369.9" x2="340.81" y2="369.9"/><polygon class="cls-13" points="302.15 368.55 302.15 371.37 310.63 369.9 302.15 368.55"/><polygon class="cls-13" points="330.53 371.37 330.53 368.55 321.94 369.9 330.53 371.37"/><text class="cls-14" transform="translate(336.11 366.9)">4</text><line class="cls-12" x1="146.29" y1="41.39" x2="370.17" y2="41.39"/><polygon class="cls-13" points="146.29 42.74 146.29 39.92 137.81 41.39 146.29 42.74"/><polygon class="cls-13" points="370.17 39.92 370.17 42.74 378.76 41.39 370.17 39.92"/><text class="cls-14" transform="translate(253.61 38.39)">85</text><line class="cls-12" x1="78.16" y1="13.04" x2="370.17" y2="13.04"/><polygon class="cls-13" points="78.16 14.4 78.16 11.57 69.68 13.04 78.16 14.4"/><polygon class="cls-13" points="370.17 11.57 370.17 14.4 378.76 13.04 370.17 11.57"/><text class="cls-14" transform="translate(217.23 10.04)">109</text></g></svg>