<?xml version="1.0" encoding="UTF-8"?>
<svg id="Warstwa_2" data-name="Warstwa 2" xmlns="http://www.w3.org/2000/svg" viewBox="0 0 358.04 408.57">
  <defs>
    <style>
      .cls-1 {
        fill: #fff;
      }

      .cls-1, .cls-2, .cls-3, .cls-4, .cls-5, .cls-6, .cls-7, .cls-8, .cls-9, .cls-10, .cls-11 {
        stroke-linecap: round;
      }

      .cls-1, .cls-2, .cls-4, .cls-7, .cls-8, .cls-9, .cls-10, .cls-11 {
        stroke-width: .5px;
      }

      .cls-1, .cls-3, .cls-4, .cls-5, .cls-6, .cls-7, .cls-8, .cls-9, .cls-10, .cls-11 {
        stroke-linejoin: round;
      }

      .cls-1, .cls-3, .cls-4, .cls-7 {
        stroke: #010101;
      }

      .cls-2 {
        stroke-miterlimit: 10;
      }

      .cls-2, .cls-3, .cls-4, .cls-5, .cls-6 {
        fill: none;
      }

      .cls-2, .cls-8 {
        stroke: #000;
      }

      .cls-12 {
        fill-rule: evenodd;
      }

      .cls-12, .cls-13, .cls-14 {
        fill: #1e1e1c;
      }

      .cls-13 {
        font-family: MyriadPro-Cond, 'Myriad Pro';
        font-size: 11.12px;
      }

      .cls-3 {
        stroke-width: .71px;
      }

      .cls-5 {
        stroke: #1e1f1d;
        stroke-width: .75px;
      }

      .cls-6 {
        stroke-width: .25px;
      }

      .cls-6, .cls-9, .cls-10 {
        stroke: #1e1e1c;
      }

      .cls-7 {
        fill: #eeecec;
      }

      .cls-8 {
        fill: #e6f3fa;
      }

      .cls-9 {
        fill: #d8d8d8;
      }

      .cls-10 {
        fill: #edeaea;
      }

      .cls-11 {
        fill: #d01920;
        stroke: #891a16;
      }
    </style>
  </defs>
  <g id="Warstwa_2-2" data-name="Warstwa 2">
    <g id="LWPOLYLINE">
      <path class="cls-14" d="M155.93,69.21c-.23-.1-.49-.14-.75-.1l.75-4.71c-.2-.19-.23-.5-.07-.73.26-.38.43-.81.48-1.27l.32-2.6c-.48-.19-.73-.72-.56-1.21-.41-.51-1-.85-1.65-.94,1.1-.91,1.87-2.14,2.21-3.53l-.82-3.74c.45-.2.64-.72.44-1.16-.18-.39-.6-.6-1.02-.49-.01-.16-.02-.31-.02-.47,0-1.17.36-2.32,1.03-3.28.68-.96.45-2.29-.51-2.96-.63-.44-1.43-.51-2.12-.19l-3.46,1.61-3.44,2.44h-1.42v2.84h-5.67v5.38l-4.25,1.14v-.86c-.78,0-1.42.64-1.42,1.42v8.51c0,.78.64,1.41,1.42,1.41v-.85l4.25,1.14v5.38h8.51l4.97-5.38c.1-.08.23-.08.34-.01l1.38,5.52c.63.3,1.39.02,1.69-.61.3-.64.03-1.4-.61-1.7ZM150.47,63.42l-3.46,4.16c-.1.08-.22.13-.35.13h-3.32c-.79,0-1.42-.64-1.42-1.42v-1.58c0-.26-.17-.48-.42-.55l-.8-.21c-.62-.17-1.05-.73-1.05-1.37v-5.05c0-.64.43-1.2,1.05-1.37l.8-.21c.3-.08.48-.39.4-.69-.09-.38.01-.79.28-1.07.43-.47,1.17-.5,1.63-.06l6.71,8.45s.02.03.04.04c.19.25.15.6-.09.8ZM153,59.35l-.09.72c-.01.13-.07.25-.16.34-.22.22-.58.22-.8-.01l-3.63-5.36c-.1-.1-.16-.24-.17-.38-.07-2.2.71-4.34,2.18-5.97.07-.08.15-.13.25-.16l.26-1.43c.06-.02.13-.03.2-.03.32.02.55.29.54.6,0,1.04.18,2.07.52,3.06l.96,4.23c.08.24-.03.51-.25.64-.63,1.19-.55,2.63.19,3.75Z"/>
    </g>
    <g id="LWPOLYLINE-2" data-name="LWPOLYLINE">
      <path class="cls-14" d="M282.8,256.79h-.57c-.78,0-1.42-.63-1.42-1.42s.63-1.42,1.42-1.42h.57c.78,0,1.42-.63,1.42-1.42v-1.37c0-.64-.43-1.2-1.05-1.37l-.37-.1v.88l-4.26-1.14v.78c0,.46-.22.9-.6,1.16-3.89,3.81-6.2,8.96-6.45,14.4,0,.11-.06.2-.16.25-.14.07-.31,0-.37-.13-1.02-3.55-1.44-7.24-1.23-10.93-.09-.48-.54-.8-1.02-.71-.4.07-.7.41-.73.82-.07.49-.12.98-.17,1.48-.03.63-.03,1.27-.02,1.9-.29-.01-.54.2-.58.48v.18c.05.3.32.51.62.48-.05.56-.06,1.13-.03,1.69-.28-.02-.53.17-.59.45v.24c.06.28.33.48.62.45.09.56.19,1.12.31,1.68-.31.03-.53.32-.5.63s.32.53.63.5c.04,0,.09-.01.13-.03.58,2.01,1.36,3.97,2.31,5.83.77,1.02,2.21,1.22,3.23.45.51-.38.83-.96.9-1.59-.3-3.18.04-6.39,1-9.43.09-.22.22-.42.39-.58.65-.63,1.69-.62,2.32.03v1.41l4.26-1.14v.83l.37-.1c.62-.17,1.05-.73,1.05-1.38v-1.3c0-.78-.63-1.42-1.42-1.42Z"/>
    </g>
    <g id="LWPOLYLINE-3" data-name="LWPOLYLINE">
      <path class="cls-14" d="M142.77,211.62c-.08-.79.33-1.56,1.03-1.94.15-.08.26-.23.29-.41l1.24-7.51v-.22c-.06-.29-.32-.48-.61-.45l-4.06.4c-.66.07-1.19.58-1.27,1.24l-4.96,35.63h4.69c.26,0,.48.17.55.42l.84,3.12s.02.1.02.15c0,.31-.25.57-.57.57h-.28c0,.78.63,1.42,1.42,1.42h1.42c.78,0,1.42-.63,1.42-1.42v-1.13c0-.47.38-.85.85-.85s.85.38.85.85v1.13c0,.78.63,1.42,1.42,1.42h1.42c.78,0,1.42-.63,1.42-1.42h-.28s-.1,0-.15-.02c-.3-.08-.48-.39-.4-.69l.84-3.12c.07-.25.29-.42.55-.42h2.14v-.85c0-.78-.63-1.42-1.42-1.42h-3.4c-1.57,0-2.83-1.27-2.83-2.83l-2.13-21.64Z"/>
    </g>
    <g id="LWPOLYLINE-4" data-name="LWPOLYLINE">
      <path class="cls-14" d="M98.82,178.43c-.54-1.7-.26-3.55.76-5,.68-.97.44-2.29-.52-2.97-.62-.43-1.43-.51-2.12-.18l-3.45,1.61-6.28,1.28h-1.42v2.83h-5.67v5.41l-4.25,1.14v-.88c-.78,0-1.41.63-1.41,1.42v8.5c0,.78.63,1.42,1.41,1.42v-.88l4.25,1.14v5.41h7.65l8.07-5.8c.7-.45,1.16-1.2,1.27-2.03l.32-2.6c-.05-.55.3-1.06.83-1.21.53-.11.97-.46,1.2-.94.54-1.1.66-2.36.31-3.53l-.95-4.14ZM91.8,192.8l-4.15,3.38c-.23.15-.49.23-.77.23h-2.36c-1.18,0-2.13-.95-2.13-2.12v-2.3c0-.25-.17-.48-.42-.54l-.79-.22c-.62-.16-1.06-.73-1.06-1.37v-5.04c0-.64.44-1.21,1.06-1.37l.79-.22c.25-.06.42-.29.42-.54v-.17c0-.36.14-.7.38-.97.54-.57,1.43-.6,2.01-.07l7.1,10.43s.06.07.09.11c.17.26.09.61-.17.78ZM97.62,184.58c-.05.18-.18.33-.35.39-1.23.51-2.05,1.68-2.09,3l-.32,2.61c-.03.18-.14.34-.3.43h-.03c-.11.07-.24.05-.33-.03l-2.68-3.83c-2.18-3.55-2.66-7.89-1.31-11.84l4.05-1.28,1.75-.81c.13-.07.29-.08.43-.02.3.11.45.43.34.73-.62,1.66-.66,3.48-.12,5.16l.93,4.12c.14.45.14.92.03,1.37Z"/>
    </g>
    <g id="LINE">
      <path class="cls-14" d="M299.81,64.13v5.66l-7.93-4.58c-.4-.23-.62-.68-.56-1.14.09-.62.66-1.05,1.28-.96l7.21,1.02Z"/>
    </g>
    <g id="LINE-2" data-name="LINE">
      <path class="cls-14" d="M299.81,45.7v7.09l-13.67-9.27c-.42-.28-.6-.81-.44-1.29.19-.6.84-.92,1.43-.72l12.68,4.19Z"/>
    </g>
    <g id="LWPOLYLINE-5" data-name="LWPOLYLINE">
      <path class="cls-9" d="M295.96,114.1h-1.25v-1.22l-2.17-2.17h-7.39v7.65h7.39l3.43-3.43c.22-.23.22-.6,0-.83Z"/>
    </g>
    <g id="LWPOLYLINE-6" data-name="LWPOLYLINE">
      <path class="cls-9" d="M285.14,115.81h-80.79c2.19,0,3.97,1.77,3.97,3.96h76.82v-3.96Z"/>
    </g>
    <g id="LWPOLYLINE-7" data-name="LWPOLYLINE">
      <polygon class="cls-9" points="154.39 109.29 147.17 113.46 145.89 120.72 154.39 115.81 154.39 109.29"/>
    </g>
    <g id="LWPOLYLINE-8" data-name="LWPOLYLINE">
      <polygon class="cls-9" points="175.09 115.81 154.39 115.81 154.39 125.77 175.09 122.12 175.09 115.81"/>
    </g>
    <g id="LWPOLYLINE-9" data-name="LWPOLYLINE">
      <rect class="cls-9" x="154.39" y="112.97" width="130.75" height="2.83"/>
    </g>
    <g id="LWPOLYLINE-10" data-name="LWPOLYLINE">
      <polygon class="cls-9" points="285.14 109.29 283.72 109.29 283.72 108.44 155.81 108.44 155.81 109.29 154.39 109.29 154.39 112.97 285.14 112.97 285.14 109.29"/>
    </g>
    <g id="LWPOLYLINE-11" data-name="LWPOLYLINE">
      <rect class="cls-10" x="154.39" y="99.93" width="141.73" height="8.5"/>
    </g>
    <g id="LINE-3" data-name="LINE">
      <line class="cls-10" x1="154.39" y1="108.44" x2="296.12" y2="99.93"/>
    </g>
    <g id="LINE-4" data-name="LINE">
      <line class="cls-10" x1="154.39" y1="99.93" x2="296.12" y2="108.44"/>
    </g>
  </g>
  <g id="Warstwa_3" data-name="Warstwa 3">
    <g id="LWPOLYLINE-12" data-name="LWPOLYLINE">
      <path class="cls-1" d="M323.9,107.96h-9.92c-.78,0-1.42.64-1.42,1.42v6.24h6.24v13.04c0,1.56-1.27,2.83-2.83,2.83h-14.43c-.46,0-.92-.1-1.33-.29-1.58-.74-2.26-2.61-1.52-4.18l1.74-3.74c.52-1.13.8-2.35.8-3.59v-11.73h-7.09v4.26l1.42,1.41v5.67h-107.72l-39.19,6.91c-.17.03-.33.05-.5.05-1.56,0-2.83-1.27-2.83-2.84v-26.07c0-2.16-.49-4.28-1.43-6.21l-2.61-5.35c-.14-.29-.21-.6-.21-.93,0-1.17.95-2.12,2.12-2.12h2.13v-11.34h-5.67v-4.98c0-.25-.17-.48-.42-.55l-3.12-.83c-.3-.08-.61.1-.69.4-.01.05-.02.1-.02.15v2.44c-.02.31-.29.55-.6.53-3.81-.23-7.25-2.37-9.14-5.69-.49-.85-.75-1.82-.75-2.81v-5.16c0-.6.37-1.13.93-1.33l5.29-1.93c.16-.06.32-.08.49-.08h3.18s.02-.01.03-.01c.32,0,.57.26.57.57v2.41c0,.31.25.57.57.57.05,0,.09,0,.14-.02l3.12-.84c.25-.06.42-.29.42-.54v-4.98h5.67v-3.12h-14.17l-25.59,9.32c-3.36,1.22-5.59,4.41-5.59,7.99v122.44c0,1.57,1.26,2.84,2.83,2.84h4.25c.79,0,1.42-.64,1.42-1.42v-2.84h-1.42v-5.67c0-.78.64-1.41,1.42-1.41h35.43c.79,0,1.42.63,1.42,1.41v32.89l23.24,1.7h38.84v-6.24h5.38v-5.1h-5.1v-17.86c0-2.35,1.91-4.25,4.25-4.25h16.96l1.47-.85,1.47.85h16.95c2.35,0,4.26,1.9,4.26,4.25v17.86h-5.11v5.1h5.39v6.24h23.81c.78,0,1.42.63,1.42,1.41v34.74c0,.26.17.48.42.55l3.12.84c.3.08.61-.1.69-.4.01-.05.02-.1.02-.15v-2.45c.02-.31.29-.55.6-.53,3.81.24,7.25,2.38,9.14,5.69.49.86.75,1.83.75,2.82v7.08c0,.79-.64,1.42-1.42,1.42h-8.5c-.32,0-.57-.25-.57-.57v-2.41c0-.31-.25-.56-.57-.56-.05,0-.1,0-.14.02l-3.12.83c-.25.07-.42.29-.42.55v7.81h36.2c6.62,0,11.99-5.37,11.99-11.98V110.8c0-1.57-1.27-2.84-2.84-2.84ZM301.51,137.73h3.4v68.88h-14.44l4.14-71.91c1.78,1.93,4.28,3.03,6.9,3.03ZM118.67,58.29v1.49c0,2.03.53,4.03,1.52,5.81,2.7,4.82,7.5,8.09,12.98,8.83.89,1.26,2.15,2.22,3.61,2.75.15.06.29.14.4.26.45.43.46,1.15.02,1.6-2.46,2.53-3.07,6.33-1.52,9.5l2.6,5.34c.53,1.08.8,2.27.8,3.48v26.21h-5.54l-21.52-62.85,6.65-2.42ZM107.62,62.91c0-.36.22-.68.56-.8l1.71-.62,21.26,62.07-23.53-4.26v-56.39ZM110.45,170.61c-1.56,0-2.83-1.27-2.83-2.83v-46.17l23.53,4.25-18.43,44.75h-2.27ZM143.9,170.61h-28.73l18.44-44.79h5.8c1.24,4.52,5.71,7.35,10.32,6.54l2.68-.48-4.4,39.93c-1.23-.78-2.65-1.2-4.11-1.2ZM162.33,206.14l-10.77-.79v-27.09c0-.95-.18-1.89-.53-2.78l4.87-44.21,6.43-1.14v76.01ZM282.39,208.71c-1.42-1.35-3.3-2.1-5.26-2.1h-15.02c-.79,0-1.42-.63-1.42-1.42v-21.54c0-6.58-5.33-11.91-11.91-11.91h-9.92v-3.68c0-1.57-1.27-2.84-2.83-2.84h-3.12v6.24h-5.1v-6.24h-3.12c-1.57,0-2.83,1.27-2.83,2.84v3.68h-9.93c-6.57,0-11.9,5.33-11.9,11.91v21.54c0,.79-.64,1.42-1.42,1.42h-13.04v-9.92h-2.83v9.92h-13.95l-3.63-.27v-13.34h1.99v-2.83h-1.99v-42.52h1.99v-2.83h-1.99v-15.19l23.23-4.09h103.91l-1.34,23.25-6.59-.57v2.84l6.43.57-3.18,55.17-5.23,1.91ZM319.08,257.56c0,2.39-1.93,4.33-4.33,4.33h-8.14v-7.01h-2.83v7.01h-4.26v-6.52c0-1.95-.47-3.87-1.39-5.59-2.69-5.06-7.67-8.49-13.35-9.19v-2.23h34.3v19.2ZM319.08,236.09h-34.3v-21.83c0-.9-.15-1.79-.46-2.63l4.43-1.62h30.33v26.08ZM319.08,206.61h-11.9v-68.88h11.9v68.88Z"/>
    </g>
    <g id="ARC">
      <path class="cls-1" d="M264.38,246.86h-9.93c-.78,0-1.41.64-1.41,1.42v6.24h6.23v13.04c0,1.56-1.27,2.83-2.83,2.83h-14.43c-.46,0-.91-.1-1.33-.29-1.57-.74-2.26-2.61-1.52-4.18l1.74-3.74c.53-1.13.8-2.35.8-3.6v-11.72h-7.09v4.25l1.42,1.42v5.67h-80.51v-18.42c0-.79-.63-1.42-1.41-1.42h-3.7c-.26,0-.48.17-.55.42l-.84,3.12c-.08.3.1.61.41.69.04,0,.09.02.14.02h1.7v15.59h-16.91l3.46-15.59h2.11c.32,0,.57-.25.57-.57,0-.05-.01-.1-.02-.14l-.83-3.12c-.07-.25-.29-.42-.55-.42h-4.69l-4.4,19.84h-5.67l-35.22,6.21c-.16.03-.33.05-.49.05-1.57,0-2.84-1.27-2.84-2.84v-56.99h2.84v-5.96h-8.51v-4.97c0-.26-.17-.48-.42-.55l-3.12-.84c-.3-.08-.61.1-.69.41-.01.04-.02.09-.02.14v2.45c-.02.31-.29.55-.6.53-3.81-.24-7.24-2.38-9.14-5.69-.49-.86-.75-1.83-.75-2.82v-4.87c0-.6.38-1.13.94-1.33l6.06-2.21c.16-.06.32-.09.49-.09h2.43c.32,0,.57.25.57.57v2.41c0,.31.26.56.57.56.05,0,.1,0,.14-.02l3.12-.83c.25-.07.42-.29.42-.55v-4.97h5.67v-2.84h-14.17l-25.59,9.31c-3.36,1.23-5.59,4.42-5.59,8v185.37c0,.78.63,1.42,1.42,1.42.02,0,.05,0,.07-.01l3.38-.17c1.05-.06,2.04-.5,2.78-1.24l1.55-1.55c.61-.61,1.02-1.41,1.18-2.27l.67-3.83h-3.97v-12.19c0-.79.64-1.42,1.42-1.42h15.99c.05,0,.1,0,.15.01.46.08.77.52.69.99l-2.63,14.91c-.06.33,0,.67.17.96l2.53,4.39c.51.88,1.44,1.42,2.46,1.42h1c.9,0,1.76-.44,2.29-1.17l3.06-4.22.65-3.68h-4.31l-.24,1.33c-.07.42-.24.83-.5,1.17l-.59.82c-.07.1-.16.18-.27.24-.41.24-.94.1-1.18-.31l-.19-.33c-.33-.58-.45-1.26-.34-1.91l2.46-13.92c.07-.4.42-.7.83-.7h19.07c2.59-2.89,6.27-4.54,10.15-4.54h2.55l1.48-.85,1.47.85h2.56c3.87,0,7.56,1.65,10.14,4.54h33.96l1.47-.85,1.48.85h25.82c.41,0,.76.3.83.7l2.46,13.92c.11.65-.01,1.33-.34,1.91l-.19.33c-.06.1-.14.19-.24.27-.39.28-.93.19-1.21-.2l-.59-.82c-.26-.34-.43-.75-.5-1.17l-.24-1.33h-4.32l.65,3.68,3.07,4.22c.53.73,1.38,1.17,2.29,1.17h1c1.01,0,1.95-.54,2.46-1.42l2.53-4.39c.17-.29.23-.63.17-.96l-2.63-14.91s-.01-.1-.01-.15c0-.47.38-.85.85-.85h36.06l1.47-.85,1.47.85h32.55c.78,0,1.41.63,1.41,1.42v12.19h-3.97l.68,3.83c.15.86.57,1.66,1.18,2.27l1.55,1.55c.74.74,1.73,1.18,2.78,1.24l3.38.17c.78.05,1.45-.56,1.49-1.34v-126.21c0-1.57-1.27-2.84-2.83-2.84ZM48.09,190.47c0-.36.23-.68.56-.8l10.5-3.82v1.48c0,2.08.54,4.11,1.57,5.91,2.69,4.71,7.39,7.91,12.75,8.68,1.29,2.11,3.62,3.36,6.09,3.25v56.45c0,.28.01.56.03.83h-31.5v-71.98ZM48.09,264.72h32.01c1.31,3.59,4.71,5.97,8.53,5.97l-9.22,37.12h-31.32v-43.09ZM69.35,348.34h-21.26v-36.85h30.41l-9.15,36.85ZM94.58,344.62c-2.57.75-4.96,2.02-7.02,3.72h-14.41l19.41-78.2,2.02-.36v74.84ZM111.02,344c-.92-.13-1.84-.19-2.77-.19h-8.06c-1.12,0-2.24.09-3.34.28v-74.71l14.17-2.5v77.12ZM217.89,283.11c0,.74-.56,1.35-1.3,1.41l-10.04.88v2.85l9.8-.86h.12c.78,0,1.42.63,1.42,1.41v13.05l-1.14,1.14,1.14,1.13v26.08l-1.14,1.13,1.14,1.14v15.87h-19l-.85-.85-.85.85h-60.66l-.85-.85-.85.85h-13.95c-1.92-1.57-4.1-2.78-6.46-3.55v-55.99s0-.08,0-.12c.07-.78.75-1.36,1.53-1.29l9.8.86v-2.85l-10.04-.88c-.74-.06-1.3-.67-1.3-1.41v-16.83l10.47-1.84h93v18.67ZM242.55,348.34h-21.26v-37.7h5.38v1.42h2.84v-1.42h13.04v37.7ZM242.55,307.81h-13.04v-1.99h-2.84v1.99h-5.38v-34.02h1.42v-2.83h-1.42v-6.52h5.38v6.52h1.42c1.57,0,2.84-1.27,2.84-2.84v-3.68h2.13c-1.55,4.94,1.2,10.21,6.14,11.76.91.28,1.86.43,2.81.43h.54v31.18ZM259.56,348.34h-14.74v-37.7h4.82v1.42h2.83v-1.42h7.09v37.7ZM259.56,287.68h-.85v5.67h.85v5.67h-.85v5.67h.85v3.12h-7.09v-1.99h-2.83v1.99h-4.82v-31.18h4.82v6.52h1.41c1.57,0,2.84-1.27,2.84-2.84v-3.68h5.67v11.05Z"/>
    </g>
    <g id="LINE-5" data-name="LINE">
      <path class="cls-1" d="M321.56,49.54l-21.75-3.84v61.51h2.55v4.25c0,.47.38.85.85.85h.25c.42,0,.83.11,1.2.3,1.24.66,1.72,2.21,1.05,3.45l-3.89,7.32c-1.4.14-2.42,1.39-2.28,2.79.13,1.31,1.23,2.3,2.54,2.3h1.87c1.57,0,3.01-.87,3.75-2.25l5.43-10.22v-9.37l10.77,1.43v-55.73c0-1.38-.98-2.55-2.34-2.79ZM318.8,102.24l-7.44-.99c-.13.3-.3.59-.5.86-1.4,1.88-4.07,2.26-5.95.85v-51.18l12.72,2.25c.68.12,1.17.7,1.17,1.39v46.82Z"/>
    </g>
  </g>
  <g id="Warstwa_4" data-name="Warstwa 4">
    <g id="LWPOLYLINE-13" data-name="LWPOLYLINE">
      <path class="cls-11" d="M277.56,126.39h-83.06c-4.23,0-7.65,3.43-7.65,7.65v71.72h4.25v-71.72c0-1.88,1.52-3.4,3.4-3.4h83.06c2.07,0,3.85,1.5,4.19,3.54.39,2.32-1.17,4.51-3.48,4.9-2.01.34-3.5,2.06-3.54,4.09l-1.28,55.23c-.07,3.13,2.41,5.72,5.53,5.8l5.67.13.1-4.25-5.67-.13c-.78-.02-1.4-.67-1.38-1.45l1.28-55.23c4.63-.78,7.75-5.17,6.97-9.8-.69-4.09-4.24-7.09-8.38-7.09Z"/>
    </g>
    <g id="LWPOLYLINE-14" data-name="LWPOLYLINE">
      <path class="cls-11" d="M207.75,346.61h-83.91c-4.23,0-7.65-3.43-7.65-7.65v-49.04h4.25v49.04c0,1.88,1.52,3.4,3.4,3.4h83.91c1.88,0,3.4-1.52,3.4-3.4v-49.04h4.25v49.04c0,4.23-3.43,7.65-7.65,7.65Z"/>
    </g>
  </g>
  <g id="Warstwa_5" data-name="Warstwa 5">
    <g>
      <g>
        <line class="cls-2" x1="242.17" y1=".25" x2="207.31" y2=".25"/>
        <line class="cls-2" x1="193.68" y1=".25" x2="193.8" y2=".32"/>
        <line class="cls-2" x1="180.06" y1=".25" x2="145.31" y2=".25"/>
      </g>
      <g>
        <line class="cls-2" x1="304.06" y1=".25" x2="269.2" y2=".25"/>
        <line class="cls-2" x1="255.57" y1=".25" x2="255.69" y2=".32"/>
        <line class="cls-2" x1="241.95" y1=".25" x2="207.2" y2=".25"/>
      </g>
    </g>
    <g>
      <rect class="cls-8" x="156.65" y=".25" width="11.34" height="99.21"/>
      <rect class="cls-8" x="219.02" y=".25" width="11.33" height="99.21"/>
      <rect class="cls-8" x="281.38" y=".25" width="11.34" height="99.21"/>
      <g>
        <g id="LWPOLYLINE-15" data-name="LWPOLYLINE">
          <polygon class="cls-3" points="230.35 62.05 255.36 62.05 255.87 62.33 256.38 62.05 281.38 62.05 281.38 81.32 272.87 89.83 238.86 89.83 230.35 81.32 230.35 62.05"/>
        </g>
        <g id="LWPOLYLINE-16" data-name="LWPOLYLINE">
          <polygon class="cls-3" points="277.98 65.45 277.98 79.92 271.46 86.43 240.27 86.43 233.76 79.92 233.76 65.45 277.98 65.45"/>
        </g>
        <g id="LWPOLYLINE-17" data-name="LWPOLYLINE">
          <polygon class="cls-3" points="281.38 81.32 272.87 89.83 238.86 89.83 230.35 81.32 230.35 99.47 281.38 99.47 281.38 81.32"/>
        </g>
        <g id="LWPOLYLINE-18" data-name="LWPOLYLINE">
          <path class="cls-7" d="M230.35,62.05v19.28l8.51,8.5h34.01l8.51-8.5v-19.28h-25l-.51.29-.51-.29h-25.01ZM277.98,65.46v14.46l-6.52,6.51h-31.19l-6.51-6.51v-14.46h44.22Z"/>
        </g>
        <g>
          <g id="LWPOLYLINE-19" data-name="LWPOLYLINE">
            <polygon class="cls-7" points="272.87 89.83 281.38 81.33 281.38 99.47 230.35 99.47 230.35 81.33 238.86 89.83 272.87 89.83"/>
          </g>
          <g>
            <g id="LINE-6" data-name="LINE">
              <polyline class="cls-4" points="281.38 95.59 278.52 98.45 277.5 99.47"/>
            </g>
            <g id="LINE-7" data-name="LINE">
              <polyline class="cls-4" points="281.38 89.57 278.51 92.44 275.51 95.45 272.5 98.45 271.48 99.47"/>
            </g>
            <g id="LINE-8" data-name="LINE">
              <polyline class="cls-4" points="281.38 83.56 278.52 86.42 275.51 89.43 272.5 92.44 269.5 95.44 266.49 98.45 265.47 99.47"/>
            </g>
            <g id="LINE-9" data-name="LINE">
              <polyline class="cls-4" points="259.46 99.47 260.48 98.45 263.48 95.45 266.49 92.44 269.1 89.83"/>
            </g>
            <g id="LINE-10" data-name="LINE">
              <polyline class="cls-4" points="253.44 99.47 254.46 98.45 257.47 95.44 260.47 92.44 263.08 89.83"/>
            </g>
            <g id="LINE-11" data-name="LINE">
              <polyline class="cls-4" points="247.43 99.47 248.45 98.45 251.46 95.44 254.46 92.44 257.07 89.83"/>
            </g>
            <g id="LINE-12" data-name="LINE">
              <polyline class="cls-4" points="241.42 99.47 242.43 98.45 245.44 95.44 248.45 92.44 251.06 89.83"/>
            </g>
            <g id="LINE-13" data-name="LINE">
              <polyline class="cls-4" points="245.05 89.83 242.44 92.44 239.43 95.45 236.42 98.45 235.41 99.47"/>
            </g>
            <g id="LINE-14" data-name="LINE">
              <polyline class="cls-4" points="239.03 89.83 236.42 92.44 233.42 95.44 230.41 98.45 230.35 98.51"/>
            </g>
            <g id="LINE-15" data-name="LINE">
              <polyline class="cls-4" points="235.94 86.91 233.42 89.43 230.41 92.44 230.35 92.5"/>
            </g>
            <g id="LINE-16" data-name="LINE">
              <polyline class="cls-4" points="232.93 83.9 230.41 86.42 230.35 86.48"/>
            </g>
            <g id="LINE-17" data-name="LINE">
              <line class="cls-4" x1="280.4" y1="82.3" x2="281.38" y2="83.28"/>
            </g>
            <g id="LINE-18" data-name="LINE">
              <polyline class="cls-4" points="281.38 89.29 278.52 86.42 277.4 85.31"/>
            </g>
            <g id="LINE-19" data-name="LINE">
              <polyline class="cls-4" points="274.39 88.31 275.51 89.43 278.51 92.44 281.38 95.31"/>
            </g>
            <g id="LINE-20" data-name="LINE">
              <polyline class="cls-4" points="269.89 89.83 272.5 92.44 275.51 95.45 278.52 98.45 279.53 99.47"/>
            </g>
            <g id="LINE-21" data-name="LINE">
              <polyline class="cls-4" points="273.52 99.47 272.5 98.45 269.5 95.44 266.49 92.44 263.88 89.83"/>
            </g>
            <g id="LINE-22" data-name="LINE">
              <polyline class="cls-4" points="257.86 89.83 260.47 92.44 263.48 95.45 266.49 98.45 267.5 99.47"/>
            </g>
            <g id="LINE-23" data-name="LINE">
              <polyline class="cls-4" points="251.85 89.83 254.46 92.44 257.47 95.44 260.48 98.45 261.49 99.47"/>
            </g>
            <g id="LINE-24" data-name="LINE">
              <polyline class="cls-4" points="245.84 89.83 248.45 92.44 251.46 95.44 254.46 98.45 255.48 99.47"/>
            </g>
            <g id="LINE-25" data-name="LINE">
              <polyline class="cls-4" points="239.83 89.83 242.44 92.44 245.44 95.44 248.45 98.45 249.47 99.47"/>
            </g>
            <g id="LINE-26" data-name="LINE">
              <polyline class="cls-4" points="230.35 86.37 230.41 86.42 233.42 89.43 236.42 92.44 239.43 95.45 242.43 98.45 243.45 99.47"/>
            </g>
            <g id="LINE-27" data-name="LINE">
              <polyline class="cls-4" points="230.35 92.38 230.41 92.44 233.42 95.44 236.42 98.45 237.44 99.47"/>
            </g>
            <g id="LINE-28" data-name="LINE">
              <polyline class="cls-4" points="230.35 98.39 230.41 98.45 231.43 99.47"/>
            </g>
          </g>
        </g>
        <g>
          <g id="LWPOLYLINE-20" data-name="LWPOLYLINE">
            <polygon class="cls-7" points="233.76 65.46 277.98 65.46 277.98 79.92 271.46 86.43 240.27 86.43 233.76 79.92 233.76 65.46"/>
          </g>
          <g id="HATCH">
            <path class="cls-5" d="M275.83,67.87h0M271.8,67.87h0M267.77,67.87h0M263.73,67.87h0M259.7,67.87h0M255.66,67.87h0M251.63,67.87h0M247.59,67.87h0M243.56,67.87h0M239.52,67.87h0M235.49,67.87h0M273.82,71.91h0M269.78,71.91h0M265.75,71.91h0M261.71,71.91h0M257.68,71.91h0M253.64,71.91h0M249.61,71.91h0M245.57,71.91h0M241.54,71.91h0M237.51,71.91h0M275.83,75.94h0M271.8,75.94h0M267.77,75.94h0M263.73,75.94h0M259.7,75.94h0M255.66,75.94h0M251.63,75.94h0M247.59,75.94h0M243.56,75.94h0M239.52,75.94h0M235.49,75.94h0M273.82,79.97h0M269.78,79.97h0M265.75,79.97h0M261.71,79.97h0M257.68,79.97h0M253.64,79.97h0M249.61,79.97h0M245.57,79.97h0M241.54,79.97h0M237.51,79.97h0M271.8,84.01h0M267.77,84.01h0M263.73,84.01h0M259.7,84.01h0M255.66,84.01h0M251.63,84.01h0M247.59,84.01h0M243.56,84.01h0M239.52,84.01h0"/>
          </g>
        </g>
      </g>
      <g>
        <g id="LWPOLYLINE-21" data-name="LWPOLYLINE">
          <polygon class="cls-3" points="168 62.05 193 62.05 193.51 62.33 194.02 62.05 219.02 62.05 219.02 81.32 210.52 89.83 176.5 89.83 168 81.32 168 62.05"/>
        </g>
        <g id="LWPOLYLINE-22" data-name="LWPOLYLINE">
          <polygon class="cls-3" points="215.62 65.45 215.62 79.92 209.11 86.43 177.91 86.43 171.4 79.92 171.4 65.45 215.62 65.45"/>
        </g>
        <g id="LWPOLYLINE-23" data-name="LWPOLYLINE">
          <polygon class="cls-3" points="219.02 81.32 210.52 89.83 176.5 89.83 168 81.32 168 99.47 219.02 99.47 219.02 81.32"/>
        </g>
        <g id="LWPOLYLINE-24" data-name="LWPOLYLINE">
          <path class="cls-7" d="M167.99,62.05v19.28l8.51,8.5h34.01l8.51-8.5v-19.28h-25l-.51.29-.51-.29h-25.01ZM215.62,65.46v14.46l-6.52,6.51h-31.19l-6.51-6.51v-14.46h44.22Z"/>
        </g>
        <g>
          <g id="LWPOLYLINE-25" data-name="LWPOLYLINE">
            <polygon class="cls-7" points="210.51 89.83 219.02 81.33 219.02 99.47 167.99 99.47 167.99 81.33 176.5 89.83 210.51 89.83"/>
          </g>
          <g>
            <g id="LINE-29" data-name="LINE">
              <polyline class="cls-4" points="219.02 95.59 216.16 98.45 215.14 99.47"/>
            </g>
            <g id="LINE-30" data-name="LINE">
              <polyline class="cls-4" points="219.02 89.57 216.15 92.44 213.15 95.45 210.14 98.45 209.12 99.47"/>
            </g>
            <g id="LINE-31" data-name="LINE">
              <polyline class="cls-4" points="219.02 83.56 216.16 86.42 213.15 89.43 210.14 92.44 207.14 95.44 204.13 98.45 203.11 99.47"/>
            </g>
            <g id="LINE-32" data-name="LINE">
              <polyline class="cls-4" points="197.1 99.47 198.12 98.45 201.12 95.45 204.13 92.44 206.74 89.83"/>
            </g>
            <g id="LINE-33" data-name="LINE">
              <polyline class="cls-4" points="191.08 99.47 192.1 98.45 195.11 95.44 198.11 92.44 200.72 89.83"/>
            </g>
            <g id="LINE-34" data-name="LINE">
              <polyline class="cls-4" points="185.07 99.47 186.09 98.45 189.1 95.44 192.1 92.44 194.71 89.83"/>
            </g>
            <g id="LINE-35" data-name="LINE">
              <polyline class="cls-4" points="179.06 99.47 180.07 98.45 183.08 95.44 186.09 92.44 188.7 89.83"/>
            </g>
            <g id="LINE-36" data-name="LINE">
              <polyline class="cls-4" points="182.69 89.83 180.08 92.44 177.07 95.45 174.06 98.45 173.05 99.47"/>
            </g>
            <g id="LINE-37" data-name="LINE">
              <polyline class="cls-4" points="176.67 89.83 174.06 92.44 171.06 95.44 168.05 98.45 167.99 98.51"/>
            </g>
            <g id="LINE-38" data-name="LINE">
              <polyline class="cls-4" points="173.58 86.91 171.06 89.43 168.05 92.44 167.99 92.5"/>
            </g>
            <g id="LINE-39" data-name="LINE">
              <polyline class="cls-4" points="170.57 83.9 168.05 86.42 167.99 86.48"/>
            </g>
            <g id="LINE-40" data-name="LINE">
              <line class="cls-4" x1="218.04" y1="82.3" x2="219.02" y2="83.28"/>
            </g>
            <g id="LINE-41" data-name="LINE">
              <polyline class="cls-4" points="219.02 89.29 216.16 86.42 215.04 85.31"/>
            </g>
            <g id="LINE-42" data-name="LINE">
              <polyline class="cls-4" points="212.03 88.31 213.15 89.43 216.15 92.44 219.02 95.31"/>
            </g>
            <g id="LINE-43" data-name="LINE">
              <polyline class="cls-4" points="207.53 89.83 210.14 92.44 213.15 95.45 216.16 98.45 217.17 99.47"/>
            </g>
            <g id="LINE-44" data-name="LINE">
              <polyline class="cls-4" points="211.16 99.47 210.14 98.45 207.14 95.44 204.13 92.44 201.52 89.83"/>
            </g>
            <g id="LINE-45" data-name="LINE">
              <polyline class="cls-4" points="195.5 89.83 198.11 92.44 201.12 95.45 204.13 98.45 205.14 99.47"/>
            </g>
            <g id="LINE-46" data-name="LINE">
              <polyline class="cls-4" points="189.49 89.83 192.1 92.44 195.11 95.44 198.12 98.45 199.13 99.47"/>
            </g>
            <g id="LINE-47" data-name="LINE">
              <polyline class="cls-4" points="183.48 89.83 186.09 92.44 189.1 95.44 192.1 98.45 193.12 99.47"/>
            </g>
            <g id="LINE-48" data-name="LINE">
              <polyline class="cls-4" points="177.47 89.83 180.08 92.44 183.08 95.44 186.09 98.45 187.11 99.47"/>
            </g>
            <g id="LINE-49" data-name="LINE">
              <polyline class="cls-4" points="167.99 86.37 168.05 86.42 171.06 89.43 174.06 92.44 177.07 95.45 180.07 98.45 181.09 99.47"/>
            </g>
            <g id="LINE-50" data-name="LINE">
              <polyline class="cls-4" points="167.99 92.38 168.05 92.44 171.06 95.44 174.06 98.45 175.08 99.47"/>
            </g>
            <g id="LINE-51" data-name="LINE">
              <polyline class="cls-4" points="167.99 98.39 168.05 98.45 169.07 99.47"/>
            </g>
          </g>
        </g>
        <g>
          <g id="LWPOLYLINE-26" data-name="LWPOLYLINE">
            <polygon class="cls-7" points="171.4 65.46 215.62 65.46 215.62 79.92 209.1 86.43 177.91 86.43 171.4 79.92 171.4 65.46"/>
          </g>
          <g id="HATCH-2" data-name="HATCH">
            <path class="cls-5" d="M213.48,67.87h0M209.44,67.87h0M205.41,67.87h0M201.37,67.87h0M197.34,67.87h0M193.3,67.87h0M189.27,67.87h0M185.23,67.87h0M181.2,67.87h0M177.16,67.87h0M173.13,67.87h0M211.46,71.91h0M207.42,71.91h0M203.39,71.91h0M199.35,71.91h0M195.32,71.91h0M191.29,71.91h0M187.25,71.91h0M183.22,71.91h0M179.18,71.91h0M175.15,71.91h0M213.48,75.94h0M209.44,75.94h0M205.41,75.94h0M201.37,75.94h0M197.34,75.94h0M193.3,75.94h0M189.27,75.94h0M185.23,75.94h0M181.2,75.94h0M177.16,75.94h0M173.13,75.94h0M211.46,79.97h0M207.42,79.97h0M203.39,79.97h0M199.35,79.97h0M195.32,79.97h0M191.29,79.97h0M187.25,79.97h0M183.22,79.97h0M179.18,79.97h0M175.15,79.97h0M209.44,84.01h0M205.41,84.01h0M201.37,84.01h0M197.34,84.01h0M193.3,84.01h0M189.27,84.01h0M185.23,84.01h0M181.2,84.01h0M177.16,84.01h0"/>
          </g>
        </g>
      </g>
    </g>
  </g>
  <g id="Warstwa_6" data-name="Warstwa 6">
    <line class="cls-6" x1="131.15" y1="45.6" x2="9.26" y2="45.6"/>
    <text class="cls-13" transform="translate(9.31 113.58) rotate(-90) scale(.98 1)"><tspan x="0" y="0">45</tspan></text>
    <line class="cls-6" x1="74.46" y1="173.16" x2="9.26" y2="173.16"/>
    <polygon class="cls-12" points="10.79 165.32 13.4 165.32 12.04 173.16 10.79 165.32"/>
    <line class="cls-6" x1="12.09" y1="170.33" x2="12.09" y2="48.44"/>
    <polygon class="cls-12" points="10.79 53.44 13.4 53.44 12.04 45.6 10.79 53.44"/>
    <text class="cls-13" transform="translate(9.31 279.41) rotate(-90) scale(.98 1)"><tspan x="0" y="0">72</tspan></text>
    <line class="cls-6" x1="41.86" y1="377.26" x2="9.26" y2="377.26"/>
    <polygon class="cls-12" points="10.79 369.42 13.4 369.42 12.04 377.26 10.79 369.42"/>
    <line class="cls-6" x1="12.09" y1="374.42" x2="12.09" y2="176"/>
    <polygon class="cls-12" points="10.79 181 13.4 181 12.04 173.16 10.79 181"/>
    <line class="cls-6" x1="267.21" y1="408.44" x2="267.21" y2="371.93"/>
    <text class="cls-13" transform="translate(149.62 402.83) scale(.98 1)"><tspan x="0" y="0">80</tspan></text>
    <line class="cls-6" x1="40.44" y1="408.44" x2="40.44" y2="373.31"/>
    <polygon class="cls-12" points="48.27 404.3 48.27 406.91 40.44 405.56 48.27 404.3"/>
    <line class="cls-6" x1="43.27" y1="405.61" x2="264.37" y2="405.61"/>
    <polygon class="cls-12" points="259.37 404.3 259.37 406.91 267.21 405.56 259.37 404.3"/>
    <line class="cls-6" x1="357.92" y1="269.54" x2="315.53" y2="269.54"/>
    <text class="cls-13" transform="translate(352.3 327.6) rotate(-90) scale(.98 1)"><tspan x="0" y="0">38</tspan></text>
    <line class="cls-6" x1="357.92" y1="377.26" x2="265.82" y2="377.26"/>
    <polygon class="cls-12" points="353.78 369.42 356.39 369.42 355.03 377.26 353.78 369.42"/>
    <line class="cls-6" x1="355.09" y1="374.42" x2="355.09" y2="272.38"/>
    <polygon class="cls-12" points="353.78 277.38 356.39 277.38 355.03 269.54 353.78 277.38"/>
    <line class="cls-6" x1="357.92" y1="107.96" x2="323.9" y2="107.96"/>
    <text class="cls-13" transform="translate(352.3 192.95) rotate(-90) scale(.98 1)"><tspan x="0" y="0">57</tspan></text>
    <polygon class="cls-12" points="353.78 261.7 356.39 261.7 355.03 269.54 353.78 261.7"/>
    <line class="cls-6" x1="355.09" y1="266.7" x2="355.09" y2="110.8"/>
    <polygon class="cls-12" points="353.78 115.8 356.39 115.8 355.03 107.96 353.78 115.8"/>
  </g>
</svg>