<svg xmlns="http://www.w3.org/2000/svg" viewBox="0 0 452.77 548.69"><defs><style>.cls-1,.cls-13,.cls-5,.cls-7{fill:none;}.cls-1,.cls-13{stroke:#1d1d1b;}.cls-1,.cls-10,.cls-13,.cls-5,.cls-7,.cls-8,.cls-9{stroke-linecap:round;}.cls-1,.cls-10,.cls-13,.cls-7,.cls-8,.cls-9{stroke-linejoin:round;}.cls-1,.cls-10,.cls-7,.cls-8,.cls-9{stroke-width:0.71px;}.cls-2{fill:#d20a11;}.cls-14,.cls-15,.cls-3{fill:#1d1d1b;}.cls-4{fill:#000100;}.cls-5{stroke:#000;stroke-miterlimit:10;stroke-width:0;}.cls-6,.cls-8,.cls-9{fill:#eaeaea;}.cls-10,.cls-7,.cls-8,.cls-9{stroke:#1e1f1d;}.cls-14,.cls-9{fill-rule:evenodd;}.cls-10{fill:#e6f4fb;}.cls-11{fill:#ededed;}.cls-12{fill:#dadada;}.cls-13{stroke-width:0.28px;}.cls-15{font-size:12px;font-family:MyriadPro-Cond, Myriad Pro;}</style></defs><g id="profile"><line class="cls-1" x1="191.55" y1="517.28" x2="195.75" y2="517.28"/><path class="cls-1" d="M194,516.75a7.1,7.1,0,0,0,3.94-1.19" transform="translate(1.78 0.53)"/><path class="cls-1" d="M199.47,515.54a1.41,1.41,0,0,0-1.53,0" transform="translate(1.78 0.53)"/><path class="cls-1" d="M199.44,515.56a7.1,7.1,0,0,0,3.94,1.19" transform="translate(1.78 0.53)"/><line class="cls-1" x1="205.1" y1="517.28" x2="209.3" y2="517.28"/><path class="cls-1" d="M207.58,516.75a2.8,2.8,0,0,0,2.72-2.09" transform="translate(1.78 0.53)"/><line class="cls-1" x1="211.94" y1="515.25" x2="213.14" y2="510.93"/><path class="cls-1" d="M211.34,510.36a.55.55,0,0,0-.09-.47.53.53,0,0,0-.43-.21" transform="translate(1.78 0.53)"/><line class="cls-1" x1="212.54" y1="510.21" x2="204.62" y2="510.21"/><path class="cls-1" d="M201.52,508.3a1.38,1.38,0,0,0,1.38,1.38" transform="translate(1.78 0.53)"/><line class="cls-1" x1="203.3" y1="508.89" x2="203.3" y2="500.37"/><path class="cls-1" d="M202.9,498.4a1.38,1.38,0,0,0-1.38,1.38" transform="translate(1.78 0.53)"/><line class="cls-1" x1="204.62" y1="498.93" x2="223.09" y2="498.93"/><path class="cls-1" d="M221.37,498.28a1.38,1.38,0,0,0,1.38-1.38" transform="translate(1.78 0.53)"/><line class="cls-1" x1="224.53" y1="497.49" x2="224.53" y2="443.64"/><path class="cls-1" d="M224.13,441.67a1.38,1.38,0,0,0-1.38,1.38" transform="translate(1.78 0.53)"/><line class="cls-1" x1="225.85" y1="442.2" x2="249.36" y2="442.2"/><path class="cls-1" d="M247.64,441.67a1.39,1.39,0,0,0,1-.41" transform="translate(1.78 0.53)"/><path class="cls-1" d="M250.66,441.24a1.38,1.38,0,0,0-2,0" transform="translate(1.78 0.53)"/><path class="cls-1" d="M250.73,441.26a1.41,1.41,0,0,0,1,.41" transform="translate(1.78 0.53)"/><line class="cls-1" x1="253.44" y1="442.2" x2="263.51" y2="442.2"/><path class="cls-1" d="M261.79,441.67a1.41,1.41,0,0,0,1-.41" transform="translate(1.78 0.53)"/><path class="cls-1" d="M264.82,441.24a1.41,1.41,0,0,0-1-.41,1.34,1.34,0,0,0-1,.42" transform="translate(1.78 0.53)"/><path class="cls-1" d="M264.88,441.26a1.41,1.41,0,0,0,1,.41" transform="translate(1.78 0.53)"/><line class="cls-1" x1="267.59" y1="442.2" x2="279.7" y2="442.2"/><path class="cls-1" d="M279.36,443.05a1.38,1.38,0,0,0-1.38-1.38" transform="translate(1.78 0.53)"/><line class="cls-1" x1="281.14" y1="443.64" x2="281.14" y2="496.54"/><path class="cls-1" d="M279.48,495.94a1.42,1.42,0,0,0,0,.36" transform="translate(1.78 0.53)"/><line class="cls-1" x1="281.14" y1="496.9" x2="284.38" y2="508.41"/><path class="cls-1" d="M281.22,509.68a1.38,1.38,0,0,0,1.33-1.74" transform="translate(1.78 0.53)"/><line class="cls-1" x1="282.94" y1="510.21" x2="278.86" y2="510.21"/><path class="cls-1" d="M277.14,509.68a.51.51,0,0,0-.42.21.53.53,0,0,0-.1.47" transform="translate(1.78 0.53)"/><line class="cls-1" x1="278.39" y1="510.93" x2="279.46" y2="515.25"/><path class="cls-1" d="M277.78,514.66a2.81,2.81,0,0,0,2.72,2.09" transform="translate(1.78 0.53)"/><polyline class="cls-1" points="282.22 517.28 287.98 517.28 290.38 510.93"/><path class="cls-1" d="M288.55,510.34a2.82,2.82,0,0,0,.07-1.7" transform="translate(1.78 0.53)"/><line class="cls-1" x1="290.38" y1="509.25" x2="288.58" y2="502.53"/><path class="cls-1" d="M289.62,498.28a2.82,2.82,0,0,0-2.72,3.56" transform="translate(1.78 0.53)"/><line class="cls-1" x1="291.34" y1="498.93" x2="302.37" y2="498.93"/><path class="cls-1" d="M302,499.78a1.38,1.38,0,0,0-1.38-1.38" transform="translate(1.78 0.53)"/><line class="cls-1" x1="303.81" y1="500.37" x2="303.81" y2="505.89"/><path class="cls-1" d="M301.54,508.19a7.21,7.21,0,0,0,.61-2.89" transform="translate(1.78 0.53)"/><path class="cls-1" d="M301.55,508.23a2.85,2.85,0,0,0-.07,2.11" transform="translate(1.78 0.53)"/><polyline class="cls-1" points="303.09 510.93 305.49 517.28 307.77 517.28 310.17 510.93"/><path class="cls-1" d="M308.46,510.34a2.85,2.85,0,0,0-.07-2.11" transform="translate(1.78 0.53)"/><path class="cls-1" d="M307.67,505.3a7.21,7.21,0,0,0,.61,2.89" transform="translate(1.78 0.53)"/><line class="cls-1" x1="309.45" y1="505.89" x2="309.45" y2="500.37"/><path class="cls-1" d="M309.17,498.4a1.38,1.38,0,0,0-1.38,1.38" transform="translate(1.78 0.53)"/><line class="cls-1" x1="310.89" y1="498.93" x2="322.28" y2="498.93"/><path class="cls-1" d="M321.94,499.78a1.38,1.38,0,0,0-1.38-1.38" transform="translate(1.78 0.53)"/><line class="cls-1" x1="323.6" y1="500.37" x2="323.6" y2="505.89"/><path class="cls-1" d="M321.33,508.19a7.21,7.21,0,0,0,.61-2.89" transform="translate(1.78 0.53)"/><path class="cls-1" d="M321.34,508.23a2.85,2.85,0,0,0-.07,2.11" transform="translate(1.78 0.53)"/><polyline class="cls-1" points="323 510.93 325.28 517.16 330.68 517.28 330.68 333.18"/><path class="cls-1" d="M329,332.59a2.82,2.82,0,0,0-2.82-2.82" transform="translate(1.78 0.53)"/><line class="cls-1" x1="327.92" y1="330.42" x2="317.96" y2="330.42"/><path class="cls-1" d="M316.24,329.77a1.36,1.36,0,0,0-1.11.57,1.38,1.38,0,0,0-.2,1.23" transform="translate(1.78 0.53)"/><polyline class="cls-1" points="316.64 332.22 318.32 337.5 321.08 337.5"/><path class="cls-1" d="M321.58,339.06a2.21,2.21,0,0,0-2.22-2.21" transform="translate(1.78 0.53)"/><line class="cls-1" x1="323.36" y1="339.66" x2="323.36" y2="346.49"/><path class="cls-1" d="M317.44,350.16a4.26,4.26,0,0,0,4.26-4.26" transform="translate(1.78 0.53)"/><line class="cls-1" x1="319.16" y1="350.81" x2="302.49" y2="350.81"/><path class="cls-1" d="M299.39,348.78a1.38,1.38,0,0,0,1.38,1.38" transform="translate(1.78 0.53)"/><polyline class="cls-1" points="301.17 349.37 301.17 345.05 305.13 332.22"/><path class="cls-1" d="M303.41,331.56a1.38,1.38,0,0,0-1.32-1.79" transform="translate(1.78 0.53)"/><line class="cls-1" x1="303.81" y1="330.42" x2="294.94" y2="330.42"/><path class="cls-1" d="M293.22,329.77a1.38,1.38,0,0,0-1.34,1" transform="translate(1.78 0.53)"/><line class="cls-1" x1="293.5" y1="331.38" x2="292.54" y2="335.34"/><path class="cls-1" d="M290.77,334.73a.54.54,0,0,0,.1.46.53.53,0,0,0,.43.22" transform="translate(1.78 0.53)"/><line class="cls-1" x1="293.02" y1="336.06" x2="295.42" y2="336.06"/><path class="cls-1" d="M294.21,336.11a.54.54,0,0,0-.08-.48.53.53,0,0,0-.44-.22" transform="translate(1.78 0.53)"/><line class="cls-1" x1="296.02" y1="336.78" x2="295.06" y2="339.66"/><path class="cls-1" d="M290.7,341a2.82,2.82,0,0,0,2.69-2" transform="translate(1.78 0.53)"/><line class="cls-1" x1="292.42" y1="341.7" x2="186.27" y2="341.7"/><path class="cls-1" d="M181.73,338.22a2.82,2.82,0,0,0,2.82,2.82" transform="translate(1.78 0.53)"/><line class="cls-1" x1="183.39" y1="338.82" x2="183.39" y2="273.69"/><path class="cls-1" d="M181.73,273.1a2.82,2.82,0,0,0-2.82-2.82" transform="translate(1.78 0.53)"/><line class="cls-1" x1="180.64" y1="270.81" x2="179.8" y2="270.81"/><path class="cls-1" d="M178.07,270.28a5.71,5.71,0,0,0-4.93,2.85" transform="translate(1.78 0.53)"/><line class="cls-1" x1="174.88" y1="273.69" x2="164.32" y2="291.92"/><path class="cls-1" d="M155.34,296.21a9.9,9.9,0,0,0,7.2-4.85" transform="translate(1.78 0.53)"/><line class="cls-1" x1="157.13" y1="296.84" x2="130.86" y2="300.44"/><path class="cls-1" d="M115.72,281.94a12.77,12.77,0,0,0,13.4,18" transform="translate(1.78 0.53)"/><line class="cls-1" x1="117.43" y1="282.57" x2="121.03" y2="274.89"/><path class="cls-1" d="M119.24,274.27a1.4,1.4,0,0,0,.13-.57" transform="translate(1.78 0.53)"/><polyline class="cls-1" points="121.15 274.29 121.15 247.18 118.15 245.5"/><path class="cls-1" d="M116.4,244.85a.9.9,0,0,0-1.35.78" transform="translate(1.78 0.53)"/><line class="cls-1" x1="116.83" y1="246.22" x2="116.83" y2="248.74"/><path class="cls-1" d="M114.27,249.05a.9.9,0,0,0,.9-.9" transform="translate(1.78 0.53)"/><line class="cls-1" x1="115.99" y1="249.58" x2="109.51" y2="249.58"/><path class="cls-1" d="M106.41,247.67a1.38,1.38,0,0,0,1.38,1.38" transform="translate(1.78 0.53)"/><line class="cls-1" x1="108.07" y1="248.26" x2="108.07" y2="240.59"/><path class="cls-1" d="M114.27,232a8,8,0,0,0-8,8" transform="translate(1.78 0.53)"/><path class="cls-1" d="M115.17,232.92a.9.9,0,0,0-.9-.9" transform="translate(1.78 0.53)"/><line class="cls-1" x1="116.83" y1="233.51" x2="116.83" y2="236.03"/><path class="cls-1" d="M115.05,235.44a.9.9,0,0,0,1.35.78" transform="translate(1.78 0.53)"/><polyline class="cls-1" points="118.15 236.75 121.15 235.07 121.15 226.44"/><path class="cls-1" d="M119.37,225.84a.91.91,0,0,0-.35-.71.89.89,0,0,0-.77-.16" transform="translate(1.78 0.53)"/><line class="cls-1" x1="120.07" y1="225.6" x2="76.53" y2="236.39"/><path class="cls-1" d="M74.8,235.87a8.45,8.45,0,0,0-6.41,8.2" transform="translate(1.78 0.53)"/><polyline class="cls-1" points="70.05 244.67 70.05 517.28 75.57 517.16 77.85 510.93"/><path class="cls-1" d="M76.14,510.34a2.85,2.85,0,0,0-.07-2.11" transform="translate(1.78 0.53)"/><path class="cls-1" d="M75.47,505.3a7.21,7.21,0,0,0,.61,2.89" transform="translate(1.78 0.53)"/><line class="cls-1" x1="77.13" y1="505.89" x2="77.13" y2="500.37"/><path class="cls-1" d="M76.85,498.4a1.38,1.38,0,0,0-1.38,1.38" transform="translate(1.78 0.53)"/><line class="cls-1" x1="78.57" y1="498.93" x2="89.96" y2="498.93"/><path class="cls-1" d="M89.62,499.78a1.38,1.38,0,0,0-1.38-1.38" transform="translate(1.78 0.53)"/><line class="cls-1" x1="91.4" y1="500.37" x2="91.4" y2="505.89"/><path class="cls-1" d="M89.13,508.19a7.21,7.21,0,0,0,.61-2.89" transform="translate(1.78 0.53)"/><path class="cls-1" d="M89,508.23a2.85,2.85,0,0,0-.07,2.11" transform="translate(1.78 0.53)"/><polyline class="cls-1" points="90.68 510.93 92.96 517.28 95.36 517.28 97.64 510.93"/><path class="cls-1" d="M95.93,510.34a2.85,2.85,0,0,0-.07-2.11" transform="translate(1.78 0.53)"/><path class="cls-1" d="M95.26,505.3a7.21,7.21,0,0,0,.61,2.89" transform="translate(1.78 0.53)"/><line class="cls-1" x1="97.04" y1="505.89" x2="97.04" y2="500.37"/><path class="cls-1" d="M96.76,498.4a1.38,1.38,0,0,0-1.38,1.38" transform="translate(1.78 0.53)"/><line class="cls-1" x1="98.48" y1="498.93" x2="109.51" y2="498.93"/><path class="cls-1" d="M110.51,501.84a2.82,2.82,0,0,0-2.72-3.56" transform="translate(1.78 0.53)"/><line class="cls-1" x1="112.27" y1="502.53" x2="110.47" y2="509.25"/><path class="cls-1" d="M108.67,508.64a2.82,2.82,0,0,0,.07,1.7" transform="translate(1.78 0.53)"/><polyline class="cls-1" points="110.47 510.93 112.87 517.28 118.63 517.28"/><path class="cls-1" d="M116.91,516.75a2.81,2.81,0,0,0,2.72-2.09" transform="translate(1.78 0.53)"/><line class="cls-1" x1="121.39" y1="515.25" x2="122.47" y2="510.93"/><path class="cls-1" d="M120.79,510.36a.56.56,0,0,0-.1-.47.52.52,0,0,0-.43-.21" transform="translate(1.78 0.53)"/><line class="cls-1" x1="121.99" y1="510.21" x2="117.91" y2="510.21"/><path class="cls-1" d="M114.86,507.94a1.34,1.34,0,0,0,.23,1.19,1.37,1.37,0,0,0,1.1.55" transform="translate(1.78 0.53)"/><line class="cls-1" x1="116.47" y1="508.41" x2="118.87" y2="500.01"/><path class="cls-1" d="M118.47,498.4a1.39,1.39,0,0,0-1.34,1" transform="translate(1.78 0.53)"/><line class="cls-1" x1="120.19" y1="498.93" x2="196.11" y2="498.93"/><path class="cls-1" d="M195.77,499.78a1.38,1.38,0,0,0-1.38-1.38" transform="translate(1.78 0.53)"/><line class="cls-1" x1="197.55" y1="500.37" x2="197.55" y2="508.89"/><path class="cls-1" d="M194.39,509.68a1.38,1.38,0,0,0,1.38-1.38" transform="translate(1.78 0.53)"/><line class="cls-1" x1="196.11" y1="510.21" x2="188.19" y2="510.21"/><path class="cls-1" d="M186.47,509.68a.52.52,0,0,0-.43.21.55.55,0,0,0-.09.47" transform="translate(1.78 0.53)"/><line class="cls-1" x1="187.71" y1="510.93" x2="188.79" y2="515.25"/><path class="cls-1" d="M187.11,514.66a2.8,2.8,0,0,0,2.72,2.09" transform="translate(1.78 0.53)"/><path class="cls-1" d="M78.05,358.31a1.38,1.38,0,0,0-1.38,1.38" transform="translate(1.78 0.53)"/><line class="cls-1" x1="79.77" y1="358.85" x2="116.71" y2="358.85"/><path class="cls-1" d="M116.37,359.69a1.38,1.38,0,0,0-1.38-1.38" transform="translate(1.78 0.53)"/><line class="cls-1" x1="118.15" y1="360.29" x2="118.15" y2="433.45"/><path class="cls-1" d="M115,434.23a1.37,1.37,0,0,0,1.38-1.37" transform="translate(1.78 0.53)"/><line class="cls-1" x1="116.71" y1="434.89" x2="79.77" y2="434.89"/><path class="cls-1" d="M76.67,432.86a1.37,1.37,0,0,0,1.38,1.37" transform="translate(1.78 0.53)"/><line class="cls-1" x1="78.33" y1="433.45" x2="78.33" y2="360.29"/><path class="cls-1" d="M115,491a1.38,1.38,0,0,0,1.38-1.38" transform="translate(1.78 0.53)"/><line class="cls-1" x1="116.71" y1="491.5" x2="79.77" y2="491.5"/><path class="cls-1" d="M76.67,489.59A1.38,1.38,0,0,0,78.05,491" transform="translate(1.78 0.53)"/><line class="cls-1" x1="78.33" y1="490.18" x2="78.33" y2="439.32"/><path class="cls-1" d="M78.05,437.35a1.38,1.38,0,0,0-1.38,1.38" transform="translate(1.78 0.53)"/><line class="cls-1" x1="79.77" y1="437.89" x2="116.71" y2="437.89"/><path class="cls-1" d="M116.37,438.73a1.38,1.38,0,0,0-1.38-1.38" transform="translate(1.78 0.53)"/><line class="cls-1" x1="118.15" y1="439.32" x2="118.15" y2="490.18"/><line class="cls-1" x1="109.51" y1="255.58" x2="112.27" y2="255.58"/><path class="cls-1" d="M111.93,256.43a1.38,1.38,0,0,0-1.38-1.38" transform="translate(1.78 0.53)"/><line class="cls-1" x1="113.71" y1="257.02" x2="113.71" y2="272.61"/><path class="cls-1" d="M111.8,272.59a1.25,1.25,0,0,0,.13-.57" transform="translate(1.78 0.53)"/><line class="cls-1" x1="113.59" y1="273.21" x2="110.71" y2="279.57"/><path class="cls-1" d="M109.07,278.9a20.09,20.09,0,0,0,2.32,20.57" transform="translate(1.78 0.53)"/><path class="cls-1" d="M110.58,301a.9.9,0,0,0,.8-1.44" transform="translate(1.78 0.53)"/><line class="cls-1" x1="112.27" y1="301.52" x2="79.65" y2="298.04"/><path class="cls-1" d="M76.67,296a1.38,1.38,0,0,0,1.23,1.37" transform="translate(1.78 0.53)"/><line class="cls-1" x1="78.33" y1="296.6" x2="78.33" y2="245.51"/><path class="cls-1" d="M77.71,243.57a1.39,1.39,0,0,0-1,1.34" transform="translate(1.78 0.53)"/><line class="cls-1" x1="79.41" y1="244.19" x2="100.4" y2="238.91"/><path class="cls-1" d="M100.41,239.76a1.38,1.38,0,0,0-1.71-1.34" transform="translate(1.78 0.53)"/><line class="cls-1" x1="102.08" y1="240.35" x2="102.08" y2="248.26"/><path class="cls-1" d="M100.41,247.67a7.38,7.38,0,0,0,7.38,7.38" transform="translate(1.78 0.53)"/><path class="cls-1" d="M147.79,432.86a1.37,1.37,0,0,0,1.38,1.37" transform="translate(1.78 0.53)"/><line class="cls-1" x1="149.45" y1="433.45" x2="149.45" y2="352.01"/><path class="cls-1" d="M148.84,350.08a1.37,1.37,0,0,0-1.05,1.34" transform="translate(1.78 0.53)"/><line class="cls-1" x1="150.53" y1="350.57" x2="174.4" y2="344.69"/><path class="cls-1" d="M174.42,345.54a1.42,1.42,0,0,0-.53-1.09,1.39,1.39,0,0,0-1.18-.25" transform="translate(1.78 0.53)"/><line class="cls-1" x1="176.2" y1="346.13" x2="176.2" y2="433.45"/><path class="cls-1" d="M173,434.23a1.37,1.37,0,0,0,1.38-1.37" transform="translate(1.78 0.53)"/><line class="cls-1" x1="174.76" y1="434.89" x2="150.89" y2="434.89"/><path class="cls-1" d="M145.63,352.62a1.36,1.36,0,0,0-.53-1.09,1.38,1.38,0,0,0-1.18-.25" transform="translate(1.78 0.53)"/><line class="cls-1" x1="147.41" y1="353.21" x2="147.41" y2="433.45"/><path class="cls-1" d="M144.25,434.23a1.37,1.37,0,0,0,1.38-1.37" transform="translate(1.78 0.53)"/><line class="cls-1" x1="145.97" y1="434.89" x2="122.47" y2="434.89"/><path class="cls-1" d="M119.37,432.86a1.37,1.37,0,0,0,1.37,1.37" transform="translate(1.78 0.53)"/><line class="cls-1" x1="121.15" y1="433.45" x2="121.15" y2="358.97"/><path class="cls-1" d="M120.41,357a1.37,1.37,0,0,0-1,1.33" transform="translate(1.78 0.53)"/><line class="cls-1" x1="122.23" y1="357.65" x2="145.73" y2="351.77"/><path class="cls-1" d="M147.79,489.59a1.38,1.38,0,0,0,1.38,1.38" transform="translate(1.78 0.53)"/><line class="cls-1" x1="149.45" y1="490.18" x2="149.45" y2="439.32"/><path class="cls-1" d="M149.17,437.35a1.38,1.38,0,0,0-1.38,1.38" transform="translate(1.78 0.53)"/><line class="cls-1" x1="150.89" y1="437.89" x2="174.76" y2="437.89"/><path class="cls-1" d="M174.42,438.73a1.38,1.38,0,0,0-1.38-1.38" transform="translate(1.78 0.53)"/><line class="cls-1" x1="176.2" y1="439.32" x2="176.2" y2="490.18"/><path class="cls-1" d="M173,491a1.38,1.38,0,0,0,1.38-1.38" transform="translate(1.78 0.53)"/><line class="cls-1" x1="174.76" y1="491.5" x2="150.89" y2="491.5"/><path class="cls-1" d="M119.37,489.59a1.37,1.37,0,0,0,1.37,1.38" transform="translate(1.78 0.53)"/><line class="cls-1" x1="121.15" y1="490.18" x2="121.15" y2="439.32"/><path class="cls-1" d="M120.74,437.35a1.37,1.37,0,0,0-1.37,1.38" transform="translate(1.78 0.53)"/><line class="cls-1" x1="122.47" y1="437.89" x2="145.97" y2="437.89"/><path class="cls-1" d="M145.63,438.73a1.38,1.38,0,0,0-1.38-1.38" transform="translate(1.78 0.53)"/><line class="cls-1" x1="147.41" y1="439.32" x2="147.41" y2="490.18"/><path class="cls-1" d="M144.25,491a1.38,1.38,0,0,0,1.38-1.38" transform="translate(1.78 0.53)"/><line class="cls-1" x1="145.97" y1="491.5" x2="122.47" y2="491.5"/><line class="cls-1" x1="176.08" y1="305.83" x2="176.08" y2="341.1"/><path class="cls-1" d="M173.25,341.84a1.38,1.38,0,0,0,1.05-1.34" transform="translate(1.78 0.53)"/><line class="cls-1" x1="175" y1="342.54" x2="151.13" y2="348.41"/><path class="cls-1" d="M147.79,346.5a1.42,1.42,0,0,0,.53,1.09,1.38,1.38,0,0,0,1.18.25" transform="translate(1.78 0.53)"/><line class="cls-1" x1="149.45" y1="347.09" x2="149.45" y2="306.55"/><path class="cls-1" d="M149,304.6a1.37,1.37,0,0,0-1.19,1.36" transform="translate(1.78 0.53)"/><line class="cls-1" x1="150.65" y1="305.11" x2="155.69" y2="304.39"/><path class="cls-1" d="M154.09,303.86l-.19,0" transform="translate(1.78 0.53)"/><line class="cls-1" x1="155.81" y1="304.39" x2="174.64" y2="304.39"/><path class="cls-1" d="M174.3,305.24a1.38,1.38,0,0,0-1.38-1.38" transform="translate(1.78 0.53)"/><path class="cls-1" d="M119.74,353.15a1.38,1.38,0,0,0,1.7,1.53" transform="translate(1.78 0.53)"/><line class="cls-1" x1="121.39" y1="353.81" x2="127.38" y2="309.19"/><path class="cls-1" d="M127.11,307.46a1.39,1.39,0,0,0-1.38,1.2" transform="translate(1.78 0.53)"/><path class="cls-1" d="M127.15,307.34a21.34,21.34,0,0,0,3-.19" transform="translate(1.78 0.53)"/><line class="cls-1" x1="131.82" y1="307.75" x2="145.85" y2="305.83"/><path class="cls-1" d="M145.63,306.68a1.37,1.37,0,0,0-.47-1,1.41,1.41,0,0,0-1.1-.33" transform="translate(1.78 0.53)"/><line class="cls-1" x1="147.41" y1="307.27" x2="147.41" y2="348.29"/><path class="cls-1" d="M144.58,349a1.38,1.38,0,0,0,1-1.34" transform="translate(1.78 0.53)"/><line class="cls-1" x1="146.33" y1="349.61" x2="123.19" y2="355.37"/><line class="cls-1" x1="167.2" y1="297.08" x2="174.64" y2="297.08"/><path class="cls-1" d="M175.86,296.93a9,9,0,0,0-2.94-.5" transform="translate(1.78 0.53)"/><path class="cls-1" d="M175.82,297a1.38,1.38,0,0,0,1.83-1.3" transform="translate(1.78 0.53)"/><line class="cls-1" x1="179.44" y1="296.24" x2="179.44" y2="276.81"/><path class="cls-1" d="M177.77,276.22a.89.89,0,0,0-.66-.87.88.88,0,0,0-1,.42" transform="translate(1.78 0.53)"/><line class="cls-1" x1="177.88" y1="276.33" x2="167.68" y2="293.96"/><path class="cls-1" d="M164.76,295.09a12.91,12.91,0,0,0,1.2-1.75" transform="translate(1.78 0.53)"/><path class="cls-1" d="M164.78,295.08a.9.9,0,0,0,.7,1.47" transform="translate(1.78 0.53)"/><path class="cls-1" d="M305.21,403.41a1.38,1.38,0,0,0-1.38,1.38" transform="translate(1.78 0.53)"/><line class="cls-1" x1="306.93" y1="404.06" x2="321.08" y2="404.06"/><path class="cls-1" d="M320.74,404.79a1.38,1.38,0,0,0-1.38-1.38" transform="translate(1.78 0.53)"/><line class="cls-1" x1="322.52" y1="405.38" x2="322.52" y2="433.45"/><path class="cls-1" d="M319.36,434.23a1.37,1.37,0,0,0,1.38-1.37" transform="translate(1.78 0.53)"/><line class="cls-1" x1="321.08" y1="434.89" x2="306.93" y2="434.89"/><path class="cls-1" d="M303.83,432.86a1.37,1.37,0,0,0,1.38,1.37" transform="translate(1.78 0.53)"/><line class="cls-1" x1="305.49" y1="433.45" x2="305.49" y2="405.38"/><line class="cls-1" x1="290.98" y1="404.06" x2="302.13" y2="404.06"/><path class="cls-1" d="M301.79,404.79a1.38,1.38,0,0,0-1.38-1.38" transform="translate(1.78 0.53)"/><line class="cls-1" x1="303.57" y1="405.38" x2="303.57" y2="433.45"/><path class="cls-1" d="M300.41,434.23a1.37,1.37,0,0,0,1.38-1.37" transform="translate(1.78 0.53)"/><line class="cls-1" x1="302.13" y1="434.89" x2="290.98" y2="434.89"/><path class="cls-1" d="M287.88,432.86a1.37,1.37,0,0,0,1.38,1.37" transform="translate(1.78 0.53)"/><line class="cls-1" x1="289.54" y1="433.45" x2="289.54" y2="405.38"/><path class="cls-1" d="M289.26,403.41a1.38,1.38,0,0,0-1.38,1.38" transform="translate(1.78 0.53)"/><path class="cls-1" d="M303.83,489.59a1.38,1.38,0,0,0,1.38,1.38" transform="translate(1.78 0.53)"/><line class="cls-1" x1="305.49" y1="490.18" x2="305.49" y2="439.32"/><path class="cls-1" d="M305.21,437.35a1.38,1.38,0,0,0-1.38,1.38" transform="translate(1.78 0.53)"/><line class="cls-1" x1="306.93" y1="437.89" x2="321.08" y2="437.89"/><path class="cls-1" d="M320.74,438.73a1.38,1.38,0,0,0-1.38-1.38" transform="translate(1.78 0.53)"/><line class="cls-1" x1="322.52" y1="439.32" x2="322.52" y2="490.18"/><path class="cls-1" d="M319.36,491a1.38,1.38,0,0,0,1.38-1.38" transform="translate(1.78 0.53)"/><line class="cls-1" x1="321.08" y1="491.5" x2="306.93" y2="491.5"/><line class="cls-1" x1="303.57" y1="490.18" x2="303.57" y2="439.32"/><path class="cls-1" d="M301.79,438.73a1.38,1.38,0,0,0-1.38-1.38" transform="translate(1.78 0.53)"/><line class="cls-1" x1="302.13" y1="437.89" x2="288.94" y2="437.89"/><path class="cls-1" d="M287.22,437.35a1.38,1.38,0,0,0-1.17.65,1.4,1.4,0,0,0-.08,1.33" transform="translate(1.78 0.53)"/><path class="cls-1" d="M286.8,443.05a8.94,8.94,0,0,0-.86-3.8" transform="translate(1.78 0.53)"/><line class="cls-1" x1="288.46" y1="443.64" x2="288.46" y2="490.18"/><path class="cls-1" d="M286.8,489.59a1.38,1.38,0,0,0,1.38,1.38" transform="translate(1.78 0.53)"/><line class="cls-1" x1="289.9" y1="491.5" x2="302.13" y2="491.5"/><path class="cls-1" d="M300.41,491a1.38,1.38,0,0,0,1.38-1.38" transform="translate(1.78 0.53)"/><line class="cls-1" x1="290.98" y1="349.01" x2="292.42" y2="349.01"/><path class="cls-1" d="M292.07,349.71a1.38,1.38,0,0,0-1.37-1.23" transform="translate(1.78 0.53)"/><path class="cls-1" d="M292,349.76a8.82,8.82,0,0,0,8.39,7.83" transform="translate(1.78 0.53)"/><path class="cls-1" d="M301.79,359a1.37,1.37,0,0,0-1.32-1.37" transform="translate(1.78 0.53)"/><line class="cls-1" x1="303.57" y1="359.57" x2="303.57" y2="399.63"/><path class="cls-1" d="M300.41,400.41a1.38,1.38,0,0,0,1.38-1.38" transform="translate(1.78 0.53)"/><line class="cls-1" x1="302.13" y1="401.06" x2="290.98" y2="401.06"/><path class="cls-1" d="M287.88,399a1.38,1.38,0,0,0,1.38,1.38" transform="translate(1.78 0.53)"/><line class="cls-1" x1="289.54" y1="399.63" x2="289.54" y2="350.45"/><path class="cls-1" d="M289.26,348.48a1.38,1.38,0,0,0-1.38,1.38" transform="translate(1.78 0.53)"/><path class="cls-1" d="M317.44,357.47a11.49,11.49,0,0,0,1.76-.13" transform="translate(1.78 0.53)"/><path class="cls-1" d="M320.74,358.85a1.38,1.38,0,0,0-.48-1,1.36,1.36,0,0,0-1.11-.32" transform="translate(1.78 0.53)"/><polyline class="cls-1" points="322.52 359.45 322.52 381.39 319.4 381.39"/><path class="cls-1" d="M317.68,380.74a2.82,2.82,0,0,0,0,5.64" transform="translate(1.78 0.53)"/><polyline class="cls-1" points="319.4 387.03 322.52 387.03 322.52 399.63"/><path class="cls-1" d="M319.36,400.41a1.38,1.38,0,0,0,1.38-1.38" transform="translate(1.78 0.53)"/><line class="cls-1" x1="321.08" y1="401.06" x2="306.93" y2="401.06"/><path class="cls-1" d="M303.83,399a1.38,1.38,0,0,0,1.38,1.38" transform="translate(1.78 0.53)"/><line class="cls-1" x1="305.49" y1="399.63" x2="305.49" y2="359.57"/><path class="cls-1" d="M305.21,357.59a1.38,1.38,0,0,0-1.38,1.38" transform="translate(1.78 0.53)"/><polyline class="cls-1" points="306.93 358.13 309.45 358.13 309.45 360.65"/><path class="cls-1" d="M307.79,360.05a2.82,2.82,0,1,0,5.63,0" transform="translate(1.78 0.53)"/><polyline class="cls-1" points="315.09 360.65 315.09 358.13 319.16 358.13"/><line class="cls-1" x1="246.72" y1="350.93" x2="246.72" y2="350.45"/><path class="cls-1" d="M246.44,348.48a1.38,1.38,0,0,0-1.38,1.38" transform="translate(1.78 0.53)"/><line class="cls-1" x1="248.16" y1="349.01" x2="266.99" y2="349.01"/><path class="cls-1" d="M266.65,349.86a1.38,1.38,0,0,0-1.38-1.38" transform="translate(1.78 0.53)"/><line class="cls-1" x1="268.43" y1="350.45" x2="268.43" y2="354.41"/><path class="cls-1" d="M266.77,353.82a1.38,1.38,0,1,0,2.76,0" transform="translate(1.78 0.53)"/><line class="cls-1" x1="271.19" y1="354.41" x2="271.19" y2="350.45"/><path class="cls-1" d="M270.91,348.48a1.38,1.38,0,0,0-1.38,1.38" transform="translate(1.78 0.53)"/><line class="cls-1" x1="272.63" y1="349.01" x2="285.1" y2="349.01"/><path class="cls-1" d="M284.76,349.86a1.38,1.38,0,0,0-1.38-1.38" transform="translate(1.78 0.53)"/><line class="cls-1" x1="286.54" y1="350.45" x2="286.54" y2="433.45"/><path class="cls-1" d="M283.38,434.23a1.37,1.37,0,0,0,1.38-1.37" transform="translate(1.78 0.53)"/><line class="cls-1" x1="285.1" y1="434.89" x2="267.59" y2="434.89"/><path class="cls-1" d="M264.88,433.82a1.37,1.37,0,0,0,1,.41" transform="translate(1.78 0.53)"/><path class="cls-1" d="M264.82,433.93a1.37,1.37,0,0,0-1-.41,1.33,1.33,0,0,0-1,.41" transform="translate(1.78 0.53)"/><path class="cls-1" d="M261.79,434.23a1.37,1.37,0,0,0,1-.41" transform="translate(1.78 0.53)"/><line class="cls-1" x1="263.51" y1="434.89" x2="253.44" y2="434.89"/><path class="cls-1" d="M250.73,433.82a1.37,1.37,0,0,0,1,.41" transform="translate(1.78 0.53)"/><path class="cls-1" d="M250.66,433.93a1.34,1.34,0,0,0-1-.41,1.37,1.37,0,0,0-1,.41" transform="translate(1.78 0.53)"/><path class="cls-1" d="M247.64,434.23a1.34,1.34,0,0,0,1-.41" transform="translate(1.78 0.53)"/><line class="cls-1" x1="249.36" y1="434.89" x2="190.23" y2="434.89"/><path class="cls-1" d="M187.52,433.82a1.37,1.37,0,0,0,1,.41" transform="translate(1.78 0.53)"/><path class="cls-1" d="M187.46,433.93a1.37,1.37,0,0,0-1-.41,1.33,1.33,0,0,0-1,.41" transform="translate(1.78 0.53)"/><path class="cls-1" d="M184.43,434.23a1.37,1.37,0,0,0,1-.41" transform="translate(1.78 0.53)"/><line class="cls-1" x1="186.15" y1="434.89" x2="180.64" y2="434.89"/><path class="cls-1" d="M177.53,432.86a1.37,1.37,0,0,0,1.38,1.37" transform="translate(1.78 0.53)"/><line class="cls-1" x1="179.2" y1="433.45" x2="179.2" y2="413.06"/><path class="cls-1" d="M178.91,411.09a1.38,1.38,0,0,0-1.38,1.38" transform="translate(1.78 0.53)"/><line class="cls-1" x1="180.64" y1="411.62" x2="183.15" y2="411.62"/><path class="cls-1" d="M181.43,411.09a1.38,1.38,0,0,0,0-2.76" transform="translate(1.78 0.53)"/><line class="cls-1" x1="183.15" y1="408.86" x2="180.64" y2="408.86"/><path class="cls-1" d="M177.53,406.83a1.38,1.38,0,0,0,1.38,1.38" transform="translate(1.78 0.53)"/><line class="cls-1" x1="179.2" y1="407.42" x2="179.2" y2="378.52"/><path class="cls-1" d="M178.91,376.54a1.38,1.38,0,0,0-1.38,1.38" transform="translate(1.78 0.53)"/><line class="cls-1" x1="180.64" y1="377.08" x2="183.15" y2="377.08"/><path class="cls-1" d="M181.43,376.42a1.38,1.38,0,1,0,0-2.75" transform="translate(1.78 0.53)"/><line class="cls-1" x1="183.15" y1="374.32" x2="180.64" y2="374.32"/><path class="cls-1" d="M177.53,372.29a1.38,1.38,0,0,0,1.38,1.38" transform="translate(1.78 0.53)"/><line class="cls-1" x1="179.2" y1="372.88" x2="179.2" y2="347.93"/><path class="cls-1" d="M178.82,346.6a.89.89,0,0,0-1.4.74" transform="translate(1.78 0.53)"/><path class="cls-1" d="M178.77,346.69a10.2,10.2,0,0,0,5.78,1.79" transform="translate(1.78 0.53)"/><line class="cls-1" x1="186.27" y1="349.01" x2="198.03" y2="349.01"/><path class="cls-1" d="M197.68,349.86a1.37,1.37,0,0,0-1.37-1.38" transform="translate(1.78 0.53)"/><line class="cls-1" x1="199.47" y1="350.45" x2="199.47" y2="350.93"/><path class="cls-1" d="M197.68,350.34a1,1,0,0,0,2,0" transform="translate(1.78 0.53)"/><line class="cls-1" x1="201.38" y1="350.93" x2="201.38" y2="350.45"/><path class="cls-1" d="M201.1,348.48a1.38,1.38,0,0,0-1.38,1.38" transform="translate(1.78 0.53)"/><line class="cls-1" x1="202.82" y1="349.01" x2="243.36" y2="349.01"/><path class="cls-1" d="M243,349.86a1.38,1.38,0,0,0-1.38-1.38" transform="translate(1.78 0.53)"/><line class="cls-1" x1="244.8" y1="350.45" x2="244.8" y2="350.93"/><path class="cls-1" d="M243,350.34a1,1,0,0,0,2,0" transform="translate(1.78 0.53)"/><path class="cls-1" d="M216.17,439.25a8.93,8.93,0,0,0-.85,3.8" transform="translate(1.78 0.53)"/><line class="cls-1" x1="217.1" y1="443.64" x2="217.1" y2="490.18"/><path class="cls-1" d="M213.94,491a1.38,1.38,0,0,0,1.38-1.38" transform="translate(1.78 0.53)"/><line class="cls-1" x1="215.66" y1="491.5" x2="180.64" y2="491.5"/><path class="cls-1" d="M177.53,489.59a1.38,1.38,0,0,0,1.38,1.38" transform="translate(1.78 0.53)"/><line class="cls-1" x1="179.2" y1="490.18" x2="179.2" y2="439.32"/><path class="cls-1" d="M178.91,437.35a1.38,1.38,0,0,0-1.38,1.38" transform="translate(1.78 0.53)"/><line class="cls-1" x1="180.64" y1="437.89" x2="216.74" y2="437.89"/><path class="cls-1" d="M216.26,439.33a1.4,1.4,0,0,0-.08-1.33,1.38,1.38,0,0,0-1.16-.65" transform="translate(1.78 0.53)"/><path class="cls-1" d="M117.15,338a1.37,1.37,0,0,0,1.36-1.19" transform="translate(1.78 0.53)"/><line class="cls-1" x1="118.87" y1="338.7" x2="79.77" y2="338.7"/><path class="cls-1" d="M76.67,336.67A1.37,1.37,0,0,0,78.05,338" transform="translate(1.78 0.53)"/><line class="cls-1" x1="78.33" y1="337.26" x2="78.33" y2="302.48"/><path class="cls-1" d="M78.19,300.51a1.4,1.4,0,0,0-1.07.35,1.36,1.36,0,0,0-.45,1" transform="translate(1.78 0.53)"/><line class="cls-1" x1="79.89" y1="301.04" x2="118.39" y2="305.11"/><path class="cls-1" d="M117.24,304.77a1.37,1.37,0,0,0-.55-.18" transform="translate(1.78 0.53)"/><path class="cls-1" d="M117.28,304.64a20.41,20.41,0,0,0,4.51,1.92" transform="translate(1.78 0.53)"/><path class="cls-1" d="M122.71,308.18a1.39,1.39,0,0,0-1-1.51" transform="translate(1.78 0.53)"/><line class="cls-1" x1="124.5" y1="308.71" x2="120.19" y2="337.5"/><path class="cls-1" d="M115.11,355.2a1.37,1.37,0,0,0,1.36-1.2" transform="translate(1.78 0.53)"/><line class="cls-1" x1="118.27" y1="354.65" x2="119.47" y2="343.25"/><path class="cls-1" d="M117.67,342.73a1.37,1.37,0,0,0-.32-1.1,1.41,1.41,0,0,0-1-.47" transform="translate(1.78 0.53)"/><line class="cls-1" x1="118.03" y1="341.7" x2="79.77" y2="341.7"/><path class="cls-1" d="M78.05,341.16a1.38,1.38,0,0,0-1.38,1.38" transform="translate(1.78 0.53)"/><line class="cls-1" x1="78.33" y1="343.13" x2="78.33" y2="354.41"/><path class="cls-1" d="M76.67,353.82a1.38,1.38,0,0,0,1.38,1.38" transform="translate(1.78 0.53)"/><line class="cls-1" x1="79.77" y1="355.85" x2="116.83" y2="355.85"/><path class="cls-1" d="M119.37,246.47a.42.42,0,0,0-.42-.42" transform="translate(1.78 0.53)"/><line class="cls-1" x1="121.15" y1="247.06" x2="121.15" y2="249.82"/><path class="cls-1" d="M119.37,249.23a.29.29,0,0,0,.29.3" transform="translate(1.78 0.53)"/><path class="cls-1" d="M119.07,235a.31.31,0,0,0,.3-.3" transform="translate(1.78 0.53)"/><polyline class="cls-1" points="387.41 183.02 382.13 181.58 380.09 181.58"/><path class="cls-1" d="M378.37,181.05a1.38,1.38,0,0,0-1.33,1.73" transform="translate(1.78 0.53)"/><line class="cls-1" x1="378.65" y1="183.38" x2="379.85" y2="187.94"/><path class="cls-1" d="M377.86,189.6a2.88,2.88,0,0,0,.36-2.27" transform="translate(1.78 0.53)"/><polyline class="cls-1" points="379.49 190.21 372.3 201.49 366.66 201.49"/><path class="cls-1" d="M364.94,195.2a2.82,2.82,0,1,0,0,5.64" transform="translate(1.78 0.53)"/><polyline class="cls-1" points="366.66 195.73 369.9 195.73 373.02 190.93"/><path class="cls-1" d="M371.28,190.39a7.15,7.15,0,0,0,.91-5.73" transform="translate(1.78 0.53)"/><line class="cls-1" x1="373.86" y1="185.3" x2="373.5" y2="183.74"/><path class="cls-1" d="M371.74,183.13a2.81,2.81,0,0,0-2.72-2.08" transform="translate(1.78 0.53)"/><polyline class="cls-1" points="370.74 181.58 361.86 181.58 361.86 182.18"/><path class="cls-1" d="M359.3,182.49a.9.9,0,0,0,.9-.9" transform="translate(1.78 0.53)"/><line class="cls-1" x1="361.02" y1="183.02" x2="357.06" y2="183.02"/><path class="cls-1" d="M354.44,181.59a.91.91,0,0,0,.9.9" transform="translate(1.78 0.53)"/><polyline class="cls-1" points="356.23 182.18 356.23 181.58 350.59 181.58"/><path class="cls-1" d="M347.49,179.67a1.38,1.38,0,0,0,1.38,1.38" transform="translate(1.78 0.53)"/><line class="cls-1" x1="349.15" y1="180.26" x2="349.15" y2="173.18"/><path class="cls-1" d="M347.37,172.59a8.46,8.46,0,0,0-8.46-8.46" transform="translate(1.78 0.53)"/><line class="cls-1" x1="340.63" y1="164.67" x2="327.92" y2="164.67"/><path class="cls-1" d="M324.82,162.64A1.37,1.37,0,0,0,326.2,164" transform="translate(1.78 0.53)"/><polyline class="cls-1" points="326.48 163.23 326.48 129.17 325.04 126.41 384.53 141.16"/><path class="cls-1" d="M387.07,146.08a5.69,5.69,0,0,0-4.32-5.52" transform="translate(1.78 0.53)"/><polyline class="cls-1" points="388.73 146.68 388.73 183.02 387.41 183.02"/><line class="cls-1" x1="354.55" y1="174.86" x2="354.55" y2="173.18"/><path class="cls-1" d="M352.76,172.59a13.85,13.85,0,0,0-13.85-13.85" transform="translate(1.78 0.53)"/><line class="cls-1" x1="340.63" y1="159.27" x2="333.32" y2="159.27"/><path class="cls-1" d="M330.22,157.24a1.38,1.38,0,0,0,1.38,1.38" transform="translate(1.78 0.53)"/><line class="cls-1" x1="331.88" y1="157.83" x2="331.88" y2="135.4"/><path class="cls-1" d="M331.93,133.47a1.38,1.38,0,0,0-1.71,1.34" transform="translate(1.78 0.53)"/><line class="cls-1" x1="333.56" y1="134.08" x2="382.37" y2="146.2"/><path class="cls-1" d="M381.67,147a1.37,1.37,0,0,0-1.05-1.33" transform="translate(1.78 0.53)"/><line class="cls-1" x1="383.45" y1="147.64" x2="383.45" y2="174.86"/><path class="cls-1" d="M380.29,175.65a1.38,1.38,0,0,0,1.38-1.38" transform="translate(1.78 0.53)"/><line class="cls-1" x1="382.01" y1="176.3" x2="355.87" y2="176.3"/><path class="cls-1" d="M352.76,174.27a1.38,1.38,0,0,0,1.38,1.38" transform="translate(1.78 0.53)"/><line class="cls-1" x1="223.57" y1="196.93" x2="195.27" y2="200.89"/><path class="cls-1" d="M181.43,135.83a.29.29,0,0,0,.3-.3" transform="translate(1.78 0.53)"/><line class="cls-1" x1="256.2" y1="296.36" x2="258.96" y2="296.36"/><path class="cls-1" d="M354.38,202.47a8.81,8.81,0,0,0,6.92,7.65" transform="translate(1.78 0.53)"/><path class="cls-1" d="M362.36,211.45a1.39,1.39,0,0,0-1.09-1.35" transform="translate(1.78 0.53)"/><line class="cls-1" x1="364.14" y1="212.04" x2="364.14" y2="227.75"/><path class="cls-1" d="M361,228.54a1.38,1.38,0,0,0,1.38-1.38" transform="translate(1.78 0.53)"/><line class="cls-1" x1="362.7" y1="229.19" x2="345.31" y2="229.19"/><path class="cls-1" d="M342.21,227.16a1.38,1.38,0,0,0,1.38,1.38" transform="translate(1.78 0.53)"/><line class="cls-1" x1="343.87" y1="227.75" x2="343.87" y2="203.17"/><path class="cls-1" d="M343.59,201.2a1.37,1.37,0,0,0-1.38,1.37" transform="translate(1.78 0.53)"/><line class="cls-1" x1="345.31" y1="201.73" x2="354.67" y2="201.73"/><path class="cls-1" d="M354.31,202.42a1.36,1.36,0,0,0-1.37-1.22" transform="translate(1.78 0.53)"/><line class="cls-1" x1="176.08" y1="157.83" x2="176.08" y2="173.54"/><path class="cls-1" d="M174.17,173.52a1.4,1.4,0,0,0,.13-.57" transform="translate(1.78 0.53)"/><line class="cls-1" x1="175.96" y1="174.02" x2="173.08" y2="180.38"/><path class="cls-1" d="M171.32,179.83a20.09,20.09,0,0,0,2.32,20.57" transform="translate(1.78 0.53)"/><path class="cls-1" d="M172.94,201.79a.9.9,0,0,0,.81-1.44" transform="translate(1.78 0.53)"/><line class="cls-1" x1="174.64" y1="202.33" x2="141.9" y2="198.85"/><path class="cls-1" d="M138.91,196.82a1.39,1.39,0,0,0,1.24,1.37" transform="translate(1.78 0.53)"/><line class="cls-1" x1="140.7" y1="197.41" x2="140.7" y2="146.44"/><path class="cls-1" d="M140,144.51a1.38,1.38,0,0,0-1.05,1.33" transform="translate(1.78 0.53)"/><line class="cls-1" x1="141.78" y1="145" x2="162.65" y2="139.84"/><path class="cls-1" d="M162.66,140.57a1.36,1.36,0,0,0-.53-1.09,1.38,1.38,0,0,0-1.18-.25" transform="translate(1.78 0.53)"/><line class="cls-1" x1="164.44" y1="141.16" x2="164.44" y2="149.08"/><path class="cls-1" d="M162.66,148.48a7.38,7.38,0,0,0,7.38,7.38" transform="translate(1.78 0.53)"/><line class="cls-1" x1="171.76" y1="156.39" x2="174.64" y2="156.39"/><path class="cls-1" d="M174.3,157.24a1.38,1.38,0,0,0-1.38-1.38" transform="translate(1.78 0.53)"/><line class="cls-1" x1="186.63" y1="210.12" x2="172.48" y2="233.03"/><path class="cls-1" d="M169.56,233.1a1.37,1.37,0,0,0,1.17-.66" transform="translate(1.78 0.53)"/><line class="cls-1" x1="171.28" y1="233.75" x2="142.02" y2="233.75"/><path class="cls-1" d="M138.91,231.72a1.38,1.38,0,0,0,1.38,1.38" transform="translate(1.78 0.53)"/><line class="cls-1" x1="140.7" y1="232.31" x2="140.7" y2="203.29"/><path class="cls-1" d="M140.44,201.32a1.4,1.4,0,0,0-1.07.35,1.37,1.37,0,0,0-.46,1" transform="translate(1.78 0.53)"/><line class="cls-1" x1="142.26" y1="201.85" x2="180.76" y2="205.93"/><path class="cls-1" d="M179.49,205.58a1.37,1.37,0,0,0-.55-.18" transform="translate(1.78 0.53)"/><path class="cls-1" d="M179.52,205.57a20,20,0,0,0,4.52,1.92" transform="translate(1.78 0.53)"/><path class="cls-1" d="M184.89,209.53a1.41,1.41,0,0,0,.11-1.22,1.38,1.38,0,0,0-.91-.82" transform="translate(1.78 0.53)"/><line class="cls-1" x1="221.17" y1="283.29" x2="216.62" y2="283.29"/><path class="cls-1" d="M213.52,281.37a1.37,1.37,0,0,0,1.38,1.38" transform="translate(1.78 0.53)"/><line class="cls-1" x1="215.18" y1="281.97" x2="215.18" y2="268.05"/><path class="cls-1" d="M213.52,267.46a8.83,8.83,0,0,0-6.37-8.47" transform="translate(1.78 0.53)"/><path class="cls-1" d="M206.08,257.63a1.38,1.38,0,0,0,1,1.32" transform="translate(1.78 0.53)"/><line class="cls-1" x1="207.74" y1="258.22" x2="207.74" y2="207.96"/><path class="cls-1" d="M207.27,206a1.37,1.37,0,0,0-1.19,1.36" transform="translate(1.78 0.53)"/><line class="cls-1" x1="208.94" y1="206.53" x2="225.85" y2="204.13"/><path class="cls-1" d="M225.75,205a1.37,1.37,0,0,0-.47-1,1.39,1.39,0,0,0-1.1-.32" transform="translate(1.78 0.53)"/><line class="cls-1" x1="227.41" y1="205.57" x2="227.41" y2="282.69"/><path class="cls-1" d="M224.13,283.45a1.37,1.37,0,0,0,1.62-1.36" transform="translate(1.78 0.53)"/><line class="cls-1" x1="225.85" y1="284.13" x2="221.41" y2="283.41"/><path class="cls-1" d="M219.69,282.77l-.24,0" transform="translate(1.78 0.53)"/><line class="cls-1" x1="291.34" y1="201.73" x2="319.16" y2="201.73"/><path class="cls-1" d="M318.82,202.45a1.38,1.38,0,0,0-1.38-1.25" transform="translate(1.78 0.53)"/><path class="cls-1" d="M318.83,202.49a1.74,1.74,0,0,0,3.46,0" transform="translate(1.78 0.53)"/><path class="cls-1" d="M323.56,201.2a1.37,1.37,0,0,0-1.37,1.25" transform="translate(1.78 0.53)"/><line class="cls-1" x1="325.28" y1="201.73" x2="339.55" y2="201.73"/><path class="cls-1" d="M339.21,202.57a1.37,1.37,0,0,0-1.38-1.37" transform="translate(1.78 0.53)"/><line class="cls-1" x1="340.87" y1="203.17" x2="340.87" y2="225.6"/><path class="cls-1" d="M337.83,226.38a1.38,1.38,0,0,0,1.38-1.38" transform="translate(1.78 0.53)"/><line class="cls-1" x1="339.55" y1="226.91" x2="336.68" y2="226.91"/><path class="cls-1" d="M335,226.38a1.38,1.38,0,0,0,0,2.76" transform="translate(1.78 0.53)"/><line class="cls-1" x1="336.68" y1="229.79" x2="339.55" y2="229.79"/><path class="cls-1" d="M339.21,230.64a1.38,1.38,0,0,0-1.38-1.38" transform="translate(1.78 0.53)"/><line class="cls-1" x1="340.87" y1="231.23" x2="340.87" y2="266.61"/><path class="cls-1" d="M337.83,267.4a1.38,1.38,0,0,0,1.38-1.38" transform="translate(1.78 0.53)"/><line class="cls-1" x1="339.55" y1="268.05" x2="336.2" y2="268.05"/><path class="cls-1" d="M334.47,267.4a1,1,0,0,0,0,2" transform="translate(1.78 0.53)"/><line class="cls-1" x1="336.2" y1="269.97" x2="339.55" y2="269.97"/><path class="cls-1" d="M339.21,270.82a1.38,1.38,0,0,0-1.38-1.38" transform="translate(1.78 0.53)"/><line class="cls-1" x1="340.87" y1="271.41" x2="340.87" y2="287.6"/><path class="cls-1" d="M337.83,288.39a1.38,1.38,0,0,0,1.38-1.38" transform="translate(1.78 0.53)"/><line class="cls-1" x1="339.55" y1="289.04" x2="325.76" y2="289.04"/><path class="cls-1" d="M322.66,287a1.38,1.38,0,0,0,1.38,1.38" transform="translate(1.78 0.53)"/><line class="cls-1" x1="324.32" y1="287.6" x2="324.32" y2="278.37"/><path class="cls-1" d="M322.54,277.78a1.31,1.31,0,0,0-.07-.44" transform="translate(1.78 0.53)"/><line class="cls-1" x1="324.32" y1="278.01" x2="318.56" y2="260.74"/><path class="cls-1" d="M316.81,260.11a8.82,8.82,0,0,0-8.36-6" transform="translate(1.78 0.53)"/><line class="cls-1" x1="310.17" y1="254.74" x2="303.81" y2="254.74"/><path class="cls-1" d="M300.71,252.71a1.38,1.38,0,0,0,1.38,1.38" transform="translate(1.78 0.53)"/><line class="cls-1" x1="302.37" y1="253.3" x2="302.37" y2="250.42"/><path class="cls-1" d="M300.71,249.83a2.82,2.82,0,1,0-5.64,0" transform="translate(1.78 0.53)"/><line class="cls-1" x1="296.74" y1="250.42" x2="296.74" y2="251.86"/><path class="cls-1" d="M289.32,251.27a2.82,2.82,0,1,0,5.63,0" transform="translate(1.78 0.53)"/><line class="cls-1" x1="291.1" y1="251.86" x2="291.1" y2="250.42"/><path class="cls-1" d="M289.32,249.83a2.82,2.82,0,1,0-5.64,0" transform="translate(1.78 0.53)"/><line class="cls-1" x1="285.34" y1="250.42" x2="285.34" y2="253.3"/><path class="cls-1" d="M282.3,254.09a1.38,1.38,0,0,0,1.38-1.38" transform="translate(1.78 0.53)"/><line class="cls-1" x1="284.02" y1="254.74" x2="277.67" y2="254.74"/><path class="cls-1" d="M275.94,254.09a8.82,8.82,0,0,0-8.36,6" transform="translate(1.78 0.53)"/><line class="cls-1" x1="269.27" y1="260.74" x2="263.51" y2="278.01"/><path class="cls-1" d="M261.8,277.34a1.62,1.62,0,0,0-.07.44" transform="translate(1.78 0.53)"/><line class="cls-1" x1="263.39" y1="278.37" x2="263.39" y2="287.6"/><path class="cls-1" d="M260.35,288.39a1.38,1.38,0,0,0,1.38-1.38" transform="translate(1.78 0.53)"/><line class="cls-1" x1="262.07" y1="289.04" x2="253.56" y2="289.04"/><path class="cls-1" d="M251.6,288.37l.24,0" transform="translate(1.78 0.53)"/><line class="cls-1" x1="253.32" y1="288.92" x2="231.61" y2="285.2"/><path class="cls-1" d="M228.75,283.17a1.38,1.38,0,0,0,1.14,1.36" transform="translate(1.78 0.53)"/><line class="cls-1" x1="230.41" y1="283.77" x2="230.41" y2="271.41"/><path class="cls-1" d="M230.13,269.44a1.38,1.38,0,0,0-1.38,1.38" transform="translate(1.78 0.53)"/><line class="cls-1" x1="231.85" y1="269.97" x2="232.33" y2="269.97"/><path class="cls-1" d="M230.61,269.44a1,1,0,1,0,0-2" transform="translate(1.78 0.53)"/><line class="cls-1" x1="232.33" y1="268.05" x2="231.85" y2="268.05"/><path class="cls-1" d="M228.75,266a1.38,1.38,0,0,0,1.38,1.38" transform="translate(1.78 0.53)"/><line class="cls-1" x1="230.41" y1="266.61" x2="230.41" y2="230.39"/><path class="cls-1" d="M230.13,228.42a1.38,1.38,0,0,0-1.38,1.38" transform="translate(1.78 0.53)"/><line class="cls-1" x1="231.85" y1="228.95" x2="232.33" y2="228.95"/><path class="cls-1" d="M230.61,228.42a1,1,0,0,0,0-2" transform="translate(1.78 0.53)"/><line class="cls-1" x1="232.33" y1="226.91" x2="231.85" y2="226.91"/><path class="cls-1" d="M228.75,225a1.38,1.38,0,0,0,1.38,1.38" transform="translate(1.78 0.53)"/><line class="cls-1" x1="230.41" y1="225.6" x2="230.41" y2="204.73"/><path class="cls-1" d="M229.94,202.77a1.37,1.37,0,0,0-1.19,1.36" transform="translate(1.78 0.53)"/><line class="cls-1" x1="231.61" y1="203.41" x2="243" y2="201.73"/><path class="cls-1" d="M241.52,201.2h-.19" transform="translate(1.78 0.53)"/><line class="cls-1" x1="243.24" y1="201.73" x2="245.88" y2="201.73"/><path class="cls-1" d="M245.54,202.57a1.37,1.37,0,0,0-1.38-1.37" transform="translate(1.78 0.53)"/><line class="cls-1" x1="247.32" y1="203.17" x2="247.32" y2="207.6"/><path class="cls-1" d="M245.54,207a1,1,0,0,0,2,0" transform="translate(1.78 0.53)"/><line class="cls-1" x1="249.24" y1="207.6" x2="249.24" y2="203.17"/><path class="cls-1" d="M249,201.2a1.37,1.37,0,0,0-1.38,1.37" transform="translate(1.78 0.53)"/><line class="cls-1" x1="250.68" y1="201.73" x2="285.1" y2="201.73"/><path class="cls-1" d="M284.75,202.45a1.37,1.37,0,0,0-1.37-1.25" transform="translate(1.78 0.53)"/><path class="cls-1" d="M284.77,202.49a1.74,1.74,0,0,0,3.46,0" transform="translate(1.78 0.53)"/><path class="cls-1" d="M289.62,201.2a1.38,1.38,0,0,0-1.38,1.25" transform="translate(1.78 0.53)"/><path class="cls-1" d="M381.73,228.54a1.38,1.38,0,0,0,1.38-1.38" transform="translate(1.78 0.53)"/><line class="cls-1" x1="383.45" y1="229.19" x2="367.5" y2="229.19"/><path class="cls-1" d="M364.4,227.16a1.38,1.38,0,0,0,1.38,1.38" transform="translate(1.78 0.53)"/><line class="cls-1" x1="366.18" y1="227.75" x2="366.18" y2="212.28"/><path class="cls-1" d="M365.78,210.31a1.38,1.38,0,0,0-1.38,1.38" transform="translate(1.78 0.53)"/><line class="cls-1" x1="367.5" y1="210.84" x2="381.41" y2="210.84"/><path class="cls-1" d="M379.69,210.19a11.49,11.49,0,0,0,1.76-.13" transform="translate(1.78 0.53)"/><path class="cls-1" d="M383.11,211.45a1.42,1.42,0,0,0-.48-1,1.39,1.39,0,0,0-1.11-.31" transform="translate(1.78 0.53)"/><line class="cls-1" x1="384.89" y1="212.04" x2="384.89" y2="227.75"/><path class="cls-1" d="M348.59,289.32a1.43,1.43,0,0,0,.64.15" transform="translate(1.78 0.53)"/><path class="cls-1" d="M348.59,289.37a8.89,8.89,0,0,0-4-1" transform="translate(1.78 0.53)"/><line class="cls-1" x1="346.27" y1="289.04" x2="345.31" y2="289.04"/><path class="cls-1" d="M342.21,287a1.38,1.38,0,0,0,1.38,1.38" transform="translate(1.78 0.53)"/><line class="cls-1" x1="343.87" y1="287.6" x2="343.87" y2="233.63"/><path class="cls-1" d="M343.59,231.66a1.38,1.38,0,0,0-1.38,1.38" transform="translate(1.78 0.53)"/><line class="cls-1" x1="345.31" y1="232.19" x2="362.7" y2="232.19"/><path class="cls-1" d="M362.36,233a1.38,1.38,0,0,0-1.38-1.38" transform="translate(1.78 0.53)"/><line class="cls-1" x1="364.14" y1="233.63" x2="364.14" y2="288.68"/><path class="cls-1" d="M361,289.47a1.38,1.38,0,0,0,1.38-1.38" transform="translate(1.78 0.53)"/><line class="cls-1" x1="362.7" y1="290.12" x2="350.95" y2="290.12"/><line class="cls-1" x1="383.45" y1="290.12" x2="367.5" y2="290.12"/><path class="cls-1" d="M364.4,288.09a1.38,1.38,0,0,0,1.38,1.38" transform="translate(1.78 0.53)"/><line class="cls-1" x1="366.18" y1="288.68" x2="366.18" y2="233.63"/><path class="cls-1" d="M365.78,231.66A1.38,1.38,0,0,0,364.4,233" transform="translate(1.78 0.53)"/><line class="cls-1" x1="367.5" y1="232.19" x2="383.45" y2="232.19"/><path class="cls-1" d="M383.11,233a1.38,1.38,0,0,0-1.38-1.38" transform="translate(1.78 0.53)"/><line class="cls-1" x1="384.89" y1="233.63" x2="384.89" y2="288.68"/><path class="cls-1" d="M381.73,289.47a1.38,1.38,0,0,0,1.38-1.38" transform="translate(1.78 0.53)"/><path class="cls-1" d="M353.36,317a1.37,1.37,0,0,0,1.38,1.37" transform="translate(1.78 0.53)"/><line class="cls-1" x1="355.15" y1="317.59" x2="355.15" y2="297.8"/><path class="cls-1" d="M353.36,297.21a8.47,8.47,0,0,0-.08-1.23" transform="translate(1.78 0.53)"/><path class="cls-1" d="M354.62,294.39a1.37,1.37,0,0,0-1.36,1.57" transform="translate(1.78 0.53)"/><line class="cls-1" x1="356.34" y1="294.92" x2="383.45" y2="294.92"/><path class="cls-1" d="M383.11,295.77a1.38,1.38,0,0,0-1.38-1.38" transform="translate(1.78 0.53)"/><line class="cls-1" x1="384.89" y1="296.36" x2="384.89" y2="317.59"/><path class="cls-1" d="M381.73,318.37a1.37,1.37,0,0,0,1.38-1.37" transform="translate(1.78 0.53)"/><line class="cls-1" x1="383.45" y1="319.03" x2="356.46" y2="319.03"/><line class="cls-1" x1="369.54" y1="322.03" x2="383.45" y2="322.03"/><path class="cls-1" d="M383.11,322.87a1.38,1.38,0,0,0-1.38-1.38" transform="translate(1.78 0.53)"/><line class="cls-1" x1="384.89" y1="323.47" x2="384.89" y2="343.37"/><path class="cls-1" d="M381.73,344.16a1.38,1.38,0,0,0,1.38-1.38" transform="translate(1.78 0.53)"/><line class="cls-1" x1="383.45" y1="344.81" x2="362.46" y2="344.81"/><path class="cls-1" d="M359.36,342.78a1.38,1.38,0,0,0,1.38,1.38" transform="translate(1.78 0.53)"/><line class="cls-1" x1="361.02" y1="343.37" x2="361.02" y2="330.42"/><path class="cls-1" d="M359.36,329.83a7.37,7.37,0,0,0-5.53-7.14" transform="translate(1.78 0.53)"/><path class="cls-1" d="M353.9,321.37a.66.66,0,0,0-.16,1.3" transform="translate(1.78 0.53)"/><polyline class="cls-1" points="355.63 322.03 366.18 322.03 366.18 324.43"/><path class="cls-1" d="M364.4,323.83a1.74,1.74,0,1,0,3.48,0" transform="translate(1.78 0.53)"/><line class="cls-1" x1="369.54" y1="324.42" x2="369.54" y2="322.03"/><line class="cls-1" x1="242.76" y1="194.41" x2="354.67" y2="194.41"/><path class="cls-1" d="M352.94,193.76a2.81,2.81,0,0,0,2.69-2" transform="translate(1.78 0.53)"/><line class="cls-1" x1="357.42" y1="192.37" x2="358.38" y2="189.49"/><path class="cls-1" d="M356.58,188.82a.55.55,0,0,0-.08-.48.54.54,0,0,0-.44-.22" transform="translate(1.78 0.53)"/><line class="cls-1" x1="357.78" y1="188.77" x2="355.39" y2="188.77"/><path class="cls-1" d="M353.14,187.44a.53.53,0,0,0,.1.47.54.54,0,0,0,.42.21" transform="translate(1.78 0.53)"/><line class="cls-1" x1="354.79" y1="188.06" x2="355.87" y2="184.1"/><path class="cls-1" d="M355.46,182.49a1.37,1.37,0,0,0-1.33,1" transform="translate(1.78 0.53)"/><line class="cls-1" x1="357.18" y1="183.02" x2="366.18" y2="183.02"/><path class="cls-1" d="M365.77,184.28a1.37,1.37,0,0,0-1.31-1.79" transform="translate(1.78 0.53)"/><polyline class="cls-1" points="367.5 184.94 363.42 197.77 363.42 202.09"/><path class="cls-1" d="M361.76,201.5a1.37,1.37,0,0,0,1.38,1.37" transform="translate(1.78 0.53)"/><line class="cls-1" x1="364.86" y1="203.41" x2="381.41" y2="203.41"/><path class="cls-1" d="M379.69,202.87a4.25,4.25,0,0,0,4.26-4.25" transform="translate(1.78 0.53)"/><line class="cls-1" x1="385.73" y1="199.21" x2="385.73" y2="192.37"/><path class="cls-1" d="M384,191.78a2.22,2.22,0,0,0-2.22-2.22" transform="translate(1.78 0.53)"/><polyline class="cls-1" points="383.45 190.09 380.69 190.09 378.89 184.94"/><path class="cls-1" d="M378.61,182.49a1.37,1.37,0,0,0-1.31,1.8" transform="translate(1.78 0.53)"/><line class="cls-1" x1="380.33" y1="183.02" x2="390.17" y2="183.02"/><path class="cls-1" d="M391.26,185.3a2.81,2.81,0,0,0-2.81-2.81" transform="translate(1.78 0.53)"/><line class="cls-1" x1="393.05" y1="185.9" x2="393.05" y2="347.33"/><path class="cls-1" d="M385.69,352.44a5.7,5.7,0,0,0,5.69-5.7" transform="translate(1.78 0.53)"/><line class="cls-1" x1="387.41" y1="352.97" x2="343.51" y2="352.97"/><path class="cls-1" d="M340.41,351.06a1.38,1.38,0,0,0,1.38,1.38" transform="translate(1.78 0.53)"/><line class="cls-1" x1="342.07" y1="351.65" x2="342.07" y2="344.33"/><path class="cls-1" d="M341.1,342.55a1.36,1.36,0,0,0-.69,1.19" transform="translate(1.78 0.53)"/><line class="cls-1" x1="342.79" y1="343.13" x2="345.07" y2="341.82"/><path class="cls-1" d="M344.61,341.94a.9.9,0,0,0-1.35-.78" transform="translate(1.78 0.53)"/><line class="cls-1" x1="346.27" y1="342.54" x2="346.27" y2="345.05"/><path class="cls-1" d="M344.49,344.46a.9.9,0,0,0,.9.9" transform="translate(1.78 0.53)"/><line class="cls-1" x1="347.11" y1="345.89" x2="353.71" y2="345.89"/><path class="cls-1" d="M352,345.36a1.38,1.38,0,0,0,1.38-1.38" transform="translate(1.78 0.53)"/><line class="cls-1" x1="355.15" y1="344.57" x2="355.15" y2="330.42"/><path class="cls-1" d="M353.36,329.83a1.38,1.38,0,0,0-1.38-1.38" transform="translate(1.78 0.53)"/><line class="cls-1" x1="353.71" y1="328.98" x2="347.11" y2="328.98"/><path class="cls-1" d="M345.39,328.33a.9.9,0,0,0-.9.9" transform="translate(1.78 0.53)"/><line class="cls-1" x1="346.27" y1="329.82" x2="346.27" y2="332.34"/><path class="cls-1" d="M343.26,332.53a.9.9,0,0,0,1.35-.78" transform="translate(1.78 0.53)"/><line class="cls-1" x1="345.07" y1="333.06" x2="342.79" y2="331.74"/><path class="cls-1" d="M340.41,330a1.36,1.36,0,0,0,.69,1.19" transform="translate(1.78 0.53)"/><line class="cls-1" x1="342.07" y1="330.54" x2="342.07" y2="326.1"/><path class="cls-1" d="M341.79,324.13a1.38,1.38,0,0,0-1.38,1.38" transform="translate(1.78 0.53)"/><line class="cls-1" x1="343.51" y1="324.66" x2="346.27" y2="324.66"/><path class="cls-1" d="M344.55,324a1.38,1.38,0,0,0,1.38-1.38" transform="translate(1.78 0.53)"/><line class="cls-1" x1="347.71" y1="323.23" x2="347.71" y2="297.8"/><path class="cls-1" d="M345.93,297.21a1.38,1.38,0,0,0-1.38-1.38" transform="translate(1.78 0.53)"/><polyline class="cls-1" points="346.27 296.36 317 296.36 317 289.88 311.37 289.88 311.37 283.29 317 283.29 317 279.33 311.49 263.02"/><path class="cls-1" d="M309.76,262.47a1.38,1.38,0,0,0-1.31-1" transform="translate(1.78 0.53)"/><line class="cls-1" x1="310.17" y1="262.06" x2="302.01" y2="262.06"/><path class="cls-1" d="M295.45,261.43a2.82,2.82,0,0,0,4.88,0" transform="translate(1.78 0.53)"/><line class="cls-1" x1="297.1" y1="262.06" x2="290.74" y2="262.06"/><path class="cls-1" d="M284.06,261.43a2.82,2.82,0,0,0,4.88,0" transform="translate(1.78 0.53)"/><line class="cls-1" x1="285.82" y1="262.06" x2="277.67" y2="262.06"/><path class="cls-1" d="M275.94,261.52a1.36,1.36,0,0,0-1.3,1" transform="translate(1.78 0.53)"/><polyline class="cls-1" points="276.23 263.02 270.83 279.33 270.83 283.29 276.47 283.29 276.47 289.88 270.83 289.88 270.83 296.36 252.84 296.36 220.69 290.72 196.11 290.72"/><path class="cls-1" d="M193,288.69a1.38,1.38,0,0,0,1.38,1.38" transform="translate(1.78 0.53)"/><line class="cls-1" x1="194.79" y1="289.28" x2="194.79" y2="281.73"/><path class="cls-1" d="M193.46,280.36a.88.88,0,0,0-.45.77" transform="translate(1.78 0.53)"/><line class="cls-1" x1="195.15" y1="281.01" x2="197.67" y2="279.45"/><path class="cls-1" d="M197.32,279.57a.9.9,0,0,0-1.34-.77" transform="translate(1.78 0.53)"/><line class="cls-1" x1="198.99" y1="280.17" x2="198.99" y2="282.81"/><path class="cls-1" d="M197.2,282.21a.9.9,0,0,0,.9.9" transform="translate(1.78 0.53)"/><line class="cls-1" x1="199.83" y1="283.65" x2="206.42" y2="283.65"/><path class="cls-1" d="M204.7,283a1.38,1.38,0,0,0,1.38-1.38" transform="translate(1.78 0.53)"/><line class="cls-1" x1="207.74" y1="282.21" x2="207.74" y2="268.05"/><path class="cls-1" d="M206.08,267.46a1.38,1.38,0,0,0-1.38-1.38" transform="translate(1.78 0.53)"/><line class="cls-1" x1="206.42" y1="266.61" x2="199.83" y2="266.61"/><path class="cls-1" d="M198.1,266a.9.9,0,0,0-.9.9" transform="translate(1.78 0.53)"/><line class="cls-1" x1="198.99" y1="267.45" x2="198.99" y2="269.97"/><path class="cls-1" d="M196,270.16a.89.89,0,0,0,.89,0,.9.9,0,0,0,.45-.78" transform="translate(1.78 0.53)"/><line class="cls-1" x1="197.67" y1="270.81" x2="195.51" y2="269.49"/><path class="cls-1" d="M193,267.58a1.39,1.39,0,0,0,.69,1.2" transform="translate(1.78 0.53)"/><line class="cls-1" x1="194.79" y1="268.17" x2="194.79" y2="263.74"/><path class="cls-1" d="M194.39,261.76a1.38,1.38,0,0,0-1.38,1.38" transform="translate(1.78 0.53)"/><line class="cls-1" x1="196.11" y1="262.42" x2="198.99" y2="262.42"/><path class="cls-1" d="M197.26,261.76a1.37,1.37,0,0,0,1.38-1.38" transform="translate(1.78 0.53)"/><line class="cls-1" x1="200.43" y1="260.98" x2="200.43" y2="253.42"/><path class="cls-1" d="M198.64,252.83a1.38,1.38,0,0,0-.79-1.25" transform="translate(1.78 0.53)"/><line class="cls-1" x1="199.59" y1="252.1" x2="176.32" y2="241.31"/><path class="cls-1" d="M174.58,240.66a1.43,1.43,0,0,0-.58-.12" transform="translate(1.78 0.53)"/><polyline class="cls-1" points="175.72 241.07 171.28 241.07 171.28 250.18 166.36 251.02 166.36 241.07 138.9 241.07 138.9 247.06 140.7 246.82 140.7 249.58 132.42 251.02 132.42 145.48"/><path class="cls-1" d="M137.17,136.68a8.45,8.45,0,0,0-6.41,8.2" transform="translate(1.78 0.53)"/><line class="cls-1" x1="138.9" y1="137.32" x2="182.31" y2="126.41"/><path class="cls-1" d="M181.73,126.65a.88.88,0,0,0-.34-.7.87.87,0,0,0-.77-.17" transform="translate(1.78 0.53)"/><polyline class="cls-1" points="183.39 127.25 183.39 135.88 180.4 137.56"/><path class="cls-1" d="M177.42,136.25a.89.89,0,0,0,1.34.78" transform="translate(1.78 0.53)"/><line class="cls-1" x1="179.2" y1="136.84" x2="179.2" y2="134.32"/><path class="cls-1" d="M177.53,133.73a.89.89,0,0,0-.89-.9" transform="translate(1.78 0.53)"/><path class="cls-1" d="M176.64,132.83a8,8,0,0,0-8,8" transform="translate(1.78 0.53)"/><line class="cls-1" x1="170.44" y1="141.4" x2="170.44" y2="149.08"/><path class="cls-1" d="M168.66,148.48a1.38,1.38,0,0,0,1.38,1.38" transform="translate(1.78 0.53)"/><line class="cls-1" x1="171.76" y1="150.51" x2="178.36" y2="150.51"/><path class="cls-1" d="M176.64,150a.89.89,0,0,0,.89-.9" transform="translate(1.78 0.53)"/><line class="cls-1" x1="179.2" y1="149.67" x2="179.2" y2="147.04"/><path class="cls-1" d="M178.76,145.66a.9.9,0,0,0-.9,0,.92.92,0,0,0-.44.78" transform="translate(1.78 0.53)"/><polyline class="cls-1" points="180.4 146.32 183.39 148.12 183.39 175.1"/><path class="cls-1" d="M181.49,175.08a1.39,1.39,0,0,0,.12-.57" transform="translate(1.78 0.53)"/><line class="cls-1" x1="183.27" y1="175.7" x2="179.8" y2="183.38"/><path class="cls-1" d="M178,182.87a12.77,12.77,0,0,0,13.4,18" transform="translate(1.78 0.53)"/><line class="cls-1" x1="193.11" y1="201.37" x2="242.52" y2="194.41"/><path class="cls-1" d="M189.92,208.27a20.22,20.22,0,0,0,2.46-.19" transform="translate(1.78 0.53)"/><line class="cls-1" x1="194.19" y1="208.68" x2="204.14" y2="207.25"/><path class="cls-1" d="M204,208.09a1.37,1.37,0,0,0-1.57-1.36" transform="translate(1.78 0.53)"/><line class="cls-1" x1="205.82" y1="208.68" x2="205.82" y2="244.79"/><path class="cls-1" d="M201.93,245.36a1.38,1.38,0,0,0,2.11-1.17" transform="translate(1.78 0.53)"/><path class="cls-1" d="M201.92,245.34a10.36,10.36,0,0,0-.93-.5" transform="translate(1.78 0.53)"/><line class="cls-1" x1="202.7" y1="245.39" x2="179.44" y2="234.59"/><path class="cls-1" d="M177.72,233.92a9.54,9.54,0,0,0-1.8-.61" transform="translate(1.78 0.53)"/><path class="cls-1" d="M175.1,231.24a1.39,1.39,0,0,0,.87,2.07" transform="translate(1.78 0.53)"/><line class="cls-1" x1="176.8" y1="231.83" x2="190.47" y2="209.52"/><path class="cls-1" d="M189.93,208.27a1.4,1.4,0,0,0-1.16.66" transform="translate(1.78 0.53)"/><path class="cls-1" d="M193,268.78a.29.29,0,0,0,.3.3" transform="translate(1.78 0.53)"/><path class="cls-1" d="M192.84,289.23a.28.28,0,0,0,.23-.13.27.27,0,0,0,0-.26" transform="translate(1.78 0.53)"/><path class="cls-1" d="M340.34,342.69a.48.48,0,0,0,0,.17" transform="translate(1.78 0.53)"/><path class="cls-1" d="M340.83,342.36a.53.53,0,0,0-.49.33" transform="translate(1.78 0.53)"/><path class="cls-1" d="M340.29,331a.31.31,0,0,0,.3.3" transform="translate(1.78 0.53)"/><path class="cls-1" d="M340.12,351.6a.32.32,0,0,0,.24-.13.34.34,0,0,0,0-.26" transform="translate(1.78 0.53)"/><line class="cls-1" x1="342.07" y1="351.77" x2="341.59" y2="350.21"/><path class="cls-1" d="M339.82,348.53a2.78,2.78,0,0,0,.13,1.11" transform="translate(1.78 0.53)"/></g><g id="stal"><path class="cls-2" d="M277.82,421.82a4.55,4.55,0,0,1-4.58,4.49H191v5.79h82.21a10.37,10.37,0,0,0,10.25-10.43V366.52h0v-.06a10.31,10.31,0,0,0-10.31-10.3l-10.3.12a7.83,7.83,0,0,1-2.41-.37l-9.89-3.25a8.25,8.25,0,0,0-2.47-.36H194.17a10.26,10.26,0,0,0-10.37,10.18l0,.06.15,69.56h5.67V362.54h0v-.06a4.52,4.52,0,0,1,4.52-4.52h53.7a4.42,4.42,0,0,1,1.34.22l0,0,11,3.62-.07,0a4.31,4.31,0,0,0,1.34.14h11.81a4.68,4.68,0,0,1,4.64,4.58v55.21" transform="translate(1.78 0.53)"/><path class="cls-2" d="M256,215.26a4.7,4.7,0,0,1-1.39.22H242.87a4.5,4.5,0,0,0-4.51,4.5l-.12.06v55l.12-.06a4.5,4.5,0,0,0,4.51,4.5l-.07.12h16.95v5.65H242.87A10.27,10.27,0,0,1,232.59,275V220a10.27,10.27,0,0,1,10.28-10.27l-.07.12h10a10,10,0,0,0,3.17-.51l-.11,0,9.14-3v-.09a10.13,10.13,0,0,1,3.18-.51l-.06.12h53.47l.06-.12A10.28,10.28,0,0,1,332,216l-.12.06v69.21H326.2V216a4.51,4.51,0,0,0-4.51-4.51H268.22a4.39,4.39,0,0,0-1.39.22v0l-10.94,3.61" transform="translate(1.78 0.53)"/></g><g id="uszczelki"><path class="cls-3" d="M191.51,120.76c-.1-.43-.54-1.43-2.17-.86l-6.63,4.34c-.16.09-1,.35-1,1l-.1,10.39a.3.3,0,0,1-.3.3h-5.06a.31.31,0,0,1-.3-.26v0l-.12-.61a.61.61,0,0,0-.25-.39.52.52,0,0,0-.44-.06,5.94,5.94,0,0,0-1,.38.19.19,0,0,0-.15-.11.23.23,0,0,0-.18,0,7.3,7.3,0,0,0-3.58,4.08.33.33,0,0,0,0,.22c0,.07.06.07.14.09a7,7,0,0,0,0,4.35.29.29,0,0,0-.16.13.37.37,0,0,0,0,.27,7.1,7.1,0,0,0,3.56,4,.29.29,0,0,0,.24,0,.65.65,0,0,0,.22-.25,8.35,8.35,0,0,0,.88.32h0a.56.56,0,0,0,.44-.06.52.52,0,0,0,.24-.37l.13-.5a.31.31,0,0,1,.3-.25h5.09a.3.3,0,0,1,.25.14.33.33,0,0,1,0,.29l-.74,1.73a.81.81,0,0,0,.08.79.9.9,0,0,0,.76.41H183a.89.89,0,0,0,.9-.86l.48-9.7a1.54,1.54,0,0,1,.67-1.17,1.27,1.27,0,0,1,1.2-.16h0l.89-.05a7.21,7.21,0,0,0,2.75-1.47,5.19,5.19,0,0,0,1.75-4.18l-.05-11A3.27,3.27,0,0,0,191.51,120.76Zm-14.53,23,0,0-4.32-.24h.06a.91.91,0,0,1-.76-.67v0a6,6,0,0,1,0-2.74V140a.94.94,0,0,1,.76-.67l-.06,0,4.32-.48h0a4,4,0,0,1,4.16,2.3h0a.28.28,0,0,1,0,.25h0A4,4,0,0,1,177,143.78Zm12.1-18.7v9.12l0,0a1.61,1.61,0,0,1-1.64,1.42h0a1.17,1.17,0,0,1-.92-.5,1.72,1.72,0,0,1-.16-1,.52.52,0,0,0-.51-.35l-.56-.11c-.13.08,0-.2-.1-.23h0l-.12-.07-.07,0-.07-.09-.15-.11a2.52,2.52,0,0,1-.18-.65l0,0v-6.44a.55.55,0,0,1,.39-.52h0l3.37-2.16.06,0c.61-.29.78.34.78.51v1.2Z" transform="translate(1.78 0.53)"/><path class="cls-3" d="M322.9,133.6v15.61l-5.4,3a3.13,3.13,0,0,0-1.32,2.47,3.4,3.4,0,0,0,1.32,2.46l7.08,4.08V128.68l-1.44-2.88-.36-.57a17.86,17.86,0,0,1-3.82-7.82s-.31-1.35-1.28-1.43a1.59,1.59,0,0,0-1.62.93v3.25a32.22,32.22,0,0,0,1.59,4.58s2.87,6.21,5.33,8.7" transform="translate(1.78 0.53)"/><polygon class="cls-4" points="113.47 234.71 113.35 234.71 113.59 234.71 113.47 234.71"/><polygon class="cls-5" points="113.47 234.71 113.35 234.71 113.59 234.71 113.47 234.71"/><polygon class="cls-4" points="113.35 247.78 113.59 247.78 113.47 247.78 113.35 247.78"/><polygon class="cls-4" points="113.11 247.66 113.35 247.78 113.59 247.78 113.11 247.66"/><polygon class="cls-5" points="113.35 247.78 113.59 247.78 113.47 247.78 113.35 247.78"/><polygon class="cls-5" points="113.11 247.66 113.35 247.78 113.59 247.78 113.11 247.66"/><polygon class="cls-4" points="113.11 247.66 113.71 247.66 113.59 247.78 113.11 247.66"/><polygon class="cls-5" points="113.11 247.66 113.71 247.66 113.59 247.78 113.11 247.66"/><path class="cls-3" d="M108.07,238.39h0s.06,0,.1.06h0Z" transform="translate(1.78 0.53)"/><path class="cls-3" d="M130.08,220.3a1.4,1.4,0,0,0-1.22-.22l0-.05-8.52,2.63,0-.06a1.38,1.38,0,0,0-1,1.32v10.8a.31.31,0,0,1-.3.3h-5.16a.31.31,0,0,1-.3-.25h0l-.12-.48.11-.15a.52.52,0,0,0-.24-.37.56.56,0,0,0-.44-.06v0a6.36,6.36,0,0,0-1,.35.44.44,0,0,0-.14-.13.31.31,0,0,0-.23,0v0a7.28,7.28,0,0,0-3.58,4.07l0,0a.31.31,0,0,0,0,.23s0,0,.07.06h.1s0,.05,0,.08l0,0,0,0a6.74,6.74,0,0,0-.29,1.73l-.13.11-.36.24.36.35.13-.13a6.86,6.86,0,0,0,.36,2l-.07,0a.3.3,0,0,0-.15.12.31.31,0,0,0,0,.23l0,0a7.28,7.28,0,0,0,3.58,4.07v0a.29.29,0,0,0,.24,0,.26.26,0,0,0,.17-.15l0-.18a7.08,7.08,0,0,0,.88.31v.14a.56.56,0,0,0,.44-.06.52.52,0,0,0,.24-.37l-.11,0,.12-.48v-.11a.31.31,0,0,1,.3-.25l-.06.12h5l.06-.12a.42.42,0,0,1,.42.42v2.76a.29.29,0,0,0,.29.3h1.68a.9.9,0,0,0,.9-.9l-.12.06v-9.47l.13,0a1.37,1.37,0,0,1,1.7-1.25l0,0,1.56.6,0-.13a3.79,3.79,0,0,0,5.13-3.46V221.4A1.38,1.38,0,0,0,130.08,220.3Zm-15.36,22.6-.15.15-4.32-.36h.07a.91.91,0,0,1-.76-.67V242a6.38,6.38,0,0,1,0-2.75v.07a.91.91,0,0,1,.76-.67l-.07.12,4.32-.6.15,0a4,4,0,0,1,4.14,2.27s0-.06,0-.09v.11s0,0,0,0a.43.43,0,0,1,0,.16h0A4,4,0,0,1,114.72,242.9Zm13.16-8.66a.93.93,0,0,1-.25.63v-.07a1.41,1.41,0,0,1-1,.46,1.38,1.38,0,0,1-1.14-.61l-.18,0a2.24,2.24,0,0,0-1.44-1.05l-.06.07-1-.24v0a.91.91,0,0,1-.71-.88V225.3l.12-.06a.53.53,0,0,1,.39-.51l0,0,4.44-1.32.15-.09a.54.54,0,0,1,.69.51l-.12.06V234.3Z" transform="translate(1.78 0.53)"/><path class="cls-3" d="M108.1,242.75h.05s0,0,0,0A.18.18,0,0,0,108.1,242.75Z" transform="translate(1.78 0.53)"/><path class="cls-3" d="M350.88,334.68a8.22,8.22,0,0,0-3.38-4.32l-1-.36-.44.12-.22.36v.6l-.1.12-.22.12h-4.7l-.11-.12-.11-.24v-2.52l-.11-.48-.44-.12h-1l-.66.24-.44.48-.22.72.55,4.08.11,4.08-.22,4.2-.65,1.57-1,1.32-.87.36-1,.12-.87.6-.55.84-.22,1.08v.24h-.33l-.76-.6-.33-.48-.11-.48V337l.22-1.56.66-1.56,1-1.2,1-.72.44-.48.22-.6-.22-.72-.44-.6-.54-.24-.66.24-.76.48-.77.6-1.09,1.32-.88,1.56-.54,1.68L329,337v14.53l.11.36.43.24,10.83-.6.22-.12v-.48l-.33-1.32-.22-1.08.55-5.76.43-.36h4.71l.1.24v.6l.22.36h.44l1-.36a8.27,8.27,0,0,0,3.38-4.33l.33-2ZM349.46,338l-.22.48-.43.24-3.94.48h-1.09l-1.1-.48-1-.72-.55-1.08v-.24l.55-1.08,1-.72,1.1-.48H345l3.83.24.43.24.22.48.11,1.32Z" transform="translate(1.78 0.53)"/><path class="cls-3" d="M203.72,272.31a8.27,8.27,0,0,0-3.39-4.32l-1-.36-.44.12-.21.36v.6l-.11.12-.22.12h-4.7l-.11-.12-.11-.24v-2.52l-.11-.48-.44-.12h-1l-.66.24-.44.48-.22.72.55,4.08.11,4.08-.22,4.21-.65,1.56-1,1.32-.87.36-1,.12-.87.6-.55.84-.22,1.08v.24h-.33l-.76-.6-.33-.48-.11-.48v-9.25l.22-1.56.66-1.56,1-1.2,1-.72.44-.48.22-.6-.22-.72-.44-.6-.54-.24-.66.24-.76.48-.77.6-1.09,1.32-.88,1.56-.54,1.68-.11,1.8v14.53l.11.36.43.24,10.83-.6.22-.12v-.48l-.33-1.32-.22-1.08.55-5.76.43-.36h4.71l.11.24v.6l.21.36h.44l1-.36a8.27,8.27,0,0,0,3.39-4.32l.32-2Zm-1.43,3.36-.21.48-.44.24-3.94.49h-1.09l-1.1-.49-1-.72-.55-1.08v-.24l.55-1.08,1-.72,1.1-.48h1.2l3.83.24.44.24.21.48.11,1.32Z" transform="translate(1.78 0.53)"/></g><g id="szklenie"><g id="LWPOLYLINE"><polyline class="cls-6" points="250.53 168.59 250.53 150.16 243.97 157.25 209.9 157.25 203.34 150.16 203.34 168.59 250.53 168.59"/></g><g id="HATCH"><line class="cls-7" x1="203.34" y1="154.26" x2="205.23" y2="152.21"/><line class="cls-7" x1="203.34" y1="160.62" x2="208.18" y2="155.39"/><line class="cls-7" x1="203.34" y1="166.98" x2="212.34" y2="157.25"/><line class="cls-7" x1="207.74" y1="168.59" x2="218.23" y2="157.25"/><line class="cls-7" x1="213.63" y1="168.59" x2="224.11" y2="157.25"/><line class="cls-7" x1="219.51" y1="168.59" x2="230" y2="157.25"/><line class="cls-7" x1="225.4" y1="168.59" x2="235.89" y2="157.25"/><line class="cls-7" x1="231.28" y1="168.59" x2="241.77" y2="157.25"/><line class="cls-7" x1="237.17" y1="168.59" x2="250.53" y2="154.14"/><line class="cls-7" x1="243.06" y1="168.59" x2="250.53" y2="160.51"/><line class="cls-7" x1="248.94" y1="168.59" x2="250.53" y2="166.87"/><line class="cls-7" x1="207.56" y1="168.59" x2="203.34" y2="164.03"/><line class="cls-7" x1="213.44" y1="168.59" x2="203.34" y2="157.67"/><line class="cls-7" x1="219.33" y1="168.59" x2="203.34" y2="151.3"/><line class="cls-7" x1="225.21" y1="168.59" x2="214.73" y2="157.25"/><line class="cls-7" x1="231.1" y1="168.59" x2="220.61" y2="157.25"/><line class="cls-7" x1="236.98" y1="168.59" x2="226.5" y2="157.25"/><line class="cls-7" x1="242.87" y1="168.59" x2="232.38" y2="157.25"/><line class="cls-7" x1="248.76" y1="168.59" x2="238.27" y2="157.25"/><line class="cls-7" x1="250.53" y1="164.14" x2="244.07" y2="157.15"/><line class="cls-7" x1="250.53" y1="157.78" x2="247.01" y2="153.97"/><line class="cls-7" x1="250.53" y1="151.42" x2="249.95" y2="150.79"/></g><g id="LWPOLYLINE-2" data-name="LWPOLYLINE"><polygon class="cls-8" points="250.53 138.83 250.53 150.16 243.98 157.25 209.9 157.25 203.34 150.16 203.34 138.83 226.59 138.83 226.94 139.06 227.28 138.83 250.53 138.83"/></g><g id="LWPOLYLINE-3" data-name="LWPOLYLINE"><polygon class="cls-8" points="247.91 141.66 247.91 148.99 242.89 154.42 210.98 154.42 205.96 148.99 205.96 141.66 247.91 141.66"/></g><g id="HATCH-2" data-name="HATCH"><polygon class="cls-9" points="205.96 141.66 205.96 148.99 210.98 154.42 242.89 154.42 247.91 148.99 247.91 141.66 205.96 141.66"/><path class="cls-8" d="M204.18,141.17h0m.16,0h0m2.09,0h0m2.08,0h0m2.08,0h0m2.08,0h0m2.08,0h0m2.08,0h0m2.08,0h0m2.08,0h0m2.08,0h0m2.08,0h0m2.08,0h0m2.09,0h0m2.08,0h0m2.08,0h0m2.08,0h0m2.08,0h0m2.08,0h0m2.08,0h0m2.08,0h0m2.08,0h0m-41.78,2.25h0m1.21,0h0m2.08,0h0m2.08,0h0m2.08,0h0m2.08,0h0m2.08,0h0m2.08,0h0m2.08,0h0m2.08,0h0m2.08,0h0m2.08,0h0m2.08,0h0m2.09,0h0m2.08,0h0m2.08,0h0m2.08,0h0m2.08,0h0m2.08,0h0m2.08,0h0m2.08,0h0m-40.74,2.25h0m.16,0h0m2.09,0h0m2.08,0h0m2.08,0h0m2.08,0h0m2.08,0h0m2.08,0h0m2.08,0h0m2.08,0h0m2.08,0h0m2.08,0h0m2.08,0h0m2.09,0h0m2.08,0h0m2.08,0h0m2.08,0h0m2.08,0h0m2.08,0h0m2.08,0h0m2.08,0h0m2.08,0h0m-41.78,2.25h0m1.21,0h0m2.08,0h0m2.08,0h0m2.08,0h0m2.08,0h0m2.08,0h0m2.08,0h0m2.08,0h0m2.08,0h0m2.08,0h0m2.08,0h0m2.08,0h0m2.09,0h0m2.08,0h0m2.08,0h0m2.08,0h0m2.08,0h0m2.08,0h0m2.08,0h0m2.08,0h0m-39.15,2.25h0m.66,0h0m2.08,0h0m2.08,0h0m2.08,0h0m2.08,0h0m2.08,0h0m2.08,0h0m2.08,0h0m2.08,0h0m2.08,0h0m2.08,0h0m2.09,0h0m2.08,0h0m2.08,0h0m2.08,0h0m2.08,0h0m2.08,0h0m2.08,0h0m2.08,0h0m-36,2.25h0m1.7,0h0m2.08,0h0m2.08,0h0m2.08,0h0m2.08,0h0m2.08,0h0m2.08,0h0m2.08,0h0m2.08,0h0m2.08,0h0m2.09,0h0m2.08,0h0m2.08,0h0m2.08,0h0m2.08,0h0m2.08,0h0" transform="translate(1.78 0.53)"/></g><g id="LWPOLYLINE-4" data-name="LWPOLYLINE"><polyline class="cls-6" points="308.2 168.59 308.2 150.16 301.65 157.25 267.57 157.25 261.02 150.16 261.02 168.59 308.2 168.59"/></g><g id="HATCH-3" data-name="HATCH"><line class="cls-7" x1="261.02" y1="154.26" x2="262.91" y2="152.21"/><line class="cls-7" x1="261.02" y1="160.62" x2="265.85" y2="155.39"/><line class="cls-7" x1="261.02" y1="166.98" x2="270.02" y2="157.25"/><line class="cls-7" x1="265.42" y1="168.59" x2="275.9" y2="157.25"/><line class="cls-7" x1="271.3" y1="168.59" x2="281.79" y2="157.25"/><line class="cls-7" x1="277.19" y1="168.59" x2="287.67" y2="157.25"/><line class="cls-7" x1="283.07" y1="168.59" x2="293.56" y2="157.25"/><line class="cls-7" x1="288.96" y1="168.59" x2="299.45" y2="157.25"/><line class="cls-7" x1="294.84" y1="168.59" x2="308.2" y2="154.14"/><line class="cls-7" x1="300.73" y1="168.59" x2="308.2" y2="160.51"/><line class="cls-7" x1="306.62" y1="168.59" x2="308.2" y2="166.87"/><line class="cls-7" x1="265.23" y1="168.59" x2="261.02" y2="164.03"/><line class="cls-7" x1="271.12" y1="168.59" x2="261.02" y2="157.67"/><line class="cls-7" x1="277" y1="168.59" x2="261.02" y2="151.3"/><line class="cls-7" x1="282.89" y1="168.59" x2="272.4" y2="157.25"/><line class="cls-7" x1="288.77" y1="168.59" x2="278.29" y2="157.25"/><line class="cls-7" x1="294.66" y1="168.59" x2="284.17" y2="157.25"/><line class="cls-7" x1="300.54" y1="168.59" x2="290.06" y2="157.25"/><line class="cls-7" x1="306.43" y1="168.59" x2="295.94" y2="157.25"/><line class="cls-7" x1="308.2" y1="164.14" x2="301.74" y2="157.15"/><line class="cls-7" x1="308.2" y1="157.78" x2="304.68" y2="153.97"/><line class="cls-7" x1="308.2" y1="151.42" x2="307.63" y2="150.79"/></g><g id="LWPOLYLINE-5" data-name="LWPOLYLINE"><polygon class="cls-8" points="308.2 138.83 308.2 150.16 301.65 157.25 267.57 157.25 261.02 150.16 261.02 138.83 284.26 138.83 284.61 139.06 284.96 138.83 308.2 138.83"/></g><g id="LWPOLYLINE-6" data-name="LWPOLYLINE"><polygon class="cls-8" points="305.58 141.66 305.58 148.99 300.56 154.42 268.66 154.42 263.64 148.99 263.64 141.66 305.58 141.66"/></g><g id="HATCH-4" data-name="HATCH"><polygon class="cls-9" points="263.64 141.66 263.64 148.99 268.66 154.42 300.56 154.42 305.58 148.99 305.58 141.66 263.64 141.66"/><path class="cls-8" d="M261.86,141.17h0m.16,0h0m2.08,0h0m2.08,0h0m2.08,0h0m2.08,0h0m2.08,0h0m2.08,0h0m2.09,0h0m2.08,0h0m2.08,0h0m2.08,0h0m2.08,0h0m2.08,0h0m2.08,0h0m2.08,0h0m2.08,0h0m2.08,0h0m2.08,0h0m2.09,0h0m2.08,0h0m2.08,0h0m-41.78,2.25h0m1.2,0h0m2.08,0h0m2.08,0h0m2.08,0h0m2.08,0h0m2.08,0h0m2.09,0h0m2.08,0h0m2.08,0h0m2.08,0h0m2.08,0h0m2.08,0h0m2.08,0h0m2.08,0h0m2.08,0h0m2.08,0h0m2.08,0h0m2.08,0h0m2.09,0h0m2.08,0h0m-40.74,2.25h0m.16,0h0m2.08,0h0m2.08,0h0m2.08,0h0m2.08,0h0m2.08,0h0m2.08,0h0m2.09,0h0m2.08,0h0m2.08,0h0m2.08,0h0m2.08,0h0m2.08,0h0m2.08,0h0m2.08,0h0m2.08,0h0m2.08,0h0m2.08,0h0m2.09,0h0m2.08,0h0m2.08,0h0m-41.78,2.25h0m1.2,0h0m2.08,0h0m2.08,0h0m2.08,0h0m2.08,0h0m2.08,0h0m2.09,0h0m2.08,0h0m2.08,0h0m2.08,0h0m2.08,0h0m2.08,0h0m2.08,0h0m2.08,0h0m2.08,0h0m2.08,0h0m2.08,0h0m2.08,0h0m2.09,0h0m2.08,0h0m-39.16,2.25h0m.66,0h0m2.08,0h0m2.08,0h0m2.08,0h0m2.08,0h0m2.08,0h0m2.09,0h0m2.08,0h0m2.08,0h0m2.08,0h0m2.08,0h0m2.08,0h0m2.08,0h0m2.08,0h0m2.08,0h0m2.08,0h0m2.08,0h0m2.09,0h0m2.08,0h0m-36,2.25h0m1.7,0h0m2.08,0h0m2.08,0h0m2.08,0h0m2.09,0h0m2.08,0h0m2.08,0h0m2.08,0h0m2.08,0h0m2.08,0h0m2.08,0h0m2.08,0h0m2.08,0h0m2.08,0h0m2.08,0h0m2.08,0h0" transform="translate(1.78 0.53)"/></g><g id="LWPOLYLINE-7" data-name="LWPOLYLINE"><rect class="cls-10" x="192.86" y="72" width="10.49" height="96.59"/></g><g id="LWPOLYLINE-8" data-name="LWPOLYLINE"><rect class="cls-10" x="250.53" y="72" width="10.49" height="96.59"/></g><g id="LWPOLYLINE-9" data-name="LWPOLYLINE"><rect class="cls-10" x="308.2" y="72" width="10.49" height="96.59"/></g><line class="cls-7" x1="272.05" y1="71.88" x2="239.96" y2="71.88"/><line class="cls-7" x1="227.42" y1="71.88" x2="227.52" y2="72"/><line class="cls-7" x1="214.87" y1="71.88" x2="182.88" y2="71.88"/><line class="cls-7" x1="329.03" y1="71.88" x2="296.93" y2="71.88"/><line class="cls-7" x1="284.39" y1="71.88" x2="284.49" y2="72"/><line class="cls-7" x1="271.84" y1="71.88" x2="239.86" y2="71.88"/><rect class="cls-11" x="187.99" y="168.73" width="150.37" height="14.29"/><polyline class="cls-1" points="187.99 183.02 187.99 168.73 338.35 168.73 187.99 183.02 338.35 183.02 187.99 168.73 338.35 168.73 338.35 183.02"/></g><g id="podkładka"><path class="cls-12" d="M185,162.7h1.44v19.79H344.49v2.88H350l3.44,3.24.36.6v.72l-.36.72-3.35,3.24H338.85v-6.6h-8.51v6.6H302v-6.6H288.36v6.6h-4.2v-6.6H272.89v6.6H244.46v-6.6H221.79v9.11l-28.3,4v-8.15h-15s-1.67-.79-1.67-5,1.55-4.7,1.55-4.7H185Z" transform="translate(1.78 0.53)"/><line class="cls-1" x1="189.03" y1="183.02" x2="188.19" y2="183.02"/><polyline class="cls-1" points="186.75 163.24 186.75 187.82 340.63 187.82"/><line class="cls-1" x1="346.27" y1="194.42" x2="346.27" y2="183.02"/><polyline class="cls-1" points="188.19 192.74 180.28 192.74 180.16 192.62 180.04 192.62 179.92 192.62 179.8 192.5 179.68 192.38 179.56 192.26 179.56 192.14 179.44 191.9 179.32 191.78 179.2 191.54 179.2 191.3 179.08 191.06 178.96 190.82 178.96 190.58 178.84 190.34 178.84 190.1 178.72 189.86 178.72 189.62 178.72 189.26 178.72 189.02 178.6 188.78 178.6 188.42 178.6 188.18 178.6 187.82 178.6 187.58 178.6 187.34 178.6 186.98 178.72 186.74 178.72 186.5 178.72 186.14 178.72 185.9 178.84 185.66 178.84 185.42 178.96 185.18 178.96 184.94 179.08 184.7 179.2 184.46 179.2 184.22 179.32 183.98 179.44 183.86 179.44 183.62 179.56 183.5 179.68 183.38 179.8 183.26 179.92 183.14 180.04 183.14 180.16 183.02 180.28 183.02 186.75 183.02"/><polyline class="cls-1" points="188.19 183.02 188.19 163.24 186.75 163.24"/><polyline class="cls-1" points="290.14 187.82 290.14 194.42 285.94 194.42 285.94 187.82"/><polyline class="cls-1" points="332.12 187.82 332.12 194.42 303.81 194.42"/><line class="cls-1" x1="303.81" y1="187.82" x2="303.81" y2="194.42"/><polyline class="cls-1" points="246.24 187.82 246.24 194.42 274.67 194.42 274.67 187.82"/><line class="cls-1" x1="223.57" y1="196.94" x2="195.27" y2="200.9"/><polyline class="cls-1" points="346.27 185.9 351.91 185.9 355.26 189.14 355.63 189.74 355.63 190.46 355.26 191.18 351.91 194.42 346.27 194.42"/><polyline class="cls-1" points="340.63 187.82 340.63 194.42 346.27 194.42"/><polyline class="cls-1" points="195.27 192.74 191.07 192.74 191.07 187.82"/><polyline class="cls-1" points="191.07 192.74 188.19 192.74 188.19 187.82"/><line class="cls-1" x1="195.27" y1="200.9" x2="195.27" y2="187.82"/><line class="cls-1" x1="223.57" y1="196.94" x2="223.57" y2="187.82"/><line class="cls-1" x1="346.27" y1="183.02" x2="188.19" y2="183.02"/></g><g id="wymiary"><line class="cls-13" x1="181.54" y1="126.01" x2="10.21" y2="126.01"/><line class="cls-13" x1="69.88" y1="517.2" x2="10.15" y2="517.2"/><line class="cls-13" x1="119.65" y1="225.16" x2="38.61" y2="225.16"/><line class="cls-13" x1="41.39" y1="233.75" x2="41.39" y2="508.72"/><polygon class="cls-14" points="40.03 233.75 42.86 233.75 41.39 225.16 40.03 233.75"/><polygon class="cls-14" points="42.86 508.72 40.03 508.72 41.39 517.2 42.86 508.72"/><text class="cls-15" transform="translate(38.39 378.17) rotate(-90)">103</text><line class="cls-13" x1="13.04" y1="134.49" x2="13.04" y2="508.72"/><polygon class="cls-14" points="11.57 134.49 14.4 134.49 13.04 126.01 11.57 134.49"/><polygon class="cls-14" points="14.4 508.72 11.57 508.72 13.04 517.2 14.4 508.72"/><text class="cls-15" transform="translate(10.04 328.53) rotate(-90)">138</text><line class="cls-13" x1="41.39" y1="134.49" x2="41.39" y2="216.68"/><polygon class="cls-14" points="40.03 134.49 42.86 134.49 41.39 126.01 40.03 134.49"/><polygon class="cls-14" points="42.86 216.68 40.03 216.68 41.39 225.16 42.86 216.68"/><text class="cls-15" transform="translate(38.39 180.21) rotate(-90)">35</text><line class="cls-13" x1="69.88" y1="517.28" x2="69.88" y2="548.55"/><line class="cls-13" x1="330.8" y1="517.28" x2="330.8" y2="548.55"/><line class="cls-13" x1="78.36" y1="545.77" x2="322.32" y2="545.77"/><polygon class="cls-14" points="78.36 547.13 78.36 544.3 69.88 545.77 78.36 547.13"/><polygon class="cls-14" points="322.32 544.3 322.32 547.13 330.8 545.77 322.32 544.3"/><text class="cls-15" transform="translate(195.72 542.77)">92</text><line class="cls-13" x1="330.8" y1="517.33" x2="452.62" y2="517.33"/><line class="cls-13" x1="338.35" y1="168.93" x2="452.62" y2="168.93"/><line class="cls-13" x1="391.77" y1="352.93" x2="424.28" y2="352.93"/><line class="cls-13" x1="392.04" y1="183.05" x2="424.22" y2="183.05"/><line class="cls-13" x1="421.38" y1="361.52" x2="421.38" y2="508.85"/><polygon class="cls-14" points="420.03 361.52 422.86 361.52 421.39 352.93 420.03 361.52"/><polygon class="cls-14" points="422.8 508.85 419.97 508.85 421.33 517.33 422.8 508.85"/><text class="cls-15" transform="translate(418.39 439.81) rotate(-90)">58</text><line class="cls-13" x1="449.73" y1="508.85" x2="449.73" y2="177.4"/><polygon class="cls-14" points="451.14 508.85 448.32 508.85 449.67 517.33 451.14 508.85"/><polygon class="cls-14" points="448.38 177.4 451.2 177.4 449.73 168.93 448.38 177.4"/><text class="cls-15" transform="translate(446.73 350.06) rotate(-90)">123</text><line class="cls-13" x1="421.38" y1="344.45" x2="421.38" y2="191.64"/><polygon class="cls-14" points="422.86 344.45 420.03 344.45 421.39 352.93 422.86 344.45"/><polygon class="cls-14" points="420.03 191.65 422.86 191.65 421.39 183.05 420.03 191.65"/><text class="cls-15" transform="translate(418.39 272.67) rotate(-90)">60</text><line class="cls-13" x1="421.38" y1="183.05" x2="421.38" y2="168.93"/><line class="cls-13" x1="421.38" y1="160.68" x2="421.38" y2="152.2"/><polygon class="cls-14" points="422.86 160.68 420.03 160.68 421.39 169.16 422.86 160.68"/><text class="cls-15" transform="translate(418.39 178.3) rotate(-90)">5</text><line class="cls-13" x1="393.18" y1="182.8" x2="393.18" y2="40.02"/><line class="cls-13" x1="132.54" y1="141.74" x2="132.54" y2="40.12"/><line class="cls-13" x1="141.02" y1="43.02" x2="384.59" y2="43.02"/><polygon class="cls-14" points="141.02 44.37 141.02 41.54 132.54 43.01 141.02 44.37"/><polygon class="cls-14" points="384.59 41.54 384.59 44.37 393.18 43.01 384.59 41.54"/><text class="cls-15" transform="translate(258.18 40.02)">92</text><line class="cls-13" x1="301.34" y1="330.25" x2="255.38" y2="330.25"/><line class="cls-13" x1="270.41" y1="296.19" x2="255.38" y2="296.19"/><line class="cls-13" x1="258.21" y1="304.71" x2="258.21" y2="321.78"/><polygon class="cls-14" points="256.75 304.71 259.57 304.71 258.22 296.23 256.75 304.71"/><polygon class="cls-14" points="259.57 321.77 256.75 321.77 258.22 330.25 259.57 321.77"/><text class="cls-15" transform="translate(255.21 317.86) rotate(-90)">12</text><line class="cls-13" x1="393.18" y1="192.8" x2="393.18" y2="10.02"/><line class="cls-13" x1="70.07" y1="359.15" x2="70.07" y2="10.12"/><line class="cls-13" x1="77.47" y1="13.04" x2="385.85" y2="13.04"/><polygon class="cls-14" points="78.54 14.37 78.54 11.54 70.07 13.01 78.54 14.37"/><polygon class="cls-14" points="384.59 11.54 384.59 14.37 393.18 13.01 384.59 11.54"/><text class="cls-15" transform="translate(224.73 10.04)">114</text></g></svg>