<svg xmlns="http://www.w3.org/2000/svg" viewBox="0 0 394.91 498.27"><defs><style>.cls-1,.cls-11,.cls-6,.cls-8{fill:none;}.cls-1,.cls-11,.cls-4{stroke:#1d1d1b;}.cls-1,.cls-11,.cls-4,.cls-6,.cls-7,.cls-8,.cls-9{stroke-linecap:round;stroke-linejoin:round;}.cls-1,.cls-4,.cls-6,.cls-7,.cls-8,.cls-9{stroke-width:0.71px;}.cls-2{fill:#d20a11;}.cls-12,.cls-13,.cls-3{fill:#1d1d1b;}.cls-4{fill:#dadada;}.cls-5,.cls-7{fill:#ececec;}.cls-12,.cls-5,.cls-8{fill-rule:evenodd;}.cls-6,.cls-7,.cls-8,.cls-9{stroke:#1e1e1c;}.cls-9{fill:#e9f6fd;}.cls-10{fill:#ededed;}.cls-11{stroke-width:0.28px;}.cls-13{font-size:12px;font-family:MyriadPro-Cond, Myriad Pro;}</style></defs><g id="profile"><polyline class="cls-1" points="256.54 415.96 241.65 415.96 240.93 416.2 240.33 416.68 240.21 417.4 240.21 439.73 240.33 440.33 240.93 440.93 241.65 441.05 256.54 441.05 257.26 440.93 257.74 440.33 257.86 439.73 257.86 417.4 257.74 416.68 257.26 416.2 256.54 415.96"/><polyline class="cls-1" points="277.19 383.3 276.95 382.58 276.47 381.98 275.75 381.86 275.51 381.86 274.19 381.62 272.99 381.02 272.03 380.06 271.43 378.86 271.19 377.53 271.43 376.21 272.03 375.01 272.99 374.17 274.19 373.57 275.51 373.33 275.75 373.33 276.47 373.09 276.95 372.61 277.19 371.89 277.19 360 276.95 359.28 276.47 358.8 275.75 358.56 271.19 358.56 270.59 358.8 269.99 359.28 269.87 360 269.87 360.24 269.63 361.56 269.03 362.77 268.07 363.73 266.87 364.33 265.54 364.57 264.22 364.33 263.02 363.73 262.18 362.77 261.58 361.56 261.34 360.24 261.34 359.28 261.1 358.8 260.62 358.56 260.14 358.8 259.9 359.28 259.9 411.63 260.14 412.35 260.62 412.83 261.34 413.07 275.75 413.07 276.47 412.83 276.95 412.35 277.19 411.63 277.19 397.47 276.95 396.75 276.47 396.14 275.75 396.02 275.51 396.02 274.19 395.79 272.99 395.18 272.03 394.22 271.43 393.02 271.19 391.7 271.43 390.38 272.03 389.3 272.99 388.34 274.19 387.74 275.51 387.5 275.75 387.5 276.47 387.26 276.95 386.78 277.19 386.06 277.19 383.3"/><polyline class="cls-1" points="275.75 415.96 261.34 415.96 260.62 416.2 260.14 416.68 259.9 417.4 259.9 439.73 260.14 440.33 260.62 440.93 261.34 441.05 275.75 441.05 276.47 440.93 276.95 440.33 277.19 439.73 277.19 417.4 276.95 416.68 276.47 416.2 275.75 415.96"/><polyline class="cls-1" points="125.06 358.56 116.9 358.56 116.3 358.68 115.82 359.16 115.58 359.76 99.97 439.37 99.97 440.21 100.57 440.81 101.29 441.05 125.06 441.05 125.78 440.93 126.26 440.33 126.5 439.73 126.5 360 126.26 359.28 125.78 358.8 125.06 358.56"/><polyline class="cls-1" points="95.41 441.05 96.01 440.93 96.49 440.57 96.73 439.97 101.29 416.68 101.29 415.84 100.69 415.24 99.97 415 79.56 415 78.84 415.24 78.36 415.72 78.11 416.44 78.11 439.73 78.36 440.33 78.84 440.93 79.56 441.05 95.41 441.05"/><polyline class="cls-1" points="112.33 360.24 112.33 359.4 111.73 358.8 111.01 358.56 108.13 358.56 106.09 358.44 104.05 358.08 103.81 358.08 79.32 362.4 78.72 362.65 78.23 363.13 78.11 363.73 78.11 411.63 78.36 412.35 78.84 412.83 79.56 413.07 100.93 413.07 101.53 412.83 102.01 412.47 102.25 411.87 112.33 360.24"/><polyline class="cls-1" points="187.02 356.64 187.26 357.48 187.86 358.08 188.7 358.32 189.54 358.08 190.14 357.48 190.38 356.64 190.38 354 190.62 353.28 191.1 352.8 191.7 352.56 212.95 351.12 213.79 351.24 214.27 351.72 214.51 352.56 214.51 356.64 214.75 357.48 215.35 358.08 216.19 358.32 217.04 358.08 217.76 357.48 217.88 356.64 217.88 352.08 218.12 351.36 218.6 350.88 219.2 350.64 234.81 349.56 235.53 349.44 236.37 349.56 236.97 350.16 237.21 350.88 237.21 439.73 236.97 440.33 236.49 440.93 235.77 441.05 215.47 441.05 213.55 440.57 211.51 440.57 209.59 441.05 153.64 441.05 151.72 440.57 149.68 440.57 147.76 441.05 130.83 441.05 130.11 440.93 129.63 440.33 129.5 439.73 129.5 416.44 129.63 415.72 130.11 415.24 130.83 415 134.19 415 134.67 414.88 135.03 414.52 135.15 414.04 135.03 413.56 134.67 413.19 134.19 413.07 130.83 413.07 130.11 412.83 129.63 412.35 129.5 411.63 129.5 360 129.63 359.28 130.11 358.8 130.83 358.56 144.75 358.56 145.47 358.8 145.96 359.28 146.19 360 146.19 361.2 146.31 361.81 146.68 362.17 147.16 362.29 147.64 362.17 148 361.81 148.12 361.2 148.12 360 148.36 359.28 148.84 358.8 149.56 358.56 156.64 358.56 167.93 354.24 185.46 353.04 186.3 353.16 186.78 353.76 187.02 354.48 187.02 356.64"/><polyline class="cls-1" points="258.46 330.83 235.77 330.83 235.05 330.95 234.57 331.55 234.45 332.39 235.53 340.67 235.41 341.39 234.93 341.99 234.21 342.23 166.37 346.92 155.32 351.24 108.13 351.24 105.97 351 103.93 350.28 102.01 349.08 100.45 347.52 99.25 345.72 98.53 343.55 98.29 341.39 98.53 339.23 99.13 337.07 101.77 331.43 101.89 330.59 97.93 307.77 97.93 307.05 98.29 306.57 99.01 306.21 108.49 303.81 109.09 303.57 109.45 302.97 109.57 302.37 109.57 295.77 106.57 293.97 106.09 293.97 105.49 294.21 105.37 294.81 105.37 297.45 105.13 298.05 104.65 298.29 98.29 299.97 97.45 299.85 96.85 299.37 96.61 298.53 96.61 289.04 96.73 287.36 97.33 285.68 98.29 284.12 99.49 282.92 101.05 281.96 102.73 281.36 104.53 281.12 105.13 281.36 105.37 281.96 105.37 284.6 105.49 285.08 106.09 285.44 106.57 285.32 109.57 283.52 109.57 274.88 109.21 274.27 108.49 274.03 80.64 281 78.48 281.84 76.31 282.92 74.51 284.36 72.95 286.04 71.63 288.08 70.67 290.12 70.07 292.4 69.95 294.81 69.95 466.87 75.35 466.75 77.64 460.5 77.88 459.42 77.64 458.34 77.16 457.02 77.03 455.46 77.03 449.94 77.16 449.22 77.64 448.62 78.36 448.5 89.76 448.5 90.48 448.62 90.96 449.22 91.2 449.94 91.2 455.46 90.96 457.02 90.6 458.34 90.36 459.42 90.48 460.5 92.76 466.87 95.17 466.87 97.57 460.5 97.69 459.42 97.45 458.34 96.97 457.02 96.85 455.46 96.85 449.94 96.97 449.22 97.57 448.62 98.29 448.5 109.57 448.5 110.29 448.62 110.77 449.22 111.01 449.94 111.01 455.46 110.89 457.02 110.41 458.34 110.17 459.42 110.29 460.5 112.69 466.87 119.54 466.87 120.62 466.75 121.58 466.03 122.18 465.19 122.3 464.1 122.3 459.78 116.66 459.78 116.66 449.94 116.9 449.22 117.38 448.62 118.1 448.5 150.16 448.5 150.28 448.01 150.76 447.89 151.12 448.01 151.24 448.5 191.82 448.5 192.54 448.62 193.02 449.22 193.26 449.94 193.26 459.78 187.62 459.78 187.62 464.1 187.86 465.19 188.46 466.03 189.3 466.75 190.38 466.87 197.47 466.87 198.19 466.75 198.78 466.15 198.91 465.43 198.91 449.94 199.15 449.22 199.63 448.62 200.35 448.5 255.7 448.5 256.3 448.62 256.9 449.22 257.02 449.94 257.02 465.43 257.26 466.15 257.74 466.75 258.46 466.87 262.54 466.87 264.82 460.5 265.06 459.42 264.7 458.34 264.34 457.02 264.1 455.46 264.1 449.94 264.34 449.22 264.82 448.62 265.54 448.5 276.95 448.5 277.67 448.62 278.15 449.22 278.39 449.94 278.39 455.46 278.15 457.02 277.67 458.34 277.43 459.42 277.67 460.5 279.95 466.75 285.48 466.87 285.48 333.59 285.24 332.51 284.63 331.55 283.68 330.95 282.59 330.83 272.63 330.83 272.03 330.95 271.55 331.31 271.31 332.03 271.31 332.63 272.99 337.91 276.59 337.91 277.31 338.03 277.91 338.63 278.03 339.23 278.03 349.8 277.91 350.52 277.31 351 276.59 351.24 257.26 351.24 256.54 351 255.94 350.52 255.82 349.8 255.82 345.48 259.78 332.63 259.9 331.91 259.66 331.31 259.18 330.95 258.46 330.83"/><polyline class="cls-1" points="240.21 347.76 240.57 346.8 241.89 345 242.61 342.95 242.97 340.79 242.97 339.59 243.09 338.87 243.69 338.39 244.41 338.15 248.49 338.15 249.09 338.27 249.57 338.75 249.81 339.35 249.81 339.95 248.49 344.15 248.37 344.63 248.37 349.8 248.61 351.6 249.22 353.4 250.18 355.08 251.5 356.4 253.06 357.48 254.74 358.2 256.54 358.56 257.26 358.8 257.74 359.28 257.86 360 257.86 411.63 257.74 412.35 257.26 412.83 256.54 413.07 241.65 413.07 240.93 412.83 240.33 412.35 240.21 411.63 240.21 347.76"/><polyline class="cls-1" points="96.13 353.64 94.33 351.72 92.88 349.44 91.8 347.04 91.2 344.39 90.84 341.75 90.96 339.11 91.56 336.47 92.52 334.07 94.2 330.35 94.2 329.51 90.36 307.29 90.36 307.05 90.36 288.92 90 288.08 89.4 287.6 88.56 287.48 82.68 289.04 81.12 289.64 79.92 290.48 78.96 291.8 78.36 293.25 78.11 294.81 78.11 357.48 78.36 358.2 78.96 358.8 79.8 358.8 95.41 356.04 96.13 355.8 96.49 355.08 96.49 354.36 96.13 353.64"/><polyline class="cls-1" points="308.41 315.22 308.53 314.5 309.13 313.9 309.85 313.78 325.46 313.78 326.18 313.9 326.66 314.5 326.78 315.22 326.78 343.8 326.66 344.51 326.18 345 325.46 345.24 316.09 345.24 315.37 345 314.77 344.51 314.65 343.8 314.65 330.83 314.41 329.15 313.93 327.7 313.21 326.26 312.13 325.06 310.81 324.1 309.37 323.5 308.65 323.02 308.41 322.18 308.41 315.22"/><line class="cls-1" x1="309.85" y1="313.78" x2="309.85" y2="313.78"/><polyline class="cls-1" points="308.41 295.65 308.53 294.93 309.13 294.33 309.85 294.21 325.46 294.21 326.18 294.33 326.66 294.93 326.78 295.65 326.78 307.53 326.66 308.25 326.18 308.73 325.46 308.97 309.85 308.97 309.13 308.73 308.53 308.25 308.41 307.53 308.41 295.65"/><line class="cls-1" x1="309.85" y1="294.21" x2="309.85" y2="294.21"/><polyline class="cls-1" points="300.12 233.93 300.36 233.21 300.85 232.73 301.56 232.49 325.46 232.49 326.18 232.73 326.66 233.21 326.78 233.93 326.78 287.96 326.66 288.68 326.18 289.16 325.46 289.4 300.12 289.4 299.4 289.16 298.8 288.68 298.68 287.96 300.12 233.93"/><line class="cls-1" x1="301.57" y1="232.49" x2="301.57" y2="232.49"/><polyline class="cls-1" points="300.73 211.36 300.36 228.05 300.48 228.77 300.96 229.37 301.69 229.49 325.46 229.49 326.18 229.37 326.66 228.77 326.78 228.17 326.78 212.56 326.66 211.84 326.18 211.24 325.46 211.12 306.85 211.12 304.81 210.88 302.89 210.16 302.17 210.04 301.44 210.16 300.96 210.64 300.73 211.36"/><polyline class="cls-1" points="145.72 206.19 146.19 206.91 146.07 207.64 145.72 208.24 144.99 208.6 129.38 211.36 128.54 211.24 127.94 210.76 127.7 209.92 127.7 147.36 127.94 145.8 128.54 144.36 129.5 143.04 130.83 142.08 132.27 141.6 138.15 140.04 138.99 140.16 139.71 140.64 139.95 141.48 139.95 159.61 139.95 159.85 143.91 182.06 143.79 182.9 142.11 186.5 141.15 189.03 140.67 191.67 140.55 194.31 140.79 196.95 141.51 199.59 142.59 201.99 144.03 204.15 145.72 206.19"/><line class="cls-1" x1="144.99" y1="208.6" x2="144.99" y2="208.6"/><polyline class="cls-1" points="160.6 211.12 161.44 211.36 161.92 211.96 162.04 212.8 150.64 271.15 150.4 271.75 149.92 272.23 149.32 272.35 129.15 272.35 128.43 272.11 127.94 271.63 127.7 270.91 127.7 216.28 127.94 215.68 128.3 215.2 128.91 214.96 153.28 210.64 153.88 210.64 157.84 211.12 160.6 211.12"/><line class="cls-1" x1="162.04" y1="212.8" x2="162.04" y2="212.8"/><polyline class="cls-1" points="187.86 212.56 188.1 211.84 188.58 211.24 189.3 211.12 206.35 211.12 217.52 206.79 234.45 205.59 235.17 205.71 235.77 206.31 236.37 206.91 237.33 207.16 238.17 206.79 238.77 206.07 239.25 205.47 239.97 205.23 256.66 204.03 257.38 204.15 257.98 204.75 258.22 205.47 258.46 206.31 259.06 206.91 259.9 207.16 260.74 206.91 261.34 206.31 261.58 205.47 261.58 204.99 261.82 204.39 262.3 203.79 262.9 203.55 284.39 202.11 286.2 201.75 288 201.03 289.56 199.95 290.76 198.63 291.72 196.95 292.32 195.27 292.56 193.35 292.56 192.15 292.8 191.43 293.28 190.83 294 190.71 298.08 190.71 298.68 190.83 299.16 191.31 299.52 191.91 299.4 192.51 298.08 196.71 298.08 197.19 298.08 202.35 297.36 228.17 297.12 228.89 296.64 229.37 295.92 229.49 291 229.49 290.52 229.61 290.04 229.97 289.92 230.57 290.04 231.05 290.52 231.41 291 231.53 295.8 231.53 296.52 231.77 297 232.25 297.24 232.97 295.68 287.96 295.44 288.68 294.96 289.16 294.24 289.4 280.43 289.4 279.71 289.16 279.23 288.68 278.99 287.96 278.99 278.72 278.99 278.36 273.23 261.07 272.39 259.39 271.31 257.94 269.99 256.74 268.43 255.78 266.63 255.3 264.82 255.06 258.46 255.06 257.74 254.82 257.26 254.34 257.02 253.62 257.02 250.74 256.9 249.66 256.18 248.82 255.34 248.22 254.26 247.98 253.18 248.22 252.22 248.82 251.62 249.66 251.38 250.74 251.38 252.18 251.14 253.26 250.53 254.22 249.69 254.82 248.61 255.06 247.41 254.82 246.57 254.22 245.97 253.26 245.73 252.18 245.73 250.74 245.49 249.66 244.89 248.82 243.93 248.22 242.85 247.98 241.77 248.22 240.93 248.82 240.21 249.66 240.09 250.74 240.09 253.62 239.85 254.34 239.37 254.82 238.65 255.06 232.28 255.06 230.48 255.3 228.68 255.78 227.12 256.74 225.8 257.94 224.72 259.39 223.88 261.07 218.12 278.36 218.12 278.72 218.12 287.96 217.88 288.68 217.4 289.16 216.68 289.4 189.3 289.4 188.58 289.16 188.1 288.68 187.86 287.96 187.86 212.56"/><line class="cls-1" x1="189.3" y1="211.12" x2="189.3" y2="211.12"/><polyline class="cls-1" points="168.89 211.12 169.61 211.24 170.09 211.84 170.33 212.56 170.33 270.91 170.09 271.63 169.61 272.11 168.89 272.35 155.2 272.35 154.36 272.11 153.88 271.51 153.76 270.67 165.17 212.2 165.41 211.6 165.89 211.24 166.61 211.12 168.89 211.12"/><line class="cls-1" x1="170.33" y1="212.56" x2="170.33" y2="212.56"/><polyline class="cls-1" points="183.42 211.12 173.69 211.12 172.97 211.24 172.49 211.84 172.25 212.56 172.25 284.36 172.61 285.2 173.33 285.68 183.06 288.44 183.78 288.44 184.38 288.2 184.74 287.72 184.86 287 184.86 212.56 184.74 211.84 184.14 211.24 183.42 211.12"/><polyline class="cls-1" points="335.06 186.14 334.82 185.06 334.22 184.1 333.26 183.5 332.18 183.26 322.34 183.26 321.62 183.5 321.14 183.86 320.9 184.46 320.9 185.18 322.58 190.35 326.3 190.35 327.02 190.59 327.5 191.07 327.74 191.79 327.74 202.35 327.5 203.07 327.02 203.55 326.3 203.67 306.85 203.67 306.13 203.55 305.65 203.07 305.41 202.35 305.41 198.03 309.49 185.18 309.49 184.46 309.25 183.86 308.77 183.5 308.17 183.26 285.48 183.26 284.63 183.5 284.15 184.1 284.04 184.94 285.24 193.11 285.12 193.95 284.63 194.55 283.92 194.79 215.96 199.47 204.91 203.67 157.84 203.67 155.56 203.43 153.52 202.71 151.72 201.63 150.04 200.07 148.96 198.15 148.12 196.11 147.88 193.95 148.12 191.79 148.84 189.63 151.48 183.86 151.6 183.02 147.52 160.33 147.64 159.61 148 159.01 148.6 158.77 158.2 156.37 158.68 156.01 159.04 155.53 159.28 154.93 159.28 148.32 156.28 146.52 155.68 146.4 155.2 146.76 154.96 147.24 154.96 150 154.84 150.6 154.36 150.84 148 152.4 147.16 152.4 146.44 151.92 146.19 151.08 146.19 141.6 146.44 139.8 146.91 138.12 147.88 136.67 149.2 135.35 150.64 134.51 152.32 133.91 154.12 133.67 154.72 133.91 154.96 134.51 154.96 137.03 155.2 137.63 155.68 137.88 156.28 137.75 159.28 136.07 159.28 127.43 158.92 126.71 158.2 126.59 130.23 133.55 128.06 134.27 126.02 135.47 124.1 136.91 122.54 138.6 121.22 140.52 120.26 142.68 119.66 144.96 119.54 147.36 119.54 291.08 125.78 290 125.78 281.12 125.9 280.4 126.5 279.92 127.22 279.68 163.49 279.68 164.21 279.92 164.69 280.4 164.93 281.12 164.93 291.08 185.58 296.73 225.44 296.73 225.44 290.24 231.08 290.24 231.08 283.64 225.44 283.64 225.44 279.68 230.96 263.35 231.44 262.75 232.28 262.39 240.45 262.39 241.17 263.35 242.25 263.83 243.45 263.83 244.53 263.35 245.37 262.39 251.74 262.39 252.58 263.35 253.66 263.83 254.86 263.83 255.94 263.35 256.66 262.39 264.82 262.39 265.66 262.75 266.26 263.35 271.67 279.68 271.67 283.64 266.02 283.64 266.02 290.24 271.67 290.24 271.67 296.73 299.64 296.73 300.36 296.97 300.85 297.45 300.96 298.17 300.96 323.74 300.85 324.34 300.36 324.94 299.64 325.06 296.76 325.06 296.04 325.3 295.56 325.78 295.32 326.5 295.32 330.95 295.56 331.67 296.04 332.15 298.32 333.47 298.92 333.59 299.4 333.35 299.64 332.75 299.64 330.23 299.88 329.63 300.48 329.39 306.97 329.39 307.69 329.51 308.17 330.11 308.41 330.83 308.41 345 308.17 345.72 307.69 346.2 306.97 346.32 300.48 346.32 299.88 346.08 299.64 345.48 299.64 342.95 299.4 342.47 298.92 342.11 298.32 342.23 296.04 343.55 295.56 344.04 295.32 344.75 295.32 346.32 295.68 347.28 296.52 348.36 296.76 349.2 296.52 350.04 295.68 351.24 295.32 351.96 295.44 352.68 296.04 353.28 296.76 353.52 329.42 353.52 330.86 353.28 332.18 352.68 333.38 351.84 334.34 350.64 334.82 349.32 335.06 347.76 335.06 186.14"/><polyline class="cls-1" points="322.1 181.94 321.26 182.18 320.78 182.78 320.66 183.62 321.86 188.18 321.98 189.38 321.5 190.47 314.29 201.75 308.65 201.75 307.57 201.51 306.73 200.91 306.01 199.95 305.89 198.87 306.01 197.79 306.73 196.95 307.57 196.23 308.65 196.11 311.89 196.11 315.01 191.19 315.85 189.5 316.09 187.46 315.85 185.54 315.49 183.98 314.89 182.9 313.93 182.18 312.73 181.94 303.85 181.94 303.85 182.42 303.61 183.02 303.01 183.26 299.04 183.26 298.44 183.02 298.2 182.42 298.2 181.94 292.56 181.94 291.84 181.7 291.24 181.22 291.12 180.5 291.12 173.42 290.88 171.5 290.28 169.69 289.2 168.13 287.88 166.69 286.32 165.73 284.51 165.13 282.59 164.89 246.57 164.89 245.97 164.65 245.73 164.05 245.73 129.47 244.29 126.59 326.54 147.12 327.86 147.6 329.06 148.56 330.02 149.76 330.62 151.08 330.74 152.52 330.74 183.26 329.42 183.26 324.14 181.94 322.1 181.94"/><polyline class="cls-1" points="252.22 159.73 279.71 159.73 280.43 159.61 281.03 159.01 281.15 158.29 281.15 142.2 281.03 141.6 280.67 141 280.07 140.76 252.58 133.91 251.74 133.91 251.14 134.51 250.78 135.23 250.78 158.29 251.02 159.01 251.5 159.61 252.22 159.73"/><polyline class="cls-1" points="297.6 176.78 324.26 176.78 324.98 176.54 325.46 176.06 325.7 175.34 325.7 153.24 325.58 152.64 325.22 152.16 324.62 151.92 285.24 142.08 284.39 142.08 283.68 142.56 283.44 143.4 283.44 158.53 283.56 159.13 284.04 159.73 284.63 159.97 287.04 160.45 289.2 161.53 291.24 162.85 292.92 164.53 294.36 166.45 295.32 168.61 296.04 171.01 296.16 173.42 296.16 175.34 296.4 176.06 296.88 176.54 297.6 176.78"/></g><g id="stal"><path class="cls-2" d="M211,220a4.39,4.39,0,0,1-1.39.22H197.81a4.51,4.51,0,0,0-4.51,4.51l-.12.06v55l.12-.06a4.5,4.5,0,0,0,4.51,4.5l-.06.12h16.94V290H197.81a10.27,10.27,0,0,1-10.27-10.27v-55a10.27,10.27,0,0,1,10.27-10.27l-.06.12h10A10.13,10.13,0,0,0,211,214l-.11,0,9.13-3V211a10.41,10.41,0,0,1,3.18-.5l-.06.12h53.47l.06-.12a10.27,10.27,0,0,1,10.27,10.27l-.12.07V290h-5.65V220.73a4.5,4.5,0,0,0-4.5-4.5H223.17a4.41,4.41,0,0,0-1.4.22v0l-10.93,3.6" transform="translate(1.64 -1.94)"/><path class="cls-2" d="M157.93,371.24a4.71,4.71,0,0,1-1.4.22H144.76a4.5,4.5,0,0,0-4.51,4.5l-.12.06v55l.12-.06a4.5,4.5,0,0,0,4.51,4.5l-.06.12h16.94v5.65H144.76A10.27,10.27,0,0,1,134.48,431V376a10.27,10.27,0,0,1,10.28-10.27l-.06.12h10a10.41,10.41,0,0,0,3.18-.5l-.12,0,9.14-3v-.09a10,10,0,0,1,3.17-.51l-.06.12h53.48l.06-.12A10.27,10.27,0,0,1,233.86,372l-.12.06v69.21h-5.65V372a4.51,4.51,0,0,0-4.5-4.51H170.11a4.39,4.39,0,0,0-1.39.22v0l-10.94,3.61" transform="translate(1.64 -1.94)"/></g><g id="uszczelki"><path class="cls-3" d="M167.4,123.48c-.1-.42-.54-1.42-2.17-.85L158.6,127c-.16.09-1,.35-1,1l-.1,10.38a.3.3,0,0,1-.3.3h-5.06a.3.3,0,0,1-.3-.25h0l-.12-.6a.63.63,0,0,0-.26-.4.55.55,0,0,0-.43-.06,7,7,0,0,0-1,.39c0-.08-.07-.09-.15-.12a.28.28,0,0,0-.18,0,7.28,7.28,0,0,0-3.58,4.07.33.33,0,0,0,0,.22c0,.08.06.07.13.1a7.07,7.07,0,0,0,.05,4.34.31.31,0,0,0-.16.14.36.36,0,0,0,0,.27,7.09,7.09,0,0,0,3.56,4,.27.27,0,0,0,.23,0,.61.61,0,0,0,.23-.25,5.44,5.44,0,0,0,.88.32v0a.55.55,0,0,0,.43-.06.56.56,0,0,0,.25-.37l.13-.5a.3.3,0,0,1,.3-.25h5.09a.3.3,0,0,1,.25.14.31.31,0,0,1,0,.28l-.74,1.74a.81.81,0,0,0,.08.79.88.88,0,0,0,.76.41h1.26a.89.89,0,0,0,.9-.86l.48-9.71a1.53,1.53,0,0,1,.67-1.16,1.24,1.24,0,0,1,1.2-.16h0l.89-.06a7.22,7.22,0,0,0,2.75-1.46,5.23,5.23,0,0,0,1.74-4.18l0-11A3.3,3.3,0,0,0,167.4,123.48Zm-14.53,23,0,0-4.32-.24h.06a.9.9,0,0,1-.76-.67v-.05a6.08,6.08,0,0,1,0-2.75v0a.9.9,0,0,1,.76-.67l-.06,0,4.32-.48h0a4,4,0,0,1,4.16,2.29h0a.28.28,0,0,1,0,.25h0A4,4,0,0,1,152.87,146.5ZM165,127.81V137a1.61,1.61,0,0,1-1.64,1.42h0a1.15,1.15,0,0,1-.92-.51,1.7,1.7,0,0,1-.16-1,.54.54,0,0,0-.51-.36l-.56-.1c-.13.07,0-.2-.1-.23H161a.6.6,0,0,1-.11-.06l-.07-.05a.22.22,0,0,1-.07-.09l-.16-.1a2.91,2.91,0,0,1-.17-.66l0,0V128.8a.54.54,0,0,1,.39-.51h0l3.36-2.17.06,0c.62-.29.78.33.78.51v1.2Z" transform="translate(1.64 -1.94)"/><path class="cls-3" d="M100.16,285" transform="translate(1.64 -1.94)"/><path class="cls-3" d="M117.34,271.68a1.44,1.44,0,0,0-1.24-.27L109,273.57a1.48,1.48,0,0,0-1.08,1.32l0,10.87a.3.3,0,0,1-.3.3h-5.06a.31.31,0,0,1-.3-.25h0l-.12-.6a.63.63,0,0,0-.25-.4.56.56,0,0,0-.44-.06,7,7,0,0,0-1,.38c0-.07-.07-.08-.15-.11a.28.28,0,0,0-.18,0,7.3,7.3,0,0,0-3.58,4.08.33.33,0,0,0,0,.22c0,.07.06.07.14.09a7,7,0,0,0,0,4.35.31.31,0,0,0-.16.14.34.34,0,0,0,0,.26,7.1,7.1,0,0,0,3.56,4,.29.29,0,0,0,.24,0,.65.65,0,0,0,.22-.25,6.59,6.59,0,0,0,.88.32h0a.52.52,0,0,0,.44-.06.5.5,0,0,0,.24-.37l.13-.5a.31.31,0,0,1,.3-.25h5.09a.32.32,0,0,1,.25.14.33.33,0,0,1,0,.29l-.74,1.74a.79.79,0,0,0,.08.78.91.91,0,0,0,.76.42h1.26a.9.9,0,0,0,.9-.87l.72-9.1a1.76,1.76,0,0,1,.74-1.25,1.36,1.36,0,0,1,1.27-.06l0,0,2.4,1.08a1.45,1.45,0,0,0,1.78-.44,4.24,4.24,0,0,0,.75-2.41V272.85A1.5,1.5,0,0,0,117.34,271.68ZM103.28,294l0,0-4.32-.24H99a.91.91,0,0,1-.76-.66V293a6,6,0,0,1,0-2.74v0a.91.91,0,0,1,.76-.67l-.06,0,4.32-.48h0a4,4,0,0,1,4.16,2.3h0a.3.3,0,0,1,0,.26h0A4,4,0,0,1,103.28,294Zm12.1-18.7v9.13h0a1.61,1.61,0,0,1-1.64,1.42h0a1.11,1.11,0,0,1-.91-.5,1.13,1.13,0,0,1-.12-1,.54.54,0,0,0-.78-.65l0-.05a.49.49,0,0,1-.41.06l0,0,0,0h0a.29.29,0,0,1-.12-.07l-.07,0-.07-.09-.15-.1a2.71,2.71,0,0,1-.18-.66l0,0v-6.45a.55.55,0,0,1,.39-.52h0l3.49-1.08,0,0a.55.55,0,0,1,.48.09.53.53,0,0,1,.22.43Z" transform="translate(1.64 -1.94)"/><path class="cls-3" d="M304.66,335.77,303,334l-.84-.72a1,1,0,0,0-.72-.25h-1.5c-.3,0-.48.37-.48.67a.9.9,0,0,1-.9.9h-4a.9.9,0,0,1-.9-.9V328.8c-.07-.38-.3-.73-.68-.72a.72.72,0,0,0-.71.67A75.3,75.3,0,0,0,289.56,344a1.25,1.25,0,0,1-1-.69.87.87,0,0,0-.71-.9,1,1,0,0,0-1.16.44V345h-.06a10.58,10.58,0,0,1-.58-6.62,1.17,1.17,0,0,0-.31-1.11,1.15,1.15,0,0,0-1.12-.28,1.33,1.33,0,0,0-.82.92v15.61a1.47,1.47,0,0,0,.42,1.09,1.52,1.52,0,0,0,1.14.47h6.91a1.38,1.38,0,0,0,1.38-1.38v-7.87a.8.8,0,0,1,.84-.84h4a1.07,1.07,0,0,1,1,1,.54.54,0,0,0,.54.54h1.38a1.06,1.06,0,0,0,.71-.27l.73-.69,1.8-1.86a1.76,1.76,0,0,0,.61-1.32V337A1.55,1.55,0,0,0,304.66,335.77Zm-16.23,16.67a2,2,0,0,1-2.09-1.33l-.07-1.89c0-.06,0-.24.13-.28a1.85,1.85,0,0,0,1.13-.69l.51-4.08,1,3a.68.68,0,0,0,.4.51.81.81,0,0,0,.68.09l.11,2.92A2,2,0,0,1,288.43,352.44Zm15.34-12.59v1a.9.9,0,0,1-.91.9h-.06l-4.59.48a4.49,4.49,0,0,1-3.55-1.7,1.27,1.27,0,0,1,0-1.64,4.48,4.48,0,0,1,3.49-1.7h0l4.71.48a1,1,0,0,1,.91,1Z" transform="translate(1.64 -1.94)"/><path class="cls-3" d="M242.41,136.33v15.61l-5.4,3a3.09,3.09,0,0,0-1.32,2.46,3.38,3.38,0,0,0,1.32,2.46l7.08,4.09V131.41l-1.44-2.88-.36-.57a17.86,17.86,0,0,1-3.82-7.82s-.31-1.35-1.28-1.44a1.58,1.58,0,0,0-1.62.94v3.24a32.35,32.35,0,0,0,1.59,4.59s2.86,6.21,5.33,8.69" transform="translate(1.64 -1.94)"/></g><g id="podkładka"><path class="cls-4" d="M158.84,185.2V165.39h-4.68l-1-5.65-6.61,1.69.1-.16a2.89,2.89,0,0,0-1.26.69l0,.07,1.32,8,1.08-.24,2.89,16.45,0-.15a5.7,5.7,0,0,0,5.62,4.71l-.06.12h7.32v14.77h2.89V191H189.1v14.77H192V191h10.57v14.77l4.32-1.32V191h10.57v10.33l2.88-.24V191H243v8.53l2.76-.24V191h7.09v7.81l2.88-.24V191H267v6.85l2.89-.24V191h8.52v4.21h4v-10h-1.2" transform="translate(1.64 -1.94)"/></g><g id="szklenie"><polygon class="cls-5" points="225.79 169.13 225.79 150.71 218.7 157.79 187.52 157.79 180.43 150.71 180.43 169.13 225.79 169.13"/><line class="cls-6" x1="180.43" y1="154.29" x2="182.23" y2="152.5"/><line class="cls-6" x1="180.43" y1="160.66" x2="185.41" y2="155.68"/><line class="cls-6" x1="180.43" y1="167.02" x2="189.66" y2="157.79"/><line class="cls-6" x1="184.69" y1="169.13" x2="196.03" y2="157.79"/><line class="cls-6" x1="191.05" y1="169.13" x2="202.39" y2="157.79"/><line class="cls-6" x1="197.41" y1="169.13" x2="208.75" y2="157.79"/><line class="cls-6" x1="203.78" y1="169.13" x2="215.12" y2="157.79"/><line class="cls-6" x1="210.14" y1="169.13" x2="225.79" y2="153.49"/><line class="cls-6" x1="216.51" y1="169.13" x2="225.79" y2="159.85"/><line class="cls-6" x1="222.87" y1="169.13" x2="225.79" y2="166.21"/><line class="cls-6" x1="184.78" y1="169.13" x2="180.43" y2="164.79"/><line class="cls-6" x1="191.14" y1="169.13" x2="180.43" y2="158.42"/><line class="cls-6" x1="197.51" y1="169.13" x2="180.43" y2="152.06"/><line class="cls-6" x1="203.87" y1="169.13" x2="192.53" y2="157.79"/><line class="cls-6" x1="210.24" y1="169.13" x2="198.9" y2="157.79"/><line class="cls-6" x1="216.6" y1="169.13" x2="205.26" y2="157.79"/><line class="cls-6" x1="222.96" y1="169.13" x2="211.63" y2="157.79"/><line class="cls-6" x1="225.79" y1="165.59" x2="217.99" y2="157.79"/><line class="cls-6" x1="225.79" y1="159.23" x2="221.53" y2="154.97"/><line class="cls-6" x1="225.79" y1="152.86" x2="224.71" y2="151.79"/><g id="LWPOLYLINE"><polygon class="cls-7" points="225.79 139.37 225.79 150.71 218.7 157.79 187.52 157.79 180.43 150.71 180.43 139.37 202.73 139.37 203.11 139.6 203.49 139.37 225.79 139.37"/></g><g id="LWPOLYLINE-2" data-name="LWPOLYLINE"><polygon class="cls-6" points="222.95 142.2 222.95 149.53 217.53 154.96 188.69 154.96 183.27 149.53 183.27 142.2 222.95 142.2"/></g><g id="HATCH"><polygon class="cls-8" points="183.27 142.2 183.27 149.53 188.69 154.96 217.53 154.96 222.95 149.53 222.95 142.2 183.27 142.2"/><path class="cls-6" d="M181.63,144.27h0m1,0h0m2.25,0h0m2.25,0h0m2.25,0h0m2.25,0h0m2.25,0h0m2.25,0h0m2.25,0h0m2.25,0h0m2.25,0h0m2.25,0h0m2.25,0h0m2.25,0h0m2.25,0h0m2.25,0h0m2.25,0h0m2.25,0h0m2.25,0h0m-39.23,2.25h0m2.1,0h0m2.25,0h0m2.25,0h0m2.25,0h0m2.25,0h0m2.25,0h0m2.25,0h0m2.25,0h0m2.25,0h0m2.25,0h0m2.25,0h0m2.25,0h0m2.25,0h0m2.25,0h0m2.25,0h0m2.25,0h0m2.25,0h0m-38.1,2.25h0m1,0h0m2.25,0h0m2.25,0h0m2.25,0h0m2.25,0h0m2.25,0h0m2.25,0h0m2.25,0h0m2.25,0h0m2.25,0h0m2.25,0h0m2.25,0h0m2.25,0h0m2.25,0h0m2.25,0h0m2.25,0h0m2.25,0h0m2.25,0h0M181.63,151h0m2.1,0h0m2.25,0h0m2.25,0h0m2.25,0h0m2.25,0h0m2.25,0h0m2.25,0h0m2.25,0h0m2.25,0h0m2.25,0h0m2.25,0h0m2.25,0h0m2.25,0h0m2.25,0h0m2.25,0h0m2.25,0h0m2.25,0h0m-36.31,2.25h0m1.44,0h0m2.25,0h0m2.25,0h0m2.25,0h0m2.25,0h0m2.25,0h0m2.25,0h0m2.25,0h0m2.25,0h0m2.25,0h0m2.25,0h0m2.25,0h0m2.25,0h0m2.25,0h0m2.25,0h0m2.25,0h0m-32.94,2.25h0m.31,0h0m2.25,0h0m2.25,0h0m2.25,0h0m2.25,0h0m2.25,0h0m2.25,0h0m2.25,0h0m2.25,0h0m2.25,0h0m2.25,0h0m2.25,0h0m2.25,0h0m2.25,0h0" transform="translate(1.64 -1.94)"/></g><g id="LWPOLYLINE-3" data-name="LWPOLYLINE"><rect class="cls-9" x="169.1" y="72.54" width="11.34" height="96.59"/></g><g id="LWPOLYLINE-4" data-name="LWPOLYLINE"><rect class="cls-9" x="225.79" y="72.54" width="11.34" height="96.59"/></g><line class="cls-6" x1="251.38" y1="72.43" x2="216.68" y2="72.43"/><line class="cls-6" x1="203.11" y1="72.43" x2="203.22" y2="72.54"/><line class="cls-6" x1="189.55" y1="72.43" x2="154.96" y2="72.43"/><rect class="cls-10" x="166.25" y="169.13" width="73.84" height="14.13"/><polyline class="cls-1" points="166.25 183.26 166.25 169.13 240.09 169.13 166.25 183.26 240.09 183.26 166.25 169.13 240.09 169.13 240.09 183.26"/></g><g id="wymiary"><line class="cls-11" x1="158.68" y1="126.14" x2="10.21" y2="126.14"/><line class="cls-11" x1="69.88" y1="466.87" x2="10.15" y2="466.87"/><line class="cls-11" x1="102.04" y1="273.75" x2="38.61" y2="273.75"/><line class="cls-11" x1="107.53" y1="273.75" x2="38.61" y2="273.75"/><line class="cls-11" x1="41.39" y1="282.34" x2="41.39" y2="458.39"/><polygon class="cls-12" points="40.04 282.34 42.86 282.34 41.39 273.75 40.04 282.34"/><polygon class="cls-12" points="42.86 458.39 40.04 458.39 41.39 466.87 42.86 458.39"/><text class="cls-13" transform="translate(38.39 374.98) rotate(-90)">68</text><line class="cls-11" x1="13.04" y1="134.62" x2="13.04" y2="458.39"/><polygon class="cls-12" points="11.58 134.62 14.4 134.62 13.04 126.14 11.58 134.62"/><polygon class="cls-12" points="14.4 458.39 11.58 458.39 13.04 466.87 14.4 458.39"/><text class="cls-13" transform="translate(10.04 303.43) rotate(-90)">120</text><line class="cls-11" x1="41.39" y1="134.62" x2="41.39" y2="265.27"/><polygon class="cls-12" points="40.04 134.62 42.86 134.62 41.39 126.14 40.04 134.62"/><polygon class="cls-12" points="42.86 265.27 40.04 265.27 41.39 273.75 42.86 265.27"/><text class="cls-13" transform="translate(38.39 204.56) rotate(-90)">52</text><line class="cls-11" x1="69.88" y1="466.87" x2="69.88" y2="498.13"/><line class="cls-11" x1="285.48" y1="466.87" x2="285.48" y2="498.13"/><line class="cls-11" x1="78.36" y1="495.35" x2="277" y2="495.35"/><polygon class="cls-12" points="78.36 496.71 78.36 493.88 69.88 495.35 78.36 496.71"/><polygon class="cls-12" points="277 493.88 277 496.71 285.48 495.35 277 493.88"/><text class="cls-13" transform="translate(173.06 492.35)">76</text><line class="cls-11" x1="285.48" y1="466.87" x2="394.77" y2="466.87"/><line class="cls-11" x1="240.09" y1="169.13" x2="394.77" y2="169.13"/><line class="cls-11" x1="329.53" y1="353.52" x2="366.42" y2="353.52"/><line class="cls-11" x1="334.18" y1="183.26" x2="366.37" y2="183.26"/><line class="cls-11" x1="363.53" y1="362.11" x2="363.53" y2="458.39"/><polygon class="cls-12" points="362.18 362.11 365 362.11 363.53 353.52 362.18 362.11"/><polygon class="cls-12" points="364.94 458.39 362.12 458.39 363.47 466.87 364.94 458.39"/><text class="cls-13" transform="translate(360.53 414.87) rotate(-90)">40</text><line class="cls-11" x1="391.88" y1="458.39" x2="391.88" y2="177.61"/><polygon class="cls-12" points="393.29 458.39 390.46 458.39 391.82 466.87 393.29 458.39"/><polygon class="cls-12" points="390.52 177.61 393.35 177.61 391.88 169.13 390.52 177.61"/><text class="cls-13" transform="translate(388.88 324.93) rotate(-90)">105</text><line class="cls-11" x1="363.53" y1="345.04" x2="363.53" y2="191.85"/><polygon class="cls-12" points="365 345.04 362.18 345.04 363.53 353.52 365 345.04"/><polygon class="cls-12" points="362.18 191.85 365 191.85 363.53 183.26 362.18 191.85"/><text class="cls-13" transform="translate(360.53 273.07) rotate(-90)">60</text><line class="cls-11" x1="363.53" y1="183.26" x2="363.53" y2="169.13"/><line class="cls-11" x1="363.53" y1="160.89" x2="363.53" y2="152.41"/><polygon class="cls-12" points="365 160.88 362.18 160.88 363.53 169.36 365 160.88"/><text class="cls-13" transform="translate(360.53 178.51) rotate(-90)">5</text><line class="cls-11" x1="335.76" y1="183.26" x2="335.76" y2="40.04"/><line class="cls-11" x1="119.54" y1="142.68" x2="119.54" y2="40.15"/><line class="cls-11" x1="128.02" y1="43.04" x2="327.17" y2="43.04"/><polygon class="cls-12" points="128.02 44.4 128.02 41.57 119.54 43.04 128.02 44.4"/><polygon class="cls-12" points="327.18 41.57 327.18 44.4 335.77 43.04 327.18 41.57"/><text class="cls-13" transform="translate(222.98 40.04)">76</text><line class="cls-11" x1="335.71" y1="153.26" x2="335.71" y2="10.04"/><line class="cls-11" x1="69.95" y1="292.68" x2="69.95" y2="10.15"/><line class="cls-11" x1="78.43" y1="13.04" x2="327.12" y2="13.04"/><polygon class="cls-12" points="78.43 14.4 78.43 11.57 69.95 13.04 78.43 14.4"/><polygon class="cls-12" points="327.12 11.57 327.12 14.4 335.71 13.04 327.12 11.57"/><text class="cls-13" transform="translate(195.92 10.04)">93,5</text><line class="cls-11" x1="234.69" y1="330.84" x2="188.74" y2="330.84"/><line class="cls-11" x1="191.57" y1="305.3" x2="191.57" y2="322.36"/><polygon class="cls-12" points="190.1 305.3 192.93 305.3 191.57 296.82 190.1 305.3"/><polygon class="cls-12" points="192.93 322.36 190.1 322.36 191.57 330.84 192.93 322.36"/><text class="cls-13" transform="translate(188.57 318.45) rotate(-90)">12</text></g></svg>