<svg xmlns="http://www.w3.org/2000/svg" viewBox="0 0 418.74 486.42"><defs><style>.cls-1,.cls-9{fill:none;}.cls-1,.cls-5,.cls-6,.cls-7,.cls-9{stroke:#1d1d1b;stroke-linecap:round;stroke-linejoin:round;}.cls-1,.cls-5,.cls-6,.cls-7{stroke-width:0.71px;}.cls-2{fill:#d20a11;}.cls-10,.cls-11,.cls-3{fill:#1d1d1b;}.cls-4,.cls-5,.cls-6{fill:#dadada;}.cls-10,.cls-6{fill-rule:evenodd;}.cls-7{fill:#e6f5fe;}.cls-8{fill:#ededed;}.cls-9{stroke-width:0.28px;}.cls-11{font-size:12px;font-family:MyriadPro-Cond, Myriad Pro;}</style></defs><g id="profile"><polyline class="cls-1" points="185.91 247.52 186.87 202.13 186.63 201.41 186.15 200.93 185.31 200.69 180.51 201.29 179.79 201.53 179.31 202.13 163.94 244.4 163.94 245.12 164.18 245.72 164.66 246.2 165.26 246.32 180.39 246.32"/><polyline class="cls-1" points="184.95 247.88 183.63 247.04 182.07 246.44 180.39 246.32"/><polyline class="cls-1" points="184.95 247.88 185.43 248 185.79 247.88 185.91 247.52"/><polyline class="cls-1" points="307.8 279.22 307.8 283.19 307.92 283.91 308.4 284.39 309.12 284.63 312.84 284.63 313.56 284.39 314.04 283.91 314.28 283.19 314.28 228.67 314.04 228.07 313.56 227.47 312.84 227.35 309.12 227.35"/><polyline class="cls-1" points="309.12 224.47 308.4 224.71 307.92 225.19 307.8 225.91 307.92 226.63 308.4 227.11 309.12 227.35"/><polyline class="cls-1" points="309.12 224.47 312.84 224.47 313.56 224.22 314.04 223.74 314.28 223.02 314.28 198.65 314.04 197.93 313.56 197.45 312.84 197.21 295.79 197.21 295.07 197.45 294.59 197.93 294.47 198.65 294.47 199.73"/><polyline class="cls-1" points="291.59 199.73 291.83 200.45 292.31 201.05 293.03 201.17 293.75 201.05 294.23 200.45 294.47 199.73"/><polyline class="cls-1" points="291.59 199.73 291.59 198.65 291.35 197.93 290.87 197.45 290.15 197.21 247.64 197.21 246.92 197.45 246.44 197.93 246.19 198.65 246.19 199.73"/><polyline class="cls-1" points="243.31 199.73 243.55 200.45 244.03 201.05 244.75 201.17 245.47 201.05 245.96 200.45 246.19 199.73"/><polyline class="cls-1" points="243.31 199.73 243.31 198.65 243.19 197.93 242.71 197.45 241.99 197.21 236.59 197.21"/><polyline class="cls-1" points="235.39 198.41 235.99 198.17 236.35 197.81 236.59 197.21"/><line class="cls-1" x1="235.39" y1="198.41" x2="226.86" y2="198.41"/><polyline class="cls-1" points="225.78 197.21 225.9 197.81 226.38 198.17 226.86 198.41"/><polyline class="cls-1" points="225.78 197.21 218.7 197.21 208.61 198.29 208.01 198.53 207.53 199.01 207.41 199.73 207.41 277.54 207.53 278.26 208.01 278.74 208.73 278.86 235.15 278.86 235.87 278.74 236.35 278.26 236.59 277.54 236.59 259.29"/><polyline class="cls-1" points="243.91 251.96 241.99 252.2 240.19 252.92 238.75 254.13 237.55 255.69 236.83 257.49 236.59 259.29"/><polyline class="cls-1" points="243.91 251.96 255.32 251.96 256.16 251.72 256.64 251.12 258.68 246.56"/><polyline class="cls-1" points="260 245.72 259.28 245.96 258.68 246.56"/><line class="cls-1" x1="260" y1="245.72" x2="261.93" y2="245.72"/><polyline class="cls-1" points="262.53 246.32 262.29 245.96 261.93 245.72"/><polyline class="cls-1" points="262.53 246.32 262.53 248.84 262.65 249.56 263.25 250.04 263.97 250.28 267.09 250.28 267.81 250.04 268.29 249.56 268.41 248.84 268.41 246.32"/><polyline class="cls-1" points="269.01 245.72 268.65 245.96 268.41 246.32"/><line class="cls-1" x1="269.01" y1="245.72" x2="270.93" y2="245.72"/><polyline class="cls-1" points="272.25 246.56 271.77 245.96 270.93 245.72"/><polyline class="cls-1" points="272.25 246.56 274.3 251.12 274.89 251.72 275.62 251.96 287.02 251.96"/><polyline class="cls-1" points="294.47 259.29 294.11 257.49 293.39 255.69 292.31 254.13 290.75 252.92 288.94 252.2 287.02 251.96"/><polyline class="cls-1" points="294.47 259.29 294.59 260.01 295.07 260.61 295.79 260.73 300.71 260.73"/><polyline class="cls-1" points="300.71 263.61 301.31 263.37 301.91 262.89 302.03 262.17 301.91 261.45 301.31 260.97 300.71 260.73"/><polyline class="cls-1" points="300.71 263.61 295.79 263.61 295.07 263.85 294.59 264.33 294.47 265.05 294.47 283.19 294.59 283.91 295.07 284.39 295.79 284.63 302.03 284.63 302.75 284.39 303.36 283.91 303.48 283.19 303.48 279.22"/><polyline class="cls-1" points="304.92 277.78 304.19 278.02 303.71 278.5 303.48 279.22"/><line class="cls-1" x1="304.92" y1="277.78" x2="306.36" y2="277.78"/><polyline class="cls-1" points="307.8 279.22 307.56 278.5 307.08 278.02 306.36 277.78"/><polygon class="cls-1" points="335.54 285.11 335.78 285.83 336.26 286.43 336.98 286.55 350.31 286.55 351.03 286.43 351.51 285.83 351.75 285.11 351.75 210.06 351.51 209.33 351.03 208.73 350.31 208.61 336.98 208.61 336.26 208.73 335.78 209.33 335.54 210.06 335.54 285.11"/><polyline class="cls-1" points="336.38 292.79 336.26 292.07 335.66 291.59 334.94 291.35"/><polyline class="cls-1" points="336.38 292.79 336.38 294.23 336.62 294.95 337.1 295.43 337.82 295.67 338.54 295.43 339.02 294.95 339.26 294.23 339.26 292.79"/><polyline class="cls-1" points="340.7 291.35 339.98 291.59 339.38 292.07 339.26 292.79"/><line class="cls-1" x1="340.7" y1="291.35" x2="350.31" y2="291.35"/><polyline class="cls-1" points="351.75 292.79 351.51 292.07 351.03 291.59 350.31 291.35"/><line class="cls-1" x1="351.75" y1="292.79" x2="351.75" y2="307.56"/><polyline class="cls-1" points="350.31 309 351.03 308.76 351.51 308.28 351.75 307.56"/><line class="cls-1" x1="350.31" y1="309" x2="322.45" y2="309"/><polyline class="cls-1" points="321.13 307.56 321.25 308.28 321.73 308.76 322.45 309"/><line class="cls-1" x1="321.13" y1="307.56" x2="321.13" y2="292.79"/><polyline class="cls-1" points="322.45 291.35 321.73 291.59 321.25 292.07 321.13 292.79"/><line class="cls-1" x1="322.45" y1="291.35" x2="326.41" y2="291.35"/><polyline class="cls-1" points="327.85 292.79 327.73 292.07 327.13 291.59 326.41 291.35"/><polyline class="cls-1" points="327.85 292.79 327.85 294.23 328.09 294.95 328.57 295.43 329.29 295.67 330.01 295.43 330.49 294.95 330.73 294.23 330.73 292.79"/><polyline class="cls-1" points="332.18 291.35 331.45 291.59 330.85 292.07 330.73 292.79"/><line class="cls-1" x1="332.17" y1="291.35" x2="334.94" y2="291.35"/><polyline class="cls-1" points="319.21 286.55 318.37 286.31 317.76 285.83"/><polyline class="cls-1" points="317.04 284.63 317.29 285.35 317.76 285.83"/><line class="cls-1" x1="317.04" y1="284.63" x2="317.04" y2="198.65"/><polyline class="cls-1" points="318.49 197.21 317.76 197.45 317.29 197.93 317.04 198.65"/><line class="cls-1" x1="318.49" y1="197.21" x2="324.61" y2="197.21"/><polyline class="cls-1" points="326.05 198.77 325.93 198.05 325.45 197.45 324.61 197.21"/><polyline class="cls-1" points="326.05 198.77 326.05 200.93 326.53 202.85 327.49 204.77 328.93 206.33 330.61 207.53 332.54 208.25"/><polyline class="cls-1" points="333.5 209.69 333.26 208.73 332.54 208.25"/><line class="cls-1" x1="333.5" y1="209.69" x2="333.5" y2="285.11"/><polyline class="cls-1" points="332.18 286.55 332.89 286.43 333.38 285.83 333.5 285.11"/><path class="cls-1" d="M320.81,310.26h12.48M330.53,285h-13" transform="translate(1.64 1.5)"/><polyline class="cls-1" points="336.38 313.21 336.26 312.49 335.66 312 334.94 311.76"/><polyline class="cls-1" points="336.38 313.21 336.38 314.65 336.62 315.37 337.1 315.85 337.82 316.09 338.54 315.85 339.02 315.37 339.26 314.65 339.26 313.21"/><polyline class="cls-1" points="340.7 311.76 339.98 312 339.38 312.49 339.26 313.21"/><line class="cls-1" x1="340.7" y1="311.77" x2="350.31" y2="311.77"/><polyline class="cls-1" points="351.75 313.21 351.51 312.49 351.03 312 350.31 311.76"/><line class="cls-1" x1="351.75" y1="313.21" x2="351.75" y2="338.42"/><polyline class="cls-1" points="350.31 339.87 351.03 339.75 351.51 339.14 351.75 338.42"/><line class="cls-1" x1="350.31" y1="339.86" x2="335.54" y2="339.86"/><polyline class="cls-1" points="334.1 338.42 334.34 339.14 334.82 339.75 335.54 339.87"/><polyline class="cls-1" points="334.1 338.42 334.1 324.61 333.86 322.69 333.14 320.89 331.94 319.33 330.37 318.25 328.69 317.41 326.77 317.17 322.45 317.17"/><polyline class="cls-1" points="321.13 315.85 321.25 316.45 321.73 317.05 322.45 317.17"/><line class="cls-1" x1="321.13" y1="315.85" x2="321.13" y2="313.21"/><polyline class="cls-1" points="322.45 311.76 321.73 312 321.25 312.49 321.13 313.21"/><polygon class="cls-1" points="162.74 195.04 161.78 193.84 135 127.44 134.76 127.2 134.4 127.08 134.04 127.32 133.92 127.68 133.92 197.81 134.04 198.53 134.64 199.01 135.36 199.25 166.94 199.25 167.42 199.01 167.54 198.53 167.3 198.17 162.74 195.04"/><polygon class="cls-1" points="135.36 201.17 134.64 201.41 134.04 201.89 133.92 202.61 133.92 244.88 134.04 245.6 134.64 246.08 135.36 246.32 159.25 246.32 160.09 246.08 160.58 245.36 175.95 203.09 176.07 202.49 175.83 201.77 175.35 201.41 174.63 201.17 135.36 201.17"/><polyline class="cls-1" points="152.89 128.88 152.89 120.11 152.65 119.27 151.93 118.79 151.09 118.79 136.8 122.27 136.08 122.75 135.72 123.47 135.84 124.19 163.7 193.12 163.82 193.36 165.86 194.8 166.34 194.92 166.7 194.56 166.7 194.08"/><polyline class="cls-1" points="165.98 189.88 166.1 192.04 166.7 194.08"/><polyline class="cls-1" points="165.98 189.88 165.98 137.64 165.74 136.92 165.26 136.44 164.54 136.2 160.22 136.2"/><polyline class="cls-1" points="152.89 128.88 153.13 130.8 153.85 132.6 155.05 134.04 156.61 135.24 158.41 135.96 160.22 136.2"/><line class="cls-1" x1="200.08" y1="199.13" x2="202.97" y2="198.89"/><polyline class="cls-1" points="204.53 200.33 204.29 199.49 203.69 199.01 202.97 198.89"/><line class="cls-1" x1="204.53" y1="200.33" x2="204.53" y2="277.54"/><polyline class="cls-1" points="203.09 278.86 203.81 278.74 204.29 278.26 204.53 277.54"/><line class="cls-1" x1="203.09" y1="278.86" x2="189.16" y2="278.86"/><polyline class="cls-1" points="187.84 277.54 187.96 278.26 188.44 278.74 189.16 278.86"/><polyline class="cls-1" points="187.84 277.54 187.84 253.65 188.91 201.65"/><polyline class="cls-1" points="190.12 200.21 189.52 200.45 189.03 200.93 188.91 201.65"/><line class="cls-1" x1="190.12" y1="200.21" x2="193.84" y2="199.85"/><polyline class="cls-1" points="195.4 201.29 195.28 200.45 194.68 199.97 193.84 199.85"/><polyline class="cls-1" points="195.4 201.29 195.4 203.93 195.64 204.65 196.12 205.13 196.84 205.25 197.44 205.25 198.16 205.13 198.64 204.65 198.88 203.93 198.88 200.57"/><polyline class="cls-1" points="200.08 199.13 199.48 199.37 199 199.97 198.88 200.57"/><polyline class="cls-1" points="315.12 338.54 315.12 345.87 315.36 346.59 315.84 347.07 316.56 347.31 354.87 347.31 356.19 347.07 357.27 346.47 358.23 345.51 358.83 344.31 359.07 342.99 359.07 184.24 358.83 183.52 358.35 182.92 357.63 182.8 354.87 182.8 347.67 183.16 346.94 183.4 346.46 184 346.35 184.84 347.19 189.88 350.55 189.88"/><polyline class="cls-1" points="351.99 191.32 351.75 190.6 351.27 190 350.55 189.88"/><line class="cls-1" x1="351.99" y1="191.32" x2="351.99" y2="198.41"/><polyline class="cls-1" points="347.79 202.61 349.11 202.37 350.19 201.77 351.15 200.93 351.75 199.73 351.99 198.41"/><line class="cls-1" x1="347.79" y1="202.61" x2="335.18" y2="202.61"/><polyline class="cls-1" points="332.42 199.25 332.54 200.57 333.01 201.65 333.98 202.37 335.18 202.61"/><polyline class="cls-1" points="332.42 199.25 334.94 184.84 334.82 184 334.34 183.4 333.62 183.16 325.93 182.8 325.21 183.04 325.09 183.88 326.53 189.52"/><polyline class="cls-1" points="325.21 191.32 325.81 191.08 326.29 190.72 326.65 190.12 326.53 189.52"/><polyline class="cls-1" points="325.21 191.32 235.39 191.32 235.39 192.4 226.86 192.4 226.86 191.32 218.34 191.32 178.11 195.52"/><polyline class="cls-1" points="171.86 189.88 172.1 191.44 172.7 192.88 173.78 194.08 175.11 194.92 176.55 195.4 178.11 195.52"/><polyline class="cls-1" points="171.86 189.88 171.86 177.15 174.75 177.15 174.75 175.71 171.86 172.83 171.86 127.92 168.86 126.12 168.38 126.12 167.9 126.36 167.66 126.96 167.66 129.48"/><polyline class="cls-1" points="166.82 130.32 167.42 130.08 167.66 129.48"/><line class="cls-1" x1="166.82" y1="130.32" x2="160.22" y2="130.32"/><polyline class="cls-1" points="158.9 128.88 159.01 129.6 159.62 130.08 160.22 130.32"/><line class="cls-1" x1="158.89" y1="128.88" x2="158.89" y2="116.15"/><polyline class="cls-1" points="159.97 114.83 159.38 115.07 159.01 115.55 158.9 116.15"/><line class="cls-1" x1="159.98" y1="114.83" x2="165.86" y2="113.27"/><polyline class="cls-1" points="167.66 114.71 167.42 113.87 166.7 113.39 165.86 113.27"/><polyline class="cls-1" points="167.66 114.71 167.66 116.63 167.9 117.23 168.38 117.47 168.86 117.47 171.86 115.67 171.86 107.02 171.62 106.42 170.78 106.18 130.79 116.15 129.47 116.75 128.27 117.59 127.31 118.79 126.71 120.23 126.47 121.67 126.47 262.17 134.76 260.73 134.76 257.97 133.08 258.21 133.08 252.2 155.17 252.2 155.17 262.17 161.66 261.09 161.66 257.97 159.97 258.21 159.97 252.2 180.39 252.2"/><polyline class="cls-1" points="181.83 253.65 181.59 252.92 181.11 252.44 180.39 252.2"/><polyline class="cls-1" points="181.83 253.65 181.83 280.66 182.07 281.99 182.67 283.06 183.63 284.03 184.71 284.63 186.03 284.87 235.39 284.87 235.39 286.31 235.63 287.63 236.23 288.83 237.19 289.79 238.39 290.39 239.71 290.51 242.47 290.51 242.47 284.27 248.24 284.27 248.24 276.34 242.47 276.34 242.47 259.29"/><polyline class="cls-1" points="243.91 257.97 243.19 258.09 242.71 258.69 242.47 259.29"/><polyline class="cls-1" points="243.91 257.97 263.73 257.97 264.09 257.73 265.29 256.65 265.53 256.53 265.77 256.65 266.85 257.73 267.21 257.97 287.02 257.97"/><polyline class="cls-1" points="288.46 259.29 288.22 258.69 287.74 258.09 287.02 257.97"/><polyline class="cls-1" points="288.46 259.29 288.46 276.34 282.82 276.34 282.82 284.27 288.46 284.27 288.46 290.51 313.68 290.51"/><polyline class="cls-1" points="315.12 291.95 314.88 291.23 314.4 290.75 313.68 290.51"/><polyline class="cls-1" points="315.12 291.95 315.12 324.73 315.36 325.45 315.84 326.06 318.13 327.26 318.73 327.38 319.21 327.14 319.33 326.54 319.33 324.01"/><polyline class="cls-1" points="320.17 323.17 319.57 323.41 319.33 324.01"/><line class="cls-1" x1="320.17" y1="323.17" x2="326.77" y2="323.17"/><polyline class="cls-1" points="328.21 324.61 327.97 323.89 327.49 323.41 326.77 323.17"/><line class="cls-1" x1="328.21" y1="324.61" x2="328.21" y2="338.78"/><polyline class="cls-1" points="326.77 340.23 327.49 339.99 327.97 339.5 328.21 338.78"/><line class="cls-1" x1="326.77" y1="340.22" x2="320.17" y2="340.22"/><polyline class="cls-1" points="319.33 339.38 319.57 339.99 320.17 340.23"/><polyline class="cls-1" points="319.33 339.38 319.33 336.74 319.21 336.26 318.73 335.9 318.13 336.02 315.84 337.34 315.36 337.82 315.12 338.54"/><polyline class="cls-1" points="172.34 106.42 171.98 106.66 171.86 107.02"/><line class="cls-1" x1="172.46" y1="150.73" x2="172.22" y2="150.73"/><polyline class="cls-1" points="171.86 150.49 171.98 150.73 172.22 150.73"/><polyline class="cls-1" points="341.06 189.28 341.18 188.32 340.46 184 340.22 183.4 339.62 182.92 339.02 182.8 326.41 182.8"/><polyline class="cls-1" points="325.09 181.35 325.21 182.07 325.81 182.56 326.41 182.8"/><polyline class="cls-1" points="325.09 181.35 325.09 168.63 324.85 167.06 324.25 165.74 323.41 164.54 322.21 163.7 320.89 163.1 319.33 162.86 315.12 162.86"/><polyline class="cls-1" points="313.68 161.54 313.92 162.26 314.4 162.74 315.12 162.86"/><line class="cls-1" x1="313.68" y1="161.54" x2="313.68" y2="107.02"/><polyline class="cls-1" points="314.76 106.18 314.04 106.42 313.68 107.02"/><line class="cls-1" x1="314.76" y1="106.18" x2="354.39" y2="116.15"/><polyline class="cls-1" points="357.63 120.23 357.39 118.79 356.79 117.59 355.71 116.63 354.39 116.15"/><line class="cls-1" x1="357.63" y1="120.23" x2="357.63" y2="181.35"/><polyline class="cls-1" points="356.19 182.8 356.91 182.56 357.51 182.07 357.63 181.35"/><polyline class="cls-1" points="356.19 182.8 347.67 182.8 346.94 183.04 346.35 183.64 346.23 184.48 347.19 189.88 342.26 198.41"/><polyline class="cls-1" points="339.86 199.73 340.82 199.61 341.66 199.13 342.26 198.41"/><line class="cls-1" x1="339.86" y1="199.73" x2="335.66" y2="199.73"/><polyline class="cls-1" points="335.66 194.08 334.46 194.32 333.62 194.92 333.01 195.88 332.77 196.97 333.01 198.05 333.62 199.01 334.46 199.61 335.66 199.73"/><polyline class="cls-1" points="335.66 194.08 337.46 194.08 338.06 193.96 338.66 193.36 341.06 189.28"/><polyline class="cls-1" points="318.85 156.38 318.97 157.1 319.45 157.58 320.17 157.82"/><line class="cls-1" x1="318.85" y1="156.38" x2="318.85" y2="114.35"/><polyline class="cls-1" points="320.53 112.91 319.69 113.03 319.09 113.51 318.85 114.35"/><line class="cls-1" x1="320.53" y1="112.91" x2="351.51" y2="120.59"/><polyline class="cls-1" points="352.59 122.03 352.47 121.43 351.99 120.95 351.51 120.59"/><line class="cls-1" x1="352.59" y1="122.03" x2="352.59" y2="176.19"/><polyline class="cls-1" points="351.15 177.63 351.87 177.51 352.35 176.91 352.59 176.19"/><line class="cls-1" x1="351.15" y1="177.63" x2="331.57" y2="177.63"/><polyline class="cls-1" points="330.13 176.19 330.37 176.91 330.85 177.51 331.57 177.63"/><polyline class="cls-1" points="330.13 176.19 330.13 168.63 330.01 166.58 329.41 164.66 328.45 162.86 327.25 161.18 325.69 159.86 324.01 158.9 322.09 158.18 320.17 157.82"/><polyline class="cls-1" points="314.76 106.18 314.04 106.42 313.68 107.02"/><line class="cls-1" x1="126.47" y1="243.92" x2="126.47" y2="255.21"/><polyline class="cls-1" points="181.83 271.3 181.83 280.66 181.95 281.74 182.43 282.82 183.15 283.79 183.63 284.63"/><line class="cls-1" x1="322.93" y1="191.32" x2="318.01" y2="191.32"/><polyline class="cls-1" points="115.18 290.15 115.3 290.39 115.42 290.51"/><polyline class="cls-1" points="222.66 432.09 223.38 431.85 223.86 431.37 224.1 430.65 224.1 429.57"/><polyline class="cls-1" points="226.86 429.57 226.74 428.85 226.26 428.25 225.54 428.13 224.82 428.25 224.22 428.85 224.1 429.57"/><polyline class="cls-1" points="226.86 429.57 226.86 430.65 227.1 431.37 227.58 431.85 228.3 432.09 231.91 432.09 232.51 431.97"/><polyline class="cls-1" points="238.87 431.97 236.83 431.37 234.67 431.37 232.51 431.97"/><polyline class="cls-1" points="238.87 431.97 239.47 432.09 243.07 432.09 243.79 431.85 244.27 431.37 244.51 430.65 244.51 429.57"/><polyline class="cls-1" points="247.4 429.57 247.16 428.85 246.68 428.25 245.96 428.13 245.23 428.25 244.63 428.85 244.51 429.57"/><polyline class="cls-1" points="247.4 429.57 247.4 430.65 247.52 431.37 248 431.85 248.72 432.09 260.13 432.09 260.85 431.85 261.33 431.37 261.57 430.65 261.57 404.35 261.33 403.63 260.73 403.03"/><polyline class="cls-1" points="260.73 401.23 260.25 401.59 260.13 402.19 260.25 402.67 260.73 403.03"/><polyline class="cls-1" points="260.73 401.23 261.33 400.75 261.57 399.91 261.57 365.44 261.33 364.72 260.73 364.24"/><polyline class="cls-1" points="260.73 362.44 260.25 362.8 260.13 363.28 260.25 363.88 260.73 364.24"/><polyline class="cls-1" points="260.73 362.44 261.33 361.84 261.57 361.12 261.57 340.46 261.33 339.75 260.85 339.26 260.13 339.02 248.24 339.02 247.52 339.14 247.04 339.63"/><polyline class="cls-1" points="244.75 339.63 245.23 339.99 245.96 340.23 246.56 339.99 247.04 339.63"/><polyline class="cls-1" points="244.75 339.63 244.27 339.14 243.67 339.02 199.96 339.02 199.36 339.14 198.88 339.63"/><polyline class="cls-1" points="196.6 339.63 197.08 339.99 197.68 340.23 198.28 339.99 198.88 339.63"/><polyline class="cls-1" points="196.6 339.63 196.12 339.14 195.4 339.02 184.95 339.02 184.23 339.26 183.75 339.75 183.51 340.46 183.51 345.87"/><polyline class="cls-1" points="182.07 347.31 182.79 347.07 183.39 346.59 183.51 345.87"/><polyline class="cls-1" points="180.75 345.87 180.87 346.59 181.35 347.07 182.07 347.31"/><polyline class="cls-1" points="180.75 345.87 180.75 340.46 180.51 339.75 180.03 339.26 179.31 339.02 173.31 339.02 172.58 339.26 172.1 339.75 171.86 340.46 171.86 430.65 172.1 431.37 172.58 431.85 173.31 432.09 179.31 432.09 180.03 431.85 180.51 431.37 180.75 430.65 180.75 426.69"/><polyline class="cls-1" points="182.07 425.24 181.35 425.48 180.87 425.96 180.75 426.69"/><polyline class="cls-1" points="183.51 426.69 183.39 425.96 182.79 425.48 182.07 425.24"/><polyline class="cls-1" points="183.51 426.69 183.51 430.65 183.75 431.37 184.23 431.85 184.95 432.09 187.23 432.09 187.96 431.85 188.44 431.37 188.68 430.65 188.68 429.57"/><polyline class="cls-1" points="190 428.13 189.4 428.25 188.79 428.85 188.68 429.57"/><polyline class="cls-1" points="191.44 429.57 191.32 428.85 190.72 428.25 190 428.13"/><polyline class="cls-1" points="191.44 429.57 191.44 430.65 191.68 431.37 192.16 431.85 192.88 432.09 222.66 432.09"/><polyline class="cls-1" points="127.91 430.65 128.15 431.37 128.63 431.85 129.35 432.09 132.72 432.09 133.32 431.97"/><polyline class="cls-1" points="139.56 431.97 137.52 431.37 135.36 431.37 133.32 431.97"/><polyline class="cls-1" points="139.56 431.97 140.16 432.09 147.85 432.09 148.45 431.85 149.05 431.37 149.17 430.65 149.17 341.91 149.05 341.19 148.45 340.7 147.61 340.58 143.4 340.94 142.8 341.19 142.32 341.79 142.08 342.39 142.08 345.99"/><polyline class="cls-1" points="139.32 345.99 139.44 346.71 140.04 347.19 140.64 347.43 141.36 347.19 141.96 346.71 142.08 345.99"/><polyline class="cls-1" points="139.32 345.99 139.32 342.99 139.08 342.27 138.48 341.79 137.76 341.55 134.88 341.91 134.28 342.15 133.8 342.63 133.56 343.35 133.56 345.99"/><polyline class="cls-1" points="130.79 345.99 130.91 346.71 131.51 347.19 132.24 347.43 132.96 347.19 133.44 346.71 133.56 345.99"/><polyline class="cls-1" points="130.79 345.99 130.79 343.95 130.56 343.23 130.07 342.63 129.35 342.51 128.63 342.63 128.15 343.23 127.91 343.95 127.91 430.65"/><polyline class="cls-1" points="137.16 437.37 138 437.85 138.72 438.09 169.1 438.09"/><polyline class="cls-1" points="170.42 439.41 170.3 438.69 169.82 438.21 169.1 438.09"/><line class="cls-1" x1="170.42" y1="439.41" x2="170.42" y2="447.94"/><polyline class="cls-1" points="169.1 449.38 169.82 449.14 170.3 448.66 170.42 447.94"/><polyline class="cls-1" points="169.1 449.38 163.34 449.38 163.34 450.82 165.02 453.58 165.62 454.42 166.46 454.9 167.54 455.02 174.75 455.02 175.47 454.9 175.95 454.3 176.19 453.58 176.19 439.41"/><polyline class="cls-1" points="177.63 438.09 176.91 438.21 176.31 438.69 176.19 439.41"/><line class="cls-1" x1="177.63" y1="438.09" x2="194.56" y2="438.09"/><polyline class="cls-1" points="196 439.41 195.76 438.69 195.28 438.21 194.56 438.09"/><polyline class="cls-1" points="196 439.41 196 453.58 196.24 454.3 196.72 454.9 197.44 455.02 204.65 455.02 205.61 454.9 206.45 454.42 207.17 453.58 208.73 450.82 208.73 449.38 203.09 449.38"/><polyline class="cls-1" points="201.64 447.94 201.88 448.66 202.37 449.14 203.09 449.38"/><line class="cls-1" x1="201.64" y1="447.94" x2="201.64" y2="439.41"/><polyline class="cls-1" points="203.09 438.09 202.37 438.21 201.88 438.69 201.64 439.41"/><polyline class="cls-1" points="203.09 438.09 233.47 438.09 234.19 437.85 235.03 437.37"/><polyline class="cls-1" points="236.47 437.37 235.75 437.13 235.03 437.37"/><polyline class="cls-1" points="236.47 437.37 237.19 437.85 237.91 438.09 265.53 438.09"/><polyline class="cls-1" points="266.85 439.41 266.73 438.69 266.25 438.21 265.53 438.09"/><line class="cls-1" x1="266.85" y1="439.41" x2="266.85" y2="447.94"/><polyline class="cls-1" points="265.53 449.38 266.25 449.14 266.73 448.66 266.85 447.94"/><polyline class="cls-1" points="265.53 449.38 262.65 449.38 262.65 450.82 264.33 453.58 264.93 454.42 265.77 454.9 266.73 455.02 272.85 455.02 273.69 454.79 274.3 454.3 274.54 453.46 274.42 452.62 273.81 452.02 273.09 451.66"/><polyline class="cls-1" points="272.61 451.06 272.73 451.42 273.09 451.66"/><line class="cls-1" x1="272.61" y1="451.06" x2="272.61" y2="439.41"/><polyline class="cls-1" points="274.05 438.09 273.33 438.21 272.73 438.69 272.61 439.41"/><line class="cls-1" x1="274.05" y1="438.09" x2="293.51" y2="438.09"/><polyline class="cls-1" points="294.95 439.41 294.83 438.69 294.23 438.21 293.51 438.09"/><line class="cls-1" x1="294.95" y1="439.41" x2="294.95" y2="451.06"/><polyline class="cls-1" points="294.47 451.66 294.83 451.54 294.95 451.06"/><polyline class="cls-1" points="294.47 451.66 294.11 451.66 293.27 451.9 292.67 452.5 292.43 453.34 292.67 454.18 293.27 454.79 294.11 455.02 302.39 455.02 302.39 326.06 302.15 325.33 301.67 324.73 300.95 324.61 298.07 324.61 290.99 324.97 290.15 325.21 289.67 325.81 289.67 326.66 290.51 331.7 293.87 331.7"/><polyline class="cls-1" points="295.31 333.14 295.07 332.42 294.59 331.82 293.87 331.7"/><line class="cls-1" x1="295.31" y1="333.14" x2="295.31" y2="340.22"/><polyline class="cls-1" points="290.99 344.43 292.31 344.19 293.51 343.59 294.47 342.63 295.07 341.55 295.31 340.23"/><polyline class="cls-1" points="290.99 344.43 286.18 344.43 285.46 344.67 284.62 345.15"/><polyline class="cls-1" points="283.18 345.15 283.9 345.27 284.62 345.15"/><polyline class="cls-1" points="283.18 345.15 282.34 344.67 281.74 344.43 278.5 344.43"/><polyline class="cls-1" points="275.74 341.07 275.74 342.39 276.34 343.47 277.3 344.19 278.5 344.43"/><polyline class="cls-1" points="275.74 341.07 278.26 326.66 278.14 325.81 277.66 325.21 276.94 324.97 269.25 324.61 268.53 324.85 268.41 325.69 269.85 331.34"/><polyline class="cls-1" points="268.53 333.14 269.25 332.78 269.85 332.18 269.85 331.34"/><line class="cls-1" x1="268.53" y1="333.14" x2="190.36" y2="333.14"/><polyline class="cls-1" points="188.91 331.7 189.16 332.42 189.64 332.9 190.36 333.14"/><polyline class="cls-1" points="188.91 331.7 188.91 320.65 188.68 319.93 188.19 319.33 187.47 319.21 181.35 319.21 180.63 319.57 179.07 322.21 178.95 322.69 179.31 323.29 179.79 323.41 181.83 323.41"/><polyline class="cls-1" points="183.27 324.85 183.03 324.13 182.55 323.65 181.83 323.41"/><line class="cls-1" x1="183.27" y1="324.85" x2="183.27" y2="331.7"/><polyline class="cls-1" points="181.83 333.14 182.55 332.9 183.03 332.42 183.27 331.7"/><line class="cls-1" x1="181.83" y1="333.14" x2="159.98" y2="333.14"/><polyline class="cls-1" points="158.77 331.1 158.53 331.82 158.77 332.42 159.38 332.9 159.97 333.14"/><line class="cls-1" x1="158.77" y1="331.1" x2="161.9" y2="324.25"/><polyline class="cls-1" points="163.22 323.41 162.38 323.65 161.9 324.25"/><polyline class="cls-1" points="163.22 323.41 166.82 323.41 167.3 323.29 167.66 322.69 167.54 322.21 166.1 319.57 165.38 319.21 158.9 319.21 158.17 319.45 157.57 320.05 152.41 331.34"/><polyline class="cls-1" points="147.85 334.58 149.17 334.22 150.49 333.5 151.57 332.54 152.41 331.34"/><line class="cls-1" x1="147.85" y1="334.58" x2="121.43" y2="337.34"/><polyline class="cls-1" points="115.18 331.7 115.42 333.26 116.03 334.7 117.11 335.9 118.31 336.74 119.87 337.22 121.43 337.34"/><polyline class="cls-1" points="115.18 331.7 115.18 316.09 118.07 316.09 118.07 314.65 115.18 311.76 115.18 269.74 112.18 267.94 111.58 267.94 111.1 268.18 110.98 268.65 110.98 271.3"/><polyline class="cls-1" points="110.02 272.14 110.62 271.9 110.98 271.3"/><line class="cls-1" x1="110.02" y1="272.14" x2="103.54" y2="272.14"/><polyline class="cls-1" points="102.09 270.7 102.33 271.42 102.82 271.9 103.54 272.14"/><line class="cls-1" x1="102.1" y1="270.7" x2="102.1" y2="257.97"/><polyline class="cls-1" points="103.18 256.65 102.69 256.89 102.22 257.37 102.09 257.97"/><line class="cls-1" x1="103.18" y1="256.65" x2="109.18" y2="255.09"/><polyline class="cls-1" points="110.98 256.53 110.62 255.69 110.02 255.21 109.18 255.09"/><polyline class="cls-1" points="110.98 256.53 110.98 258.45 111.1 259.05 111.58 259.29 112.18 259.29 115.18 257.49 115.18 248.84 114.82 248.24 114.1 248 74.12 257.97 72.67 258.57 71.47 259.41 70.63 260.61 70.03 262.05 69.79 263.49 69.79 455.02 78.08 455.02 78.92 454.79 79.52 454.18 79.76 453.34 79.52 452.5 78.92 451.9 78.08 451.66 77.72 451.66"/><polyline class="cls-1" points="77.12 451.06 77.36 451.54 77.72 451.66"/><line class="cls-1" x1="77.12" y1="451.06" x2="77.12" y2="439.41"/><polyline class="cls-1" points="78.56 438.09 77.84 438.21 77.36 438.69 77.12 439.41"/><line class="cls-1" x1="78.56" y1="438.09" x2="98.13" y2="438.09"/><polyline class="cls-1" points="99.57 439.41 99.33 438.69 98.85 438.21 98.13 438.09"/><line class="cls-1" x1="99.57" y1="439.41" x2="99.57" y2="451.06"/><polyline class="cls-1" points="99.09 451.66 99.45 451.42 99.57 451.06"/><polyline class="cls-1" points="99.09 451.66 98.25 452.02 97.77 452.62 97.65 453.46 97.89 454.3 98.49 454.79 99.33 455.02 105.46 455.02 106.42 454.9 107.26 454.42 107.86 453.58 109.54 450.82 109.54 449.38 106.66 449.38"/><polyline class="cls-1" points="105.22 447.94 105.46 448.66 105.94 449.14 106.66 449.38"/><line class="cls-1" x1="105.22" y1="447.94" x2="105.22" y2="439.41"/><polyline class="cls-1" points="106.66 438.09 105.94 438.21 105.46 438.69 105.22 439.41"/><polyline class="cls-1" points="106.66 438.09 134.16 438.09 134.88 437.85 135.72 437.37"/><polyline class="cls-1" points="137.16 437.37 136.44 437.13 135.72 437.37"/><polygon class="cls-1" points="167.66 432.09 168.38 431.85 168.86 431.37 169.1 430.65 169.1 340.46 168.86 339.75 168.38 339.26 167.66 339.02 161.9 339.02 152.41 339.99 151.81 340.23 151.33 340.82 151.21 341.43 151.21 430.65 151.33 431.37 151.93 431.85 152.65 432.09 167.66 432.09"/><polyline class="cls-1" points="77.12 430.65 77.36 431.37 77.84 431.85 78.56 432.09"/><line class="cls-1" x1="77.12" y1="430.65" x2="77.12" y2="394.02"/><polyline class="cls-1" points="78.56 392.7 77.84 392.82 77.36 393.42 77.12 394.02"/><line class="cls-1" x1="78.56" y1="392.7" x2="123.71" y2="392.7"/><polyline class="cls-1" points="125.15 394.02 124.91 393.42 124.43 392.82 123.71 392.7"/><line class="cls-1" x1="125.15" y1="394.02" x2="125.15" y2="430.65"/><polyline class="cls-1" points="123.71 432.09 124.43 431.85 124.91 431.37 125.15 430.65"/><line class="cls-1" x1="123.71" y1="432.09" x2="78.56" y2="432.09"/><polyline class="cls-1" points="265.77 403.15 265.05 403.39 264.57 403.87 264.33 404.59"/><line class="cls-1" x1="265.77" y1="403.15" x2="275.38" y2="403.15"/><polyline class="cls-1" points="276.82 404.59 276.7 403.87 276.1 403.39 275.38 403.15"/><line class="cls-1" x1="276.82" y1="404.59" x2="276.82" y2="430.65"/><polyline class="cls-1" points="275.38 432.09 276.1 431.85 276.7 431.37 276.82 430.65"/><line class="cls-1" x1="275.38" y1="432.09" x2="265.77" y2="432.09"/><polyline class="cls-1" points="264.33 430.65 264.57 431.37 265.05 431.85 265.77 432.09"/><line class="cls-1" x1="264.33" y1="430.65" x2="264.33" y2="404.59"/><polyline class="cls-1" points="280.18 403.15 279.58 403.39 278.98 403.87 278.86 404.59"/><line class="cls-1" x1="280.18" y1="403.15" x2="293.51" y2="403.15"/><polyline class="cls-1" points="294.95 404.59 294.83 403.87 294.23 403.39 293.51 403.15"/><line class="cls-1" x1="294.95" y1="404.59" x2="294.95" y2="430.65"/><polyline class="cls-1" points="293.51 432.09 294.23 431.85 294.83 431.37 294.95 430.65"/><line class="cls-1" x1="293.51" y1="432.09" x2="280.18" y2="432.09"/><polyline class="cls-1" points="278.86 430.65 278.98 431.37 279.58 431.85 280.18 432.09"/><line class="cls-1" x1="278.86" y1="430.65" x2="278.86" y2="404.59"/><polyline class="cls-1" points="264.33 399.79 264.57 400.51 265.05 400.99 265.77 401.11"/><line class="cls-1" x1="264.33" y1="399.79" x2="264.33" y2="365.68"/><polyline class="cls-1" points="265.77 364.24 265.05 364.48 264.57 364.96 264.33 365.68"/><line class="cls-1" x1="265.77" y1="364.24" x2="275.38" y2="364.24"/><polyline class="cls-1" points="276.82 365.68 276.7 364.96 276.1 364.48 275.38 364.24"/><line class="cls-1" x1="276.82" y1="365.68" x2="276.82" y2="399.79"/><polyline class="cls-1" points="275.38 401.11 276.1 400.99 276.7 400.51 276.82 399.79"/><path class="cls-1" d="M262.69,359.37V339m11,60.64h-9.6" transform="translate(1.64 1.5)"/><polyline class="cls-1" points="265.77 339.02 265.05 339.26 264.57 339.75 264.33 340.46"/><line class="cls-1" x1="265.77" y1="339.02" x2="267.93" y2="339.02"/><polyline class="cls-1" points="269.37 340.58 269.25 339.87 268.65 339.26 267.93 339.02"/><polyline class="cls-1" points="269.37 340.58 269.37 342.75 269.85 344.67 270.81 346.59 272.13 348.15 273.81 349.35 275.74 350.07"/><polyline class="cls-1" points="276.82 351.51 276.58 350.55 275.74 350.07"/><line class="cls-1" x1="276.82" y1="351.51" x2="276.82" y2="360.88"/><polyline class="cls-1" points="275.38 362.32 276.1 362.08 276.7 361.6 276.82 360.88"/><line class="cls-1" x1="275.38" y1="362.32" x2="265.77" y2="362.32"/><polyline class="cls-1" points="264.33 360.88 264.57 361.6 265.05 362.08 265.77 362.32"/><polyline class="cls-1" points="293.51 401.11 294.23 400.99 294.83 400.51 294.95 399.79"/><line class="cls-1" x1="293.51" y1="401.11" x2="280.18" y2="401.11"/><polyline class="cls-1" points="278.86 399.79 278.98 400.51 279.58 400.99 280.18 401.11"/><line class="cls-1" x1="278.86" y1="399.79" x2="278.86" y2="365.68"/><polyline class="cls-1" points="280.18 364.24 279.58 364.48 278.98 364.96 278.86 365.68"/><line class="cls-1" x1="280.18" y1="364.24" x2="293.51" y2="364.24"/><polyline class="cls-1" points="294.95 365.68 294.83 364.96 294.23 364.48 293.51 364.24"/><polyline class="cls-1" points="294.95 365.68 294.95 375.65 290.99 375.65 289.9 375.89 289.06 376.49 288.34 377.33 288.22 378.53 288.34 379.61 289.06 380.45 289.9 381.05 290.99 381.29 294.95 381.29 294.95 399.79"/><polygon class="cls-1" points="106.06 336.74 105.1 335.66 78.32 269.26 77.96 268.89 77.6 268.89 77.36 269.14 77.12 269.5 77.12 339.87 77.36 340.58 77.84 341.19 78.56 341.31 110.62 341.31 111.1 341.19 111.22 340.7 110.98 340.35 106.06 336.74"/><line class="cls-1" x1="122.03" y1="343.23" x2="123.59" y2="343.11"/><polyline class="cls-1" points="125.15 344.55 124.91 343.71 124.31 343.23 123.59 343.11"/><line class="cls-1" x1="125.15" y1="344.55" x2="125.15" y2="388.38"/><polyline class="cls-1" points="123.71 389.82 124.43 389.58 124.91 389.1 125.15 388.38"/><line class="cls-1" x1="123.71" y1="389.82" x2="78.56" y2="389.82"/><polyline class="cls-1" points="77.12 388.38 77.36 389.1 77.84 389.58 78.56 389.82"/><line class="cls-1" x1="77.12" y1="388.38" x2="77.12" y2="344.67"/><polyline class="cls-1" points="78.56 343.35 77.84 343.47 77.36 344.07 77.12 344.67"/><polyline class="cls-1" points="78.56 343.35 120.83 343.35 122.03 343.23"/><polyline class="cls-1" points="96.21 261.93 95.97 261.09 95.25 260.61 94.41 260.49 80.12 264.09 79.4 264.57 79.04 265.29 79.16 266.01 106.9 334.94 107.14 335.18 109.18 336.62 109.66 336.62 110.02 336.38 110.02 335.9"/><polyline class="cls-1" points="109.18 331.7 109.42 333.86 110.02 335.9"/><polyline class="cls-1" points="109.18 331.7 109.18 279.46 109.06 278.74 108.46 278.26 107.86 278.02 103.54 278.02"/><polyline class="cls-1" points="96.21 270.7 96.45 272.62 97.17 274.42 98.37 275.86 99.81 277.06 101.61 277.78 103.54 278.02"/><line class="cls-1" x1="96.21" y1="270.7" x2="96.21" y2="261.93"/><polyline class="cls-1" points="278.86 351.87 278.86 360.88 278.98 361.6 279.58 362.08 280.18 362.32 293.51 362.32 294.23 362.08 294.83 361.6 294.95 360.88 294.95 351.75 294.83 351.15 294.23 350.55 293.51 350.43 290.99 350.43 290.27 350.55 289.79 351.15 289.55 351.75 289.55 353.55"/><polyline class="cls-1" points="286.78 353.55 286.9 354.27 287.5 354.75 288.22 354.88 288.94 354.75 289.43 354.27 289.55 353.55"/><polyline class="cls-1" points="286.78 353.55 286.78 352.59 286.54 351.75 285.94 351.27 285.1 351.15"/><polyline class="cls-1" points="280.78 350.55 282.94 351.15 285.1 351.15"/><polyline class="cls-1" points="280.78 350.55 280.18 350.43 279.46 350.67 278.98 351.15 278.86 351.87"/></g><g id="stal"><polygon class="cls-2" points="258.89 418.42 258.89 350.31 258.65 348.39 258.05 346.59 256.97 345.03 255.65 343.71 254.09 342.62 252.29 342.02 250.37 341.78 185.14 341.78 185.14 347.55 250.37 347.55 251.45 347.67 252.41 348.27 253.01 349.23 253.13 350.31 253.13 418.42 253.01 419.5 252.41 420.46 251.45 421.06 250.37 421.3 185.14 421.3 185.14 426.95 250.37 426.95 252.29 426.71 254.09 426.11 255.65 425.02 256.97 423.7 258.05 422.14 258.65 420.34 258.89 418.42"/><polygon class="cls-2" points="299.23 202.38 231.13 202.38 229.21 202.63 227.4 203.22 225.84 204.31 224.52 205.63 223.44 207.19 222.84 208.99 222.6 210.91 222.6 276.14 228.37 276.14 228.37 210.91 228.49 209.83 229.09 208.87 230.05 208.27 231.13 208.15 299.23 208.15 300.31 208.27 301.27 208.87 301.88 209.83 302.12 210.91 302.12 276.14 307.76 276.14 307.76 210.91 307.52 208.99 306.92 207.19 305.84 205.63 304.52 204.31 302.96 203.22 301.15 202.63 299.23 202.38"/></g><g id="uszczelki"><path class="cls-3" d="M324.77,328a8.54,8.54,0,0,0-3.72-4.32l-1.08-.36-.48.12-.24.36v.6l-.12.12-.25.12h-5.16l-.12-.12-.12-.24v-2.52l-.12-.48-.48-.12H311.8l-.72.24-.48.48-.24.72.6,4.08.12,4.08-.24,4.21-.72,1.56L309,337.88l-1,.36-1.08.12-1,.6-.6.84-.24,1.08v.24h-.36l-.85-.6-.36-.48-.12-.48v-9.25l.24-1.56.72-1.56,1.09-1.2,1.08-.72.48-.48.24-.6-.24-.72-.48-.6-.6-.24-.72.24-.85.48-.84.6-1.2,1.32-1,1.56-.6,1.68-.12,1.8v14.53l.12.36.48.25,11.89-.61.24-.12v-.48l-.36-1.32-.24-1.08.6-5.76.48-.36h5.17l.12.24v.6l.24.36H320l1.08-.36a8.54,8.54,0,0,0,3.72-4.32l.36-2.05Zm-1.56,3.37-.24.48-.48.24-4.33.48H317l-1.2-.48-1.08-.72-.6-1.09v-.24l.6-1.08,1.08-.72,1.2-.48h1.32l4.21.24.48.24.24.48.12,1.32Z" transform="translate(1.64 1.5)"/><path class="cls-3" d="M185.83,313.86l-.24-.6-.48-.36-.72-.24H175l-.6-.12-.48-.36-.24-.72v-.6l3-8.89,3.6-8.76,1.2-3.24.48-3.37v-3.48l-.48-.84-.72-1-.48-1.08-.12-1.08v-9.37l-.24-.72-.48-.6-.72-.12-.72.24-2,1.56-1.81,1.8-1.44,2.17-1.08,2.4-.6,2.4-.24,2.64-.36,4-.6,4.09-1.08,4-1.56,3.72-1.8,3.6-2.28,3.49-2.53,3.12-2.88,2.88-.72,1-.24,1.2v3.72l.24.85.6.48.84.12,6-1.45.48.12.24.49v4.56l-.12.36-.48.12-.6.12-.6.24-.24.48.24.6L166,327l1.32,1.44,1.56,1,1.8.48h1.92l1.8-.48,1.69-1,1.2-1.44,2.76-3.6.12-.6-.24-.48-.6-.24-.6-.12-.36-.12-.24-.36v-4.56l.24-.49.48-.12,5.52,1.21h.72l.6-.36.36-.49.12-.72Zm-14.05-20.53,1-3.84.6-4,.24-4,.24-2.28.6-2.16,1.09-2,1.32-1.81v-.48l.36-.36h.48l.36.24.12.48-.24.49-.6,5.52.24,1.56.48,1.44.84,1.44.36.84-.12,2.52-.48,2.65-.84,2.4-1.92,4.56-.36.36H175l-.24-.36-.24-.48-.84-1.32-1.56-.72-.36-.24Zm-6.72,19.57-3.36.84-.48-.12-.24-.48v-1.68l.24-.48,2.88-3.24,2.52-3.48,2.28-3.73,1.8-4,.24-.36h.48l.24.36.48,1,.72,1.2,1.2.84.24.24v.48l-3.84,11.53-.48.72-.84.36Zm10.45,11.89-.49.48-.84,1-1.2.6-1.32.24-1.32-.24-1.08-.6-1-1-.48-.48-.12-.36.12-.36.6-1.08.12-1.08v-1.68l.24-1.2.72-1,1-.72,1.2-.24,1.2.24,1,.72.72,1,.24,1.2v1.68L175,323l.49,1.08.12.36Z" transform="translate(1.64 1.5)"/><path class="cls-3" d="M124.71,241.81l-.48-.48-.6-.12-.6.24-2.76,1.92-3.13,1.45-3.24,1.08-.24.24-.12.24V256l-3,1.8h-.6l-.48-.24-.12-.6V255H107.9l-.72.12-.6.6-.12.72v1.92l.36,1,.6,1,.36,1.2v1.2l-.36,1.2-.6,1-.36,1v1.92l.12.72.6.48.72.24h1.44v-2l.12-.48.48-.36.6.12,3,1.8v20.42l.12.24.12.12h.48l.6-.24.24-.6,1.08-28,.24-.72.6-.49.85-.12,2,.37,1.56-.25,1.44-.84,1.08-1.32.6-1.44.24-1.68V242.41Zm-2.4,13.45-.12.48-.48.24h-.48l-.24-.36-.24-.72-.6-.72-.84-.24-.72.36h-.48l-.36-.24-.37-1.32.13-2.28.12-.84.6-.72.72-.48,1.08-.72,1-1,.48-1.32.24-.24H122l.24.12.12.24Z" transform="translate(1.64 1.5)"/><path class="cls-3" d="M181.39,100.23l-.6-.24-.6.24-2.88,2-3.25,1.56-3.36,1.08-.36.24-.12.36v8.64l-3,1.81h-.48l-.48-.24-.24-.6V113.2h-1.44l-.72.24-.48.48-.24.72v1.93l.36,1,.72,1,.36,1.2v1.2l-.36,1.2-.72,1-.36,1v1.92l.24.72.48.48.72.24H166v-1.92l.24-.6.48-.24h.48l3,1.8V149l.12.24h.48l.6-.24.24-.48,1.56-28.82.24-.6.48-.48.6-.24.73.12,1.44.36,1.44-.12,1.44-.6,1.08-1,.72-1.32.24-1.45V100.84Zm-2.28,14.65L179,115l-.24.13h-.12l-.12-.25-.48-1.56-.24-.36h-.48l-1.2.36h-.72l-.61-.24-.36-.48-.24-.6v-2.28l.24-.48h1.33l.12-.36-.12-.36-.24-.36.12-.36.36-.24,1-.48.72-.84.24-1.08.24-.36.36-.24.36.24.24.36Z" transform="translate(1.64 1.5)"/><polygon class="cls-3" points="312 139.93 311.76 139.32 311.16 139.09 309.96 138.72 308.88 137.88 308.28 136.8 308.04 135.6 308.04 131.4 308.16 130.8 308.64 130.44 309.24 130.2 309.72 130.44 310.2 130.8 310.32 131.4 310.44 134.64 310.68 135.24 311.28 135.36 311.76 135.12 312 134.64 312 113.15 311.76 111.35 310.92 109.78 309.36 106.78 308.04 103.42 308.04 101.86 308.28 101.26 309 101.02 309.6 101.5 311.04 103.3 312.72 104.98 314.76 106.18 314.04 106.42 313.68 107.02 313.68 148.21 313.56 148.57 313.2 148.69 312.6 148.69 312.12 148.57 312 148.21 312 139.93"/><polygon class="cls-3" points="227.94 186.88 212.21 187.48 211.73 187.36 211.25 187 211.13 186.4 211.25 185.92 211.49 185.44 212.09 185.2 227.34 182.8 230.82 182.8 231.91 183.4 232.75 184.24 233.35 185.32 233.59 186.52 233.95 192.4 228.3 192.4 229.02 188.08 229.62 188.08 230.34 187.84 230.7 187.24 230.82 186.52 230.46 185.8 229.86 185.44 229.14 185.32 228.54 185.56 228.06 186.16 227.94 186.88"/></g><g id="szklenie"><g id="LWPOLYLINE"><polyline class="cls-4" points="240.35 167.88 240.35 149.46 233.79 156.54 199.71 156.54 193.16 149.46 193.16 167.88 240.35 167.88"/></g><g id="HATCH"><line class="cls-1" x1="193.16" y1="153.55" x2="195.05" y2="151.5"/><line class="cls-1" x1="193.16" y1="159.91" x2="198" y2="154.68"/><line class="cls-1" x1="193.16" y1="166.28" x2="202.16" y2="156.54"/><line class="cls-1" x1="197.56" y1="167.88" x2="208.05" y2="156.54"/><line class="cls-1" x1="203.45" y1="167.88" x2="213.93" y2="156.54"/><line class="cls-1" x1="209.33" y1="167.88" x2="219.82" y2="156.54"/><line class="cls-1" x1="215.22" y1="167.88" x2="225.7" y2="156.54"/><line class="cls-1" x1="221.1" y1="167.88" x2="231.59" y2="156.54"/><line class="cls-1" x1="226.99" y1="167.88" x2="240.35" y2="153.44"/><line class="cls-1" x1="232.88" y1="167.88" x2="240.35" y2="159.8"/><line class="cls-1" x1="238.76" y1="167.88" x2="240.35" y2="166.16"/><line class="cls-1" x1="197.38" y1="167.88" x2="193.16" y2="163.32"/><line class="cls-1" x1="203.26" y1="167.88" x2="193.16" y2="156.96"/><line class="cls-1" x1="209.15" y1="167.88" x2="193.16" y2="150.6"/><line class="cls-1" x1="215.03" y1="167.88" x2="204.55" y2="156.54"/><line class="cls-1" x1="220.92" y1="167.88" x2="210.43" y2="156.54"/><line class="cls-1" x1="226.8" y1="167.88" x2="216.32" y2="156.54"/><line class="cls-1" x1="232.69" y1="167.88" x2="222.2" y2="156.54"/><line class="cls-1" x1="238.57" y1="167.88" x2="228.09" y2="156.54"/><line class="cls-1" x1="240.35" y1="163.44" x2="233.88" y2="156.45"/><line class="cls-1" x1="240.35" y1="157.07" x2="236.83" y2="153.26"/><line class="cls-1" x1="240.35" y1="150.71" x2="239.77" y2="150.08"/></g><g id="LWPOLYLINE-2" data-name="LWPOLYLINE"><polygon class="cls-5" points="240.35 138.12 240.35 149.46 233.79 156.54 199.72 156.54 193.16 149.46 193.16 138.12 216.41 138.12 216.75 138.35 217.1 138.12 240.35 138.12"/></g><g id="LWPOLYLINE-3" data-name="LWPOLYLINE"><polygon class="cls-5" points="237.73 140.95 237.73 148.28 232.71 153.71 200.8 153.71 195.78 148.28 195.78 140.95 237.73 140.95"/></g><g id="HATCH-2" data-name="HATCH"><polygon class="cls-6" points="195.78 140.95 195.78 148.28 200.8 153.71 232.71 153.71 237.73 148.28 237.73 140.95 195.78 140.95"/><path class="cls-5" d="M194.14,139.49h0m.16,0h0m2.08,0h0m2.09,0h0m2.08,0h0m2.08,0h0m2.08,0h0m2.08,0h0m2.08,0h0m2.08,0h0m2.08,0h0m2.08,0h0m2.08,0h0m2.08,0h0m2.09,0h0m2.08,0h0m2.08,0h0m2.08,0h0m2.08,0h0m2.08,0h0m2.08,0h0m2.08,0h0m-41.78,2.25h0m1.2,0h0m2.09,0h0m2.08,0h0m2.08,0h0m2.08,0h0m2.08,0h0m2.08,0h0m2.08,0h0m2.08,0h0m2.08,0h0m2.08,0h0m2.08,0h0m2.08,0h0m2.09,0h0m2.08,0h0m2.08,0h0m2.08,0h0m2.08,0h0m2.08,0h0m2.08,0h0M194.14,144h0m.16,0h0m2.08,0h0m2.09,0h0m2.08,0h0m2.08,0h0m2.08,0h0m2.08,0h0m2.08,0h0m2.08,0h0m2.08,0h0m2.08,0h0m2.08,0h0m2.08,0h0m2.09,0h0m2.08,0h0m2.08,0h0m2.08,0h0m2.08,0h0m2.08,0h0m2.08,0h0m2.08,0h0m-41.78,2.25h0m1.2,0h0m2.09,0h0m2.08,0h0m2.08,0h0m2.08,0h0m2.08,0h0m2.08,0h0m2.08,0h0m2.08,0h0m2.08,0h0m2.08,0h0m2.08,0h0m2.08,0h0m2.09,0h0m2.08,0h0m2.08,0h0m2.08,0h0m2.08,0h0m2.08,0h0m2.08,0h0m-39.15,2.25h0m.65,0h0m2.09,0h0m2.08,0h0m2.08,0h0m2.08,0h0m2.08,0h0m2.08,0h0m2.08,0h0m2.08,0h0m2.08,0h0m2.08,0h0m2.08,0h0m2.09,0h0m2.08,0h0m2.08,0h0m2.08,0h0m2.08,0h0m2.08,0h0m2.08,0h0m-36,2.25h0m1.7,0h0m2.08,0h0m2.08,0h0m2.08,0h0m2.08,0h0m2.08,0h0m2.08,0h0m2.08,0h0m2.08,0h0m2.08,0h0m2.08,0h0m2.09,0h0m2.08,0h0m2.08,0h0m2.08,0h0m2.08,0h0" transform="translate(1.64 1.5)"/></g><g id="LWPOLYLINE-4" data-name="LWPOLYLINE"><polyline class="cls-4" points="298.02 167.88 298.02 149.46 291.47 156.54 257.39 156.54 250.84 149.46 250.84 167.88 298.02 167.88"/></g><g id="HATCH-3" data-name="HATCH"><line class="cls-1" x1="250.84" y1="153.55" x2="252.73" y2="151.5"/><line class="cls-1" x1="250.84" y1="159.91" x2="255.67" y2="154.68"/><line class="cls-1" x1="250.84" y1="166.28" x2="259.84" y2="156.54"/><line class="cls-1" x1="255.24" y1="167.88" x2="265.72" y2="156.54"/><line class="cls-1" x1="261.12" y1="167.88" x2="271.61" y2="156.54"/><line class="cls-1" x1="267.01" y1="167.88" x2="277.49" y2="156.54"/><line class="cls-1" x1="272.89" y1="167.88" x2="283.38" y2="156.54"/><line class="cls-1" x1="278.78" y1="167.88" x2="289.27" y2="156.54"/><line class="cls-1" x1="284.66" y1="167.88" x2="298.02" y2="153.44"/><line class="cls-1" x1="290.55" y1="167.88" x2="298.02" y2="159.8"/><line class="cls-1" x1="296.44" y1="167.88" x2="298.02" y2="166.16"/><line class="cls-1" x1="255.05" y1="167.88" x2="250.84" y2="163.32"/><line class="cls-1" x1="260.94" y1="167.88" x2="250.84" y2="156.96"/><line class="cls-1" x1="266.82" y1="167.88" x2="250.84" y2="150.6"/><line class="cls-1" x1="272.71" y1="167.88" x2="262.22" y2="156.54"/><line class="cls-1" x1="278.59" y1="167.88" x2="268.11" y2="156.54"/><line class="cls-1" x1="284.48" y1="167.88" x2="273.99" y2="156.54"/><line class="cls-1" x1="290.36" y1="167.88" x2="279.88" y2="156.54"/><line class="cls-1" x1="296.25" y1="167.88" x2="285.76" y2="156.54"/><line class="cls-1" x1="298.02" y1="163.44" x2="291.56" y2="156.45"/><line class="cls-1" x1="298.02" y1="157.07" x2="294.5" y2="153.26"/><line class="cls-1" x1="298.02" y1="150.71" x2="297.45" y2="150.08"/></g><g id="LWPOLYLINE-5" data-name="LWPOLYLINE"><polygon class="cls-5" points="298.02 138.12 298.02 149.46 291.47 156.54 257.39 156.54 250.84 149.46 250.84 138.12 274.08 138.12 274.43 138.35 274.78 138.12 298.02 138.12"/></g><g id="LWPOLYLINE-6" data-name="LWPOLYLINE"><polygon class="cls-5" points="295.4 140.95 295.4 148.28 290.38 153.71 258.48 153.71 253.46 148.28 253.46 140.95 295.4 140.95"/></g><g id="HATCH-4" data-name="HATCH"><polygon class="cls-6" points="253.46 140.95 253.46 148.28 258.48 153.71 290.38 153.71 295.4 148.28 295.4 140.95 253.46 140.95"/><path class="cls-5" d="M251.82,139.49h0m.16,0h0m2.08,0h0m2.08,0h0m2.08,0h0m2.08,0h0m2.08,0h0m2.08,0h0m2.08,0h0m2.09,0h0m2.08,0h0m2.08,0h0m2.08,0h0m2.08,0h0m2.08,0h0m2.08,0h0m2.08,0h0m2.08,0h0m2.08,0h0m2.08,0h0m2.09,0h0m2.08,0h0m-41.78,2.25h0m1.2,0h0m2.08,0h0m2.08,0h0m2.08,0h0m2.08,0h0m2.08,0h0m2.08,0h0m2.09,0h0m2.08,0h0m2.08,0h0m2.08,0h0m2.08,0h0m2.08,0h0m2.08,0h0m2.08,0h0m2.08,0h0m2.08,0h0m2.08,0h0m2.08,0h0m2.09,0h0M251.82,144h0m.16,0h0m2.08,0h0m2.08,0h0m2.08,0h0m2.08,0h0m2.08,0h0m2.08,0h0m2.08,0h0m2.09,0h0m2.08,0h0m2.08,0h0m2.08,0h0m2.08,0h0m2.08,0h0m2.08,0h0m2.08,0h0m2.08,0h0m2.08,0h0m2.08,0h0m2.09,0h0m2.08,0h0m-41.78,2.25h0m1.2,0h0m2.08,0h0m2.08,0h0m2.08,0h0m2.08,0h0m2.08,0h0m2.08,0h0m2.09,0h0m2.08,0h0m2.08,0h0m2.08,0h0m2.08,0h0m2.08,0h0m2.08,0h0m2.08,0h0m2.08,0h0m2.08,0h0m2.08,0h0m2.08,0h0m2.09,0h0m-39.16,2.25h0m.66,0h0m2.08,0h0m2.08,0h0m2.08,0h0m2.08,0h0m2.08,0h0m2.08,0h0m2.09,0h0m2.08,0h0m2.08,0h0m2.08,0h0m2.08,0h0m2.08,0h0m2.08,0h0m2.08,0h0m2.08,0h0m2.08,0h0m2.08,0h0m2.09,0h0m-36,2.25h0m1.7,0h0m2.08,0h0m2.08,0h0m2.08,0h0m2.08,0h0m2.09,0h0m2.08,0h0m2.08,0h0m2.08,0h0m2.08,0h0m2.08,0h0m2.08,0h0m2.08,0h0m2.08,0h0m2.08,0h0m2.08,0h0" transform="translate(1.64 1.5)"/></g><g id="LWPOLYLINE-7" data-name="LWPOLYLINE"><rect class="cls-7" x="182.67" y="71.29" width="10.49" height="96.59"/></g><g id="LWPOLYLINE-8" data-name="LWPOLYLINE"><rect class="cls-7" x="240.35" y="71.29" width="10.49" height="96.59"/></g><g id="LWPOLYLINE-9" data-name="LWPOLYLINE"><rect class="cls-7" x="298.02" y="71.29" width="10.49" height="96.59"/></g><line class="cls-1" x1="261.87" y1="71.17" x2="229.78" y2="71.17"/><line class="cls-1" x1="217.24" y1="71.17" x2="217.34" y2="71.29"/><line class="cls-1" x1="204.69" y1="71.17" x2="172.7" y2="71.17"/><line class="cls-1" x1="318.85" y1="71.17" x2="286.75" y2="71.17"/><line class="cls-1" x1="274.21" y1="71.17" x2="274.31" y2="71.29"/><line class="cls-1" x1="261.66" y1="71.17" x2="229.68" y2="71.17"/><rect class="cls-8" x="177.63" y="168.03" width="136.05" height="8.53"/><polyline class="cls-1" points="177.63 176.55 177.63 168.03 313.68 168.03 177.63 176.55 313.68 176.55 177.63 168.03 313.68 168.03 313.68 176.55"/></g><g id="podkładka"><path class="cls-5" d="M171.66,175.65h11.89l5.76-5.77H246l5,5.17,65.32.6v5.64h6.85l.72,2.76-2.64,5.77s-10.69.47-10.69,0v-8.53H290.79v8.53h-5.65v-8.53H262.45v8.53H256.8v-8.53H239.75v8.53h-5.64v-8.53H205.77v9.61l-5.77.6V181.29h-6.79l-3.9,3.18v8.23l-5.76.6v-8.05H171.9S168.29,181.59,171.66,175.65Z" transform="translate(1.64 1.5)"/><line class="cls-1" x1="314.52" y1="176.55" x2="314.52" y2="177.15"/><polyline class="cls-1" points="315.12 177.15 315 176.67 314.52 176.55"/><line class="cls-1" x1="190.96" y1="171.39" x2="185.19" y2="177.15"/><polyline class="cls-1" points="253.28 179.91 253.28 177.15 247.64 171.39"/><line class="cls-1" x1="185.19" y1="177.15" x2="185.19" y2="194.8"/><path class="cls-1" d="M246,169.88H189.31m62.33,8.53H183.55" transform="translate(1.64 1.5)"/><polyline class="cls-1" points="253.28 177.15 318 177.15 318 191.32 312.24 191.32 312.24 182.8 292.43 182.8 292.43 191.32 286.78 191.32 286.78 182.8 264.09 182.8 264.09 191.32 258.44 191.32 258.44 182.8 241.39 182.8 241.39 191.32 235.75 191.32 235.75 182.8 207.41 182.8 207.41 192.4 201.64 193 201.64 182.8 190.96 182.8 190.96 194.2 185.19 194.8"/><line class="cls-1" x1="184.11" y1="177.15" x2="181.47" y2="177.15"/><line class="cls-1" x1="184.11" y1="186.76" x2="173.54" y2="186.76"/><path class="cls-1" d="M316.36,181.29h6.85m-140.74,4h1.08m10-4-4.21,3.48m-17.41-9.12h7.93" transform="translate(1.64 1.5)"/><polyline class="cls-1" points="322.93 191.32 325.57 185.56 324.85 182.8"/><line class="cls-1" x1="322.93" y1="191.32" x2="318.01" y2="191.32"/><polyline class="cls-1" points="184.11 186.76 184.11 177.15 185.19 177.15"/><line class="cls-1" x1="252.68" y1="176.55" x2="314.52" y2="176.55"/><polyline class="cls-1" points="173.54 186.76 173.43 186.76 173.31 186.64 173.18 186.64 173.06 186.52 172.94 186.4 172.94 186.28 172.82 186.16 172.7 185.92 172.58 185.8 172.46 185.56 172.46 185.44 172.34 185.2 172.22 184.96 172.22 184.72 172.1 184.48 172.1 183.88 171.98 183.64 171.98 182.8 171.86 182.56 171.86 181.35 171.98 181.11 171.98 180.27 172.1 179.91 172.1 179.43 172.22 179.19 172.22 178.95 172.34 178.71 172.46 178.47 172.46 178.23 172.58 178.11 172.7 177.87 172.82 177.75 172.82 177.51 172.94 177.39 173.06 177.27 173.18 177.27 173.31 177.15 173.54 177.15"/><polyline class="cls-1" points="181.47 186.76 181.35 186.76 181.23 186.64 181.11 186.64 180.99 186.52 180.87 186.4 180.75 186.28 180.63 186.16 180.63 185.92 180.51 185.8 180.39 185.56 180.27 185.44 180.27 185.2 180.15 184.96 180.15 184.72 180.03 184.48 180.03 184.12 179.91 183.88 179.91 183.4 179.79 183.04 179.79 180.75 179.91 180.51 179.91 179.91 180.03 179.67 180.03 179.43 180.15 179.19 180.15 178.95 180.27 178.71 180.27 178.47 180.39 178.23 180.51 178.11 180.63 177.87 180.63 177.75 180.75 177.51 180.87 177.39 180.99 177.27 181.11 177.27 181.23 177.15 181.47 177.15"/></g><g id="wymiary"><line class="cls-9" x1="169.67" y1="106.06" x2="10.21" y2="106.06"/><line class="cls-9" x1="69.88" y1="455.01" x2="10.15" y2="455.01"/><line class="cls-9" x1="113.41" y1="247.94" x2="38.61" y2="247.94"/><line class="cls-9" x1="41.39" y1="256.53" x2="41.39" y2="446.53"/><polygon class="cls-10" points="40.04 256.54 42.86 256.54 41.39 247.94 40.04 256.54"/><polygon class="cls-10" points="42.86 446.53 40.04 446.53 41.39 455.01 42.86 446.53"/><text class="cls-11" transform="translate(38.39 356.15) rotate(-90)">73</text><line class="cls-9" x1="13.04" y1="114.54" x2="13.04" y2="446.53"/><polygon class="cls-10" points="11.58 114.54 14.4 114.54 13.04 106.06 11.58 114.54"/><polygon class="cls-10" points="14.4 446.53 11.58 446.53 13.04 455.01 14.4 446.53"/><text class="cls-11" transform="translate(10.04 287.47) rotate(-90)">123</text><line class="cls-9" x1="41.39" y1="114.54" x2="41.39" y2="239.47"/><polygon class="cls-10" points="40.04 114.54 42.86 114.54 41.39 106.06 40.04 114.54"/><polygon class="cls-10" points="42.86 239.47 40.04 239.47 41.39 247.94 42.86 239.47"/><text class="cls-11" transform="translate(38.39 181.62) rotate(-90)">50</text><line class="cls-9" x1="69.88" y1="455.01" x2="69.88" y2="486.27"/><line class="cls-9" x1="302.39" y1="455.01" x2="302.39" y2="486.27"/><line class="cls-9" x1="78.36" y1="483.5" x2="293.92" y2="483.5"/><polygon class="cls-10" points="78.36 484.85 78.36 482.03 69.88 483.5 78.36 484.85"/><polygon class="cls-10" points="293.92 482.03 293.92 484.85 302.39 483.5 293.92 482.03"/><text class="cls-11" transform="translate(181.52 480.5)">82</text><line class="cls-9" x1="302.44" y1="455.01" x2="418.6" y2="455.01"/><line class="cls-9" x1="313.68" y1="168.11" x2="418.6" y2="168.11"/><line class="cls-9" x1="357.74" y1="347.25" x2="390.25" y2="347.25"/><line class="cls-9" x1="358.01" y1="182.23" x2="390.19" y2="182.23"/><line class="cls-9" x1="387.36" y1="355.84" x2="387.36" y2="446.53"/><polygon class="cls-10" points="386 355.84 388.83 355.84 387.36 347.25 386 355.84"/><polygon class="cls-10" points="388.77 446.53 385.94 446.53 387.3 455.01 388.77 446.53"/><text class="cls-11" transform="translate(384.36 405.81) rotate(-90)">38</text><line class="cls-9" x1="415.7" y1="446.53" x2="415.7" y2="176.58"/><polygon class="cls-10" points="417.12 446.53 414.29 446.53 415.65 455.01 417.12 446.53"/><polygon class="cls-10" points="414.35 176.58 417.18 176.58 415.7 168.11 414.35 176.58"/><text class="cls-11" transform="translate(412.7 313.07) rotate(-90)">101</text><line class="cls-9" x1="387.36" y1="338.78" x2="387.36" y2="180"/><polygon class="cls-10" points="388.83 338.78 386 338.78 387.36 347.25 388.83 338.78"/><polygon class="cls-10" points="386 190.82 388.83 190.82 387.36 182.24 386 190.82"/><text class="cls-11" transform="translate(384.36 264.01) rotate(-90)">58</text><line class="cls-9" x1="387.36" y1="182.23" x2="387.36" y2="168.11"/><line class="cls-9" x1="387.36" y1="159.86" x2="387.36" y2="151.38"/><polygon class="cls-10" points="388.83 159.86 386 159.86 387.36 168.34 388.83 159.86"/><text class="cls-11" transform="translate(384.36 177.48) rotate(-90)">5</text><line class="cls-9" x1="359.07" y1="182.8" x2="359.07" y2="40.02"/><line class="cls-9" x1="126.47" y1="117.46" x2="126.47" y2="40.12"/><line class="cls-9" x1="134.95" y1="43.02" x2="350.48" y2="43.02"/><polygon class="cls-10" points="134.95 44.37 134.95 41.54 126.47 43.01 134.95 44.37"/><polygon class="cls-10" points="350.48 41.54 350.48 44.37 359.07 43.01 350.48 41.54"/><text class="cls-11" transform="translate(238.1 40.02)">82</text><line class="cls-9" x1="268.96" y1="324.57" x2="223" y2="324.57"/><line class="cls-9" x1="238.02" y1="290.51" x2="223" y2="290.51"/><line class="cls-9" x1="225.83" y1="299.03" x2="225.83" y2="316.1"/><polygon class="cls-10" points="224.37 299.03 227.19 299.03 225.84 290.55 224.37 299.03"/><polygon class="cls-10" points="227.19 316.1 224.37 316.1 225.84 324.57 227.19 316.1"/><text class="cls-11" transform="translate(222.83 312.19) rotate(-90)">12</text><line class="cls-9" x1="359.07" y1="402.8" x2="359.07" y2="10.02"/><line class="cls-9" x1="69.63" y1="359.15" x2="69.63" y2="10.12"/><line class="cls-9" x1="77.45" y1="13.04" x2="350.83" y2="13.04"/><polygon class="cls-10" points="78.11 14.37 78.11 11.54 69.63 13.01 78.11 14.37"/><polygon class="cls-10" points="350.48 11.54 350.48 14.37 359.07 13.01 350.48 11.54"/><text class="cls-11" transform="translate(207.21 10.04)">102</text></g></svg>